<?xml version="1.0" encoding="UTF-8"?>
<svg xmlns="http://www.w3.org/2000/svg" version="1.1" viewBox="0 0 220 206">
  <!-- Generator: Adobe Illustrator 28.7.10, SVG Export Plug-In . SVG Version: 1.2.0 Build 236)  -->
  <g>
    <g id="Layer_1">
      <g>
        <g>
          <path d="M57.652,108.265c2.018,1.061,3.878,1.431,5.641,2.057,14.072,4.998,28.155,9.963,42.231,14.95,2.346.831,4.654.84,6.985-.067,1.559-.606,3.142-1.156,4.734-1.668,1.454-.468,2.593-.014,3.068,1.125.528,1.266.032,2.633-1.348,3.215-2.855,1.206-5.782,2.235-8.852,2.733-1.63.264-3.258.003-4.829-.506-8.159-2.645-16.185-5.669-24.283-8.487-3.911-1.361-7.821-2.726-11.717-4.13-1.001-.361-1.346-.146-1.34.942.032,5.816.038,11.632,0,17.448-.008,1.124.537,1.757,1.374,2.343,4.006,2.806,8.537,4.401,13.189,5.682,7.74,2.131,15.636,3.133,23.663,3.361,3.394.096,6.767-.194,10.152-.115,1.673.039,2.695.771,2.739,2.085.051,1.505-.912,2.422-2.658,2.533-13.061.824-25.898-.346-38.429-4.285-3.127-.983-6.114-2.283-8.944-3.927-.847-.492-1.033-.313-1.084.611-.08,1.445.59,2.493,1.562,3.41,2.276,2.149,5.108,3.337,7.974,4.385,6.686,2.445,13.65,3.615,20.712,4.254,4,.362,8.013.553,12.027.471,10.712-.219,21.296-1.311,31.389-5.224,2.531-.981,4.993-2.163,6.962-4.144.916-.922,1.312-1.99,1.255-3.285-.036-.834-.278-.922-.975-.522-2.802,1.607-5.759,2.88-8.813,3.926-.555.19-1.119.348-1.716.333-1.145-.029-1.911-.581-2.212-1.684-.304-1.113.117-1.985,1.077-2.565.423-.255.919-.399,1.393-.559,3.384-1.137,6.631-2.552,9.635-4.511,1.106-.721,1.669-1.541,1.648-2.954-.081-5.606-.033-11.213-.042-16.82-.002-1.565-.052-1.606-1.569-1.084-2.848.98-5.673,2.026-8.533,2.967-1.435.472-2.522-.06-3.006-1.271-.488-1.222.04-2.448,1.355-3.112.298-.15.614-.268.929-.378,4.424-1.543,8.854-3.069,13.274-4.624,11.365-3.997,22.727-8.004,34.087-12.014.543-.192,1.223-.335,1.275-1.044.062-.852-.741-.933-1.292-1.129-7.686-2.731-15.383-5.433-23.073-8.153-15.696-5.553-31.388-11.115-47.084-16.666-1.695-.6-3.392-1.205-5.115-1.714-1.597-.472-3.22-.452-4.813.112-11.75,4.16-23.501,8.319-35.251,12.477-.67.237-1.337.49-2.019.687-1.291.373-2.422-.156-2.884-1.312-.494-1.234-.063-2.468,1.197-3.04,1.216-.551,2.487-.987,3.748-1.433,11.281-3.985,22.567-7.955,33.846-11.943,3.085-1.091,6.076-.701,9.079.37,8.864,3.16,17.741,6.284,26.615,9.417,15.778,5.571,31.556,11.139,47.336,16.704,1.794.633,3.345,1.559,4.139,3.393,1.16,2.678.06,5.753-2.559,7.04-2.561,1.259-5.318,2.009-7.996,2.962-8.039,2.862-16.092,5.688-24.131,8.549-2.749.978-2.737,1.007-2.738,3.989-.001,8.243-.142,16.489.052,24.728.1,4.231-1.81,7.087-5.018,9.366-3.845,2.732-8.22,4.27-12.727,5.476-8.042,2.151-16.241,3.079-24.55,3.363-9.204.314-18.302-.497-27.298-2.326-5.876-1.195-11.617-2.902-16.685-6.306-1.509-1.013-2.796-2.251-3.826-3.757-.975-1.426-1.445-2.977-1.441-4.716.022-9.038-.015-18.076.038-27.114.008-1.284-.334-1.96-1.607-2.372-3.103-1.004-6.157-2.161-9.235-3.242-1.327-.466-1.383-.426-1.37,1.043.053,6.023-.146,12.047.146,18.069.041.85.309,1.357,1.075,1.778,3.868,2.131,4.904,7.255,2.166,10.694-.464.583-.596,1.102-.48,1.825,1.254,7.803,2.474,15.612,3.708,23.419.452,2.856-.554,4.734-3.273,5.71-3.89,1.396-7.803,1.357-11.647-.214-2.408-.984-3.352-2.741-2.946-5.301,1.23-7.766,2.456-15.532,3.722-23.292.146-.895.019-1.584-.537-2.321-2.602-3.452-1.587-8.36,2.213-10.502.949-.535,1.249-1.132,1.243-2.173-.04-6.444-.053-12.888.009-19.331.012-1.202-.454-1.659-1.515-2.025-5.18-1.786-10.336-3.644-15.494-5.495-1.759-.631-3.213-1.62-3.806-3.528-.91-2.929.393-5.936,3.287-6.994,5.892-2.153,11.831-4.182,17.763-6.223,1.4-.482,2.58.128,3.042,1.41.441,1.225-.129,2.508-1.514,3.012-4.127,1.501-8.279,2.933-12.421,4.392-1.46.514-2.927,1.008-4.375,1.552-.486.183-1.145.304-1.172.978-.03.753.669.911,1.193,1.101,4.014,1.448,8.09,2.738,12.043,4.334,3.262,1.317,6.41,1.461,9.872.793,10.963-2.116,21.979-3.959,32.976-5.901,3.707-.655,7.414-1.306,11.127-1.922.888-.147,1.477-.472,1.899-1.352.752-1.569,2.1-2.596,3.698-3.235,3.987-1.594,7.988-1.67,11.962.051,1.534.664,2.804,1.658,3.573,3.195,1.158,2.312.522,4.937-1.57,6.468-4.415,3.232-11.51,3.295-15.931.054-.869-.637-1.632-.74-2.653-.558-12.969,2.312-25.947,4.578-38.922,6.859-.48.084-.954.199-1.775.372ZM48.869,170.294c.602.021,1.382-.098,2.163-.257,1.956-.398,2.004-.502,1.675-2.504-.812-4.942-1.59-9.89-2.384-14.836-.311-1.937-.626-3.873-.94-5.81-.068-.417-.101-.882-.689-.857-.529.023-.663.431-.742.862-.03.164-.045.331-.072.496-.998,6.308-1.997,12.616-2.996,18.923-.554,3.501-.217,3.894,3.411,3.981.125.003.251,0,.573,0ZM109.483,99.269c1.018.069,2.31-.228,3.522-.837.5-.252,1.203-.446,1.153-1.155-.042-.599-.661-.842-1.147-1.044-2.888-1.196-5.763-1.13-8.593.203-.364.172-.83.359-.853.832-.026.539.465.755.858.972,1.466.81,3.069,1.014,5.06,1.028ZM51.116,138.789c.052-1.317-1.082-2.54-2.375-2.56-1.33-.02-2.467,1.091-2.507,2.45-.036,1.242,1.073,2.409,2.345,2.467,1.399.063,2.48-.941,2.536-2.357Z"/>
          <path d="M171.016,57.806c-.01.902-.228,1.527-.704,2.037-2.425,2.595-4.837,5.203-7.298,7.764-.975,1.014-2.361,1.068-3.276.268-1.006-.881-1.209-2.272-.229-3.354,2.497-2.754,5.082-5.429,7.671-8.097.701-.722,1.636-.838,2.56-.415.832.381,1.219,1.101,1.275,1.798Z"/>
          <path d="M170.367,78.16c-1.095.032-2.135-.788-2.366-1.908-.246-1.191.293-2.084,1.333-2.557,1.365-.62,2.788-1.117,4.203-1.622,1.375-.491,2.754-.987,4.163-1.365,1.292-.346,2.336.28,2.79,1.501.411,1.105.011,2.341-1.192,2.812-2.835,1.108-5.728,2.068-8.599,3.083-.116.041-.246.042-.331.056Z"/>
          <path d="M149.371,62.648c-1.423.025-2.612-1.241-2.26-2.798.635-2.803,1.378-5.586,2.181-8.346.367-1.261,1.642-1.876,2.764-1.563,1.207.336,1.953,1.513,1.647,2.834-.622,2.68-1.292,5.349-2.007,8.005-.287,1.068-.923,1.879-2.325,1.869Z"/>
          <path d="M126.203,150.759c-1.744.011-2.749-.77-2.897-1.948-.156-1.249.512-2.262,1.845-2.585,1.335-.323,2.692-.58,4.053-.769,1.4-.195,2.427.537,2.728,1.807.271,1.142-.388,2.318-1.697,2.674-1.443.393-2.934.605-4.032.822Z"/>
          <path d="M61.963,84.775c-.057.789-.48,1.54-1.372,1.897-1.275.511-2.569.983-3.879,1.391-1.276.397-2.398-.144-2.893-1.284-.454-1.049-.074-2.267,1.051-2.886,1.388-.764,2.89-1.308,4.432-1.659,1.431-.326,2.703.88,2.661,2.542Z"/>
          <path d="M132.688,121.386c-.08.999-.56,1.717-1.475,2.151-1.287.61-2.652.999-4.02,1.358-1.186.311-2.125-.179-2.582-1.201-.458-1.028-.182-2.286.815-2.874,1.477-.872,3.103-1.459,4.8-1.699,1.306-.185,2.466.98,2.46,2.265Z"/>
          <path d="M175.071,54.059c-.981-.138-1.753-.504-2.189-1.359-.415-.814-.382-1.671.204-2.353.92-1.071,1.883-2.123,2.94-3.055.868-.765,1.94-.775,2.879-.053.867.667,1.079,1.656.614,2.588-.831,1.667-2.192,2.912-3.676,4.005-.217.16-.549.165-.773.227Z"/>
        </g>
        <path d="M47.037,78.826c-.765,0-1.512-.378-1.947-1.068-1.126-1.764-2.327-3.473-3.57-5.083-.747-.968-.757-2.387.138-3.221,1.006-.937,2.579-.801,3.401.263,1.35,1.73,2.644,3.571,3.862,5.472.453.707.557,1.619.173,2.365-.447.869-1.28,1.276-2.053,1.276l-.004-.004Z"/>
        <path d="M70.247,65.929c-.453,0-.852-.272-1.015-.699l-1.305-3.41c-.132-.347-.382-.642-.707-.831l-1.881-1.085c-.36-.211-.58-.584-.58-1.002s.215-.791.58-1.002l1.881-1.09c.325-.189.576-.483.707-.831l1.305-3.41c.163-.426.562-.699,1.015-.699s.852.272,1.015.699l1.305,3.406c.132.347.382.642.707.831l1.885,1.09c.36.211.58.584.58,1.002s-.215.791-.58,1.002l-1.881,1.085c-.325.189-.576.483-.707.831l-1.305,3.41c-.163.426-.562.699-1.015.699l-.004.004Z"/>
        <path d="M28.432,64.641h-2.916c-1.223,0-2.35-.879-2.457-2.097-.121-1.369.954-2.517,2.298-2.517h2.916c1.223,0,2.35.879,2.457,2.097.121,1.369-.954,2.517-2.298,2.517Z"/>
        <path d="M41.614,64.641h-2.916c-1.223,0-2.35-.879-2.457-2.097-.121-1.369.954-2.517,2.298-2.517h2.916c1.223,0,2.35.879,2.457,2.097.121,1.369-.954,2.517-2.298,2.517Z"/>
        <path d="M33.275,72.761c-1.219-.107-2.097-1.234-2.097-2.457v-2.757c0-1.223.879-2.35,2.097-2.457,1.369-.121,2.517.954,2.517,2.298v3.076c0,1.344-1.148,2.418-2.517,2.298Z"/>
        <path d="M33.69,51.881c1.218.107,2.097,1.234,2.097,2.457v2.757c0,1.223-.879,2.35-2.097,2.457-1.369.121-2.517-.954-2.517-2.298v-3.076c0-1.344,1.148-2.418,2.517-2.298Z"/>
        <path d="M51.334,45.755c-4.087,0-7.413-3.326-7.413-7.413s3.326-7.413,7.413-7.413,7.413,3.326,7.413,7.413-3.326,7.413-7.413,7.413ZM51.334,35.551c-1.542,0-2.795,1.252-2.795,2.795s1.252,2.795,2.795,2.795,2.795-1.252,2.795-2.795-1.252-2.795-2.795-2.795Z"/>
        <path d="M171.016,158.172c-4.087,0-7.413-3.326-7.413-7.413s3.326-7.413,7.413-7.413,7.413,3.326,7.413,7.413-3.326,7.413-7.413,7.413ZM171.016,147.969c-1.542,0-2.795,1.252-2.795,2.795s1.252,2.795,2.795,2.795,2.795-1.252,2.795-2.795-1.252-2.795-2.795-2.795Z"/>
        <path d="M167.506,121.872c.286.07.562.197.811.381,2.391,1.76,5.346,2.809,8.319,2.975,1.267.036,2.247,1.15,2.177,2.427-.069,1.273-1.155,2.246-2.427,2.177-3.851-.201-7.685-1.579-10.798-3.861-1.027-.755-1.246-2.198-.496-3.226.571-.774,1.532-1.094,2.411-.877l.003.005Z"/>
        <path d="M190.215,137.463c-.558,0-1.046-.338-1.248-.857l-1.6-4.183c-.163-.426-.47-.791-.87-1.019l-2.311-1.336c-.444-.255-.712-.716-.712-1.23s.264-.976.712-1.23l2.311-1.336c.395-.229.703-.593.87-1.019l1.6-4.183c.198-.523.69-.857,1.248-.857s1.046.338,1.248.857l1.6,4.183c.163.426.47.791.866,1.019l2.311,1.336c.444.259.712.716.712,1.23s-.264.976-.712,1.23l-2.311,1.336c-.4.229-.707.593-.87,1.019l-1.6,4.183c-.198.523-.69.857-1.248.857h.004Z"/>
        <circle cx="192.518" cy="152.947" r="2.188"/>
      </g>
    </g>
  </g>
</svg>