<?xml version="1.0" encoding="UTF-8"?>
<svg xmlns="http://www.w3.org/2000/svg" version="1.1" viewBox="0 0 220 206">
  <!-- Generator: Adobe Illustrator 28.7.10, SVG Export Plug-In . SVG Version: 1.2.0 Build 236)  -->
  <g>
    <g id="Layer_1">
      <g>
        <g>
          <path d="M53.252,120.622c-9.523,0-17.27-7.747-17.27-17.27s7.747-17.27,17.27-17.27,17.27,7.747,17.27,17.27-7.747,17.27-17.27,17.27ZM53.252,91.082c-6.766,0-12.27,5.504-12.27,12.27s5.504,12.27,12.27,12.27,12.27-5.504,12.27-12.27-5.504-12.27-12.27-12.27Z"/>
          <g>
            <path d="M166.747,120.622c-9.523,0-17.27-7.747-17.27-17.27s7.747-17.27,17.27-17.27,17.27,7.747,17.27,17.27-7.747,17.27-17.27,17.27ZM166.747,91.082c-6.766,0-12.27,5.504-12.27,12.27s5.504,12.27,12.27,12.27,12.27-5.504,12.27-12.27-5.504-12.27-12.27-12.27Z"/>
            <g>
              <path d="M172.169,162.313h-27.41c-.565,0-1.024-.458-1.024-1.024v-22.99c0-5.72,3.881-10.387,8.689-10.502,1.349-.032,2.575-.967,2.675-2.313.108-1.467-1.049-2.69-2.493-2.69-7.648,0-13.871,6.955-13.871,15.504v22.99c0,3.327,2.697,6.024,6.024,6.024h27.408c1.333,0,2.399-1.057,2.465-2.388,0-.018.002-.036.003-.053.085-1.397-1.067-2.558-2.466-2.558Z"/>
              <path d="M180.89,122.794c-1.444,0-2.601,1.223-2.493,2.69.099,1.346,1.326,2.28,2.675,2.313,4.807.115,8.687,4.781,8.687,10.5v22.993c0,.565-.458,1.024-1.024,1.024h-3.572c-1.398,0-2.551,1.16-2.466,2.556.001.018.002.036.003.053.066,1.332,1.131,2.391,2.465,2.391h3.57c3.327,0,6.024-2.697,6.024-6.024v-22.993c0-8.548-6.222-15.502-13.869-15.502Z"/>
            </g>
            <g>
              <path d="M27.783,145.778c.01,0,.02,0,.03,0,1.323.008,2.428-.988,2.428-2.312v-5.168c0-5.72,3.881-10.387,8.689-10.502,1.349-.032,2.575-.967,2.675-2.313.108-1.467-1.049-2.69-2.493-2.69-7.648,0-13.871,6.955-13.871,15.504v5.172c0,1.327,1.108,2.337,2.434,2.308.036,0,.071-.001.108-.001Z"/>
              <path d="M67.396,122.794c-1.444,0-2.601,1.223-2.493,2.69.099,1.346,1.326,2.28,2.675,2.313,4.807.115,8.687,4.781,8.687,10.5v22.993c0,.565-.458,1.024-1.024,1.024H31.265c-.565,0-1.024-.458-1.024-1.024v-4.824c0-1.323-1.105-2.319-2.428-2.312-.01,0-.02,0-.03,0-.036,0-.072,0-.108-.001-1.326-.028-2.433.982-2.433,2.308v4.828c0,3.327,2.697,6.024,6.024,6.024h43.976c3.327,0,6.024-2.697,6.024-6.024v-22.993c0-8.548-6.222-15.502-13.869-15.502Z"/>
            </g>
          </g>
        </g>
        <g>
          <g>
            <g>
              <path d="M108.541,137.476c-5.457,0-10.931-.299-16.387-.896-4.384-.499-7.917-3.954-8.412-8.218-1.052-7.629-1.052-15.366.007-22.942.489-4.269,4.032-7.744,8.417-8.202.097-.012.195-.024.294-.036v-1.145c0-2.042,1.131-3.888,2.958-4.836,1.699-.967,4.009-.875,5.769.382l6.607,4.733c5.778-.035,11.524.279,17.08.947,4.078.447,7.431,3.601,8.317,7.845.029.142.046.284.051.426,1.555,8.03,1.526,15.9-.087,23.399-.885,4.127-4.237,7.201-8.342,7.646-5.378.597-10.816.895-16.272.896ZM98.002,95.532c-.028,0-.088.002-.114.018-.051.03-.104.059-.157.085-.167.083-.271.238-.271.403v3.414c0,1.296-.991,2.378-2.283,2.491-.843.073-1.642.143-2.441.242-2.089.219-3.798,1.879-4.026,3.867-1.003,7.181-1.003,14.455-.007,21.681.236,2.032,1.918,3.641,4.006,3.878,10.538,1.153,21.159,1.153,31.56,0,1.962-.213,3.567-1.71,3.999-3.726,1.496-6.954,1.493-14.279-.007-21.774-.021-.102-.035-.205-.042-.307-.533-1.952-2.07-3.371-3.915-3.572-5.626-.676-11.426-.98-17.27-.906-.528,0-1.054-.158-1.487-.468l-7.268-5.206c-.116-.083-.239-.117-.276-.119Z"/>
              <path d="M100.569,112.426c-.654,0-2.057,0-2.057-1.814,0-1.572,1.16-1.767,1.984-1.791.508,0,2.709.024,3.17.024.024-.944.047-1.28.169-1.645.12-.412.532-.967,1.668-.967,2.104,0,2.033,1.21,1.984,2.565,3.047-.073,3.92-.097,5.539-.193.508-.026,3.219-.169,3.774-.169.461,0,1.936,0,1.936,1.789,0,.92-.412,1.598-1.379,1.743-1.428.193-8.104.339-10.064.386-.026.727-.026.944-.049,1.259.412-.049,1.452-.193,2.807-.193,3.749,0,5.516.944,6.652,1.789,2.322,1.767,2.711,4.066,2.711,5.661,0,6.315-6.049,7.233-8.419,7.233-1.548,0-1.936-.918-1.936-1.791,0-1.523.896-1.596,1.96-1.692,2.443-.193,4.499-1.016,4.499-3.92,0-1.426-.508-2.177-.918-2.612-.678-.727-1.405-.944-1.913-1.089-1.014,2.516-2.659,5.153-4.111,6.702.12.219.313.605.313,1.089,0,.871-.821,1.862-1.958,1.862-.678,0-.969-.29-1.162-.506-.532.362-1.864,1.257-3.581,1.257-2.612,0-4.257-2.129-4.257-4.984,0-3.944,2.734-6.436,5.589-7.765,0-.339.024-1.911.024-2.226h-2.975ZM103.52,118.304c-2.153,1.598-2.153,3.581-2.153,3.993,0,.266,0,1.741,1.282,1.741.483,0,1.186-.386,1.692-.774-.506-1.668-.749-3.581-.821-4.96ZM109.228,116.466c-.821,0-1.257.024-2.057.219-.047,1.379.049,2.37.169,3.363.8-1.089,1.308-2.153,1.887-3.581Z"/>
            </g>
            <g>
              <path d="M134.919,85.631c-1.101,0-2.231-.374-3.181-1.052l-6.606-4.732c-5.774.033-11.524-.279-17.08-.947-4.078-.447-7.431-3.601-8.316-7.845-.029-.141-.046-.284-.051-.426-1.556-8.03-1.527-15.9.087-23.399.884-4.128,4.237-7.202,8.342-7.646,10.756-1.194,21.747-1.194,32.658,0,4.384.499,7.917,3.954,8.412,8.218,1.053,7.629,1.052,15.366-.007,22.942-.489,4.268-4.032,7.743-8.416,8.202-.097.012-.195.024-.294.036v1.144c0,2.042-1.131,3.887-2.958,4.836-.781.445-1.652.67-2.59.67ZM125.924,74.839c.522,0,1.031.164,1.456.468l7.268,5.206c.116.083.238.116.276.119.022,0,.088-.001.114-.017.051-.03.103-.058.156-.085.168-.084.272-.239.272-.404v-3.414c0-1.296.991-2.378,2.283-2.491.843-.073,1.642-.143,2.441-.242,2.089-.219,3.798-1.879,4.026-3.867,1.004-7.181,1.004-14.455.007-21.681-.236-2.032-1.918-3.641-4.006-3.878-10.538-1.153-21.16-1.153-31.559,0-1.962.212-3.567,1.709-3.999,3.726-1.496,6.954-1.494,14.279.007,21.774.021.102.035.205.042.308.532,1.952,2.07,3.37,3.914,3.572,5.626.676,11.428.98,17.271.906h.031Z"/>
              <path d="M116.321,69.567c1.002,0,1.462-.752,1.754-1.504l1.002-2.881h8.227l1.002,2.881c.25.71.752,1.504,1.671,1.504h.125c.794,0,3.007-.501,3.007-2.129,0-.417-.209-1.002-.209-1.002l-5.471-15.242c-.96-2.715-2.631-3.132-4.218-3.132-2.255,0-3.424,1.127-4.134,3.132l-5.471,15.242c-.209.626-.209.96-.209,1.127,0,1.252,1.837,2.004,2.923,2.004ZM122.543,55.327c.21-.543.418-.71.627-.71.126,0,.335,0,.585.71l2.088,5.763h-5.346l2.046-5.763Z"/>
            </g>
          </g>
          <g>
            <g>
              <path d="M88.033,95.233c-.828,0-1.638-.411-2.114-1.162-1.816-2.867-2.361-6.094-1.535-9.087.687-2.486,2.664-6.033,8.182-8.813,1.231-.624,2.736-.126,3.357,1.107.622,1.233.125,2.736-1.107,3.357-3.072,1.548-5.013,3.512-5.612,5.68-.572,2.071.194,3.905.938,5.079.739,1.167.393,2.711-.773,3.45-.415.263-.878.389-1.336.389Z"/>
              <path d="M96.021,85.593c-.037,0-.073,0-.109-.002-1.38-.06-2.45-1.226-2.39-2.605l.221-5.137-5.028-.217c-1.379-.059-2.45-1.226-2.39-2.605.059-1.38,1.241-2.467,2.605-2.39l7.526.324c.663.028,1.287.319,1.735.808.448.488.684,1.135.655,1.797l-.329,7.635c-.058,1.342-1.165,2.392-2.496,2.392Z"/>
            </g>
            <g>
              <path d="M139.237,99.92c-.914,0-1.795-.503-2.234-1.375-.622-1.233-.125-2.736,1.107-3.357,3.072-1.548,5.013-3.512,5.612-5.68.572-2.071-.195-3.905-.939-5.079-.739-1.167-.393-2.711.773-3.45,1.166-.738,2.711-.393,3.45.773,1.816,2.867,2.362,6.094,1.535,9.087-.687,2.486-2.664,6.033-8.181,8.813-.361.182-.745.268-1.123.268Z"/>
              <path d="M144.105,103.189c-.037,0-.073,0-.109-.002l-7.525-.324c-1.379-.059-2.45-1.226-2.39-2.605l.329-7.635c.059-1.38,1.227-2.448,2.605-2.39,1.379.059,2.45,1.226,2.39,2.605l-.221,5.137,5.028.217c1.379.059,2.45,1.226,2.39,2.605-.058,1.343-1.165,2.393-2.496,2.393Z"/>
            </g>
          </g>
        </g>
      </g>
    </g>
  </g>
</svg>