<?xml version="1.0" encoding="UTF-8"?>
<svg xmlns="http://www.w3.org/2000/svg" version="1.1" viewBox="0 0 220 206">
  <!-- Generator: Adobe Illustrator 28.7.10, SVG Export Plug-In . SVG Version: 1.2.0 Build 236)  -->
  <g>
    <g id="Layer_1">
      <g>
        <path d="M184.534,148.274c-1.116-7.407-2.456-14.775-4.263-22.045-1.964-7.9-4.364-15.658-8.227-22.881-1.449-2.71-3.026-5.345-5.083-7.642-2.301-2.57-4.865-4.802-8.117-6.156-1.356-.565-1.965-2.209-1.373-3.11,5.69-8.657,8.691-18.053,7.546-28.496-.609-5.551-2.345-10.754-5.893-15.171-2.649-3.298-6.023-5.934-9.238-8.577-8.975-7.377-19.629-9.116-30.868-7.542-9.899,1.386-17.596,6.814-23.876,14.265-4.421,5.245-9.424,9.239-16.41,10.224-1.254.177-2.02,1.298-1.74,2.533.148.651.392,1.265.794,1.802,1.774,2.366,3.907,4.313,6.665,5.457,1.14.473.447.723-.315,1.331-1.044.833-2.262,1.399-3.567,1.683-1.875.408-2.542,1.969-1.612,3.513.263.437.604.852.989,1.186,3.553,3.081,7.558,5.02,12.393,4.693,1.002-.068,1.393.303,1.637,1.246.912,3.531,2.577,6.722,5.096,9.34,2.326,2.418,3.236,5.012,2.517,8.355-.765,3.553,1.606,6.355,5.225,6.408,1.095.016,1.857.389,2.627,1.111,3.747,3.519,7.998,6.166,13.071,7.335.227.052.538.069.59.324.072.352-.29.432-.52.56-.278.154-.575.275-.869.396-3.743,1.544-7.666,2.426-11.639,3.093-3.167.532-6.32,1.216-9.386-.652-.892-.543-1.124-.86-.747-1.79.553-1.363,1.035-2.76,1.464-4.167.653-2.143-.233-4.173-2.224-5.235-1.269-.677-2.632-1.132-3.977-1.631-3.304-1.228-5.693-.138-6.918,3.181-.965,2.616-1.967,5.219-2.855,7.861-.335.996-.885,1.564-1.834,1.991-4.637,2.087-7.326,5.788-8.338,10.677-.537,2.594-.255,5.107,2.028,6.959.514.417.807.943.667,1.763-.349,2.039-.437,4.121.079,6.124.424,1.644.234,2.334-.884,2.62-8.103,2.073-16.2,4.168-24.298,6.262-2.352.608-4.714,1.184-7.046,1.865-1.638.478-2.508,1.569-2.576,2.937-.074,1.477.678,2.565,2.33,3.253.844.352,1.722.625,2.593.91,7.154,2.338,14.311,4.669,21.466,7.004,4.013,1.309,8.02,2.638,12.04,3.925,1.824.584,3.233-.73,2.819-2.576-.227-1.013-1.057-1.335-1.9-1.613-3.555-1.174-7.113-2.341-10.673-3.5-.641-.209-1.137-.374-.894-1.506.634-2.951.987-5.971.591-8.964-.214-1.619.076-2.116,1.108-2.369,2.785-.684,5.556-1.422,8.328-2.154,1.328-.35,2.556-.894,3.498-1.946,2.018-2.254,4.045-4.5,6.045-6.77.348-.395.667-.648,1.219-.503,1.984.522,3.877.102,5.706-.658,1.58-.657,3.136-1.376,4.683-2.108.978-.463,1.948-.658,3.059-.542,1.368.143,2.73.345,4.103.424,4.835.276,9.642.238,14.41-.482.708-.107,1.321-.073,1.391,1.278.053,1.028.491,1.983,1.052,2.847.403.619.507,1.286-.214,1.166-1.728-.287-3.508.027-5.218-.509-4.894-1.533-9.608-.885-14.167,1.277-2.222,1.054-4.203,2.46-5.654,4.481-2.657,3.701-.823,8.116,3.661,8.859,1.305.216,2.625.171,3.928-.025,1.165-.175,2.248-.111,3.358.41,1.691.794,3.584,1.069,5.384.567,1.302-.363,2.408-.161,3.599.276,3.666,1.343,7.38,2.569,11.216,3.308.502.097,1.676.257,2.977.42,1.151.144,2.057-.686,2.159-1.842.005-.057.011-.113.018-.17.129-1.043-.555-2.002-1.594-2.16-2.418-.367-4.892-.908-7.344-1.621-2.716-.79-5.41-1.645-8.057-2.644-.858-.324-1.722-.334-2.573-.02-1.674.619-3.304.433-4.87-.306-1.469-.694-2.98-.756-4.552-.573-.907.105-1.829.161-2.74.13-1.335-.046-1.735-.815-1.13-2.018.488-.971,1.341-1.578,2.215-2.126,3.957-2.481,8.125-3.255,12.792-2.203,5.339,1.204,10.801,1.286,16.236.48,2.688-.398,5.13-1.985,6.418-4.378.438-.813.831-.898,1.578-.548,3.677,1.724,7.369,3.419,11.07,5.093.755.342.935.675.449,1.431-1.474,2.294-3.19,4.365-5.241,6.165-1.14,1-2.361,1.78-3.681,2.356-.902.394-1.327,1.397-1.086,2.352.009.036.018.072.026.109.284,1.254,1.569,2.027,2.744,1.506,2.043-.906,3.917-2.192,5.621-3.873,2.95-2.909,5.3-6.226,7.266-9.867,2.533-4.688,4.484-9.591,5.832-14.736.401-1.528-.265-2.724-1.543-3.03-1.173-.28-2.24.499-2.625,2.005-.942,3.682-2.343,7.191-3.937,10.63-.664,1.434-.83,1.537-2.248.908-3.895-1.729-7.768-3.507-11.662-5.238-.649-.289-.73-.685-.625-1.325.539-3.27,1.346-6.471,2.35-9.625.856-2.687,2.122-5.15,3.983-7.289,1.471-1.692,3.338-2.526,5.568-2.578.361-.008.724.005,1.083-.017.969-.061,1.853-.742,2.056-1.692.283-1.323-.705-2.532-1.988-2.608-2.629-.154-5.115.324-7.358,1.826-2.922,1.957-4.773,4.755-6.195,7.877-2.151,4.72-3.143,9.767-4.073,14.824-.835,4.538-2.8,5.636-7.086,5.811-.766.031-1.157-.293-1.394-1.003-.492-1.472-1.056-2.921-1.568-4.387-.136-.389-.533-.88-.083-1.2.612-.435,1.4-.724,2.128-.605.574.094.328.806.352,1.253.087,1.583.912,2.52,2.274,2.533,1.272.012,2.128-1.06,2.077-2.689-.049-1.545-.129-3.089-.014-4.63.401-5.359.871-10.68,2.889-15.696.33-.82.981-1.462,1.808-1.775,2.638-1,5.166-2.245,7.512-3.818,3.465-2.323,6.607-5.01,8.936-8.52.617-.929,1.163-.971,2.012-.344.928.685,1.906,1.287,2.741,2.105,3.598,3.523,6.011,7.813,8.019,12.355,4.857,10.986,7.275,22.641,9.325,34.391.39,2.235.656,4.492,1.038,6.728.221,1.296,1.306,2.142,2.422,2.021,1.192-.13,1.904-1.058,1.871-2.484-.011-.476-.069-.953-.14-1.425ZM67.188,147.404c-.167,2.455-.305,4.912-.433,7.369-.035.668-.198,1.122-.993.863-4.87-1.589-9.738-3.182-14.605-4.779-.105-.035-.192-.128-.517-.352,3.802-.956,7.375-1.849,10.946-2.755,1.54-.391,3.08-.783,4.606-1.221.858-.246,1.049.086.996.875ZM92.322,102.876c.265-.628.537-1.164,1.387-.829.955.376,1.93.7,2.888,1.07.375.145.721.358.653.903-.065,1.017-.739,1.495-1.732,1.154-.859-.294-1.699-.645-2.558-.939-.704-.241-.935-.653-.638-1.359ZM79.815,124.391c-.115-.026-.229-.052-.344-.078-.467-2.91,1.125-5.047,2.984-7.087-.88,2.388-1.76,4.776-2.64,7.165ZM84.13,134.779c-.452.434-.719,1.05-1.493,1.451-.094-1.081-.187-2.018-.254-2.957-.045-.624.216-.909.863-.685.112.039.227.072.339.114,1.782.678,2.125.558.545,2.077ZM90.272,122.784c-.218.575-.67,1.078-1.078,1.561-1.046,1.24-1.625,2.627-1.496,4.27.032.407.098.837-.527.812-1.16-.442-2.33-.84-3.456-1.337-.625-.276-.29-.832-.14-1.256.849-2.401,1.709-4.798,2.584-7.189,1.285-3.513,2.611-7.01,3.86-10.535.329-.929.732-1.206,1.657-.768.861.407,1.776.699,2.67,1.034.542.203.721.506.499,1.1-1.533,4.099-3.021,8.216-4.573,12.308ZM135.336,106.824c-2.182,4.66-2.862,9.669-3.3,14.713-.116,1.339-.567,1.999-1.875,2.457-5.066,1.773-10.266,2.509-15.863,2.38-2.823.177-5.864-.294-8.912-.564-1.53-.135-2.913.122-4.289.716-2.189.945-4.276,2.14-6.623,2.699-.844.201-1.737.401-2.198-.568-.471-.99.19-1.675.919-2.216,1.022-.758,2.104-1.437,3.127-2.195.637-.472,1.256-.984,1.809-1.55,1.174-1.203.875-2.894-.685-3.463-.903-.329-.985-.74-.651-1.498.208-.472.353-.973.518-1.463.657-1.956.706-2.062,2.508-1.193,2.712,1.307,5.421,1.641,8.425,1.116,5.737-1.002,11.468-1.922,16.716-4.638,2.202-1.139,4.268-2.475,6.021-4.255,1.055-1.071,2.475-1.574,3.73-2.332.502-.303.729.02.839.468.12.488-.005.941-.214,1.386ZM153.943,92.381c-3.63,4.84-8.297,8.311-13.908,10.539-.376.149-.696.208-.906-.222-.223-.456-.283-.873.113-1.314.985-1.094,1.947-2.211,2.887-3.344.405-.488.775-1.017,1.087-1.569.632-1.119.353-2.542-.559-3.105-.942-.581-2.314-.257-3.024.838-1.805,2.783-4.07,5.059-6.87,6.864-4.596,2.963-9.176,2.58-13.827.214-2.904-1.477-5.502-3.356-7.664-5.804-.954-1.08-2.175-1.19-3.487-1.152-1.942.056-2.14-.091-1.799-2.017.772-4.359-.507-7.946-3.586-11.092-2.173-2.221-3.513-4.999-4.37-8-.221-.776-.109-1.301.668-1.649,1.679-.752,3.185-1.785,4.749-3.106.06.371.093.521.107.673.175,1.794,1.133,2.525,2.904,2.231,4.571-.758,8.341-3.011,11.615-6.197.991-.964.964-.951,1.62.254,2.221,4.085,5.497,6.982,9.878,8.563,2.462.888,3.415.324,4.022-2.206.73-3.039,4.012-4.272,6.585-2.474,3.353,2.342,3.715,7.021.76,9.823-.231.219-.469.432-.694.657-1.365,1.365-1.383,2.643.061,3.889,2.072,1.787,4.417,3.126,7.059,3.888,1.376.397,2.759.77,4.196.92,1.006.105,2.718,1.948,2.798,2.936.032.391-.201.676-.416.963ZM154.197,83.522c-.392.635-.879.856-1.588.774-2.524-.291-4.894-1.057-7.148-2.221-.801-.413-.62-.836-.167-1.396,4.296-5.305.975-13.576-4.213-15.791-3.902-1.666-8.532-.336-10.554,3.383-.602,1.108-1.071,1.193-2.077.549-3.187-2.042-5.11-4.948-6.107-8.536-.085-.307-.157-.618-.256-.921-.285-.873-.727-1.601-1.727-1.786-1.001-.185-1.669.321-2.236,1.061-1.801,2.353-3.761,4.544-6.318,6.113-.711.437-1.45.829-2.175,1.242-.576.328-.845.285-.798-.5.07-1.151.06-2.309.03-3.463-.03-1.099-.546-1.927-1.628-2.257-1.082-.33-1.825.242-2.437,1.07-2.773,3.747-6.221,6.554-10.758,7.946-3.033.931-5.726.096-8.362-1.29-.854-.449-.448-.813.107-1.173,2.028-1.314,3.814-2.875,5.056-4.989,1.189-2.023.334-3.73-1.985-3.798-2.112-.062-3.813-1.015-5.428-2.226-.535-.402-.594-.718.159-.933,6.127-1.75,10.58-5.782,14.606-10.503,4.671-5.478,10.141-9.905,17.215-11.966,1.145-.333,2.307-.633,3.481-.837,2.318-.403,4.656-.641,5.923-.586,7.805.047,14.115,1.558,19.877,5.099,2.053,1.261,3.87,2.792,5.392,4.671.372.459.791.922,1.282,1.237,4.161,2.668,6.689,6.524,8.118,11.157,2.736,8.872,1.467,17.391-2.345,25.674-.836,1.815-1.893,3.499-2.941,5.193Z"/>
        <path d="M114.452,172.179c-1.068-5.675-2.146-11.349-3.222-17.023-.152-.803-.444-1.539-1.327-1.94-.7-.318-1.552-.215-2.161.253-.853.656-.958,1.603-.767,2.619.836,4.463,1.668,8.926,2.54,13.382.366,1.869.386,1.892-1.5,1.892-25.579,0-51.157-.002-76.736-.004-.406,0-.813-.004-1.219-.016-.506-.016-.817-.447-.692-.937.197-.772.397-1.544.619-2.309,1.841-6.342,3.685-12.684,5.521-19.028.334-1.155-.362-2.348-1.528-2.643-.018-.005-.036-.009-.054-.014-1.097-.283-2.218.371-2.537,1.458-1.21,4.124-2.422,8.247-3.626,12.372-1.201,4.113-2.403,8.225-3.546,12.354-.425,1.534.505,3.048,2.084,3.245.416.052.84.038,1.261.038,13.905.001,27.81.001,41.715.001,1.195,0,2.391,0,3.586,0,12.829,0,25.658.006,38.487-.004,2.818-.002,3.615-.97,3.103-3.695Z"/>
        <path d="M36.298,138.991c1.093.293,2.219-.356,2.533-1.444.12-.415.239-.83.358-1.246.338-1.185.831-1.561,2.044-1.556,9.801.046,19.602.026,29.403.021.517,0,1.047.025,1.548-.075,1.626-.327,2.345-2.113,1.41-3.424-.593-.831-1.471-.836-2.364-.836-10.558.004-21.116.004-31.674.003-1.804,0-3.399,1.184-3.909,2.914-.296,1.006-.591,2.012-.885,3.018-.332,1.134.341,2.31,1.483,2.61.018.005.036.009.054.014Z"/>
        <path d="M185.886,158.671c-.011,1.413-.793,2.336-1.978,2.336-1.213,0-2.321-1.215-2.325-2.548-.004-1.28.979-2.368,2.16-2.391,1.256-.024,2.155,1.069,2.143,2.604Z"/>
      </g>
    </g>
  </g>
</svg>