<?xml version="1.0" encoding="UTF-8"?>
<svg xmlns="http://www.w3.org/2000/svg" version="1.1" viewBox="0 0 220 206">
  <!-- Generator: Adobe Illustrator 28.7.10, SVG Export Plug-In . SVG Version: 1.2.0 Build 236)  -->
  <g>
    <g id="Layer_1">
      <g>
        <path d="M77.867,124.853c-4.164.01-8.173.791-11.728,2.91-5.017,2.991-10.264,3.689-15.919,2.609-3.585-.684-7.217-1.124-10.832-1.642-1.593-.228-2.868-.804-2.765-2.668.08-1.446,1.493-2.161,3.552-1.849,4.428.669,8.85,1.374,13.272,2.078,3.114.495,6.056-.037,8.784-1.575,4.714-2.657,9.715-4.229,15.163-4.162.84.01,1.128-.276,1.372-1.103,2.158-7.3,7.97-10.069,14.918-7.102.873.373,1.315.198,1.952-.376,6.763-6.102,15.479-5.253,20.781,2.044.687.946,1.259,1.084,2.385.777,6.576-1.792,12.604,1.496,14.677,7.969.306.956.592,1.208,1.661,1.137,5.815-.384,9.998,3.928,9.339,9.644-.147,1.275.254,1.987,1.081,2.835,3.397,3.481,4.377,7.675,2.721,12.196-1.626,4.44-4.979,7.022-9.785,7.417-.985.081-1.411.35-1.649,1.349-.723,3.032-2.691,4.915-5.741,5.557-.952.2-1.351.468-1.369,1.57-.065,4.075-2.154,6.394-6.16,6.975-.943.137-1.922.075-2.882.042-1.169-.04-2.463-.494-3.47-.128-1.129.41-.428,1.927-.772,2.929-.88,2.568-3.041,4.443-6.11,4.405-10.623-.129-21.233-.544-31.656-2.903-.403-.091-.799-.213-1.194-.335-1.372-.426-2.171-1.279-1.747-2.774.411-1.451,1.506-1.908,2.908-1.549,5.158,1.32,10.399,2.125,15.705,2.453,5.024.31,10.055.5,15.084.715,1.296.055,2.643-.054,2.707-1.779.065-1.75-1.33-1.859-2.591-1.966-5.083-.432-10.167-.856-15.254-1.252-1.612-.125-3.005-.567-2.764-2.507.233-1.878,1.697-2.064,3.289-1.931,8.726.73,17.454,1.435,26.182,2.146.412.034.826.061,1.239.067,1.548.022,2.838-.508,2.987-2.191.163-1.838-1.203-2.209-2.715-2.354-7.961-.761-15.919-1.555-23.878-2.334-1.142-.112-2.225-.326-2.594-1.631-.513-1.812.686-3.059,2.902-2.871,4.602.392,9.196.87,13.793,1.312,5.146.494,10.293.988,15.44,1.476.411.039.827.035,1.24.049,1.688.056,2.879-.653,3.028-2.398.145-1.696-.963-2.479-2.523-2.674-3.351-.419-6.703-.842-10.06-1.212-6.441-.71-12.886-1.376-19.328-2.083-1.517-.166-2.78-.805-2.553-2.578.221-1.728,1.505-2.141,3.08-1.912.545.079,1.098.113,1.646.17,7.541.787,15.083,1.575,22.624,2.362.274.029.548.065.823.082,1.39.087,2.527-.311,2.757-1.848.241-1.618-.728-2.456-2.196-2.699-3.874-.642-7.761-1.203-11.637-1.83-8.773-1.42-17.544-2.852-26.312-4.302-1.411-.233-2.867-.625-2.635-2.509.243-1.969,1.762-2.106,3.29-1.859,4.299.696,8.592,1.343,12.937.4,2.507-.544,4.721-1.563,5.984-3.962.387-.735.556-1.491-.758-1.46-8.674.203-17.162-1.226-25.623-2.918-1.344-.269-2.735-.305-4.104-.449ZM108.319,136.275c6.687,1.081,13.018,1.988,19.299,3.159,4.672.871,6.62,4.197,5.523,8.836-.108.456-.518,1.039-.061,1.344,1.506,1.004,2.789,2.468,4.947,2.136,2.892-.445,5.725-2.792,6.359-5.492.69-2.94-.663-6.036-3.415-7.813-2.263-1.461-2.376-1.815-1.312-4.123.868-1.884.52-3.755-.938-5.044-1.458-1.288-3.397-1.403-5.143-.252-.977.644-1.889,1.538-3.167.786-1.291-.759-1.185-2.022-1.121-3.296.191-3.797-1.813-6.665-5.325-7.588-2.176-.572-4.199-.186-6.1,1.083-1.875,1.252-2.983.903-3.929-1.087-.206-.434-.339-.905-.553-1.335-3.161-6.356-11.565-7.012-15.648-1.226-1.891,2.679-2.341,2.739-4.982.662-3.146-2.473-7.509-1.555-9.095,1.882-.613,1.329-.578,2.009,1.161,2.368,7.65,1.577,15.348,2.503,23.17,2.447,4.26-.03,6.08,2.621,4.796,6.721-.548,1.751-1.519,3.229-2.895,4.443-.449.396-.897.792-1.573,1.39Z"/>
        <path d="M146.804,50.386c-6.413,0-12.832-.175-19.238.041-9.309.314-17.057,7.655-18.259,16.964q-.849,6.581,5.653,6.575c.414,0,.828.002,1.241,0,1.586-.011,3.443.488,4.683-.173,1.33-.708.419-2.767.747-4.215.837-3.694,3.741-6.429,7.478-6.629,2.063-.111,4.137-.039,6.206-.036,1.418.002,2.48.554,2.53,2.106.052,1.619-.913,2.36-2.482,2.37-1.931.012-3.864-.043-5.793.034-2.717.109-4.814,3.816-3.566,6.198.26.497.779.532,1.197.726,1.819.842,2.675,2.299,2.798,4.245.026.413.027.827.031,1.241.057,5.881-1.1,7.078-6.92,7.093-5.724.014-11.449.029-17.173-.007-3.821-.024-5.322-1.545-5.488-5.387-.131-3.044-.237-6.055,3.416-7.354,1.01-.359.602-1.292.593-1.979-.079-6.407,1.442-12.298,5.565-17.343,4.568-5.591,10.471-8.64,17.686-8.963,3.442-.154,6.897-.1,10.343-.028,1.367.029,1.98-.254,1.92-1.796-.172-4.486.554-3.709-3.679-3.755-2.376-.026-4.703.013-6.533-1.883-1.845-1.912-2.499-4.141-1.626-6.646.891-2.558,2.776-4.313,5.495-4.358,8.48-.14,16.966-.171,25.445.003,3.475.071,5.894,3.135,5.801,6.586-.089,3.285-2.648,5.982-6.025,6.232-1.509.112-3.034.068-4.55.031-1.017-.025-1.438.295-1.494,1.408-.211,4.144-.256,4.144,3.874,4.151,3.586.006,7.173-.025,10.759.031,1.132.018,1.696-.186,1.885-1.503.668-4.671,3.585-7.113,8.34-7.166,5.915-.065,5.753-.503,5.733,5.696-.032,9.931-.002,19.863-.01,29.794-.002,2.895-.487,3.381-3.367,3.333-1.376-.023-2.764-.06-4.123-.252-3.596-.507-6.246-3.107-6.54-6.687-.126-1.533-.702-1.749-2.015-1.717-3.309.081-6.621.005-9.931.042-1.672.019-2.977-.472-2.914-2.361.06-1.779,1.391-2.149,2.935-2.139,3.448.023,6.897-.045,10.345.016,1.194.021,1.52-.396,1.489-1.55-.085-3.101-.139-6.209-.035-9.308.052-1.554-.595-1.818-1.943-1.808-6.827.049-13.656.022-20.483.022,0,.034,0,.068,0,.103ZM178.976,56.596c0-4.338,0-8.677,0-13.015,0-.138-.02-.278-.002-.413.165-1.209-.395-1.533-1.542-1.468-2.45.139-3.783,1.569-3.817,4.426-.045,3.856-.01,7.713-.008,11.57.002,3.237-.063,6.476.028,9.71.076,2.676,1.165,3.816,3.429,4.098,1.359.169,1.981-.107,1.945-1.687-.101-4.405-.035-8.813-.033-13.221ZM146.624,31.769v-.014c-3.784,0-7.568.012-11.353-.006-1.502-.007-2.919.216-2.895,2.09.024,1.841,1.428,2.084,2.933,2.081,7.5-.015,14.999-.025,22.499.004,1.447.006,2.507-.417,2.543-1.997.037-1.68-1.023-2.193-2.581-2.174-3.715.047-7.431.015-11.146.015ZM115.101,82.556v.013c3.024,0,6.049-.063,9.07.027,1.464.044,1.589-.753,1.45-1.809-.133-1.008.594-2.504-1.447-2.491-5.91.039-11.82.068-17.729-.003-1.981-.024-1.486,1.282-1.578,2.37-.099,1.173.035,1.972,1.577,1.92,2.883-.098,5.771-.028,8.658-.028ZM148.355,43.09c-.122-1.367.638-2.923-1.912-2.939-2.613-.017-1.965,1.553-2.021,2.94-.008.206.028.417-.005.618-.275,1.673.355,2.155,2.094,2.209,2.635.081,1.613-1.714,1.844-2.827Z"/>
        <path d="M94.87,108.641c-2.872-.697-5.802-1.218-8.606-2.126-7.719-2.498-15.339-3.005-22.995.257-4.377,1.865-20.626-1.878-24.253-2.961-1.51-.451-2.82-1.192-2.201-3.051.615-1.844,2.101-1.614,3.605-1.179,3.967,1.147,7.936,2.287,11.921,3.367,3.059.829,6.217,1.008,9.148-.225,8.878-3.734,17.725-3.119,26.659-.313,2.289.719,4.69,1.072,7.012,1.698,1.38.372,2.387,1.18,1.914,2.853-.302,1.068-1.059,1.568-2.204,1.681Z"/>
        <path d="M123.187,109.257c-4.669.013-7.828-4.087-6.537-8.551.927-3.208,2.53-6.107,4.424-8.827,1.359-1.952,2.952-1.885,4.27.095,1.799,2.704,3.335,5.557,4.27,8.681,1.344,4.49-1.748,8.59-6.427,8.602ZM123.046,96.935c-.764,1.769-1.44,3.193-1.994,4.663-.388,1.03-.336,2.107.694,2.773.932.603,1.991.587,2.923-.035.956-.638.977-1.677.66-2.611-.527-1.55-1.046-3.125-2.284-4.791Z"/>
        <path d="M63.226,165.172c.052,1.659-1.578,2.781-3.125,2.137-.314-.131-.644-.292-.883-.525-4.95-4.813-11.308-5.611-17.727-6.25-1.027-.102-2.065-.192-3.068-.421-1.328-.304-2.021-1.227-1.777-2.587.226-1.259,1.177-1.962,2.401-1.787,4.492.644,9.062.814,13.465,2.01,3.742,1.017,6.664,3.509,9.77,5.653.586.405.875,1.049.944,1.77Z"/>
        <path d="M88.44,98.069c-3.805.003-6.813-2.921-6.781-6.594.03-3.535,2.938-6.542,6.379-6.598,3.708-.06,6.721,2.921,6.724,6.654.003,3.657-2.78,6.535-6.322,6.538ZM90.244,91.492c-.104-1.228-.61-2.138-1.972-2.153-1.333-.014-2.052.824-2.037,2.072.014,1.18.558,2.142,1.957,2.159,1.375.017,1.913-.835,2.052-2.079Z"/>
        <path d="M142.132,118.992c-3.805.003-6.813-2.921-6.781-6.594.03-3.535,2.938-6.542,6.379-6.598,3.708-.06,6.721,2.921,6.724,6.654.003,3.657-2.78,6.535-6.322,6.538ZM143.937,112.414c-.104-1.228-.61-2.138-1.972-2.153-1.333-.014-2.052.824-2.037,2.072.014,1.18.558,2.142,1.957,2.159,1.375.017,1.913-.835,2.052-2.079Z"/>
        <path d="M105.917,103.464c-3.835-.02-6.144-3.07-4.974-6.688.7-2.164,1.769-4.183,3.034-6.071,1.047-1.563,2.706-1.721,3.752-.29,1.46,1.996,2.822,4.097,3.407,6.548.839,3.517-1.609,6.52-5.219,6.501ZM106.044,96.083c-.655,1.129-1.224,1.851-.684,2.739.218.359.788.37,1.092.05.837-.883-.022-1.576-.408-2.788Z"/>
        <path d="M145.897,67.422c-1.409-.109-2.179-.983-2.116-2.422.06-1.382.99-2.119,2.331-2.096,1.433.024,2.396.85,2.343,2.309-.052,1.429-.979,2.207-2.558,2.209Z"/>
        <path d="M137.557,95.991c-1.409-.109-2.179-.983-2.116-2.422.06-1.382.99-2.119,2.331-2.096,1.433.024,2.396.85,2.343,2.309-.052,1.429-.979,2.207-2.558,2.209Z"/>
        <path d="M92.202,78.293c-1.409-.109-2.179-.983-2.116-2.422.06-1.382.99-2.119,2.331-2.096,1.433.024,2.396.85,2.343,2.309-.052,1.429-.979,2.207-2.558,2.209Z"/>
        <path d="M69.007,167.49c1.402.216,2.441.957,2.448,2.353.006,1.391-.93,2.322-2.402,2.221-1.25-.085-2.283-.735-2.297-2.153-.014-1.442.858-2.223,2.251-2.422Z"/>
      </g>
    </g>
  </g>
</svg>