<?xml version="1.0" encoding="UTF-8"?>
<svg xmlns="http://www.w3.org/2000/svg" version="1.1" viewBox="0 0 220 206">
  <!-- Generator: Adobe Illustrator 28.7.10, SVG Export Plug-In . SVG Version: 1.2.0 Build 236)  -->
  <g>
    <g id="Layer_1">
      <g>
        <path d="M100.111,167.186c-7.761,0-15.522.015-23.283-.004-7.92-.02-14.293-5.061-16.146-12.739-.124-.515-.24-1.049-.243-1.574-.025-4.565-.034-9.13-.024-13.695.003-1.143.567-1.96,1.666-2.336,1.053-.361,1.949-.059,2.672.762.487.554.525,1.24.525,1.936-.001,3.804-.033,7.609.011,11.413.066,5.71,3.868,9.958,8.735,11.001,7.87,1.687,13.814-4.59,13.604-10.922-.119-3.572-.026-7.152-.021-10.728.003-2.451,1.001-3.536,3.472-3.461,6.352.192,12.703.096,19.054.111,1.281.003,2.23.833,2.385,2.01.164,1.247-.538,2.382-1.758,2.712-.504.137-1.051.159-1.579.16-5.022.012-10.044.006-15.066.009-1.438.001-1.486.05-1.487,1.466-.001,2.359-.026,4.718.014,7.076.07,4.033-1.058,7.65-3.607,10.805-.206.255-.603.516-.46.86.178.428.668.263,1.027.263,11.68.007,23.359-.005,35.039.024,1.044.003,1.263-.31,1.171-1.331-.138-1.548-.062-3.116-.041-4.675.006-.482.003-.901-.481-1.174-1.68-.95-2.517-2.538-2.968-4.296-.49-1.908-1.503-3.26-3.14-4.395-3.509-2.435-4.103-4.489-2.675-8.548.61-1.735.649-3.339-.008-5.093-1.46-3.896-.836-6.014,2.501-8.421,1.709-1.233,2.843-2.67,3.449-4.735,1.024-3.491,2.741-4.761,6.424-4.807,2.339-.029,4.344-.546,6.192-2.059,2.433-1.992,5.229-2.175,7.662-.196,2.152,1.75,4.492,2.185,7.074,2.216,2.757.033,4.73,1.365,5.491,3.978.763,2.62,2.174,4.539,4.443,6.052,2.809,1.873,3.149,4.695,1.99,7.603-.823,2.064-.732,3.883.016,5.924,1.259,3.434.556,5.695-2.499,7.83-1.815,1.268-3.02,2.713-3.536,4.9-.383,1.624-1.199,3.137-2.815,3.99-.446.235-.63.631-.63,1.132.003,1.709.009,3.418-.011,5.127-.008.671.266.969.949.958,6.426-.104,12.861.277,19.277-.197,5.198-.385,9.544-5.131,9.638-10.331.052-2.891-.014-5.783.04-8.674.019-1.03-.406-1.298-1.359-1.29-4.07.035-8.141.008-12.212.022-.832.003-1.575-.145-2.192-.759-1.253-1.247-.889-3.268.734-3.974.645-.281,1.329-.32,2.017-.284,4.409.229,8.818.187,13.228,0,.912-.039,1.827-.037,2.728.154,1.122.238,2.005,1.037,2.012,2.177.032,4.79.438,9.608-.165,14.363-.98,7.734-7.831,13.602-15.622,13.657-5.744.04-11.489.01-17.234.013q-1.838,0-1.837,1.786c.001,2.587-.025,5.174.016,7.761.021,1.331-.149,2.535-1.47,3.206-1.286.653-2.246-.121-3.226-.799-2.535-1.752-5.09-3.473-7.609-5.247-.664-.467-1.179-.469-1.842-.001-2.705,1.906-5.459,3.743-8.156,5.66-.87.619-1.718.807-2.658.333-.969-.489-1.437-1.332-1.452-2.408-.043-2.965-.15-5.933-.068-8.895.034-1.238-.391-1.422-1.481-1.417-8.065.041-16.131.022-24.196.022v-.006ZM157.337,130.042c.029-.875-.419-1.313-.948-1.618-2.899-1.668-4.737-4.093-5.437-7.381-.201-.946-.834-1.425-1.825-1.346-3.274.263-6.156-.666-8.654-2.803-.916-.783-1.872-.797-2.779.003-2.443,2.158-5.291,3.072-8.523,2.806-1.139-.094-1.813.408-2.068,1.498-.731,3.124-2.405,5.536-5.24,7.123-.985.551-1.298,1.38-.832,2.507,1.227,2.973,1.381,5.99.061,8.973-.567,1.281-.171,2.097.958,2.719,2.707,1.491,4.212,3.829,4.96,6.783.411,1.623.821,1.909,2.541,1.822,3.076-.156,5.787.655,8.126,2.672.915.79,1.841.835,2.762.021,2.357-2.084,5.126-2.839,8.23-2.692,1.725.082,1.955-.089,2.408-1.771.809-3,2.317-5.434,5.12-6.947,1.086-.586,1.327-1.478.862-2.599-.131-.315-.205-.654-.332-.971-.9-2.258-.936-4.51-.027-6.781.281-.703.46-1.447.639-2.02ZM147.279,172.958c0-.657-.016-1.069.002-1.481.215-4.829.031-9.661.098-14.491.012-.871-.388-1.041-1.15-.859-1.118.267-1.935,1.034-2.843,1.648-3.289,2.225-5.295,2.228-8.592-.005-.409-.277-.804-.576-1.211-.858-.537-.371-1.118-.616-1.769-.751-.772-.161-1.037.105-1.034.866.017,4.946.011,9.892.017,14.838,0,.258-.073.576.175.742.324.216.569-.075.808-.239,1.63-1.12,3.246-2.262,4.883-3.371,2.103-1.424,2.63-1.423,4.726-.022,1.92,1.284,3.828,2.587,5.889,3.981Z"/>
        <path d="M84.475,25.841c11.68.002,23.36.001,35.041.003.494,0,.993-.014,1.481.047,1.337.165,2.241,1.166,2.255,2.446.013,1.219-.83,2.215-2.128,2.441-.482.084-.985.07-1.479.071-19.023.004-38.046.005-57.069.006-.304,0-.609-.008-.913.007-.385.02-.617.144-.302.554.046.06.097.117.145.176,2.824,3.426,3.805,7.392,3.795,11.782-.054,22.561-.022,45.123-.022,67.684,0,.797.06,1.607-.478,2.296-.639.818-1.431,1.252-2.487.965-1.055-.286-1.713-.977-1.878-2.061-.079-.522-.045-1.063-.045-1.595-.001-17.539,0-35.079,0-52.618q0-1.847-1.895-1.848c-7.305,0-14.609.004-21.914.002-2.901-.001-3.83-.907-3.782-3.842.068-4.181-.332-8.381.222-12.54.672-5.045,3.273-8.922,7.604-11.615,2.766-1.719,5.81-2.37,9.035-2.367,11.604.01,23.208.004,34.812.006ZM49.016,51.18c1.672,0,3.344,0,5.017,0,1.71,0,3.421-.024,5.13.012.834.017,1.26-.206,1.244-1.148-.046-2.698.053-5.399-.046-8.094-.109-2.979-1.112-5.605-3.272-7.787-3.294-3.326-7.922-4.258-12.627-2.401-3.81,1.504-6.572,5.636-6.622,9.972-.031,2.698.028,5.397-.028,8.094-.022,1.061.377,1.384,1.4,1.37,3.268-.046,6.536-.017,9.805-.019Z"/>
        <path d="M165.708,81.599c0,11.87,0,23.74-.001,35.609,0,.494.018.992-.03,1.482-.136,1.385-1.06,2.308-2.333,2.371-1.33.066-2.38-.789-2.622-2.194-.083-.482-.062-.985-.062-1.479-.002-23.854.022-47.707-.017-71.561-.009-5.723-2.447-10.207-7.447-13.133-2.061-1.206-4.317-1.869-6.745-1.841-1.178.014-2.365.046-3.534-.072-1.375-.138-2.332-1.274-2.306-2.536.024-1.182,1.165-2.313,2.494-2.386,4.651-.254,9.114.394,13.154,2.903,5.356,3.327,8.283,8.223,9.237,14.384.211,1.36.214,2.727.214,4.097-.002,11.451-.001,22.903-.001,34.354Z"/>
        <path d="M113.037,97.271c11.259,0,22.518-.003,33.777.004,2.008.001,2.937.814,2.947,2.509.007,1.181-.632,2.056-1.8,2.298-.739.153-1.508.22-2.264.22-21.91.011-43.819.009-65.729.003-.53,0-1.068-.027-1.589-.118-1.416-.248-2.274-1.287-2.198-2.602.077-1.322,1.061-2.241,2.508-2.296.912-.034,1.826-.018,2.738-.018,10.536,0,21.073,0,31.609,0Z"/>
        <path d="M104.255,91.609c-8.253,0-16.506,0-24.759-.002-.418,0-.842.015-1.252-.049-1.108-.175-1.979-1.158-2.063-2.276-.086-1.151.509-2.051,1.627-2.463.62-.229,1.266-.235,1.914-.235,16.468,0,32.935,0,49.403,0,.228,0,.457-.002.684.012,1.638.104,2.777,1.2,2.735,2.629-.038,1.321-1.247,2.374-2.847,2.377-8.481.014-16.962.007-25.443.007Z"/>
        <path d="M97.725,112.845c-6.196-.001-12.393-.011-18.589.009-1.014.003-1.872-.218-2.496-1.076-1.085-1.49-.178-3.584,1.657-3.782.414-.045.835-.025,1.253-.025,11.214-.003,22.429-.011,33.643.004,1.363.002,2.721-.331,4.091-.025.875.196,1.554.587,1.887,1.46.654,1.713-.328,3.267-2.174,3.415-.454.036-.912.02-1.368.02-5.968.001-11.937,0-17.905,0Z"/>
        <path d="M91.08,123.55c-3.799.001-7.598,0-11.397.002-.648,0-1.293-.012-1.909-.251-1.135-.44-1.728-1.417-1.584-2.604.136-1.118,1.037-2.021,2.18-2.15.376-.043.759-.029,1.138-.029,7.788-.003,15.576-.007,23.364-.005,2.227,0,3.402.88,3.372,2.5-.029,1.562-1.299,2.522-3.426,2.531-3.913.016-7.826.004-11.739.006Z"/>
        <path d="M143.89,91.606c-1.103,0-2.206.028-3.308-.007-1.62-.052-2.663-1.036-2.708-2.497-.04-1.284,1.089-2.44,2.616-2.484,2.279-.065,4.563-.067,6.842.007,1.496.049,2.425,1.101,2.418,2.5-.007,1.478-.954,2.42-2.552,2.474-1.101.037-2.205.007-3.308.007Z"/>
        <path d="M113.037,86.572c11.259,0,22.518-.003,33.777.004,2.008.001,2.937.814,2.947,2.509.007,1.181-.632,2.056-1.8,2.298-.739.153-1.508.22-2.264.22-21.91.011-43.819.009-65.729.003-.53,0-1.068-.027-1.589-.118-1.416-.248-2.274-1.287-2.198-2.602.077-1.322,1.061-2.241,2.508-2.296.912-.034,1.826-.018,2.738-.018,10.536,0,21.073,0,31.609,0Z"/>
        <path d="M113.037,65.083c11.259,0,22.518-.003,33.777.004,2.008.001,2.937.814,2.947,2.509.007,1.181-.632,2.056-1.8,2.298-.739.153-1.508.22-2.264.22-21.91.011-43.819.009-65.729.003-.53,0-1.068-.027-1.589-.118-1.416-.248-2.274-1.287-2.198-2.602.077-1.322,1.061-2.241,2.508-2.296.912-.034,1.826-.018,2.738-.018,10.536,0,21.073,0,31.609,0Z"/>
        <path d="M79.496,59.419c-.418,0-.842.015-1.252-.049-1.108-.175-1.979-1.158-2.063-2.276-.086-1.151.509-2.051,1.627-2.463.62-.229,1.266-.235,1.914-.235,16.468,0,2.935,0,19.403,0,.228,0,.457-.002.684.012,1.638.104,2.777,1.2,2.735,2.629-.038,1.321-1.247,2.374-2.847,2.377"/>
        <path d="M143.89,59.418c-1.103,0-32.206.028-33.308-.007-1.62-.052-2.663-1.036-2.708-2.497-.04-1.284,1.089-2.44,2.616-2.484,2.279-.065,34.563-.067,36.842.007,1.496.049,2.425,1.101,2.418,2.5-.007,1.478-.954,2.42-2.552,2.474-1.101.037-2.205.007-3.308.007Z"/>
        <path d="M79.496,80.902c-.418,0-.842.015-1.252-.049-1.108-.175-1.979-1.158-2.063-2.276-.086-1.151.509-2.051,1.627-2.463.62-.229,1.266-.235,1.914-.235,16.468,0,34.338,0,50.806,0,.228,0,.457-.002.684.012,1.638.104,2.777,1.2,2.735,2.629-.038,1.321-1.247,2.374-2.847,2.377"/>
        <path d="M143.89,80.901c-1.103,0-.803.028-1.905-.007-1.62-.052-2.663-1.036-2.708-2.497-.04-1.284,1.089-2.44,2.616-2.484,2.279-.065,3.16-.067,5.439.007,1.496.049,2.425,1.101,2.418,2.5-.007,1.478-.954,2.42-2.552,2.474-1.101.037-2.205.007-3.308.007Z"/>
        <path d="M104.255,48.722c-8.253,0-16.506,0-24.759-.002-.418,0-.842.015-1.252-.049-1.108-.175-1.979-1.158-2.063-2.276-.086-1.151.509-2.051,1.627-2.463.62-.229,1.266-.235,1.914-.235,16.468,0,32.935,0,49.403,0,.228,0,.457-.002.684.012,1.638.104,2.777,1.2,2.735,2.629-.038,1.321-1.247,2.374-2.847,2.377-8.481.014-16.962.007-25.443.007Z"/>
        <path d="M143.89,48.719c-1.103,0-2.206.028-3.308-.007-1.62-.052-2.663-1.036-2.708-2.497-.04-1.284,1.089-2.44,2.616-2.484,2.279-.065,4.563-.067,6.842.007,1.496.049,2.425,1.101,2.418,2.5-.007,1.478-.954,2.42-2.552,2.474-1.101.037-2.205.007-3.308.007Z"/>
        <path d="M60.402,125.482c0-1.064-.024-2.128.006-3.191.042-1.498.97-2.475,2.371-2.551,1.278-.069,2.401.881,2.454,2.324.086,2.351.075,4.71-.007,7.062-.044,1.262-1.106,2.104-2.397,2.135-1.233.03-2.281-.836-2.381-2.136-.092-1.208-.02-2.429-.02-3.644-.009,0-.018,0-.027,0Z"/>
        <path d="M131.971,25.858c.608,0,1.22-.043,1.823.009,1.411.121,2.408,1.113,2.46,2.389.053,1.299-.723,2.273-2.168,2.488-1.466.218-2.959.232-4.426-.039-1.236-.229-2.05-1.229-2.038-2.381.012-1.146.975-2.271,2.187-2.424.71-.09,1.441-.016,2.162-.016,0-.009,0-.017,0-.026Z"/>
        <path d="M125.225,135.397c-.415-7.227,6.189-14.013,14.011-13.915,7.629.096,13.738,6.343,13.698,14.045-.038,7.414-6.391,13.724-13.83,13.738-7.568.014-13.93-6.343-13.879-13.867ZM130.087,135.44c-.015,4.808,4.022,8.84,8.873,8.862,5.034.023,9.101-4.009,9.099-9.021-.001-4.718-4.23-8.9-9.023-8.924-4.839-.024-8.934,4.132-8.949,9.083Z"/>
      </g>
    </g>
  </g>
</svg>