<?xml version="1.0" encoding="UTF-8"?>
<svg xmlns="http://www.w3.org/2000/svg" version="1.1" viewBox="0 0 220 206">
  <!-- Generator: Adobe Illustrator 28.7.8, SVG Export Plug-In . SVG Version: 1.2.0 Build 200)  -->
  <g>
    <g id="Layer_1">
      <path d="M113.294,146.008l-.327-1.76c-.859-4.706-3.192-9.003-6.548-12.112-5.933-5.524-12.972-9.862-20.992-13.013-3.847-1.473-7.939-2.251-12.195-2.251H24.209c-6.588,0-11.908,5.361-11.908,11.949v33.309c0,3.724,3.028,6.752,6.752,6.752h1.678c1.35,4.829,5.811,8.389,11.048,8.389,5.279,0,9.739-3.56,11.049-8.389h38.138c1.31,4.829,5.77,8.389,11.008,8.389,5.279,0,9.739-3.56,11.09-8.389h4.951c3.601,0,6.629-2.905,6.752-6.466.246-6.834-.327-10.026-1.473-16.409ZM103.105,135.737c1.841,1.678,3.233,3.847,4.133,6.302l-29.913.164-.205-12.808h17.719c2.987,1.882,5.729,4.01,8.266,6.343ZM31.78,172.402c-3.601,0-6.547-2.987-6.547-6.588,0-3.642,2.946-6.588,6.547-6.588,3.642,0,6.588,2.946,6.588,6.588,0,3.601-2.946,6.588-6.588,6.588ZM91.974,172.402c-3.601,0-6.547-2.987-6.547-6.588,0-3.642,2.946-6.588,6.547-6.588,3.642,0,6.588,2.946,6.588,6.588,0,3.601-2.946,6.588-6.588,6.588ZM109.857,162.213c-.041.941-.9,1.76-1.841,1.76h-4.706c-.859-5.483-5.606-9.657-11.335-9.657-5.688,0-10.435,4.174-11.294,9.657h-37.565c-.859-5.483-5.606-9.657-11.335-9.657-5.688,0-10.435,4.174-11.294,9.657h-1.432c-1.023,0-1.841-.818-1.841-1.841v-33.309c0-3.888,3.11-7.039,6.998-7.039h49.023c3.642,0,7.161.655,10.394,1.923.614.246,1.228.491,1.841.777h-8.348c-2.619,0-4.706,2.128-4.706,4.747v12.972c0,2.619,2.087,4.747,4.706,4.747h31.345c1.105,6.179,1.637,9.002,1.391,15.263ZM64.557,124.483H24.496c-2.619,0-4.747,2.128-4.747,4.747v12.972c0,2.619,2.128,4.747,4.747,4.747h40.062c2.619,0,4.747-2.128,4.747-4.747v-12.972c0-2.619-2.128-4.747-4.747-4.747ZM24.496,129.394l17.596-.082v12.808l-17.432.082-.164-12.808ZM64.394,142.039l-17.391.082v-12.808l17.391-.082v12.808ZM80.951,153.348h-6.096c-1.357,0-2.456-1.099-2.456-2.454s1.099-2.454,2.456-2.454h6.096c1.357,0,2.456,1.099,2.456,2.454s-1.099,2.454-2.456,2.454ZM99.619,39.868c.368-.342.859-.785,1.594-.785,1.203,0,2.528,1.327,2.528,2.356,0,.663-.27,1.253-.761,1.718l-5.693,5.277,6.43,8.048c.172.196.539.761.539,1.399,0,1.153-1.325,2.38-2.552,2.38-.613,0-1.179-.27-1.571-.735l-6.332-7.878-2.134,2.014v4.416c0,.859-.172,2.184-2.332,2.184-1.718,0-2.38-.735-2.38-2.184v-16.834c0-.833.172-2.16,2.33-2.16,1.67,0,2.382.663,2.382,2.16v5.964l7.95-7.339ZM109.689,41.465c0,1.325-1.055,2.404-2.406,2.404-1.325,0-2.404-1.079-2.404-2.404,0-1.351,1.105-2.382,2.404-2.382s2.406,1.057,2.406,2.382ZM109.517,58.175c0,1.007-.27,2.086-2.134,2.086-1.449,0-2.356-.392-2.356-2.086v-11.705c0-1.005.294-2.086,2.158-2.086,1.425,0,2.332.394,2.332,2.086v11.705ZM120.859,41.169c0-1.005.296-2.086,2.16-2.086,1.447,0,2.356.37,2.356,2.086v17.006c0,1.325-.539,2.086-2.258,2.086-1.449,0-2.258-.442-2.258-1.888-.492.613-1.644,1.888-3.876,1.888-4.172,0-6.356-4.048-6.356-8.098,0-3.533,1.79-7.779,6.208-7.779,2.528,0,3.607,1.203,4.024,1.694v-4.909ZM115.288,52.311c0,.711.026,4.172,2.797,4.172,2.749,0,2.773-3.435,2.773-4.172,0-.637,0-4.146-2.773-4.146-2.797,0-2.797,3.509-2.797,4.146ZM140.228,48.58c0,.957-.809,1.62-2.234,1.62s-1.84-.516-2.012-.981c-.22-.639-.49-1.399-2.478-1.399-1.129,0-2.062.368-2.062,1.005,0,.737.737.883,3.902,1.594,2.356.541,5.349,1.327,5.349,4.664,0,4.318-4.22,5.177-7.041,5.177-5.007,0-7.141-2.625-7.141-4.442,0-1.129.785-1.864,2.184-1.864,1.473,0,1.692.492,2.16,1.547.318.687.809,1.201,2.771,1.201,1.866,0,2.554-.392,2.554-1.079s-.957-.907-1.571-1.055c-3.754-.883-5.253-1.227-6.406-2.258-.735-.663-1.203-1.79-1.203-2.945,0-2.699,2.086-4.981,6.554-4.981,6.576,0,6.674,4.098,6.674,4.196ZM151.086,52.163c0,.933,0,3.976,3.583,3.976s3.583-3.043,3.583-3.976v-10.92c0-1.031.32-2.16,2.306-2.16,1.497,0,2.406.492,2.406,2.16v11.067c0,1.449-.124,4.492-2.649,6.306-1.694,1.227-3.706,1.644-5.669,1.644-3.167,0-5.523-1.177-6.798-2.747-.785-.957-1.473-2.602-1.473-5.203v-11.067c0-.759.122-2.16,2.306-2.16,1.449,0,2.406.468,2.406,2.16v10.92ZM169.059,58.077c0,.859-.172,2.184-2.332,2.184-1.668,0-2.38-.687-2.38-2.184v-14.944c0-2.699,1.251-3.535,3.533-3.535h4.516c2.945,0,4.024.589,4.466.859,1.547.933,3.067,2.773,3.067,5.693,0,2.627-1.251,4.737-2.871,5.792-1.545,1.005-4.122,1.005-4.662,1.005h-3.337v5.129ZM169.059,48.9h3.115c2.356,0,2.921-1.227,2.921-2.625,0-1.62-.809-2.602-2.921-2.602h-2.428c-.442,0-.687.27-.687.687v4.54ZM181.919,28.728h-96.942c-4.665,0-8.471,3.806-8.471,8.471v24.921c0,4.706,3.806,8.512,8.471,8.512h5.606v5.893c0,1.35,1.105,2.455,2.455,2.455,1.391,0,2.455-1.105,2.455-2.455v-5.893h75.868v5.893c0,1.35,1.105,2.455,2.455,2.455s2.455-1.105,2.455-2.455v-5.893h5.647c4.665,0,8.471-3.806,8.471-8.512v-24.921c0-4.665-3.806-8.471-8.471-8.471ZM185.479,62.12c0,2.005-1.596,3.601-3.56,3.601h-96.942c-1.964,0-3.56-1.596-3.56-3.601v-24.921c0-1.964,1.596-3.56,3.56-3.56h96.942c1.964,0,3.56,1.596,3.56,3.56v24.921ZM205.244,163.972h-5.156v-79.837c0-1.35-1.105-2.455-2.455-2.455h-127.51c-1.35,0-2.455,1.105-2.455,2.455v27.294c0,1.35,1.105,2.455,2.455,2.455s2.455-1.105,2.455-2.455v-14.732h122.599v67.274h-51.929v-25.044c0-1.35-1.105-2.455-2.455-2.455h-14.159c-1.35,0-2.455,1.105-2.455,2.455v25.044h-2.414c-1.391,0-2.455,1.105-2.455,2.455s1.064,2.455,2.455,2.455h83.479c1.35,0,2.455-1.105,2.455-2.455s-1.105-2.455-2.455-2.455ZM138.338,163.972h-9.248v-22.588h9.248v22.588ZM195.177,91.788h-122.599v-5.197h122.599v5.197ZM182.988,125.599h-14.274c-1.357,0-2.456-1.099-2.456-2.454v-14.538c0-1.355,1.099-2.454,2.456-2.454h14.274c1.357,0,2.456,1.099,2.456,2.454v14.538c0,1.355-1.099,2.454-2.456,2.454ZM171.169,120.692h9.363v-9.631h-9.363v9.631ZM182.988,155.914h-14.274c-1.357,0-2.456-1.099-2.456-2.454v-14.538c0-1.355,1.099-2.454,2.456-2.454h14.274c1.357,0,2.456,1.099,2.456,2.454v14.538c0,1.355-1.099,2.454-2.456,2.454ZM171.169,151.007h9.363v-9.631h-9.363v9.631ZM155.077,125.599h-14.274c-1.357,0-2.456-1.099-2.456-2.454v-14.538c0-1.355,1.099-2.454,2.456-2.454h14.274c1.357,0,2.456,1.099,2.456,2.454v14.538c0,1.355-1.099,2.454-2.456,2.454ZM143.258,120.692h9.363v-9.631h-9.363v9.631ZM126.654,125.599h-14.274c-1.357,0-2.456-1.099-2.456-2.454v-14.538c0-1.355,1.099-2.454,2.456-2.454h14.274c1.357,0,2.456,1.099,2.456,2.454v14.538c0,1.355-1.099,2.454-2.456,2.454ZM114.835,120.692h9.363v-9.631h-9.363v9.631ZM98.233,120.524c-1.357,0-2.456-1.099-2.456-2.454v-7.009h-11.819c-1.357,0-2.456-1.099-2.456-2.454s1.099-2.454,2.456-2.454h14.274c1.357,0,2.456,1.099,2.456,2.454v9.463c0,1.355-1.099,2.454-2.456,2.454Z"/>
    </g>
  </g>
</svg>