<?xml version="1.0" encoding="UTF-8"?>
<svg xmlns="http://www.w3.org/2000/svg" version="1.1" viewBox="0 0 220 206">
  <!-- Generator: Adobe Illustrator 28.7.10, SVG Export Plug-In . SVG Version: 1.2.0 Build 236)  -->
  <g>
    <g id="Layer_1">
      <g>
        <path d="M142.523,137.554c-.453,0-.852-.272-1.015-.699l-1.305-3.41c-.132-.347-.382-.642-.707-.831l-1.881-1.085c-.36-.211-.58-.584-.58-1.002s.215-.791.58-1.002l1.881-1.09c.325-.189.576-.483.707-.831l1.305-3.41c.163-.426.562-.699,1.015-.699s.852.272,1.015.699l1.305,3.406c.132.347.382.642.707.831l1.885,1.09c.36.211.58.584.58,1.002s-.215.791-.58,1.002l-1.881,1.085c-.325.189-.576.483-.707.831l-1.305,3.41c-.163.426-.562.699-1.015.699l-.004.004Z"/>
        <g>
          <path d="M110.014,159.965c-.779,0-1.476-.437-2.49-1.243-5.583-4.44-10.482-8.362-14.977-11.99-7.567-6.107-14.027-11.883-19.75-17.656-6.139-6.194-11.083-12.252-15.115-18.518l-.134-.205c-.437-.666-.932-1.421-.852-2.444.11-1.402,1.146-2.382,2.521-2.382,1.209.028,1.879.817,2.332,1.502l.663,1.01c1.117,1.705,2.272,3.469,3.531,5.107,2.803,3.65,5.499,6.819,8.24,9.688,6.47,6.772,13.494,13.178,21.473,19.582,4.784,3.841,9.563,7.687,14.337,11.54.118.096.17.109.177.11,0,0,.044-.013.137-.086,5.399-4.236,11.192-8.822,16.966-13.653,1.022-.855,2.038-1.719,3.054-2.582,1.026-.872,2.052-1.744,3.085-2.608.69-.578,1.383-.871,2.058-.871.693,0,1.322.315,1.818.912.963,1.156.711,2.775-.612,3.936-5.067,4.449-10.375,8.741-15.058,12.527-2.552,2.063-5.289,4.242-8.874,7.063-1.039.818-1.75,1.261-2.529,1.261Z"/>
          <path d="M157.805,54.946c-5.4-3.88-11.29-5.98-17.48-6.24-.5-.02-.99-.03-1.48-.03-6.48,0-12.51,1.86-17.92,5.52-4.2,2.85-7.74,6.75-10.82,11.92-.03.05-.06.11-.1.18-.05-.07-.08-.13-.11-.17-.87-1.41-2.06-3.26-3.45-5-6.4-7.95-14.8-12.14-24.95-12.45-.24-.02-.49-.03-.73-.03-.9,0-1.79.09-2.65.18-.29.03-.58.06-.87.09-.009,0-.018.002-.027.002-1.269.117-2.145,1.31-1.946,2.569.034.214.063.429.087.645.139,1.257,1.265,2.134,2.519,1.976,1.217-.154,2.414-.232,3.577-.232,6.71,0,12.84,2.51,18.23,7.45,3.33,3.05,5.54,6.93,7.7,10.97.43.81,1.18,1.9,2.62,1.9h.01c1.39,0,2.11-1.02,2.59-1.92,1.33-2.52,2.98-5.45,5.08-8.11,5.09-6.46,12.99-10.32,21.14-10.32,2.83,0,5.63.46,8.33,1.37,2.37.8,4.71,1.99,7.43,3.8.49.33,1.04.69,1.83.69,1.18-.03,2.03-.61,2.4-1.63.44-1.2.06-2.37-1.01-3.13Z"/>
          <path d="M169.715,94.556c-2.14,7.52-6.1,14.85-12.44,23.08-2.1,2.73-4.37,5.33-6.52,7.73-.57.65-1.32,1.01-2.09,1.01-.6,0-1.16-.22-1.63-.62-1.16-1-1.26-2.53-.24-3.72.69-.81,1.39-1.61,2.09-2.4,1.32-1.5,2.69-3.05,3.93-4.66,5.61-7.24,9.23-13.64,11.4-20.15,1.39-4.15,2.06-8.01,2.1-12.15-.15-6.17-1.73-11.65-4.7-16.27-.36-.55-.72-1.12-.78-1.85-.1-1.28.54-2.36,1.63-2.75.3-.1.6-.16.9-.16.84,0,1.6.43,2.12,1.2,2.17,3.16,3.76,6.8,4.87,11.14,1.67,6.51,1.46,13.24-.64,20.57Z"/>
          <path d="M57.305,68.156c.141-.26.292-.524.451-.792.697-1.169.406-2.685-.723-3.446-.014-.01-.029-.019-.043-.029-1.207-.822-2.875-.518-3.627.734-3.137,5.223-4.727,11.229-4.829,18.273-.04,3.43.47,7.04,1.6,11.34.57,2.15,1.3,4.18,2.15,6.01.44.95,1.35,1.54,2.36,1.54.29,0,.57-.05.85-.14,1.18-.4,1.8-1.5,1.61-2.87-.06-.42-.21-.8-.34-1.14-2.51-6.53-3.45-12.07-2.97-17.43.4-4.49,1.55-8.44,3.51-12.05Z"/>
          <path d="M156.905,77.146c-1.04,0-1.97-.63-2.42-1.65-1.25-2.81-2.68-4.89-4.49-6.54-3.31-3.02-6.87-4.52-10.87-4.58-.34,0-.78-.02-1.2-.14-1.19-.34-1.86-1.17-1.89-2.34-.03-1.13.56-2.01,1.66-2.49.45-.2.92-.23,1.27-.23l.31.01c5.08.21,9.58,1.95,13.37,5.19,2.84,2.42,4.96,5.26,6.31,8.42.11.27.25.62.35,1,.36,1.43-.28,2.75-1.57,3.2-.27.1-.55.15-.83.15Z"/>
          <path d="M161.085,82.986c.01.32.01.64,0,.96v.42c.01.86-.02,1.88-.26,2.91-.31,1.31-1.25,2.13-2.47,2.13-.09,0-.18-.01-.27-.02-1.45-.14-2.33-1.18-2.28-2.7.04-1.41.12-2.69.24-3.89.14-1.4,1.17-2.34,2.56-2.34h.13c1.37.06,2.27,1.03,2.35,2.53Z"/>
        </g>
        <path d="M63.429,63.287c-.558,0-1.046-.338-1.248-.857l-1.6-4.183c-.163-.426-.47-.791-.87-1.019l-2.311-1.336c-.444-.255-.712-.716-.712-1.23s.264-.976.712-1.23l2.311-1.336c.395-.229.703-.593.87-1.019l1.6-4.183c.198-.523.69-.857,1.248-.857s1.046.338,1.248.857l1.6,4.183c.163.426.47.791.866,1.019l2.311,1.336c.444.259.712.716.712,1.23s-.264.976-.712,1.23l-2.311,1.336c-.4.229-.707.593-.87,1.019l-1.6,4.183c-.198.523-.69.857-1.248.857h.004Z"/>
      </g>
    </g>
  </g>
</svg>