<?xml version="1.0" encoding="UTF-8"?>
<svg xmlns="http://www.w3.org/2000/svg" version="1.1" viewBox="0 0 220 206">
  <!-- Generator: Adobe Illustrator 28.7.8, SVG Export Plug-In . SVG Version: 1.2.0 Build 200)  -->
  <g>
    <g id="Layer_1">
      <path d="M63.892,40.748c-.45.491-1.105.737-1.76.737-.614,0-1.228-.246-1.678-.696l-.532-.532-.532.532c-.491.491-1.105.737-1.76.737-.614,0-1.228-.205-1.719-.655-.982-.982-.982-2.537-.041-3.478l.532-.532-.573-.532c-.941-.941-.982-2.496-.041-3.478.941-.982,2.496-.982,3.478-.041l.532.532.532-.532c.941-.982,2.496-1.023,3.478-.082.941.941.982,2.496.041,3.478l-.532.532.532.532c.982.941,1.023,2.496.041,3.478ZM99.573,139.361c5.033,0,9.134,4.096,9.134,9.134,0,5.037-4.096,9.134-9.134,9.134-5.037,0-9.134-4.096-9.134-9.134,0-5.037,4.096-9.134,9.134-9.134ZM99.573,152.71c2.324,0,4.215-1.891,4.215-4.215s-1.891-4.215-4.215-4.215-4.215,1.891-4.215,4.215,1.891,4.215,4.215,4.215ZM44.374,133.87c.409-7.939,1.228-15.345,2.455-22.138.532-2.701,1.146-5.442,1.841-8.184,1.473-5.729,4.379-11.09,8.389-15.427,9.698-10.476,20.624-18.865,32.532-24.921,9.698-4.951,21.115-7.529,33.023-7.529h41.821s2.905-2.537,2.905-2.537c.777-.737,1.964-.9,2.946-.45.982.45,1.637,1.432,1.637,2.537v8.266s5.79,0,5.79,0c1.314,0,2.521.868,2.811,2.148.405,1.776-.949,3.417-2.668,3.417h-5.934c0,1.723-1.641,3.073-3.417,2.668-1.281-.291-2.148-1.498-2.148-2.811v-7.591s-15.141,13.258-15.141,13.258l15.141,13.258v-4.992c0-1.514,1.228-2.742,2.742-2.742h16.937c1.498,0,2.819,1.15,2.864,2.648.053,1.6-1.195,2.881-2.742,2.881h-14.24s0,8.307,0,8.307c0,1.064-.655,2.046-1.637,2.496s-2.169.286-2.946-.409l-1.228-1.064h-20.215c-4.583,0-8.471-3.601-8.757-8.184l-1.105-18.619h-2.742s-2.66,35.069-2.66,35.069c-.246,3.54-1.24,6.916-2.811,10.042-.728,1.449-2.676,1.78-3.822.634q-.037-.037-.078-.037c-.737-.737-.941-1.882-.45-2.864,1.269-2.496,2.046-5.279,2.251-8.143l2.619-34.701h-2.496s-5.197,19.683-5.197,19.683c-1.187,3.724-4.46,6.425-8.307,6.875l-31.714,3.887v2.042c0,2.963-1.903,5.684-4.767,6.449-3.548.949-7.034-1.203-7.959-4.522-.205-.778-.409-1.596-.573-2.332l-12.399,1.555c-.082.041-.205.041-.286.041s-.205,0-.286-.041c-.368.982-.696,1.964-.941,2.987-.614,2.332-1.105,4.665-1.596,6.957-.041,0-.123.327-.246.9h8.471c.614,0,1.187.246,1.596.696s.614,1.064.532,1.678l-1.146,10.762c-.123,1.105-1.023,1.923-2.128,1.923-.082,0-.164,0-.246-.041-1.146-.123-2.005-1.146-1.882-2.332l.9-8.389h-6.752c-.777,5.238-1.76,13.054-1.555,14.159v.205c-.164,3.233-.164,6.384-.041,9.535l.286,4.911c0,.409.041.777.082,1.187.082.818.818,1.473,1.678,1.514l22.179.818v-.777c0-.941.041-1.841.123-2.742l-15.038-.638c-1.314-.057-2.353-1.138-2.353-2.455h0c0-1.395,1.162-2.508,2.553-2.455l15.861.634c3.274-10.639,13.177-18.374,24.88-18.374,4.87,0,9.412,1.309,13.299,3.683l4.256-5.893c.9-1.228,2.66-1.391,3.724-.327v.041c.859.859.982,2.169.286,3.151l-4.256,5.934c3.56,3.151,6.179,7.202,7.611,11.785h15.468s11.949-10.435,11.949-10.435c.778-.696,1.964-.9,2.946-.45.982.45,1.637,1.432,1.637,2.537v8.307s14.114,0,14.114,0c1.498,0,2.819,1.15,2.864,2.643.053,1.6-1.195,2.877-2.742,2.877h-17.023c-1.514,0-2.783-1.228-2.783-2.783v-4.951s-15.141,13.258-15.141,13.258l15.141,13.258v-7.591c0-1.318.855-2.541,2.136-2.852,1.78-.426,3.429.978,3.429,2.705h5.934c1.547,0,2.791,1.277,2.742,2.877-.049,1.498-1.367,2.643-2.864,2.643h-5.807s0,8.307,0,8.307c0,1.105-.655,2.087-1.637,2.537s-2.169.246-2.946-.45l-21.729-18.987h-7.243c-.737,0-1.391-.327-1.882-.859-.45-.532-.655-1.228-.573-1.964.131-.794.213-1.584.237-2.398.327-10.365-7.133-19.573-17.346-21.369-13.279-2.337-24.917,7.869-24.917,20.78,0,1.023.082,2.005.246,2.987.082.737-.123,1.473-.614,2.005s-1.228.9-1.923.818l-25.003-.941c-3.315-.123-6.097-2.701-6.384-5.974-.409-4.419-.573-8.921-.409-13.504l.004.012ZM142.053,86.442c.123,2.005,1.801,3.601,3.847,3.601h14.609s-15.304-13.381-15.304-13.381c-1.187-1.064-1.187-3.11,0-4.174l4.951-4.338h-9.166s1.064,18.292,1.064,18.292ZM155.843,63.199l2.987-2.619h-36.215c-6.752,0-13.299.9-19.397,2.619h52.624ZM72.61,101.174c.45,1.555,3.069,1.187,3.069-.327v-10.271c0-.859-.696-1.555-1.719-1.555-.696,0-1.269.409-1.473.982-1.105,3.356-1.064,7.038.123,11.171ZM66.758,95.363c0-2.414.327-4.706,1.064-6.916.859-2.578,3.315-4.338,6.343-4.338,3.56,0,6.466,2.905,6.466,6.466v3.069s31.141-3.847,31.141-3.847c1.964-.205,3.601-1.596,4.174-3.315l4.829-18.333h-30.036c-10.967,5.729-21.074,13.586-30.077,23.284-1.473,1.596-2.742,3.315-3.847,5.156,0,0,9.944-1.228,9.944-1.228ZM125.643,148.479v.9s4.542,0,4.542,0l4.174-3.642h-8.839c.082.9.123,1.801.123,2.742ZM99.573,130.134c10.124,0,18.361,8.237,18.361,18.361,0,10.124-8.237,18.361-18.361,18.361s-18.361-8.233-18.361-18.361c0-10.128,8.233-18.361,18.361-18.361ZM99.573,161.937c7.411,0,13.443-6.032,13.443-13.443,0-7.411-6.032-13.443-13.443-13.443s-13.443,6.032-13.443,13.443c0,7.411,6.032,13.443,13.443,13.443ZM109.611,107.275c-.123.02-.246.029-.368.029-1.199,0-2.247-.876-2.431-2.091-.201-1.346.724-2.594,2.067-2.799l8.426-1.264c1.346-.201,2.594.724,2.799,2.067.201,1.346-.724,2.594-2.067,2.799l-8.426,1.264v-.004ZM64.061,63.821c.41-1.087.078-2.306-.827-3.033-.913-.739-2.198-.799-3.177-.164-2.204,1.419-4.759,1.958-7.405,1.571h0c-4.566-.687-8.232-4.352-8.915-8.919-.396-2.633.148-5.195,1.571-7.405.637-.991.567-2.27-.172-3.181-.727-.899-1.936-1.223-3.029-.819-7.593,2.865-12.124,10.798-10.774,18.858,1.171,6.997,6.873,12.696,13.867,13.867.995.168,1.984.248,2.959.248,7.043,0,13.341-4.244,15.903-11.021ZM39.688,53.882c.947,6.33,6.03,11.409,12.358,12.356h.002c2.1.316,4.222.176,6.224-.38-2.867,3.649-7.529,5.515-12.398,4.7-5.299-.887-9.619-5.207-10.506-10.506-.815-4.867,1.053-9.531,4.702-12.396-.559,2.002-.695,4.124-.382,6.226ZM62.279,64.056s-.004.004-.006.008c.002-.004.004-.004.006-.008ZM81.115,53.359c0-1.355-1.255-2.61-2.612-2.61s-2.612,1.255-2.612,2.61,1.255,2.61,2.612,2.61,2.612-1.255,2.612-2.61Z"/>
    </g>
  </g>
</svg>