<?xml version="1.0" encoding="UTF-8"?>
<svg xmlns="http://www.w3.org/2000/svg" version="1.1" viewBox="0 0 220 206">
  <!-- Generator: Adobe Illustrator 28.7.8, SVG Export Plug-In . SVG Version: 1.2.0 Build 200)  -->
  <g>
    <g id="Layer_1">
      <path d="M185.561,146.008l-.327-1.76c-.859-4.706-3.151-9.003-6.507-12.112-5.933-5.524-13.013-9.862-21.033-13.013-3.806-1.473-7.939-2.251-12.195-2.251h-49.023c-6.547,0-11.908,5.361-11.908,11.949v33.309c0,3.724,3.028,6.752,6.752,6.752h1.719c1.31,4.829,5.77,8.389,11.049,8.389,5.238,0,9.698-3.56,11.049-8.389h38.056c1.35,4.829,5.811,8.389,11.09,8.389s9.739-3.56,11.09-8.389h4.91c3.601,0,6.629-2.905,6.752-6.466.246-6.834-.327-10.026-1.473-16.409ZM175.371,135.737c1.841,1.678,3.274,3.847,4.174,6.302l-29.954.164-.164-12.808h17.719c2.946,1.882,5.688,4.01,8.225,6.343ZM104.087,172.402c-3.642,0-6.588-2.987-6.588-6.588,0-3.642,2.946-6.588,6.588-6.588,3.601,0,6.548,2.946,6.548,6.588,0,3.601-2.946,6.588-6.548,6.588ZM164.282,172.402c-3.642,0-6.588-2.987-6.588-6.588,0-3.642,2.946-6.588,6.588-6.588,3.601,0,6.547,2.946,6.547,6.588,0,3.601-2.946,6.588-6.547,6.588ZM182.164,162.213c-.041.941-.9,1.76-1.882,1.76h-4.665c-.859-5.483-5.606-9.657-11.335-9.657s-10.476,4.174-11.335,9.657h-37.565c-.859-5.483-5.606-9.657-11.294-9.657-5.729,0-10.476,4.174-11.335,9.657h-1.432c-1.023,0-1.841-.818-1.841-1.841v-33.309c0-3.888,3.151-7.039,6.998-7.039h49.023c3.642,0,7.161.655,10.435,1.923.614.246,1.228.491,1.841.777h-8.348c-2.619,0-4.747,2.128-4.747,4.747v12.972c0,2.619,2.128,4.747,4.747,4.747h31.305c1.105,6.179,1.637,9.002,1.432,15.263ZM136.865,124.483h-40.103c-2.619,0-4.706,2.128-4.706,4.747v12.972c0,2.619,2.087,4.747,4.706,4.747h40.103c2.578,0,4.706-2.128,4.706-4.747v-12.972c0-2.619-2.128-4.747-4.706-4.747ZM96.762,129.394l17.596-.082v12.808l-17.391.082-.205-12.808ZM136.66,142.039l-17.391.082v-12.808l17.391-.082v12.808ZM153.232,153.348h-6.098c-1.357,0-2.456-1.099-2.456-2.454s1.099-2.454,2.456-2.454h6.098c1.357,0,2.456,1.099,2.456,2.454s-1.099,2.454-2.456,2.454ZM28.199,113.954c-1.357,0-2.456-1.099-2.456-2.454v-6.957c0-1.355,1.099-2.454,2.456-2.454s2.456,1.099,2.456,2.454v6.957c0,1.355-1.099,2.454-2.456,2.454ZM43.618,113.954c-1.357,0-2.456-1.099-2.456-2.454v-6.957c0-1.355,1.099-2.454,2.456-2.454s2.456,1.099,2.456,2.454v6.957c0,1.355-1.099,2.454-2.456,2.454ZM28.199,133.655c-1.357,0-2.456-1.099-2.456-2.454v-6.961c0-1.355,1.099-2.454,2.456-2.454s2.456,1.099,2.456,2.454v6.961c0,1.355-1.099,2.454-2.456,2.454ZM43.618,133.655c-1.357,0-2.456-1.099-2.456-2.454v-6.961c0-1.355,1.099-2.454,2.456-2.454s2.456,1.099,2.456,2.454v6.961c0,1.355-1.099,2.454-2.456,2.454ZM28.199,153.352c-1.357,0-2.456-1.099-2.456-2.454v-6.961c0-1.355,1.099-2.454,2.456-2.454s2.456,1.099,2.456,2.454v6.961c0,1.355-1.099,2.454-2.456,2.454ZM43.618,153.352c-1.357,0-2.456-1.099-2.456-2.454v-6.961c0-1.355,1.099-2.454,2.456-2.454s2.456,1.099,2.456,2.454v6.961c0,1.355-1.099,2.454-2.456,2.454ZM130.46,113.958c-1.357,0-2.456-1.099-2.456-2.454v-6.961c0-1.355,1.099-2.454,2.456-2.454s2.456,1.099,2.456,2.454v6.961c0,1.355-1.099,2.454-2.456,2.454ZM145.879,113.958c-1.357,0-2.456-1.099-2.456-2.454v-6.961c0-1.355,1.099-2.454,2.456-2.454s2.456,1.099,2.456,2.454v6.961c0,1.355-1.099,2.454-2.456,2.454ZM156.793,89.701h-36.256v-6.097c0-.614-.246-1.228-.655-1.678l-30.404-32.409v-2.537h21.074c.859,0,1.678-.491,2.128-1.269.45-.777.409-1.719-.041-2.455l-2.783-4.624,2.783-4.624c.45-.737.491-1.678.041-2.455-.45-.778-1.269-1.269-2.128-1.269h-21.279c-.327-.9-1.187-1.555-2.251-1.555-1.35,0-2.455,1.105-2.455,2.455v18.373l-30.364,32.369c-.409.45-.655,1.064-.655,1.678v6.097H17.294c-1.391,0-2.455,1.105-2.455,2.455v72.185h-3.765c-1.35,0-2.455,1.105-2.455,2.455s1.105,2.455,2.455,2.455h68.174c1.35,0,2.455-1.105,2.455-2.455s-1.105-2.455-2.455-2.455h-3.847v-29.218h3.847c1.35,0,2.455-1.105,2.455-2.455s-1.105-2.455-2.455-2.455h-6.302c-1.35,0-2.455,1.105-2.455,2.455v31.673h-12.031v-79.755l28.563-30.527,28.604,30.527v26.476c0,1.35,1.105,2.455,2.455,2.455s2.455-1.105,2.455-2.455v-16.45h33.801v18.824c0,1.391,1.105,2.455,2.455,2.455s2.455-1.064,2.455-2.455v-21.279c0-1.35-1.105-2.455-2.455-2.455ZM89.478,35.194h16.696l-1.269,2.169c-.491.778-.491,1.76,0,2.537l1.269,2.169h-16.696v-6.875ZM53.549,164.341H19.749v-69.729h33.801v69.729ZM86.763,112.383c-9.141,0-16.578-7.437-16.578-16.576s7.437-16.572,16.578-16.572,16.576,7.433,16.576,16.572-7.437,16.576-16.576,16.576ZM86.763,84.142c-6.434,0-11.667,5.235-11.667,11.665s5.233,11.669,11.667,11.669,11.665-5.235,11.665-11.669-5.233-11.665-11.665-11.665ZM211.382,133.854v.123c0,.696-.286,1.35-.818,1.841l-14.936,13.177c-.45.409-1.064.614-1.637.614-.327,0-.696-.082-1.023-.205-.859-.409-1.432-1.31-1.432-2.251v-6.016h-1.801c-1.35,0-2.455-1.105-2.455-2.455s1.105-2.455,2.455-2.455h4.256c1.35,0,2.455,1.105,2.455,2.455v3.028l8.88-7.775-8.88-7.816v3.028c0,1.35-1.105,2.455-2.455,2.455h-11.172c-1.35,0-2.455-1.105-2.455-2.455s1.105-2.455,2.455-2.455h8.716v-5.975c0-.982.573-1.841,1.432-2.251.9-.409,1.923-.246,2.66.409l14.936,13.136c.532.491.818,1.146.818,1.841ZM92.774,98.824h-6.01c-1.357,0-2.456-1.099-2.456-2.454v-8.516c0-1.355,1.099-2.454,2.456-2.454s2.456,1.099,2.456,2.454v6.062h3.555c1.357,0,2.456,1.099,2.456,2.454s-1.099,2.454-2.456,2.454Z"/>
    </g>
  </g>
</svg>