<?xml version="1.0" encoding="UTF-8"?>
<svg xmlns="http://www.w3.org/2000/svg" version="1.1" viewBox="0 0 220 206">
  <!-- Generator: Adobe Illustrator 28.7.10, SVG Export Plug-In . SVG Version: 1.2.0 Build 236)  -->
  <g>
    <g id="Layer_1">
      <g>
        <g>
          <path d="M-359.918-276.087c-9.523,0-17.27-7.747-17.27-17.27s7.747-17.27,17.27-17.27,17.27,7.747,17.27,17.27-7.747,17.27-17.27,17.27ZM-359.918-305.627c-6.766,0-12.27,5.504-12.27,12.27s5.504,12.27,12.27,12.27,12.27-5.504,12.27-12.27-5.504-12.27-12.27-12.27Z"/>
          <g>
            <path d="M-246.423-276.087c-9.523,0-17.27-7.747-17.27-17.27s7.747-17.27,17.27-17.27,17.27,7.747,17.27,17.27-7.747,17.27-17.27,17.27ZM-246.423-305.627c-6.766,0-12.27,5.504-12.27,12.27s5.504,12.27,12.27,12.27,12.27-5.504,12.27-12.27-5.504-12.27-12.27-12.27Z"/>
            <g>
              <path d="M-241.001-234.397h-27.41c-.565,0-1.024-.458-1.024-1.024v-22.99c0-5.72,3.881-10.387,8.689-10.502,1.349-.032,2.575-.967,2.675-2.313.108-1.467-1.049-2.69-2.493-2.69-7.648,0-13.871,6.955-13.871,15.504v22.99c0,3.327,2.697,6.024,6.024,6.024h27.408c1.333,0,2.399-1.057,2.465-2.388,0-.018.002-.036.003-.053.085-1.397-1.067-2.558-2.466-2.558Z"/>
              <path d="M-232.28-273.915c-1.444,0-2.601,1.223-2.493,2.69.099,1.346,1.326,2.28,2.675,2.313,4.807.115,8.687,4.781,8.687,10.5v22.993c0,.565-.458,1.024-1.024,1.024h-3.572c-1.398,0-2.551,1.16-2.466,2.556.001.018.002.036.003.053.066,1.332,1.131,2.391,2.465,2.391h3.57c3.327,0,6.024-2.697,6.024-6.024v-22.993c0-8.548-6.222-15.502-13.869-15.502Z"/>
            </g>
            <g>
              <path d="M-385.388-250.931c.01,0,.02,0,.03,0,1.323.008,2.428-.988,2.428-2.312v-5.168c0-5.72,3.881-10.387,8.689-10.502,1.349-.032,2.575-.967,2.675-2.313.108-1.467-1.049-2.69-2.493-2.69-7.648,0-13.871,6.955-13.871,15.504v5.172c0,1.327,1.108,2.337,2.434,2.308.036,0,.071-.001.108-.001Z"/>
              <path d="M-345.774-273.915c-1.444,0-2.601,1.223-2.493,2.69.099,1.346,1.326,2.28,2.675,2.313,4.807.115,8.687,4.781,8.687,10.5v22.993c0,.565-.458,1.024-1.024,1.024h-43.976c-.565,0-1.024-.458-1.024-1.024v-4.824c0-1.323-1.105-2.319-2.428-2.312-.01,0-.02,0-.03,0-.036,0-.072,0-.108-.001-1.326-.028-2.433.982-2.433,2.308v4.828c0,3.327,2.697,6.024,6.024,6.024h43.976c3.327,0,6.024-2.697,6.024-6.024v-22.993c0-8.548-6.222-15.502-13.869-15.502Z"/>
            </g>
          </g>
        </g>
        <g>
          <g>
            <g>
              <path d="M-304.629-259.233c-5.457,0-10.931-.299-16.387-.896-4.384-.499-7.917-3.954-8.412-8.218-1.052-7.629-1.052-15.366.007-22.942.489-4.269,4.032-7.744,8.417-8.202.097-.012.195-.024.294-.036v-1.145c0-2.042,1.131-3.888,2.958-4.836,1.699-.967,4.009-.875,5.769.382l6.607,4.733c5.778-.035,11.524.279,17.08.947,4.078.447,7.431,3.601,8.317,7.845.029.142.046.284.051.426,1.555,8.03,1.526,15.9-.087,23.399-.885,4.127-4.237,7.201-8.342,7.646-5.378.597-10.816.895-16.272.896ZM-315.168-301.177c-.028,0-.088.002-.114.018-.051.03-.104.059-.157.085-.167.083-.271.238-.271.403v3.414c0,1.296-.991,2.378-2.283,2.491-.843.073-1.642.143-2.441.242-2.089.219-3.798,1.879-4.026,3.867-1.003,7.181-1.003,14.455-.007,21.681.236,2.032,1.918,3.641,4.006,3.878,10.538,1.153,21.159,1.153,31.56,0,1.962-.213,3.567-1.71,3.999-3.726,1.496-6.954,1.493-14.279-.007-21.774-.021-.102-.035-.205-.042-.307-.533-1.952-2.07-3.371-3.915-3.572-5.626-.676-11.426-.98-17.27-.906-.528,0-1.054-.158-1.487-.468l-7.268-5.206c-.116-.083-.239-.117-.276-.119Z"/>
              <path d="M-312.601-284.284c-.654,0-2.057,0-2.057-1.814,0-1.572,1.16-1.767,1.984-1.791.508,0,2.709.024,3.17.024.024-.944.047-1.28.169-1.645.12-.412.532-.967,1.668-.967,2.104,0,2.033,1.21,1.984,2.565,3.047-.073,3.92-.097,5.539-.193.508-.026,3.219-.169,3.774-.169.461,0,1.936,0,1.936,1.789,0,.92-.412,1.598-1.379,1.743-1.428.193-8.104.339-10.064.386-.026.727-.026.944-.049,1.259.412-.049,1.452-.193,2.807-.193,3.749,0,5.516.944,6.652,1.789,2.322,1.767,2.711,4.066,2.711,5.661,0,6.315-6.049,7.233-8.419,7.233-1.548,0-1.936-.918-1.936-1.791,0-1.523.896-1.596,1.96-1.692,2.443-.193,4.499-1.016,4.499-3.92,0-1.426-.508-2.177-.918-2.612-.678-.727-1.405-.944-1.913-1.089-1.014,2.516-2.659,5.153-4.111,6.702.12.219.313.605.313,1.089,0,.871-.821,1.862-1.958,1.862-.678,0-.969-.29-1.162-.506-.532.362-1.864,1.257-3.581,1.257-2.612,0-4.257-2.129-4.257-4.984,0-3.944,2.734-6.436,5.589-7.765,0-.339.024-1.911.024-2.226h-2.975ZM-309.651-278.406c-2.153,1.598-2.153,3.581-2.153,3.993,0,.266,0,1.741,1.282,1.741.483,0,1.186-.386,1.692-.774-.506-1.668-.749-3.581-.821-4.96ZM-303.942-280.244c-.821,0-1.257.024-2.057.219-.047,1.379.049,2.37.169,3.363.8-1.089,1.308-2.153,1.887-3.581Z"/>
            </g>
            <g>
              <path d="M-278.251-311.078c-1.101,0-2.231-.374-3.181-1.052l-6.606-4.732c-5.774.033-11.524-.279-17.08-.947-4.078-.447-7.431-3.601-8.316-7.845-.029-.141-.046-.284-.051-.426-1.556-8.03-1.527-15.9.087-23.399.884-4.128,4.237-7.202,8.342-7.646,10.756-1.194,21.747-1.194,32.658,0,4.384.499,7.917,3.954,8.412,8.218,1.053,7.629,1.052,15.366-.007,22.942-.489,4.268-4.032,7.743-8.416,8.202-.097.012-.195.024-.294.036v1.144c0,2.042-1.131,3.887-2.958,4.836-.781.445-1.652.67-2.59.67ZM-287.246-321.871c.522,0,1.031.164,1.456.468l7.268,5.206c.116.083.238.116.276.119.022,0,.088-.001.114-.017.051-.03.103-.058.156-.085.168-.084.272-.239.272-.404v-3.414c0-1.296.991-2.378,2.283-2.491.843-.073,1.642-.143,2.441-.242,2.089-.219,3.798-1.879,4.026-3.867,1.004-7.181,1.004-14.455.007-21.681-.236-2.032-1.918-3.641-4.006-3.878-10.538-1.153-21.16-1.153-31.559,0-1.962.212-3.567,1.709-3.999,3.726-1.496,6.954-1.494,14.279.007,21.774.021.102.035.205.042.308.532,1.952,2.07,3.37,3.914,3.572,5.626.676,11.428.98,17.271.906h.031Z"/>
              <path d="M-296.85-327.142c1.002,0,1.462-.752,1.754-1.504l1.002-2.881h8.227l1.002,2.881c.25.71.752,1.504,1.671,1.504h.125c.794,0,3.007-.501,3.007-2.129,0-.417-.209-1.002-.209-1.002l-5.471-15.242c-.96-2.715-2.631-3.132-4.218-3.132-2.255,0-3.424,1.127-4.134,3.132l-5.471,15.242c-.209.626-.209.96-.209,1.127,0,1.252,1.837,2.004,2.923,2.004ZM-290.627-341.382c.21-.543.418-.71.627-.71.126,0,.335,0,.585.71l2.088,5.763h-5.346l2.046-5.763Z"/>
            </g>
          </g>
          <g>
            <g>
              <path d="M-325.137-301.476c-.828,0-1.638-.411-2.114-1.162-1.816-2.867-2.361-6.094-1.535-9.087.687-2.486,2.664-6.033,8.182-8.813,1.231-.624,2.736-.126,3.357,1.107.622,1.233.125,2.736-1.107,3.357-3.072,1.548-5.013,3.512-5.612,5.68-.572,2.071.194,3.905.938,5.079.739,1.167.393,2.711-.773,3.45-.415.263-.878.389-1.336.389Z"/>
              <path d="M-317.149-311.116c-.037,0-.073,0-.109-.002-1.38-.06-2.45-1.226-2.39-2.605l.221-5.137-5.028-.217c-1.379-.059-2.45-1.226-2.39-2.605.059-1.38,1.241-2.467,2.605-2.39l7.526.324c.663.028,1.287.319,1.735.808.448.488.684,1.135.655,1.797l-.329,7.635c-.058,1.342-1.165,2.392-2.496,2.392Z"/>
            </g>
            <g>
              <path d="M-273.933-296.789c-.914,0-1.795-.503-2.234-1.375-.622-1.233-.125-2.736,1.107-3.357,3.072-1.548,5.013-3.512,5.612-5.68.572-2.071-.195-3.905-.939-5.079-.739-1.167-.393-2.711.773-3.45,1.166-.738,2.711-.393,3.45.773,1.816,2.867,2.362,6.094,1.535,9.087-.687,2.486-2.664,6.033-8.181,8.813-.361.182-.745.268-1.123.268Z"/>
              <path d="M-269.065-293.52c-.037,0-.073,0-.109-.002l-7.525-.324c-1.379-.059-2.45-1.226-2.39-2.605l.329-7.635c.059-1.38,1.227-2.448,2.605-2.39,1.379.059,2.45,1.226,2.39,2.605l-.221,5.137,5.028.217c1.379.059,2.45,1.226,2.39,2.605-.058,1.343-1.165,2.393-2.496,2.393Z"/>
            </g>
          </g>
        </g>
      </g>
      <g>
        <path d="M-327.33-438.373c-4.164.01-8.173.791-11.728,2.91-5.017,2.991-10.264,3.689-15.919,2.609-3.585-.684-7.217-1.124-10.832-1.642-1.593-.228-2.868-.804-2.765-2.668.08-1.446,1.493-2.161,3.552-1.849,4.428.669,8.85,1.374,13.272,2.078,3.114.495,6.056-.037,8.784-1.575,4.714-2.657,9.715-4.229,15.163-4.162.84.01,1.128-.276,1.372-1.103,2.158-7.3,7.97-10.069,14.918-7.102.873.373,1.315.198,1.952-.376,6.763-6.102,15.479-5.253,20.781,2.044.687.946,1.259,1.084,2.385.777,6.576-1.792,12.604,1.496,14.677,7.969.306.956.592,1.208,1.661,1.137,5.815-.384,9.998,3.928,9.339,9.644-.147,1.275.254,1.987,1.081,2.835,3.397,3.481,4.377,7.675,2.721,12.196-1.626,4.44-4.979,7.022-9.785,7.417-.985.081-1.411.35-1.649,1.349-.723,3.032-2.691,4.915-5.741,5.557-.952.2-1.351.468-1.369,1.57-.065,4.075-2.154,6.394-6.16,6.975-.943.137-1.922.075-2.882.042-1.169-.04-2.463-.494-3.47-.128-1.129.41-.428,1.927-.772,2.929-.88,2.568-3.041,4.443-6.11,4.405-10.623-.129-21.233-.544-31.656-2.903-.403-.091-.799-.213-1.194-.335-1.372-.426-2.171-1.279-1.747-2.774.411-1.451,1.506-1.908,2.908-1.549,5.158,1.32,10.399,2.125,15.705,2.453,5.024.31,10.055.5,15.084.715,1.296.055,2.643-.054,2.707-1.779.065-1.75-1.33-1.859-2.591-1.966-5.083-.432-10.167-.856-15.254-1.252-1.612-.125-3.005-.567-2.764-2.507.233-1.878,1.697-2.064,3.289-1.931,8.726.73,17.454,1.435,26.182,2.146.412.034.826.061,1.239.067,1.548.022,2.838-.508,2.987-2.191.163-1.838-1.203-2.209-2.715-2.354-7.961-.761-15.919-1.555-23.878-2.334-1.142-.112-2.225-.326-2.594-1.631-.513-1.812.686-3.059,2.902-2.871,4.602.392,9.196.87,13.793,1.312,5.146.494,10.293.988,15.44,1.476.411.039.827.035,1.24.049,1.688.056,2.879-.653,3.028-2.398.145-1.696-.963-2.479-2.523-2.674-3.351-.419-6.703-.842-10.06-1.212-6.441-.71-12.886-1.376-19.328-2.083-1.517-.166-2.78-.805-2.553-2.578.221-1.728,1.505-2.141,3.08-1.912.545.079,1.098.113,1.646.17,7.541.787,15.083,1.575,22.624,2.362.274.029.548.065.823.082,1.39.087,2.527-.311,2.757-1.848.241-1.618-.728-2.456-2.196-2.699-3.874-.642-7.761-1.203-11.637-1.83-8.773-1.42-17.544-2.852-26.312-4.302-1.411-.233-2.867-.625-2.635-2.509.243-1.969,1.762-2.106,3.29-1.859,4.299.696,8.592,1.343,12.937.4,2.507-.544,4.721-1.563,5.984-3.962.387-.735.556-1.491-.758-1.46-8.674.203-17.162-1.226-25.623-2.918-1.344-.269-2.735-.305-4.104-.449ZM-296.878-426.95c6.687,1.081,13.018,1.988,19.299,3.159,4.672.871,6.62,4.197,5.523,8.836-.108.456-.518,1.039-.061,1.344,1.506,1.004,2.789,2.468,4.947,2.136,2.892-.445,5.725-2.792,6.359-5.492.69-2.94-.663-6.036-3.415-7.813-2.263-1.461-2.376-1.815-1.312-4.123.868-1.884.52-3.755-.938-5.044-1.458-1.288-3.397-1.403-5.143-.252-.977.644-1.889,1.538-3.167.786-1.291-.759-1.185-2.022-1.121-3.296.191-3.797-1.813-6.665-5.325-7.588-2.176-.572-4.199-.186-6.1,1.083-1.875,1.252-2.983.903-3.929-1.087-.206-.434-.339-.905-.553-1.335-3.161-6.356-11.565-7.012-15.648-1.226-1.891,2.679-2.341,2.739-4.982.662-3.146-2.473-7.509-1.555-9.095,1.882-.613,1.329-.578,2.009,1.161,2.368,7.65,1.577,15.348,2.503,23.17,2.447,4.26-.03,6.08,2.621,4.796,6.721-.548,1.751-1.519,3.229-2.895,4.443-.449.396-.897.792-1.573,1.39Z"/>
        <path d="M-258.393-512.839c-6.413,0-12.832-.175-19.238.041-9.309.314-17.057,7.655-18.259,16.964q-.849,6.581,5.653,6.575c.414,0,.828.002,1.241,0,1.586-.011,3.443.488,4.683-.173,1.33-.708.419-2.767.747-4.215.837-3.694,3.741-6.429,7.478-6.629,2.063-.111,4.137-.039,6.206-.036,1.418.002,2.48.554,2.53,2.106.052,1.619-.913,2.36-2.482,2.37-1.931.012-3.864-.043-5.793.034-2.717.109-4.814,3.816-3.566,6.198.26.497.779.532,1.197.726,1.819.842,2.675,2.299,2.798,4.245.026.413.027.827.031,1.241.057,5.881-1.1,7.078-6.92,7.093-5.724.014-11.449.029-17.173-.007-3.821-.024-5.322-1.545-5.488-5.387-.131-3.044-.237-6.055,3.416-7.354,1.01-.359.602-1.292.593-1.979-.079-6.407,1.442-12.298,5.565-17.343,4.568-5.591,10.471-8.64,17.686-8.963,3.442-.154,6.897-.1,10.343-.028,1.367.029,1.98-.254,1.92-1.796-.172-4.486.554-3.709-3.679-3.755-2.376-.026-4.703.013-6.533-1.883-1.845-1.912-2.499-4.141-1.626-6.646.891-2.558,2.776-4.313,5.495-4.358,8.48-.14,16.966-.171,25.445.003,3.475.071,5.894,3.135,5.801,6.586-.089,3.285-2.648,5.982-6.025,6.232-1.509.112-3.034.068-4.55.031-1.017-.025-1.438.295-1.494,1.408-.211,4.144-.256,4.144,3.874,4.151,3.586.006,7.173-.025,10.759.031,1.132.018,1.696-.186,1.885-1.503.668-4.671,3.585-7.113,8.34-7.166,5.915-.065,5.753-.503,5.733,5.696-.032,9.931-.002,19.863-.01,29.794-.002,2.895-.487,3.381-3.367,3.333-1.376-.023-2.764-.06-4.123-.252-3.596-.507-6.246-3.107-6.54-6.687-.126-1.533-.702-1.749-2.015-1.717-3.309.081-6.621.005-9.931.042-1.672.019-2.977-.472-2.914-2.361.06-1.779,1.391-2.149,2.935-2.139,3.448.023,6.897-.045,10.345.016,1.194.021,1.52-.396,1.489-1.55-.085-3.101-.139-6.209-.035-9.308.052-1.554-.595-1.818-1.943-1.808-6.827.049-13.656.022-20.483.022,0,.034,0,.068,0,.103ZM-226.221-506.63c0-4.338,0-8.677,0-13.015,0-.138-.02-.278-.002-.413.165-1.209-.395-1.533-1.542-1.468-2.45.139-3.783,1.569-3.817,4.426-.045,3.856-.01,7.713-.008,11.57.002,3.237-.063,6.476.028,9.71.076,2.676,1.165,3.816,3.429,4.098,1.359.169,1.981-.107,1.945-1.687-.101-4.405-.035-8.813-.033-13.221ZM-258.573-531.456v-.014c-3.784,0-7.568.012-11.353-.006-1.502-.007-2.919.216-2.895,2.09.024,1.841,1.428,2.084,2.933,2.081,7.5-.015,14.999-.025,22.499.004,1.447.006,2.507-.417,2.543-1.997.037-1.68-1.023-2.193-2.581-2.174-3.715.047-7.431.015-11.146.015ZM-290.096-480.67v.013c3.024,0,6.049-.063,9.07.027,1.464.044,1.589-.753,1.45-1.809-.133-1.008.594-2.504-1.447-2.491-5.91.039-11.82.068-17.729-.003-1.981-.024-1.486,1.282-1.578,2.37-.099,1.173.035,1.972,1.577,1.92,2.883-.098,5.771-.028,8.658-.028ZM-256.842-520.135c-.122-1.367.638-2.923-1.912-2.939-2.613-.017-1.965,1.553-2.021,2.94-.008.206.028.417-.005.618-.275,1.673.355,2.155,2.094,2.209,2.635.081,1.613-1.714,1.844-2.827Z"/>
        <path d="M-310.327-454.585c-2.872-.697-5.802-1.218-8.606-2.126-7.719-2.498-15.339-3.005-22.995.257-4.377,1.865-20.626-1.878-24.253-2.961-1.51-.451-2.82-1.192-2.201-3.051.615-1.844,2.101-1.614,3.605-1.179,3.967,1.147,7.936,2.287,11.921,3.367,3.059.829,6.217,1.008,9.148-.225,8.878-3.734,17.725-3.119,26.659-.313,2.289.719,4.69,1.072,7.012,1.698,1.38.372,2.387,1.18,1.914,2.853-.302,1.068-1.059,1.568-2.204,1.681Z"/>
        <path d="M-282.01-453.968c-4.669.013-7.828-4.087-6.537-8.551.927-3.208,2.53-6.107,4.424-8.827,1.359-1.952,2.952-1.885,4.27.095,1.799,2.704,3.335,5.557,4.27,8.681,1.344,4.49-1.748,8.59-6.427,8.602ZM-282.151-466.29c-.764,1.769-1.44,3.193-1.994,4.663-.388,1.03-.336,2.107.694,2.773.932.603,1.991.587,2.923-.035.956-.638.977-1.677.66-2.611-.527-1.55-1.046-3.125-2.284-4.791Z"/>
        <path d="M-341.971-398.053c.052,1.659-1.578,2.781-3.125,2.137-.314-.131-.644-.292-.883-.525-4.95-4.813-11.308-5.611-17.727-6.25-1.027-.102-2.065-.192-3.068-.421-1.328-.304-2.021-1.227-1.777-2.587.226-1.259,1.177-1.962,2.401-1.787,4.492.644,9.062.814,13.465,2.01,3.742,1.017,6.664,3.509,9.77,5.653.586.405.875,1.049.944,1.77Z"/>
        <path d="M-316.757-465.156c-3.805.003-6.813-2.921-6.781-6.594.03-3.535,2.938-6.542,6.379-6.598,3.708-.06,6.721,2.921,6.724,6.654.003,3.657-2.78,6.535-6.322,6.538ZM-314.953-471.733c-.104-1.228-.61-2.138-1.972-2.153-1.333-.014-2.052.824-2.037,2.072.014,1.18.558,2.142,1.957,2.159,1.375.017,1.913-.835,2.052-2.079Z"/>
        <path d="M-263.065-444.234c-3.805.003-6.813-2.921-6.781-6.594.03-3.535,2.938-6.542,6.379-6.598,3.708-.06,6.721,2.921,6.724,6.654.003,3.657-2.78,6.535-6.322,6.538ZM-261.261-450.811c-.104-1.228-.61-2.138-1.972-2.153-1.333-.014-2.052.824-2.037,2.072.014,1.18.558,2.142,1.957,2.159,1.375.017,1.913-.835,2.052-2.079Z"/>
        <path d="M-299.28-459.761c-3.835-.02-6.144-3.07-4.974-6.688.7-2.164,1.769-4.183,3.034-6.071,1.047-1.563,2.706-1.721,3.752-.29,1.46,1.996,2.822,4.097,3.407,6.548.839,3.517-1.609,6.52-5.219,6.501ZM-299.153-467.143c-.655,1.129-1.224,1.851-.684,2.739.218.359.788.37,1.092.05.837-.883-.022-1.576-.408-2.788Z"/>
        <path d="M-259.3-495.804c-1.409-.109-2.179-.983-2.116-2.422.06-1.382.99-2.119,2.331-2.096,1.433.024,2.396.85,2.343,2.309-.052,1.429-.979,2.207-2.558,2.209Z"/>
        <path d="M-267.64-467.234c-1.409-.109-2.179-.983-2.116-2.422.06-1.382.99-2.119,2.331-2.096,1.433.024,2.396.85,2.343,2.309-.052,1.429-.979,2.207-2.558,2.209Z"/>
        <path d="M-312.995-484.932c-1.409-.109-2.179-.983-2.116-2.422.06-1.382.99-2.119,2.331-2.096,1.433.024,2.396.85,2.343,2.309-.052,1.429-.979,2.207-2.558,2.209Z"/>
        <path d="M-336.191-395.735c1.402.216,2.441.957,2.448,2.353.006,1.391-.93,2.322-2.402,2.221-1.25-.085-2.283-.735-2.297-2.153-.014-1.442.858-2.223,2.251-2.422Z"/>
      </g>
      <g>
        <path d="M-283.945,124.853c-4.164.01-8.173.791-11.728,2.91-5.017,2.991-10.264,3.689-15.919,2.609-3.585-.684-7.217-1.124-10.832-1.642-1.593-.228-2.868-.804-2.765-2.668.08-1.446,1.493-2.161,3.552-1.849,4.428.669,8.85,1.374,13.272,2.078,3.114.495,6.056-.037,8.784-1.575,4.714-2.657,9.715-4.229,15.163-4.162.84.01,1.128-.276,1.372-1.103,2.158-7.3,7.97-10.069,14.918-7.102.873.373,1.315.198,1.952-.376,6.763-6.102,15.479-5.253,20.781,2.044.687.946,1.259,1.084,2.385.777,6.576-1.792,12.604,1.496,14.677,7.969.306.956.592,1.208,1.661,1.137,5.815-.384,9.998,3.928,9.339,9.644-.147,1.275.254,1.987,1.081,2.835,3.397,3.481,4.377,7.675,2.721,12.196-1.626,4.44-4.979,7.022-9.785,7.417-.985.081-1.411.35-1.649,1.349-.723,3.032-2.691,4.915-5.741,5.557-.952.2-1.351.468-1.369,1.57-.065,4.075-2.154,6.394-6.16,6.975-.943.137-1.922.075-2.882.042-1.169-.04-2.463-.494-3.47-.128-1.129.41-.428,1.927-.772,2.929-.88,2.568-3.041,4.443-6.11,4.405-10.623-.129-21.233-.544-31.656-2.903-.403-.091-.799-.213-1.194-.335-1.372-.426-2.171-1.279-1.747-2.774.411-1.451,1.506-1.908,2.908-1.549,5.158,1.32,10.399,2.125,15.705,2.453,5.024.31,10.055.5,15.084.715,1.296.055,2.643-.054,2.707-1.779.065-1.75-1.33-1.859-2.591-1.966-5.083-.432-10.167-.856-15.254-1.252-1.612-.125-3.005-.567-2.764-2.507.233-1.878,1.697-2.064,3.289-1.931,8.726.73,17.454,1.435,26.182,2.146.412.034.826.061,1.239.067,1.548.022,2.838-.508,2.987-2.191.163-1.838-1.203-2.209-2.715-2.354-7.961-.761-15.919-1.555-23.878-2.334-1.142-.112-2.225-.326-2.594-1.631-.513-1.812.686-3.059,2.902-2.871,4.602.392,9.196.87,13.793,1.312,5.146.494,10.293.988,15.44,1.476.411.039.827.035,1.24.049,1.688.056,2.879-.653,3.028-2.398.145-1.696-.963-2.479-2.523-2.674-3.351-.419-6.703-.842-10.06-1.212-6.441-.71-12.886-1.376-19.328-2.083-1.517-.166-2.78-.805-2.553-2.578.221-1.728,1.505-2.141,3.08-1.912.545.079,1.098.113,1.646.17,7.541.787,15.083,1.575,22.624,2.362.274.029.548.065.823.082,1.39.087,2.527-.311,2.757-1.848.241-1.618-.728-2.456-2.196-2.699-3.874-.642-7.761-1.203-11.637-1.83-8.773-1.42-17.544-2.852-26.312-4.302-1.411-.233-2.867-.625-2.635-2.509.243-1.969,1.762-2.106,3.29-1.859,4.299.696,8.592,1.343,12.937.4,2.507-.544,4.721-1.563,5.984-3.962.387-.735.556-1.491-.758-1.46-8.674.203-17.162-1.226-25.623-2.918-1.344-.269-2.735-.305-4.104-.449ZM-253.494,136.275c6.687,1.081,13.018,1.988,19.299,3.159,4.672.871,6.62,4.197,5.523,8.836-.108.456-.518,1.039-.061,1.344,1.506,1.004,2.789,2.468,4.947,2.136,2.892-.445,5.725-2.792,6.359-5.492.69-2.94-.663-6.036-3.415-7.813-2.263-1.461-2.376-1.815-1.312-4.123.868-1.884.52-3.755-.938-5.044-1.458-1.288-3.397-1.403-5.143-.252-.977.644-1.889,1.538-3.167.786-1.291-.759-1.185-2.022-1.121-3.296.191-3.797-1.813-6.665-5.325-7.588-2.176-.572-4.199-.186-6.1,1.083-1.875,1.252-2.983.903-3.929-1.087-.206-.434-.339-.905-.553-1.335-3.161-6.356-11.565-7.012-15.648-1.226-1.891,2.679-2.341,2.739-4.982.662-3.146-2.473-7.509-1.555-9.095,1.882-.613,1.329-.578,2.009,1.161,2.368,7.65,1.577,15.348,2.503,23.17,2.447,4.26-.03,6.08,2.621,4.796,6.721-.548,1.751-1.519,3.229-2.895,4.443-.449.396-.897.792-1.573,1.39Z"/>
        <path d="M-215.008,50.386c-6.413,0-12.832-.175-19.238.041-9.309.314-17.057,7.655-18.259,16.964q-.849,6.581,5.653,6.575c.414,0,.828.002,1.241,0,1.586-.011,3.443.488,4.683-.173,1.33-.708.419-2.767.747-4.215.837-3.694,3.741-6.429,7.478-6.629,2.063-.111,4.137-.039,6.206-.036,1.418.002,2.48.554,2.53,2.106.052,1.619-.913,2.36-2.482,2.37-1.931.012-3.864-.043-5.793.034-2.717.109-4.814,3.816-3.566,6.198.26.497.779.532,1.197.726,1.819.842,2.675,2.299,2.798,4.245.026.413.027.827.031,1.241.057,5.881-1.1,7.078-6.92,7.093-5.724.014-11.449.029-17.173-.007-3.821-.024-5.322-1.545-5.488-5.387-.131-3.044-.237-6.055,3.416-7.354,1.01-.359.602-1.292.593-1.979-.079-6.407,1.442-12.298,5.565-17.343,4.568-5.591,10.471-8.64,17.686-8.963,3.442-.154,6.897-.1,10.343-.028,1.367.029,1.98-.254,1.92-1.796-.172-4.486.554-3.709-3.679-3.755-2.376-.026-4.703.013-6.533-1.883-1.845-1.912-2.499-4.141-1.626-6.646.891-2.558,2.776-4.313,5.495-4.358,8.48-.14,16.966-.171,25.445.003,3.475.071,5.894,3.135,5.801,6.586-.089,3.285-2.648,5.982-6.025,6.232-1.509.112-3.034.068-4.55.031-1.017-.025-1.438.295-1.494,1.408-.211,4.144-.256,4.144,3.874,4.151,3.586.006,7.173-.025,10.759.031,1.132.018,1.696-.186,1.885-1.503.668-4.671,3.585-7.113,8.34-7.166,5.915-.065,5.753-.503,5.733,5.696-.032,9.931-.002,19.863-.01,29.794-.002,2.895-.487,3.381-3.367,3.333-1.376-.023-2.764-.06-4.123-.252-3.596-.507-6.246-3.107-6.54-6.687-.126-1.533-.702-1.749-2.015-1.717-3.309.081-6.621.005-9.931.042-1.672.019-2.977-.472-2.914-2.361.06-1.779,1.391-2.149,2.935-2.139,3.448.023,6.897-.045,10.345.016,1.194.021,1.52-.396,1.489-1.55-.085-3.101-.139-6.209-.035-9.308.052-1.554-.595-1.818-1.943-1.808-6.827.049-13.656.022-20.483.022,0,.034,0,.068,0,.103ZM-182.837,56.596c0-4.338,0-8.677,0-13.015,0-.138-.02-.278-.002-.413.165-1.209-.395-1.533-1.542-1.468-2.45.139-3.783,1.569-3.817,4.426-.045,3.856-.01,7.713-.008,11.57.002,3.237-.063,6.476.028,9.71.076,2.676,1.165,3.816,3.429,4.098,1.359.169,1.981-.107,1.945-1.687-.101-4.405-.035-8.813-.033-13.221ZM-215.188,31.769v-.014c-3.784,0-7.568.012-11.353-.006-1.502-.007-2.919.216-2.895,2.09.024,1.841,1.428,2.084,2.933,2.081,7.5-.015,14.999-.025,22.499.004,1.447.006,2.507-.417,2.543-1.997.037-1.68-1.023-2.193-2.581-2.174-3.715.047-7.431.015-11.146.015ZM-246.711,82.556v.013c3.024,0,6.049-.063,9.07.027,1.464.044,1.589-.753,1.45-1.809-.133-1.008.594-2.504-1.447-2.491-5.91.039-11.82.068-17.729-.003-1.981-.024-1.486,1.282-1.578,2.37-.099,1.173.035,1.972,1.577,1.92,2.883-.098,5.771-.028,8.658-.028ZM-213.457,43.09c-.122-1.367.638-2.923-1.912-2.939-2.613-.017-1.965,1.553-2.021,2.94-.008.206.028.417-.005.618-.275,1.673.355,2.155,2.094,2.209,2.635.081,1.613-1.714,1.844-2.827Z"/>
        <path d="M-266.942,108.641c-2.872-.697-5.802-1.218-8.606-2.126-7.719-2.498-15.339-3.005-22.995.257-4.377,1.865-20.626-1.878-24.253-2.961-1.51-.451-2.82-1.192-2.201-3.051.615-1.844,2.101-1.614,3.605-1.179,3.967,1.147,7.936,2.287,11.921,3.367,3.059.829,6.217,1.008,9.148-.225,8.878-3.734,17.725-3.119,26.659-.313,2.289.719,4.69,1.072,7.012,1.698,1.38.372,2.387,1.18,1.914,2.853-.302,1.068-1.059,1.568-2.204,1.681Z"/>
        <path d="M-238.626,109.257c-4.669.013-7.828-4.087-6.537-8.551.927-3.208,2.53-6.107,4.424-8.827,1.359-1.952,2.952-1.885,4.27.095,1.799,2.704,3.335,5.557,4.27,8.681,1.344,4.49-1.748,8.59-6.427,8.602ZM-238.766,96.935c-.764,1.769-1.44,3.193-1.994,4.663-.388,1.03-.336,2.107.694,2.773.932.603,1.991.587,2.923-.035.956-.638.977-1.677.66-2.611-.527-1.55-1.046-3.125-2.284-4.791Z"/>
        <path d="M-298.586,165.172c.052,1.659-1.578,2.781-3.125,2.137-.314-.131-.644-.292-.883-.525-4.95-4.813-11.308-5.611-17.727-6.25-1.027-.102-2.065-.192-3.068-.421-1.328-.304-2.021-1.227-1.777-2.587.226-1.259,1.177-1.962,2.401-1.787,4.492.644,9.062.814,13.465,2.01,3.742,1.017,6.664,3.509,9.77,5.653.586.405.875,1.049.944,1.77Z"/>
        <path d="M-273.373,98.069c-3.805.003-6.813-2.921-6.781-6.594.03-3.535,2.938-6.542,6.379-6.598,3.708-.06,6.721,2.921,6.724,6.654.003,3.657-2.78,6.535-6.322,6.538ZM-271.569,91.492c-.104-1.228-.61-2.138-1.972-2.153-1.333-.014-2.052.824-2.037,2.072.014,1.18.558,2.142,1.957,2.159,1.375.017,1.913-.835,2.052-2.079Z"/>
        <path d="M-219.68,118.992c-3.805.003-6.813-2.921-6.781-6.594.03-3.535,2.938-6.542,6.379-6.598,3.708-.06,6.721,2.921,6.724,6.654.003,3.657-2.78,6.535-6.322,6.538ZM-217.876,112.414c-.104-1.228-.61-2.138-1.972-2.153-1.333-.014-2.052.824-2.037,2.072.014,1.18.558,2.142,1.957,2.159,1.375.017,1.913-.835,2.052-2.079Z"/>
        <path d="M-255.895,103.464c-3.835-.02-6.144-3.07-4.974-6.688.7-2.164,1.769-4.183,3.034-6.071,1.047-1.563,2.706-1.721,3.752-.29,1.46,1.996,2.822,4.097,3.407,6.548.839,3.517-1.609,6.52-5.219,6.501ZM-255.769,96.083c-.655,1.129-1.224,1.851-.684,2.739.218.359.788.37,1.092.05.837-.883-.022-1.576-.408-2.788Z"/>
        <path d="M-215.915,67.422c-1.409-.109-2.179-.983-2.116-2.422.06-1.382.99-2.119,2.331-2.096,1.433.024,2.396.85,2.343,2.309-.052,1.429-.979,2.207-2.558,2.209Z"/>
        <path d="M-224.255,95.991c-1.409-.109-2.179-.983-2.116-2.422.06-1.382.99-2.119,2.331-2.096,1.433.024,2.396.85,2.343,2.309-.052,1.429-.979,2.207-2.558,2.209Z"/>
        <path d="M-269.611,78.293c-1.409-.109-2.179-.983-2.116-2.422.06-1.382.99-2.119,2.331-2.096,1.433.024,2.396.85,2.343,2.309-.052,1.429-.979,2.207-2.558,2.209Z"/>
        <path d="M-292.806,167.49c1.402.216,2.441.957,2.448,2.353.006,1.391-.93,2.322-2.402,2.221-1.25-.085-2.283-.735-2.297-2.153-.014-1.442.858-2.223,2.251-2.422Z"/>
      </g>
      <g>
        <path d="M-345.981,3.782c-7.761,0-15.522.015-23.283-.004-7.92-.02-14.293-5.061-16.146-12.739-.124-.515-.24-1.049-.243-1.574-.025-4.565-.034-9.13-.024-13.695.003-1.143.567-1.96,1.666-2.336,1.053-.361,1.949-.059,2.672.762.487.554.525,1.24.525,1.936-.001,3.804-.033,7.609.011,11.413.066,5.71,3.868,9.958,8.735,11.001,7.87,1.687,13.814-4.59,13.604-10.922-.119-3.572-.026-7.152-.021-10.728.003-2.451,1.001-3.536,3.472-3.461,6.352.192,12.703.096,19.054.111,1.281.003,2.23.833,2.385,2.01.164,1.247-.538,2.382-1.758,2.712-.504.137-1.051.159-1.579.16-5.022.012-10.044.006-15.066.009-1.438.001-1.486.05-1.487,1.466-.001,2.359-.026,4.718.014,7.076.07,4.033-1.058,7.65-3.607,10.805-.206.255-.603.516-.46.86.178.428.668.263,1.027.263,11.68.007,23.359-.005,35.039.024,1.044.003,1.263-.31,1.171-1.331-.138-1.548-.062-3.116-.041-4.675.006-.482.003-.901-.481-1.174-1.68-.95-2.517-2.538-2.968-4.296-.49-1.908-1.503-3.26-3.14-4.395-3.509-2.435-4.103-4.489-2.675-8.548.61-1.735.649-3.339-.008-5.093-1.46-3.896-.836-6.014,2.501-8.421,1.709-1.233,2.843-2.67,3.449-4.735,1.024-3.491,2.741-4.761,6.424-4.807,2.339-.029,4.344-.546,6.192-2.059,2.433-1.992,5.229-2.175,7.662-.196,2.152,1.75,4.492,2.185,7.074,2.216,2.757.033,4.73,1.365,5.491,3.978.763,2.62,2.174,4.539,4.443,6.052,2.809,1.873,3.149,4.695,1.99,7.603-.823,2.064-.732,3.883.016,5.924,1.259,3.434.556,5.695-2.499,7.83-1.815,1.268-3.02,2.713-3.536,4.9-.383,1.624-1.199,3.137-2.815,3.99-.446.235-.63.631-.63,1.132.003,1.709.009,3.418-.011,5.127-.008.671.266.969.949.958,6.426-.104,12.861.277,19.277-.197,5.198-.385,9.544-5.131,9.638-10.331.052-2.891-.014-5.783.04-8.674.019-1.03-.406-1.298-1.359-1.29-4.07.035-8.141.008-12.212.022-.832.003-1.575-.145-2.192-.759-1.253-1.247-.889-3.268.734-3.974.645-.281,1.329-.32,2.017-.284,4.409.229,8.818.187,13.228,0,.912-.039,1.827-.037,2.728.154,1.122.238,2.005,1.037,2.012,2.177.032,4.79.438,9.608-.165,14.363-.98,7.734-7.831,13.602-15.622,13.657-5.744.04-11.489.01-17.234.013q-1.838,0-1.837,1.786c.001,2.587-.025,5.174.016,7.761.021,1.331-.149,2.535-1.47,3.206-1.286.653-2.246-.121-3.226-.799-2.535-1.752-5.09-3.473-7.609-5.247-.664-.467-1.179-.469-1.842-.001-2.705,1.906-5.459,3.743-8.156,5.66-.87.619-1.718.807-2.658.333-.969-.489-1.437-1.332-1.452-2.408-.043-2.965-.15-5.933-.068-8.895.034-1.238-.391-1.422-1.481-1.417-8.065.041-16.131.022-24.196.022v-.006ZM-288.755-33.363c.029-.875-.419-1.313-.948-1.618-2.899-1.668-4.737-4.093-5.437-7.381-.201-.946-.834-1.425-1.825-1.346-3.274.263-6.156-.666-8.654-2.803-.916-.783-1.872-.797-2.779.003-2.443,2.158-5.291,3.072-8.523,2.806-1.139-.094-1.813.408-2.068,1.498-.731,3.124-2.405,5.536-5.24,7.123-.985.551-1.298,1.38-.832,2.507,1.227,2.973,1.381,5.99.061,8.973-.567,1.281-.171,2.097.958,2.719,2.707,1.491,4.212,3.829,4.96,6.783.411,1.623.821,1.909,2.541,1.822,3.076-.156,5.787.655,8.126,2.672.915.79,1.841.835,2.762.021,2.357-2.084,5.126-2.839,8.23-2.692,1.725.082,1.955-.089,2.408-1.771.809-3,2.317-5.434,5.12-6.947,1.086-.586,1.327-1.478.862-2.599-.131-.315-.205-.654-.332-.971-.9-2.258-.936-4.51-.027-6.781.281-.703.46-1.447.639-2.02ZM-298.814,9.554c0-.657-.016-1.069.002-1.481.215-4.829.031-9.661.098-14.491.012-.871-.388-1.041-1.15-.859-1.118.267-1.935,1.034-2.843,1.648-3.289,2.225-5.295,2.228-8.592-.005-.409-.277-.804-.576-1.211-.858-.537-.371-1.118-.616-1.769-.751-.772-.161-1.037.105-1.034.866.017,4.946.011,9.892.017,14.838,0,.258-.073.576.175.742.324.216.569-.075.808-.239,1.63-1.12,3.246-2.262,4.883-3.371,2.103-1.424,2.63-1.423,4.726-.022,1.92,1.284,3.828,2.587,5.889,3.981Z"/>
        <path d="M-361.617-137.563c11.68.002,23.36.001,35.041.003.494,0,.993-.014,1.481.047,1.337.165,2.241,1.166,2.255,2.446.013,1.219-.83,2.215-2.128,2.441-.482.084-.985.07-1.479.071-19.023.004-38.046.005-57.069.006-.304,0-.609-.008-.913.007-.385.02-.617.144-.302.554.046.06.097.117.145.176,2.824,3.426,3.805,7.392,3.795,11.782-.054,22.561-.022,45.123-.022,67.684,0,.797.06,1.607-.478,2.296-.639.818-1.431,1.252-2.487.965-1.055-.286-1.713-.977-1.878-2.061-.079-.522-.045-1.063-.045-1.595-.001-17.539,0-35.079,0-52.618q0-1.847-1.895-1.848c-7.305,0-14.609.004-21.914.002-2.901-.001-3.83-.907-3.782-3.842.068-4.181-.332-8.381.222-12.54.672-5.045,3.273-8.922,7.604-11.615,2.766-1.719,5.81-2.37,9.035-2.367,11.604.01,23.208.004,34.812.006ZM-397.077-112.225c1.672,0,3.344,0,5.017,0,1.71,0,3.421-.024,5.13.012.834.017,1.26-.206,1.244-1.148-.046-2.698.053-5.399-.046-8.094-.109-2.979-1.112-5.605-3.272-7.787-3.294-3.326-7.922-4.258-12.627-2.401-3.81,1.504-6.572,5.636-6.622,9.972-.031,2.698.028,5.397-.028,8.094-.022,1.061.377,1.384,1.4,1.37,3.268-.046,6.536-.017,9.805-.019Z"/>
        <path d="M-280.385-81.805c0,11.87,0,23.74-.001,35.609,0,.494.018.992-.03,1.482-.136,1.385-1.06,2.308-2.333,2.371-1.33.066-2.38-.789-2.622-2.194-.083-.482-.062-.985-.062-1.479-.002-23.854.022-47.707-.017-71.561-.009-5.723-2.447-10.207-7.447-13.133-2.061-1.206-4.317-1.869-6.745-1.841-1.178.014-2.365.046-3.534-.072-1.375-.138-2.332-1.274-2.306-2.536.024-1.182,1.165-2.313,2.494-2.386,4.651-.254,9.114.394,13.154,2.903,5.356,3.327,8.283,8.223,9.237,14.384.211,1.36.214,2.727.214,4.097-.002,11.451-.001,22.903-.001,34.354Z"/>
        <path d="M-333.056-66.133c11.259,0,22.518-.003,33.777.004,2.008.001,2.937.814,2.947,2.509.007,1.181-.632,2.056-1.8,2.298-.739.153-1.508.22-2.264.22-21.91.011-43.819.009-65.729.003-.53,0-1.068-.027-1.589-.118-1.416-.248-2.274-1.287-2.198-2.602.077-1.322,1.061-2.241,2.508-2.296.912-.034,1.826-.018,2.738-.018,10.536,0,21.073,0,31.609,0Z"/>
        <path d="M-341.838-71.795c-8.253,0-16.506,0-24.759-.002-.418,0-.842.015-1.252-.049-1.108-.175-1.979-1.158-2.063-2.276-.086-1.151.509-2.051,1.627-2.463.62-.229,1.266-.235,1.914-.235,16.468,0,32.935,0,49.403,0,.228,0,.457-.002.684.012,1.638.104,2.777,1.2,2.735,2.629-.038,1.321-1.247,2.374-2.847,2.377-8.481.014-16.962.007-25.443.007Z"/>
        <path d="M-348.367-50.559c-6.196-.001-12.393-.011-18.589.009-1.014.003-1.872-.218-2.496-1.076-1.085-1.49-.178-3.584,1.657-3.782.414-.045.835-.025,1.253-.025,11.214-.003,22.429-.011,33.643.004,1.363.002,2.721-.331,4.091-.025.875.196,1.554.587,1.887,1.46.654,1.713-.328,3.267-2.174,3.415-.454.036-.912.02-1.368.02-5.968.001-11.937,0-17.905,0Z"/>
        <path d="M-355.012-39.854c-3.799.001-7.598,0-11.397.002-.648,0-1.293-.012-1.909-.251-1.135-.44-1.728-1.417-1.584-2.604.136-1.118,1.037-2.021,2.18-2.15.376-.043.759-.029,1.138-.029,7.788-.003,15.576-.007,23.364-.005,2.227,0,3.402.88,3.372,2.5-.029,1.562-1.299,2.522-3.426,2.531-3.913.016-7.826.004-11.739.006Z"/>
        <path d="M-302.203-71.798c-1.103,0-2.206.028-3.308-.007-1.62-.052-2.663-1.036-2.708-2.497-.04-1.284,1.089-2.44,2.616-2.484,2.279-.065,4.563-.067,6.842.007,1.496.049,2.425,1.101,2.418,2.5-.007,1.478-.954,2.42-2.552,2.474-1.101.037-2.205.007-3.308.007Z"/>
        <path d="M-333.056-76.832c11.259,0,22.518-.003,33.777.004,2.008.001,2.937.814,2.947,2.509.007,1.181-.632,2.056-1.8,2.298-.739.153-1.508.22-2.264.22-21.91.011-43.819.009-65.729.003-.53,0-1.068-.027-1.589-.118-1.416-.248-2.274-1.287-2.198-2.602.077-1.322,1.061-2.241,2.508-2.296.912-.034,1.826-.018,2.738-.018,10.536,0,21.073,0,31.609,0Z"/>
        <path d="M-333.056-98.322c11.259,0,22.518-.003,33.777.004,2.008.001,2.937.814,2.947,2.509.007,1.181-.632,2.056-1.8,2.298-.739.153-1.508.22-2.264.22-21.91.011-43.819.009-65.729.003-.53,0-1.068-.027-1.589-.118-1.416-.248-2.274-1.287-2.198-2.602.077-1.322,1.061-2.241,2.508-2.296.912-.034,1.826-.018,2.738-.018,10.536,0,21.073,0,31.609,0Z"/>
        <path d="M-366.596-103.986c-.418,0-.842.015-1.252-.049-1.108-.175-1.979-1.158-2.063-2.276-.086-1.151.509-2.051,1.627-2.463.62-.229,1.266-.235,1.914-.235,16.468,0,2.935,0,19.403,0,.228,0,.457-.002.684.012,1.638.104,2.777,1.2,2.735,2.629-.038,1.321-1.247,2.374-2.847,2.377"/>
        <path d="M-302.203-103.987c-1.103,0-32.206.028-33.308-.007-1.62-.052-2.663-1.036-2.708-2.497-.04-1.284,1.089-2.44,2.616-2.484,2.279-.065,34.563-.067,36.842.007,1.496.049,2.425,1.101,2.418,2.5-.007,1.478-.954,2.42-2.552,2.474-1.101.037-2.205.007-3.308.007Z"/>
        <path d="M-366.596-82.503c-.418,0-.842.015-1.252-.049-1.108-.175-1.979-1.158-2.063-2.276-.086-1.151.509-2.051,1.627-2.463.62-.229,1.266-.235,1.914-.235,16.468,0,34.338,0,50.806,0,.228,0,.457-.002.684.012,1.638.104,2.777,1.2,2.735,2.629-.038,1.321-1.247,2.374-2.847,2.377"/>
        <path d="M-302.203-82.504c-1.103,0-.803.028-1.905-.007-1.62-.052-2.663-1.036-2.708-2.497-.04-1.284,1.089-2.44,2.616-2.484,2.279-.065,3.16-.067,5.439.007,1.496.049,2.425,1.101,2.418,2.5-.007,1.478-.954,2.42-2.552,2.474-1.101.037-2.205.007-3.308.007Z"/>
        <path d="M-341.838-114.682c-8.253,0-16.506,0-24.759-.002-.418,0-.842.015-1.252-.049-1.108-.175-1.979-1.158-2.063-2.276-.086-1.151.509-2.051,1.627-2.463.62-.229,1.266-.235,1.914-.235,16.468,0,32.935,0,49.403,0,.228,0,.457-.002.684.012,1.638.104,2.777,1.2,2.735,2.629-.038,1.321-1.247,2.374-2.847,2.377-8.481.014-16.962.007-25.443.007Z"/>
        <path d="M-302.203-114.685c-1.103,0-2.206.028-3.308-.007-1.62-.052-2.663-1.036-2.708-2.497-.04-1.284,1.089-2.44,2.616-2.484,2.279-.065,4.563-.067,6.842.007,1.496.049,2.425,1.101,2.418,2.5-.007,1.478-.954,2.42-2.552,2.474-1.101.037-2.205.007-3.308.007Z"/>
        <path d="M-385.691-37.922c0-1.064-.024-2.128.006-3.191.042-1.498.97-2.475,2.371-2.551,1.278-.069,2.401.881,2.454,2.324.086,2.351.075,4.71-.007,7.062-.044,1.262-1.106,2.104-2.397,2.135-1.233.03-2.281-.836-2.381-2.136-.092-1.208-.02-2.429-.02-3.644-.009,0-.018,0-.027,0Z"/>
        <path d="M-314.122-137.546c.608,0,1.22-.043,1.823.009,1.411.121,2.408,1.113,2.46,2.389.053,1.299-.723,2.273-2.168,2.488-1.466.218-2.959.232-4.426-.039-1.236-.229-2.05-1.229-2.038-2.381.012-1.146.975-2.271,2.187-2.424.71-.09,1.441-.016,2.162-.016,0-.009,0-.017,0-.026Z"/>
        <path d="M-320.867-28.007c-.415-7.227,6.189-14.013,14.011-13.915,7.629.096,13.738,6.343,13.698,14.045-.038,7.414-6.391,13.724-13.83,13.738-7.568.014-13.93-6.343-13.879-13.867ZM-316.006-27.964c-.015,4.808,4.022,8.84,8.873,8.862,5.034.023,9.101-4.009,9.099-9.021-.001-4.718-4.23-8.9-9.023-8.924-4.839-.024-8.934,4.132-8.949,9.083Z"/>
      </g>
      <g>
        <g>
          <path d="M56.116-449.32c2.018,1.061,3.878,1.431,5.641,2.057,14.072,4.998,28.155,9.963,42.231,14.95,2.346.831,4.654.84,6.985-.067,1.559-.606,3.142-1.156,4.734-1.668,1.454-.468,2.593-.014,3.068,1.125.528,1.266.032,2.633-1.348,3.215-2.855,1.206-5.782,2.235-8.852,2.733-1.63.264-3.258.003-4.829-.506-8.159-2.645-16.185-5.669-24.283-8.487-3.911-1.361-7.821-2.726-11.717-4.13-1.001-.361-1.346-.146-1.34.942.032,5.816.038,11.632,0,17.448-.008,1.124.537,1.757,1.374,2.343,4.006,2.806,8.537,4.401,13.189,5.682,7.74,2.131,15.636,3.133,23.663,3.361,3.394.096,6.767-.194,10.152-.115,1.673.039,2.695.771,2.739,2.085.051,1.505-.912,2.422-2.658,2.533-13.061.824-25.898-.346-38.429-4.285-3.127-.983-6.114-2.283-8.944-3.927-.847-.492-1.033-.313-1.084.611-.08,1.445.59,2.493,1.562,3.41,2.276,2.149,5.108,3.337,7.974,4.385,6.686,2.445,13.65,3.615,20.712,4.254,4,.362,8.013.553,12.027.471,10.712-.219,21.296-1.311,31.389-5.224,2.531-.981,4.993-2.163,6.962-4.144.916-.922,1.312-1.99,1.255-3.285-.036-.834-.278-.922-.975-.522-2.802,1.607-5.759,2.88-8.813,3.926-.555.19-1.119.348-1.716.333-1.145-.029-1.911-.581-2.212-1.684-.304-1.113.117-1.985,1.077-2.565.423-.255.919-.399,1.393-.559,3.384-1.137,6.631-2.552,9.635-4.511,1.106-.721,1.669-1.541,1.648-2.954-.081-5.606-.033-11.213-.042-16.82-.002-1.565-.052-1.606-1.569-1.084-2.848.98-5.673,2.026-8.533,2.967-1.435.472-2.522-.06-3.006-1.271-.488-1.222.04-2.448,1.355-3.112.298-.15.614-.268.929-.378,4.424-1.543,8.854-3.069,13.274-4.624,11.365-3.997,22.727-8.004,34.087-12.014.543-.192,1.223-.335,1.275-1.044.062-.852-.741-.933-1.292-1.129-7.686-2.731-15.383-5.433-23.073-8.153-15.696-5.553-31.388-11.115-47.084-16.666-1.695-.6-3.392-1.205-5.115-1.714-1.597-.472-3.22-.452-4.813.112-11.75,4.16-23.501,8.319-35.251,12.477-.67.237-1.337.49-2.019.687-1.291.373-2.422-.156-2.884-1.312-.494-1.234-.063-2.468,1.197-3.04,1.216-.551,2.487-.987,3.748-1.433,11.281-3.985,22.567-7.955,33.846-11.943,3.085-1.091,6.076-.701,9.079.37,8.864,3.16,17.741,6.284,26.615,9.417,15.778,5.571,31.556,11.139,47.336,16.704,1.794.633,3.345,1.559,4.139,3.393,1.16,2.678.06,5.753-2.559,7.04-2.561,1.259-5.318,2.009-7.996,2.962-8.039,2.862-16.092,5.688-24.131,8.549-2.749.978-2.737,1.007-2.738,3.989-.001,8.243-.142,16.489.052,24.728.1,4.231-1.81,7.087-5.018,9.366-3.845,2.732-8.22,4.27-12.727,5.476-8.042,2.151-16.241,3.079-24.55,3.363-9.204.314-18.302-.497-27.298-2.326-5.876-1.195-11.617-2.902-16.685-6.306-1.509-1.013-2.796-2.251-3.826-3.757-.975-1.426-1.445-2.977-1.441-4.716.022-9.038-.015-18.076.038-27.114.008-1.284-.334-1.96-1.607-2.372-3.103-1.004-6.157-2.161-9.235-3.242-1.327-.466-1.383-.426-1.37,1.043.053,6.023-.146,12.047.146,18.069.041.85.309,1.357,1.075,1.778,3.868,2.131,4.904,7.255,2.166,10.694-.464.583-.596,1.102-.48,1.825,1.254,7.803,2.474,15.612,3.708,23.419.452,2.856-.554,4.734-3.273,5.71-3.89,1.396-7.803,1.357-11.647-.214-2.408-.984-3.352-2.741-2.946-5.301,1.23-7.766,2.456-15.532,3.722-23.292.146-.895.019-1.584-.537-2.321-2.602-3.452-1.587-8.36,2.213-10.502.949-.535,1.249-1.132,1.243-2.173-.04-6.444-.053-12.888.009-19.331.012-1.202-.454-1.659-1.515-2.025-5.18-1.786-10.336-3.644-15.494-5.495-1.759-.631-3.213-1.62-3.806-3.528-.91-2.929.393-5.936,3.287-6.994,5.892-2.153,11.831-4.182,17.763-6.223,1.4-.482,2.58.128,3.042,1.41.441,1.225-.129,2.508-1.514,3.012-4.127,1.501-8.279,2.933-12.421,4.392-1.46.514-2.927,1.008-4.375,1.552-.486.183-1.145.304-1.172.978-.03.753.669.911,1.193,1.101,4.014,1.448,8.09,2.738,12.043,4.334,3.262,1.317,6.41,1.461,9.872.793,10.963-2.116,21.979-3.959,32.976-5.901,3.707-.655,7.414-1.306,11.127-1.922.888-.147,1.477-.472,1.899-1.352.752-1.569,2.1-2.596,3.698-3.235,3.987-1.594,7.988-1.67,11.962.051,1.534.664,2.804,1.658,3.573,3.195,1.158,2.312.522,4.937-1.57,6.468-4.415,3.232-11.51,3.295-15.931.054-.869-.637-1.632-.74-2.653-.558-12.969,2.312-25.947,4.578-38.922,6.859-.48.084-.954.199-1.775.372ZM47.334-387.291c.602.021,1.382-.098,2.163-.257,1.956-.398,2.004-.502,1.675-2.504-.812-4.942-1.59-9.89-2.384-14.836-.311-1.937-.626-3.873-.94-5.81-.068-.417-.101-.882-.689-.857-.529.023-.663.431-.742.862-.03.164-.045.331-.072.496-.998,6.308-1.997,12.616-2.996,18.923-.554,3.501-.217,3.894,3.411,3.981.125.003.251,0,.573,0ZM107.947-458.315c1.018.069,2.31-.228,3.522-.837.5-.252,1.203-.446,1.153-1.155-.042-.599-.661-.842-1.147-1.044-2.888-1.196-5.763-1.13-8.593.203-.364.172-.83.359-.853.832-.026.539.465.755.858.972,1.466.81,3.069,1.014,5.06,1.028ZM49.581-418.796c.052-1.317-1.082-2.54-2.375-2.56-1.33-.02-2.467,1.091-2.507,2.45-.036,1.242,1.073,2.409,2.345,2.467,1.399.063,2.48-.941,2.536-2.357Z"/>
          <path d="M169.481-499.779c-.01.902-.228,1.527-.704,2.037-2.425,2.595-4.837,5.203-7.298,7.764-.975,1.014-2.361,1.068-3.276.268-1.006-.881-1.209-2.272-.229-3.354,2.497-2.754,5.082-5.429,7.671-8.097.701-.722,1.636-.838,2.56-.415.832.381,1.219,1.101,1.275,1.798Z"/>
          <path d="M168.831-479.425c-1.095.032-2.135-.788-2.366-1.908-.246-1.191.293-2.084,1.333-2.557,1.365-.62,2.788-1.117,4.203-1.622,1.375-.491,2.754-.987,4.163-1.365,1.292-.346,2.336.28,2.79,1.501.411,1.105.011,2.341-1.192,2.812-2.835,1.108-5.728,2.068-8.599,3.083-.116.041-.246.042-.331.056Z"/>
          <path d="M147.835-494.937c-1.423.025-2.612-1.241-2.26-2.798.635-2.803,1.378-5.586,2.181-8.346.367-1.261,1.642-1.876,2.764-1.563,1.207.336,1.953,1.513,1.647,2.834-.622,2.68-1.292,5.349-2.007,8.005-.287,1.068-.923,1.879-2.325,1.869Z"/>
          <path d="M124.668-406.826c-1.744.011-2.749-.77-2.897-1.948-.156-1.249.512-2.262,1.845-2.585,1.335-.323,2.692-.58,4.053-.769,1.4-.195,2.427.537,2.728,1.807.271,1.142-.388,2.318-1.697,2.674-1.443.393-2.934.605-4.032.822Z"/>
          <path d="M60.428-472.809c-.057.789-.48,1.54-1.372,1.897-1.275.511-2.569.983-3.879,1.391-1.276.397-2.398-.144-2.893-1.284-.454-1.049-.074-2.267,1.051-2.886,1.388-.764,2.89-1.308,4.432-1.659,1.431-.326,2.703.88,2.661,2.542Z"/>
          <path d="M131.153-436.199c-.08.999-.56,1.717-1.475,2.151-1.287.61-2.652.999-4.02,1.358-1.186.311-2.125-.179-2.582-1.201-.458-1.028-.182-2.286.815-2.874,1.477-.872,3.103-1.459,4.8-1.699,1.306-.185,2.466.98,2.46,2.265Z"/>
          <path d="M173.535-503.526c-.981-.138-1.753-.504-2.189-1.359-.415-.814-.382-1.671.204-2.353.92-1.071,1.883-2.123,2.94-3.055.868-.765,1.94-.775,2.879-.053.867.667,1.079,1.656.614,2.588-.831,1.667-2.192,2.912-3.676,4.005-.217.16-.549.165-.773.227Z"/>
        </g>
        <g>
          <path d="M45.502-478.759c-.765,0-1.512-.378-1.947-1.068-1.126-1.764-2.327-3.473-3.57-5.083-.747-.968-.757-2.387.138-3.221,1.006-.937,2.579-.801,3.401.263,1.35,1.73,2.644,3.571,3.862,5.472.453.707.557,1.619.173,2.365-.447.869-1.28,1.276-2.053,1.276l-.004-.004Z"/>
          <path d="M68.712-491.656c-.453,0-.852-.272-1.015-.699l-1.305-3.41c-.132-.347-.382-.642-.707-.831l-1.881-1.085c-.36-.211-.58-.584-.58-1.002s.215-.791.58-1.002l1.881-1.09c.325-.189.576-.483.707-.831l1.305-3.41c.163-.426.562-.699,1.015-.699s.852.272,1.015.699l1.305,3.406c.132.347.382.642.707.831l1.885,1.09c.36.211.58.584.58,1.002s-.215.791-.58,1.002l-1.881,1.085c-.325.189-.576.483-.707.831l-1.305,3.41c-.163.426-.562.699-1.015.699l-.004.004Z"/>
          <path d="M-72.183-251.656c-.453,0-.852-.272-1.015-.699l-1.305-3.41c-.132-.347-.382-.642-.707-.831l-1.881-1.085c-.36-.211-.58-.584-.58-1.002s.215-.791.58-1.002l1.881-1.09c.325-.189.576-.483.707-.831l1.305-3.41c.163-.426.562-.699,1.015-.699s.852.272,1.015.699l1.305,3.406c.132.347.382.642.707.831l1.885,1.09c.36.211.58.584.58,1.002s-.215.791-.58,1.002l-1.881,1.085c-.325.189-.576.483-.707.831l-1.305,3.41c-.163.426-.562.699-1.015.699l-.004.004Z"/>
          <path d="M26.896-492.943h-2.916c-1.223,0-2.35-.879-2.457-2.097-.121-1.369.954-2.517,2.298-2.517h2.916c1.223,0,2.35.879,2.457,2.097.121,1.369-.954,2.517-2.298,2.517Z"/>
          <path d="M40.079-492.943h-2.916c-1.223,0-2.35-.879-2.457-2.097-.121-1.369.954-2.517,2.298-2.517h2.916c1.223,0,2.35.879,2.457,2.097.121,1.369-.954,2.517-2.298,2.517Z"/>
          <path d="M31.74-484.823c-1.219-.107-2.097-1.234-2.097-2.457v-2.757c0-1.223.879-2.35,2.097-2.457,1.369-.121,2.517.954,2.517,2.298v3.076c0,1.344-1.148,2.418-2.517,2.298Z"/>
          <path d="M32.155-505.704c1.218.107,2.097,1.234,2.097,2.457v2.757c0,1.223-.879,2.35-2.097,2.457-1.369.121-2.517-.954-2.517-2.298v-3.076c0-1.344,1.148-2.418,2.517-2.298Z"/>
        </g>
        <path d="M49.799-511.83c-4.087,0-7.413-3.326-7.413-7.413s3.326-7.413,7.413-7.413,7.413,3.326,7.413,7.413-3.326,7.413-7.413,7.413ZM49.799-522.034c-1.542,0-2.795,1.252-2.795,2.795s1.252,2.795,2.795,2.795,2.795-1.252,2.795-2.795-1.252-2.795-2.795-2.795Z"/>
        <path d="M169.481-399.413c-4.087,0-7.413-3.326-7.413-7.413s3.326-7.413,7.413-7.413,7.413,3.326,7.413,7.413-3.326,7.413-7.413,7.413ZM169.481-409.616c-1.542,0-2.795,1.252-2.795,2.795s1.252,2.795,2.795,2.795,2.795-1.252,2.795-2.795-1.252-2.795-2.795-2.795Z"/>
        <path d="M165.97-435.712c.286.07.562.197.811.381,2.391,1.76,5.346,2.809,8.319,2.975,1.267.036,2.247,1.15,2.177,2.427-.069,1.273-1.155,2.246-2.427,2.177-3.851-.201-7.685-1.579-10.798-3.861-1.027-.755-1.246-2.198-.496-3.226.571-.774,1.532-1.094,2.411-.877l.003.005Z"/>
        <path d="M188.68-420.122c-.558,0-1.046-.338-1.248-.857l-1.6-4.183c-.163-.426-.47-.791-.87-1.019l-2.311-1.336c-.444-.255-.712-.716-.712-1.23s.264-.976.712-1.23l2.311-1.336c.395-.229.703-.593.87-1.019l1.6-4.183c.198-.523.69-.857,1.248-.857s1.046.338,1.248.857l1.6,4.183c.163.426.47.791.866,1.019l2.311,1.336c.444.259.712.716.712,1.23s-.264.976-.712,1.23l-2.311,1.336c-.4.229-.707.593-.87,1.019l-1.6,4.183c-.198.523-.69.857-1.248.857h.004Z"/>
        <circle cx="190.983" cy="-404.637" r="2.188"/>
      </g>
      <g>
        <path d="M143.804-56.701c-1.116-7.407-2.456-14.775-4.263-22.045-1.964-7.9-4.364-15.658-8.227-22.881-1.449-2.71-3.026-5.345-5.083-7.642-2.301-2.57-4.865-4.802-8.117-6.156-1.356-.565-1.965-2.209-1.373-3.11,5.69-8.657,8.691-18.053,7.546-28.496-.609-5.551-2.345-10.754-5.893-15.171-2.649-3.298-6.023-5.934-9.238-8.577-8.975-7.377-19.629-9.116-30.868-7.542-9.899,1.386-17.596,6.814-23.876,14.265-4.421,5.245-9.424,9.239-16.41,10.224-1.254.177-2.02,1.298-1.74,2.533.148.651.392,1.265.794,1.802,1.774,2.366,3.907,4.313,6.665,5.457,1.14.473.447.723-.315,1.331-1.044.833-2.262,1.399-3.567,1.683-1.875.408-2.542,1.969-1.612,3.513.263.437.604.852.989,1.186,3.553,3.081,7.558,5.02,12.393,4.693,1.002-.068,1.393.303,1.637,1.246.912,3.531,2.577,6.722,5.096,9.34,2.326,2.418,3.236,5.012,2.517,8.355-.765,3.553,1.606,6.355,5.225,6.408,1.095.016,1.857.389,2.627,1.111,3.747,3.519,7.998,6.166,13.071,7.335.227.052.538.069.59.324.072.352-.29.432-.52.56-.278.154-.575.275-.869.396-3.743,1.544-7.666,2.426-11.639,3.093-3.167.532-6.32,1.216-9.386-.652-.892-.543-1.124-.86-.747-1.79.553-1.363,1.035-2.76,1.464-4.167.653-2.143-.233-4.173-2.224-5.235-1.269-.677-2.632-1.132-3.977-1.631-3.304-1.228-5.693-.138-6.918,3.181-.965,2.616-1.967,5.219-2.855,7.861-.335.996-.885,1.564-1.834,1.991-4.637,2.087-7.326,5.788-8.338,10.677-.537,2.594-.255,5.107,2.028,6.959.514.417.807.943.667,1.763-.349,2.039-.437,4.121.079,6.124.424,1.644.234,2.334-.884,2.62-8.103,2.073-16.2,4.168-24.298,6.262-2.352.608-4.714,1.184-7.046,1.865-1.638.478-2.508,1.569-2.576,2.937-.074,1.477.678,2.565,2.33,3.253.844.352,1.722.625,2.593.91,7.154,2.338,14.311,4.669,21.466,7.004,4.013,1.309,8.02,2.638,12.04,3.925,1.824.584,3.233-.73,2.819-2.576-.227-1.013-1.057-1.335-1.9-1.613-3.555-1.174-7.113-2.341-10.673-3.5-.641-.209-1.137-.374-.894-1.506.634-2.951.987-5.971.591-8.964-.214-1.619.076-2.116,1.108-2.369,2.785-.684,5.556-1.422,8.328-2.154,1.328-.35,2.556-.894,3.498-1.946,2.018-2.254,4.045-4.5,6.045-6.77.348-.395.667-.648,1.219-.503,1.984.522,3.877.102,5.706-.658,1.58-.657,3.136-1.376,4.683-2.108.978-.463,1.948-.658,3.059-.542,1.368.143,2.73.345,4.103.424,4.835.276,9.642.238,14.41-.482.708-.107,1.321-.073,1.391,1.278.053,1.028.491,1.983,1.052,2.847.403.619.507,1.286-.214,1.166-1.728-.287-3.508.027-5.218-.509-4.894-1.533-9.608-.885-14.167,1.277-2.222,1.054-4.203,2.46-5.654,4.481-2.657,3.701-.823,8.116,3.661,8.859,1.305.216,2.625.171,3.928-.025,1.165-.175,2.248-.111,3.358.41,1.691.794,3.584,1.069,5.384.567,1.302-.363,2.408-.161,3.599.276,3.666,1.343,7.38,2.569,11.216,3.308.502.097,1.676.257,2.977.42,1.151.144,2.057-.686,2.159-1.842.005-.057.011-.113.018-.17.129-1.043-.555-2.002-1.594-2.16-2.418-.367-4.892-.908-7.344-1.621-2.716-.79-5.41-1.645-8.057-2.644-.858-.324-1.722-.334-2.573-.02-1.674.619-3.304.433-4.87-.306-1.469-.694-2.98-.756-4.552-.573-.907.105-1.829.161-2.74.13-1.335-.046-1.735-.815-1.13-2.018.488-.971,1.341-1.578,2.215-2.126,3.957-2.481,8.125-3.255,12.792-2.203,5.339,1.204,10.801,1.286,16.236.48,2.688-.398,5.13-1.985,6.418-4.378.438-.813.831-.898,1.578-.548,3.677,1.724,7.369,3.419,11.07,5.093.755.342.935.675.449,1.431-1.474,2.294-3.19,4.365-5.241,6.165-1.14,1-2.361,1.78-3.681,2.356-.902.394-1.327,1.397-1.086,2.352.009.036.018.072.026.109.284,1.254,1.569,2.027,2.744,1.506,2.043-.906,3.917-2.192,5.621-3.873,2.95-2.909,5.3-6.226,7.266-9.867,2.533-4.688,4.484-9.591,5.832-14.736.401-1.528-.265-2.724-1.543-3.03-1.173-.28-2.24.499-2.625,2.005-.942,3.682-2.343,7.191-3.937,10.63-.664,1.434-.83,1.537-2.248.908-3.895-1.729-7.768-3.507-11.662-5.238-.649-.289-.73-.685-.625-1.325.539-3.27,1.346-6.471,2.35-9.625.856-2.687,2.122-5.15,3.983-7.289,1.471-1.692,3.338-2.526,5.568-2.578.361-.008.724.005,1.083-.017.969-.061,1.853-.742,2.056-1.692.283-1.323-.705-2.532-1.988-2.608-2.629-.154-5.115.324-7.358,1.826-2.922,1.957-4.773,4.755-6.195,7.877-2.151,4.72-3.143,9.767-4.073,14.824-.835,4.538-2.8,5.636-7.086,5.811-.766.031-1.157-.293-1.394-1.003-.492-1.472-1.056-2.921-1.568-4.387-.136-.389-.533-.88-.083-1.2.612-.435,1.4-.724,2.128-.605.574.094.328.806.352,1.253.087,1.583.912,2.52,2.274,2.533,1.272.012,2.128-1.06,2.077-2.689-.049-1.545-.129-3.089-.014-4.63.401-5.359.871-10.68,2.889-15.696.33-.82.981-1.462,1.808-1.775,2.638-1,5.166-2.245,7.512-3.818,3.465-2.323,6.607-5.01,8.936-8.52.617-.929,1.163-.971,2.012-.344.928.685,1.906,1.287,2.741,2.105,3.598,3.523,6.011,7.813,8.019,12.355,4.857,10.986,7.275,22.641,9.325,34.391.39,2.235.656,4.492,1.038,6.728.221,1.296,1.306,2.142,2.422,2.021,1.192-.13,1.904-1.058,1.871-2.484-.011-.476-.069-.953-.14-1.425ZM26.458-57.571c-.167,2.455-.305,4.912-.433,7.369-.035.668-.198,1.122-.993.863-4.87-1.589-9.738-3.182-14.605-4.779-.105-.035-.192-.128-.517-.352,3.802-.956,7.375-1.849,10.946-2.755,1.54-.391,3.08-.783,4.606-1.221.858-.246,1.049.086.996.875ZM51.591-102.099c.265-.628.537-1.164,1.387-.829.955.376,1.93.7,2.888,1.07.375.145.721.358.653.903-.065,1.017-.739,1.495-1.732,1.154-.859-.294-1.699-.645-2.558-.939-.704-.241-.935-.653-.638-1.359ZM39.085-80.584c-.115-.026-.229-.052-.344-.078-.467-2.91,1.125-5.047,2.984-7.087-.88,2.388-1.76,4.776-2.64,7.165ZM43.4-70.196c-.452.434-.719,1.05-1.493,1.451-.094-1.081-.187-2.018-.254-2.957-.045-.624.216-.909.863-.685.112.039.227.072.339.114,1.782.678,2.125.558.545,2.077ZM49.542-82.191c-.218.575-.67,1.078-1.078,1.561-1.046,1.24-1.625,2.627-1.496,4.27.032.407.098.837-.527.812-1.16-.442-2.33-.84-3.456-1.337-.625-.276-.29-.832-.14-1.256.849-2.401,1.709-4.798,2.584-7.189,1.285-3.513,2.611-7.01,3.86-10.535.329-.929.732-1.206,1.657-.768.861.407,1.776.699,2.67,1.034.542.203.721.506.499,1.1-1.533,4.099-3.021,8.216-4.573,12.308ZM94.606-98.151c-2.182,4.66-2.862,9.669-3.3,14.713-.116,1.339-.567,1.999-1.875,2.457-5.066,1.773-10.266,2.509-15.863,2.38-2.823.177-5.864-.294-8.912-.564-1.53-.135-2.913.122-4.289.716-2.189.945-4.276,2.14-6.623,2.699-.844.201-1.737.401-2.198-.568-.471-.99.19-1.675.919-2.216,1.022-.758,2.104-1.437,3.127-2.195.637-.472,1.256-.984,1.809-1.55,1.174-1.203.875-2.894-.685-3.463-.903-.329-.985-.74-.651-1.498.208-.472.353-.973.518-1.463.657-1.956.706-2.062,2.508-1.193,2.712,1.307,5.421,1.641,8.425,1.116,5.737-1.002,11.468-1.922,16.716-4.638,2.202-1.139,4.268-2.475,6.021-4.255,1.055-1.071,2.475-1.574,3.73-2.332.502-.303.729.02.839.468.12.488-.005.941-.214,1.386ZM113.213-112.594c-3.63,4.84-8.297,8.311-13.908,10.539-.376.149-.696.208-.906-.222-.223-.456-.283-.873.113-1.314.985-1.094,1.947-2.211,2.887-3.344.405-.488.775-1.017,1.087-1.569.632-1.119.353-2.542-.559-3.105-.942-.581-2.314-.257-3.024.838-1.805,2.783-4.07,5.059-6.87,6.864-4.596,2.963-9.176,2.58-13.827.214-2.904-1.477-5.502-3.356-7.664-5.804-.954-1.08-2.175-1.19-3.487-1.152-1.942.056-2.14-.091-1.799-2.017.772-4.359-.507-7.946-3.586-11.092-2.173-2.221-3.513-4.999-4.37-8-.221-.776-.109-1.301.668-1.649,1.679-.752,3.185-1.785,4.749-3.106.06.371.093.521.107.673.175,1.794,1.133,2.525,2.904,2.231,4.571-.758,8.341-3.011,11.615-6.197.991-.964.964-.951,1.62.254,2.221,4.085,5.497,6.982,9.878,8.563,2.462.888,3.415.324,4.022-2.206.73-3.039,4.012-4.272,6.585-2.474,3.353,2.342,3.715,7.021.76,9.823-.231.219-.469.432-.694.657-1.365,1.365-1.383,2.643.061,3.889,2.072,1.787,4.417,3.126,7.059,3.888,1.376.397,2.759.77,4.196.92,1.006.105,2.718,1.948,2.798,2.936.032.391-.201.676-.416.963ZM113.467-121.453c-.392.635-.879.856-1.588.774-2.524-.291-4.894-1.057-7.148-2.221-.801-.413-.62-.836-.167-1.396,4.296-5.305.975-13.576-4.213-15.791-3.902-1.666-8.532-.336-10.554,3.383-.602,1.108-1.071,1.193-2.077.549-3.187-2.042-5.11-4.948-6.107-8.536-.085-.307-.157-.618-.256-.921-.285-.873-.727-1.601-1.727-1.786-1.001-.185-1.669.321-2.236,1.061-1.801,2.353-3.761,4.544-6.318,6.113-.711.437-1.45.829-2.175,1.242-.576.328-.845.285-.798-.5.07-1.151.06-2.309.03-3.463-.03-1.099-.546-1.927-1.628-2.257-1.082-.33-1.825.242-2.437,1.07-2.773,3.747-6.221,6.554-10.758,7.946-3.033.931-5.726.096-8.362-1.29-.854-.449-.448-.813.107-1.173,2.028-1.314,3.814-2.875,5.056-4.989,1.189-2.023.334-3.73-1.985-3.798-2.112-.062-3.813-1.015-5.428-2.226-.535-.402-.594-.718.159-.933,6.127-1.75,10.58-5.782,14.606-10.503,4.671-5.478,10.141-9.905,17.215-11.966,1.145-.333,2.307-.633,3.481-.837,2.318-.403,4.656-.641,5.923-.586,7.805.047,14.115,1.558,19.877,5.099,2.053,1.261,3.87,2.792,5.392,4.671.372.459.791.922,1.282,1.237,4.161,2.668,6.689,6.524,8.118,11.157,2.736,8.872,1.467,17.391-2.345,25.674-.836,1.815-1.893,3.499-2.941,5.193Z"/>
        <path d="M73.722-32.796c-1.068-5.675-2.146-11.349-3.222-17.023-.152-.803-.444-1.539-1.327-1.94-.7-.318-1.552-.215-2.161.253-.853.656-.958,1.603-.767,2.619.836,4.463,1.668,8.926,2.54,13.382.366,1.869.386,1.892-1.5,1.892-25.579,0-51.157-.002-76.736-.004-.406,0-.813-.004-1.219-.016-.506-.016-.817-.447-.692-.937.197-.772.397-1.544.619-2.309,1.841-6.342,3.685-12.684,5.521-19.028.334-1.155-.362-2.348-1.528-2.643-.018-.005-.036-.009-.054-.014-1.097-.283-2.218.371-2.537,1.458-1.21,4.124-2.422,8.247-3.626,12.372-1.201,4.113-2.403,8.225-3.546,12.354-.425,1.534.505,3.048,2.084,3.245.416.052.84.038,1.261.038,13.905.001,27.81.001,41.715.001,1.195,0,2.391,0,3.586,0,12.829,0,25.658.006,38.487-.004,2.818-.002,3.615-.97,3.103-3.695Z"/>
        <path d="M-4.432-65.984c1.093.293,2.219-.356,2.533-1.444.12-.415.239-.83.358-1.246.338-1.185.831-1.561,2.044-1.556,9.801.046,19.602.026,29.403.021.517,0,1.047.025,1.548-.075,1.626-.327,2.345-2.113,1.41-3.424-.593-.831-1.471-.836-2.364-.836-10.558.004-21.116.004-31.674.003-1.804,0-3.399,1.184-3.909,2.914-.296,1.006-.591,2.012-.885,3.018-.332,1.134.341,2.31,1.483,2.61.018.005.036.009.054.014Z"/>
        <path d="M145.156-46.304c-.011,1.413-.793,2.336-1.978,2.336-1.213,0-2.321-1.215-2.325-2.548-.004-1.28.979-2.368,2.16-2.391,1.256-.024,2.155,1.069,2.143,2.604Z"/>
      </g>
      <g>
        <path d="M156.026-319.094c-.323-3.544-.665-7.02-1.318-10.586-.397-2.101-.977-4.412-2.699-5.794-2.05-1.656-5.036-1.681-7.576-2.073-12.039-1.585-22.911-6.434-33.113-14.871-1.881-1.518-4.293-3.711-6.456-3.639-2.015-.033-3.913,1.579-5.509,2.875-10.226,8.686-21.708,13.953-34.436,15.696-2.424.382-5.307.388-7.248,1.977-1.619,1.321-2.164,3.526-2.54,5.521-.603,3.356-1.018,6.627-1.312,9.805-.112,1.279-.152,2.871.771,3.781,1.017,1.053,2.592.488,3.437-1.064.874-1.64.818-3.709,1.09-5.545.881-16.881,13.464-2.206,42.188-25.284,3.815-2.882,7.168-.099,10.245,2.372,9.727,7.251,19.844,11.624,31.701,13.306,4.97.475,6.806,3.575,7.174,8.317,1.94,15.685,1.024,29.525-2.796,42.118-4.949,16.782-15.983,30.884-31.428,39.705-3.397,1.83-7.089,4.243-10.868,4.49-2.198.109-4.495-.757-6.535-1.733-19.962-9.698-32.748-25.707-38.027-47.451-1.239-5.049-1.968-10.104-2.261-15.273-.085-1.189-.224-2.232-.589-3.027-.693-1.58-2.242-2.321-3.365-1.375-1.181.914-1.122,2.803-1.03,4.456.253,3.848.713,7.577,1.415,11.376,4.597,25.649,19.401,45.607,43.208,56.468,2.922,1.391,6.137,2.378,9.327,1.542,5.32-1.51,9.973-4.287,14.489-7.174,26.578-17.039,36.777-47.623,34.079-78.715l-.017-.201Z"/>
        <g>
          <g>
            <path d="M46.782-241.207c-1.194.05-2.413-1.315-2.261-2.662.529-2.488,3.285-3.797,4.991-5.482,1.333-1.089,2.83-2.432,4.287-2.091,1.504.299,2.241,2.012,1.502,3.367-1.026,1.861-2.809,3.25-4.426,4.629-1.272.959-2.643,2.131-3.926,2.234l-.167.006Z"/>
            <path d="M62.799-232.802c-1.942-.179-2.374-2.53-2.173-4.167.523-2.664-.093-8.078,3.445-8.35,1.944.089,2.497,2.348,2.327,3.973-.512,2.635.19,8.153-3.433,8.553l-.166-.009Z"/>
            <path d="M47.511-258.362c-2.066-.231-4.887-.261-6.831-1.245-1.3-.695-1.569-2.481-.566-3.524,1.022-1.112,2.815-.98,4.353-.807,1.865.239,3.837.288,5.61.999,2.105.846,2.333,3.09.731,3.941-.881.505-2.078.667-3.111.642l-.186-.005Z"/>
          </g>
          <g>
            <path d="M166.635-340.513c-1.691-.021-2.777-1.962-1.934-3.455,1.791-2.767,4.602-5.113,7.546-6.651,1.958-.898,3.995,1.439,2.987,3.33-1.019,1.791-3.045,3.063-4.58,4.462-1.246.991-2.556,2.236-3.851,2.311l-.167.003Z"/>
            <path d="M156.016-346.687c-2.079-.049-2.613-2.513-2.402-4.214.534-2.623-.203-8.048,3.503-8.311,2.024.102,2.46,2.472,2.257,4.138-.522,2.685.089,7.689-3.201,8.382l-.157.005Z"/>
            <path d="M177.994-328.015c-2.733-.097-6.662-.068-9.058-1.689-1.824-1.703-.242-3.71,1.854-3.871,1.652-.26,3.3.048,4.943.239,1.588.207,3.572.431,4.388,1.637,1.053,1.499-.227,3.518-1.947,3.659l-.181.025Z"/>
          </g>
          <path d="M133.566-271.137c-1.102-.527-2.418-.139-3.072.892-4.732,7.462-11.212,13.594-19.694,18.511-1.819,1.066-3.959,2.059-5.989,2.03-1.927.023-3.828-.812-5.518-1.789-15.692-9.111-25.299-23.055-28.603-41.439-1.369-7.597-1.808-15.436-1.195-23.048.075-3.914,2.376-6.596,6.156-7.396,5.446-1.402,10.677-3.217,15.593-5.688,2.914-1.436,5.693-3.102,8.426-4.901,1.52-.972,3.175-1.989,5.012-2.018h.168c2.155.005,4.166,1.397,5.981,2.533,7.018,4.515,14.455,7.79,22.203,9.788,1.268.342,2.609.67,3.74,1.291,2.931,1.498,3.427,5.092,3.563,8.178.559,12.885-.922,23.676-4.597,33.353-.458,1.205.119,2.555,1.3,3.074.02.009.04.018.06.027,1.275.57,2.779-.049,3.27-1.356,4.865-12.954,6.004-28.437,4.216-42.444-.556-4.3-4.308-5.78-8.052-6.385-10.127-2.083-19.54-7.11-28.362-13.204-5.006-3.06-9.196,2.216-13.335,4.433-6.666,4.06-13.809,6.975-21.22,8.677-5.737.956-8.552,2.818-8.876,8.97-1.655,18.891.819,36.575,10.937,52.22,5.179,8.059,18.683,21.125,29.2,22.551l.188-.002c11.064-2.061,23.308-13.654,29.56-23.322.797-1.233.326-2.884-1.003-3.508-.02-.009-.039-.018-.059-.028Z"/>
          <path d="M99.83-277.949c-2.299-.119-4.193-2.13-5.819-3.655-2.928-3.375-7.149-6.104-8.304-10.367-.477-2.491,2.008-4.383,4.339-3.476,2.683.916,4.617,3.772,6.739,5.582,2.939,2.812,5.678.89,7.844-1.579,3.432-3.668,6.885-7.346,10.21-10.863,2.776-2.414,5.809-7.973,9.981-6.991,3.115,1.264,2.061,5.223.024,7.201-2.884,3.236-5.828,6.254-8.733,9.395-3.608,3.832-7.134,7.656-10.812,11.484-1.457,1.422-3.223,3.22-5.305,3.271h-.164Z"/>
        </g>
      </g>
      <g>
        <path d="M-104.691-229.245c-.779,0-1.476-.437-2.49-1.243-5.583-4.44-10.482-8.362-14.977-11.99-7.567-6.107-14.027-11.883-19.75-17.656-6.139-6.194-11.083-12.252-15.115-18.518l-.134-.205c-.437-.666-.932-1.421-.852-2.444.11-1.402,1.146-2.382,2.521-2.382,1.209.028,1.879.817,2.332,1.502l.663,1.01c1.117,1.705,2.272,3.469,3.531,5.107,2.803,3.65,5.499,6.819,8.24,9.688,6.47,6.772,13.494,13.178,21.473,19.582,4.784,3.841,9.563,7.687,14.337,11.54.118.096.17.109.177.11,0,0,.044-.013.137-.086,5.399-4.236,11.192-8.822,16.966-13.653,1.022-.855,2.038-1.719,3.054-2.582,1.026-.872,2.052-1.744,3.085-2.608.69-.578,1.383-.871,2.058-.871.693,0,1.322.315,1.818.912.963,1.156.711,2.775-.612,3.936-5.067,4.449-10.375,8.741-15.058,12.527-2.552,2.063-5.289,4.242-8.874,7.063-1.039.818-1.75,1.261-2.529,1.261Z"/>
        <path d="M-56.9-334.264c-5.4-3.88-11.29-5.98-17.48-6.24-.5-.02-.99-.03-1.48-.03-6.48,0-12.51,1.86-17.92,5.52-4.2,2.85-7.74,6.75-10.82,11.92-.03.05-.06.11-.1.18-.05-.07-.08-.13-.11-.17-.87-1.41-2.06-3.26-3.45-5-6.4-7.95-14.8-12.14-24.95-12.45-.24-.02-.49-.03-.73-.03-.9,0-1.79.09-2.65.18-.29.03-.58.06-.87.09-.009,0-.018.002-.027.002-1.269.117-2.145,1.31-1.946,2.569.034.214.063.429.087.645.139,1.257,1.265,2.134,2.519,1.976,1.217-.154,2.414-.232,3.577-.232,6.71,0,12.84,2.51,18.23,7.45,3.33,3.05,5.54,6.93,7.7,10.97.43.81,1.18,1.9,2.62,1.9h.01c1.39,0,2.11-1.02,2.59-1.92,1.33-2.52,2.98-5.45,5.08-8.11,5.09-6.46,12.99-10.32,21.14-10.32,2.83,0,5.63.46,8.33,1.37,2.37.8,4.71,1.99,7.43,3.8.49.33,1.04.69,1.83.69,1.18-.03,2.03-.61,2.4-1.63.44-1.2.06-2.37-1.01-3.13Z"/>
        <path d="M-44.99-294.654c-2.14,7.52-6.1,14.85-12.44,23.08-2.1,2.73-4.37,5.33-6.52,7.73-.57.65-1.32,1.01-2.09,1.01-.6,0-1.16-.22-1.63-.62-1.16-1-1.26-2.53-.24-3.72.69-.81,1.39-1.61,2.09-2.4,1.32-1.5,2.69-3.05,3.93-4.66,5.61-7.24,9.23-13.64,11.4-20.15,1.39-4.15,2.06-8.01,2.1-12.15-.15-6.17-1.73-11.65-4.7-16.27-.36-.55-.72-1.12-.78-1.85-.1-1.28.54-2.36,1.63-2.75.3-.1.6-.16.9-.16.84,0,1.6.43,2.12,1.2,2.17,3.16,3.76,6.8,4.87,11.14,1.67,6.51,1.46,13.24-.64,20.57Z"/>
        <path d="M-157.4-321.054c.141-.26.292-.524.451-.792.697-1.169.406-2.685-.723-3.446-.014-.01-.029-.019-.043-.029-1.207-.822-2.875-.518-3.627.734-3.137,5.223-4.727,11.229-4.829,18.273-.04,3.43.47,7.04,1.6,11.34.57,2.15,1.3,4.18,2.15,6.01.44.95,1.35,1.54,2.36,1.54.29,0,.57-.05.85-.14,1.18-.4,1.8-1.5,1.61-2.87-.06-.42-.21-.8-.34-1.14-2.51-6.53-3.45-12.07-2.97-17.43.4-4.49,1.55-8.44,3.51-12.05Z"/>
        <path d="M-57.8-312.064c-1.04,0-1.97-.63-2.42-1.65-1.25-2.81-2.68-4.89-4.49-6.54-3.31-3.02-6.87-4.52-10.87-4.58-.34,0-.78-.02-1.2-.14-1.19-.34-1.86-1.17-1.89-2.34-.03-1.13.56-2.01,1.66-2.49.45-.2.92-.23,1.27-.23l.31.01c5.08.21,9.58,1.95,13.37,5.19,2.84,2.42,4.96,5.26,6.31,8.42.11.27.25.62.35,1,.36,1.43-.28,2.75-1.57,3.2-.27.1-.55.15-.83.15Z"/>
        <path d="M-53.62-306.224c.01.32.01.64,0,.96v.42c.01.86-.02,1.88-.26,2.91-.31,1.31-1.25,2.13-2.47,2.13-.09,0-.18-.01-.27-.02-1.45-.14-2.33-1.18-2.28-2.7.04-1.41.12-2.69.24-3.89.14-1.4,1.17-2.34,2.56-2.34h.13c1.37.06,2.27,1.03,2.35,2.53Z"/>
      </g>
      <path d="M-151.276-325.924c-.558,0-1.046-.338-1.248-.857l-1.6-4.183c-.163-.426-.47-.791-.87-1.019l-2.311-1.336c-.444-.255-.712-.716-.712-1.23s.264-.976.712-1.23l2.311-1.336c.395-.229.703-.593.87-1.019l1.6-4.183c.198-.523.69-.857,1.248-.857s1.046.338,1.248.857l1.6,4.183c.163.426.47.791.866,1.019l2.311,1.336c.444.259.712.716.712,1.23s-.264.976-.712,1.23l-2.311,1.336c-.4.229-.707.593-.87,1.019l-1.6,4.183c-.198.523-.69.857-1.248.857h.004Z"/>
      <g>
        <g>
          <path d="M-196.888-95.702c2.018,1.061,3.878,1.431,5.641,2.057,14.072,4.998,28.155,9.963,42.231,14.95,2.346.831,4.654.84,6.985-.067,1.559-.606,3.142-1.156,4.734-1.668,1.454-.468,2.593-.014,3.068,1.125.528,1.266.032,2.633-1.348,3.215-2.855,1.206-5.782,2.235-8.852,2.733-1.63.264-3.258.003-4.829-.506-8.159-2.645-16.185-5.669-24.283-8.487-3.911-1.361-7.821-2.726-11.717-4.13-1.001-.361-1.346-.146-1.34.942.032,5.816.038,11.632,0,17.448-.008,1.124.537,1.757,1.374,2.343,4.006,2.806,8.537,4.401,13.189,5.682,7.74,2.131,15.636,3.133,23.663,3.361,3.394.096,6.767-.194,10.152-.115,1.673.039,2.695.771,2.739,2.085.051,1.505-.912,2.422-2.658,2.533-13.061.824-25.898-.346-38.429-4.285-3.127-.983-6.114-2.283-8.944-3.927-.847-.492-1.033-.313-1.084.611-.08,1.445.59,2.493,1.562,3.41,2.276,2.149,5.108,3.337,7.974,4.385,6.686,2.445,13.65,3.615,20.712,4.254,4,.362,8.013.553,12.027.471,10.712-.219,21.296-1.311,31.389-5.224,2.531-.981,4.993-2.163,6.962-4.144.916-.922,1.312-1.99,1.255-3.285-.036-.834-.278-.922-.975-.522-2.802,1.607-5.759,2.88-8.813,3.926-.555.19-1.119.348-1.716.333-1.145-.029-1.911-.581-2.212-1.684-.304-1.113.117-1.985,1.077-2.565.423-.255.919-.399,1.393-.559,3.384-1.137,6.631-2.552,9.635-4.511,1.106-.721,1.669-1.541,1.648-2.954-.081-5.606-.033-11.213-.042-16.82-.002-1.565-.052-1.606-1.569-1.084-2.848.98-5.673,2.026-8.533,2.967-1.435.472-2.522-.06-3.006-1.271-.488-1.222.04-2.448,1.355-3.112.298-.15.614-.268.929-.378,4.424-1.543,8.854-3.069,13.274-4.624,11.365-3.997,22.727-8.004,34.087-12.014.543-.192,1.223-.335,1.275-1.044.062-.852-.741-.933-1.292-1.129-7.686-2.731-15.383-5.433-23.073-8.153-15.696-5.553-31.388-11.115-47.084-16.666-1.695-.6-3.392-1.205-5.115-1.714-1.597-.472-3.22-.452-4.813.112-11.75,4.16-23.501,8.319-35.251,12.477-.67.237-1.337.49-2.019.687-1.291.373-2.422-.156-2.884-1.312-.494-1.234-.063-2.468,1.197-3.04,1.216-.551,2.487-.987,3.748-1.433,11.281-3.985,22.567-7.955,33.846-11.943,3.085-1.091,6.076-.701,9.079.37,8.864,3.16,17.741,6.284,26.615,9.417,15.778,5.571,31.556,11.139,47.336,16.704,1.794.633,3.345,1.559,4.139,3.393,1.16,2.678.06,5.753-2.559,7.04-2.561,1.259-5.318,2.009-7.996,2.962-8.039,2.862-16.092,5.688-24.131,8.549-2.749.978-2.737,1.007-2.738,3.989-.001,8.243-.142,16.489.052,24.728.1,4.231-1.81,7.087-5.018,9.366-3.845,2.732-8.22,4.27-12.727,5.476-8.042,2.151-16.241,3.079-24.55,3.363-9.204.314-18.302-.497-27.298-2.326-5.876-1.195-11.617-2.902-16.685-6.306-1.509-1.013-2.796-2.251-3.826-3.757-.975-1.426-1.445-2.977-1.441-4.716.022-9.038-.015-18.076.038-27.114.008-1.284-.334-1.96-1.607-2.372-3.103-1.004-6.157-2.161-9.235-3.242-1.327-.466-1.383-.426-1.37,1.043.053,6.023-.146,12.047.146,18.069.041.85.309,1.357,1.075,1.778,3.868,2.131,4.904,7.255,2.166,10.694-.464.583-.596,1.102-.48,1.825,1.254,7.803,2.474,15.612,3.708,23.419.452,2.856-.554,4.734-3.273,5.71-3.89,1.396-7.803,1.357-11.647-.214-2.408-.984-3.352-2.741-2.946-5.301,1.23-7.766,2.456-15.532,3.722-23.292.146-.895.019-1.584-.537-2.321-2.602-3.452-1.587-8.36,2.213-10.502.949-.535,1.249-1.132,1.243-2.173-.04-6.444-.053-12.888.009-19.331.012-1.202-.454-1.659-1.515-2.025-5.18-1.786-10.336-3.644-15.494-5.495-1.759-.631-3.213-1.62-3.806-3.528-.91-2.929.393-5.936,3.287-6.994,5.892-2.153,11.831-4.182,17.763-6.223,1.4-.482,2.58.128,3.042,1.41.441,1.225-.129,2.508-1.514,3.012-4.127,1.501-8.279,2.933-12.421,4.392-1.46.514-2.927,1.008-4.375,1.552-.486.183-1.145.304-1.172.978-.03.753.669.911,1.193,1.101,4.014,1.448,8.09,2.738,12.043,4.334,3.262,1.317,6.41,1.461,9.872.793,10.963-2.116,21.979-3.959,32.976-5.901,3.707-.655,7.414-1.306,11.127-1.922.888-.147,1.477-.472,1.899-1.352.752-1.569,2.1-2.596,3.698-3.235,3.987-1.594,7.988-1.67,11.962.051,1.534.664,2.804,1.658,3.573,3.195,1.158,2.312.522,4.937-1.57,6.468-4.415,3.232-11.51,3.295-15.931.054-.869-.637-1.632-.74-2.653-.558-12.969,2.312-25.947,4.578-38.922,6.859-.48.084-.954.199-1.775.372ZM-205.67-33.673c.602.021,1.382-.098,2.163-.257,1.956-.398,2.004-.502,1.675-2.504-.812-4.942-1.59-9.89-2.384-14.836-.311-1.937-.626-3.873-.94-5.81-.068-.417-.101-.882-.689-.857-.529.023-.663.431-.742.862-.03.164-.045.331-.072.496-.998,6.308-1.997,12.616-2.996,18.923-.554,3.501-.217,3.894,3.411,3.981.125.003.251,0,.573,0ZM-145.057-104.698c1.018.069,2.31-.228,3.522-.837.5-.252,1.203-.446,1.153-1.155-.042-.599-.661-.842-1.147-1.044-2.888-1.196-5.763-1.13-8.593.203-.364.172-.83.359-.853.832-.026.539.465.755.858.972,1.466.81,3.069,1.014,5.06,1.028ZM-203.423-65.179c.052-1.317-1.082-2.54-2.375-2.56-1.33-.02-2.467,1.091-2.507,2.45-.036,1.242,1.073,2.409,2.345,2.467,1.399.063,2.48-.941,2.536-2.357Z"/>
          <path d="M-83.524-146.161c-.01.902-.228,1.527-.704,2.037-2.425,2.595-4.837,5.203-7.298,7.764-.975,1.014-2.361,1.068-3.276.268-1.006-.881-1.209-2.272-.229-3.354,2.497-2.754,5.082-5.429,7.671-8.097.701-.722,1.636-.838,2.56-.415.832.381,1.219,1.101,1.275,1.798Z"/>
          <path d="M-84.173-125.807c-1.095.032-2.135-.788-2.366-1.908-.246-1.191.293-2.084,1.333-2.557,1.365-.62,2.788-1.117,4.203-1.622,1.375-.491,2.754-.987,4.163-1.365,1.292-.346,2.336.28,2.79,1.501.411,1.105.011,2.341-1.192,2.812-2.835,1.108-5.728,2.068-8.599,3.083-.116.041-.246.042-.331.056Z"/>
          <path d="M-105.169-141.319c-1.423.025-2.612-1.241-2.26-2.798.635-2.803,1.378-5.586,2.181-8.346.367-1.261,1.642-1.876,2.764-1.563,1.207.336,1.953,1.513,1.647,2.834-.622,2.68-1.292,5.349-2.007,8.005-.287,1.068-.923,1.879-2.325,1.869Z"/>
          <path d="M-128.337-53.208c-1.744.011-2.749-.77-2.897-1.948-.156-1.249.512-2.262,1.845-2.585,1.335-.323,2.692-.58,4.053-.769,1.4-.195,2.427.537,2.728,1.807.271,1.142-.388,2.318-1.697,2.674-1.443.393-2.934.605-4.032.822Z"/>
          <path d="M-192.577-119.192c-.057.789-.48,1.54-1.372,1.897-1.275.511-2.569.983-3.879,1.391-1.276.397-2.398-.144-2.893-1.284-.454-1.049-.074-2.267,1.051-2.886,1.388-.764,2.89-1.308,4.432-1.659,1.431-.326,2.703.88,2.661,2.542Z"/>
          <path d="M-121.852-82.581c-.08.999-.56,1.717-1.475,2.151-1.287.61-2.652.999-4.02,1.358-1.186.311-2.125-.179-2.582-1.201-.458-1.028-.182-2.286.815-2.874,1.477-.872,3.103-1.459,4.8-1.699,1.306-.185,2.466.98,2.46,2.265Z"/>
          <path d="M-79.469-149.908c-.981-.138-1.753-.504-2.189-1.359-.415-.814-.382-1.671.204-2.353.92-1.071,1.883-2.123,2.94-3.055.868-.765,1.94-.775,2.879-.053.867.667,1.079,1.656.614,2.588-.831,1.667-2.192,2.912-3.676,4.005-.217.16-.549.165-.773.227Z"/>
        </g>
        <path d="M-207.503-125.141c-.765,0-1.512-.378-1.947-1.068-1.126-1.764-2.327-3.473-3.57-5.083-.747-.968-.757-2.387.138-3.221,1.006-.937,2.579-.801,3.401.263,1.35,1.73,2.644,3.571,3.862,5.472.453.707.557,1.619.173,2.365-.447.869-1.28,1.276-2.053,1.276l-.004-.004Z"/>
        <path d="M-184.293-138.038c-.453,0-.852-.272-1.015-.699l-1.305-3.41c-.132-.347-.382-.642-.707-.831l-1.881-1.085c-.36-.211-.58-.584-.58-1.002s.215-.791.58-1.002l1.881-1.09c.325-.189.576-.483.707-.831l1.305-3.41c.163-.426.562-.699,1.015-.699s.852.272,1.015.699l1.305,3.406c.132.347.382.642.707.831l1.885,1.09c.36.211.58.584.58,1.002s-.215.791-.58,1.002l-1.881,1.085c-.325.189-.576.483-.707.831l-1.305,3.41c-.163.426-.562.699-1.015.699l-.004.004Z"/>
        <path d="M-226.108-139.326h-2.916c-1.223,0-2.35-.879-2.457-2.097-.121-1.369.954-2.517,2.298-2.517h2.916c1.223,0,2.35.879,2.457,2.097.121,1.369-.954,2.517-2.298,2.517Z"/>
        <path d="M-212.925-139.326h-2.916c-1.223,0-2.35-.879-2.457-2.097-.121-1.369.954-2.517,2.298-2.517h2.916c1.223,0,2.35.879,2.457,2.097.121,1.369-.954,2.517-2.298,2.517Z"/>
        <path d="M-221.265-131.206c-1.219-.107-2.097-1.234-2.097-2.457v-2.757c0-1.223.879-2.35,2.097-2.457,1.369-.121,2.517.954,2.517,2.298v3.076c0,1.344-1.148,2.418-2.517,2.298Z"/>
        <path d="M-220.85-152.086c1.218.107,2.097,1.234,2.097,2.457v2.757c0,1.223-.879,2.35-2.097,2.457-1.369.121-2.517-.954-2.517-2.298v-3.076c0-1.344,1.148-2.418,2.517-2.298Z"/>
        <path d="M-203.205-158.212c-4.087,0-7.413-3.326-7.413-7.413s3.326-7.413,7.413-7.413,7.413,3.326,7.413,7.413-3.326,7.413-7.413,7.413ZM-203.205-168.416c-1.542,0-2.795,1.252-2.795,2.795s1.252,2.795,2.795,2.795,2.795-1.252,2.795-2.795-1.252-2.795-2.795-2.795Z"/>
        <path d="M-83.524-45.795c-4.087,0-7.413-3.326-7.413-7.413s3.326-7.413,7.413-7.413,7.413,3.326,7.413,7.413-3.326,7.413-7.413,7.413ZM-83.524-55.998c-1.542,0-2.795,1.252-2.795,2.795s1.252,2.795,2.795,2.795,2.795-1.252,2.795-2.795-1.252-2.795-2.795-2.795Z"/>
        <path d="M-87.034-82.095c.286.07.562.197.811.381,2.391,1.76,5.346,2.809,8.319,2.975,1.267.036,2.247,1.15,2.177,2.427-.069,1.273-1.155,2.246-2.427,2.177-3.851-.201-7.685-1.579-10.798-3.861-1.027-.755-1.246-2.198-.496-3.226.571-.774,1.532-1.094,2.411-.877l.003.005Z"/>
        <path d="M-64.325-66.504c-.558,0-1.046-.338-1.248-.857l-1.6-4.183c-.163-.426-.47-.791-.87-1.019l-2.311-1.336c-.444-.255-.712-.716-.712-1.23s.264-.976.712-1.23l2.311-1.336c.395-.229.703-.593.87-1.019l1.6-4.183c.198-.523.69-.857,1.248-.857s1.046.338,1.248.857l1.6,4.183c.163.426.47.791.866,1.019l2.311,1.336c.444.259.712.716.712,1.23s-.264.976-.712,1.23l-2.311,1.336c-.4.229-.707.593-.87,1.019l-1.6,4.183c-.198.523-.69.857-1.248.857h.004Z"/>
        <circle cx="-62.022" cy="-51.02" r="2.188"/>
      </g>
      <g>
        <g>
          <path d="M310.779-150.794c-9.523,0-17.27-7.747-17.27-17.27s7.747-17.27,17.27-17.27,17.27,7.747,17.27,17.27-7.747,17.27-17.27,17.27ZM310.779-180.334c-6.766,0-12.27,5.504-12.27,12.27s5.504,12.27,12.27,12.27,12.27-5.504,12.27-12.27-5.504-12.27-12.27-12.27Z"/>
          <g>
            <path d="M424.274-150.794c-9.523,0-17.27-7.747-17.27-17.27s7.747-17.27,17.27-17.27,17.27,7.747,17.27,17.27-7.747,17.27-17.27,17.27ZM424.274-180.334c-6.766,0-12.27,5.504-12.27,12.27s5.504,12.27,12.27,12.27,12.27-5.504,12.27-12.27-5.504-12.27-12.27-12.27Z"/>
            <g>
              <path d="M429.696-109.103h-27.41c-.565,0-1.024-.458-1.024-1.024v-22.99c0-5.72,3.881-10.387,8.689-10.502,1.349-.032,2.575-.967,2.675-2.313.108-1.467-1.049-2.69-2.493-2.69-7.648,0-13.871,6.955-13.871,15.504v22.99c0,3.327,2.697,6.024,6.024,6.024h27.408c1.333,0,2.399-1.057,2.465-2.388,0-.018.002-.036.003-.053.085-1.397-1.067-2.558-2.466-2.558Z"/>
              <path d="M438.418-148.622c-1.444,0-2.601,1.223-2.493,2.69.099,1.346,1.326,2.28,2.675,2.313,4.807.115,8.687,4.781,8.687,10.5v22.993c0,.565-.458,1.024-1.024,1.024h-3.572c-1.398,0-2.551,1.16-2.466,2.556.001.018.002.036.003.053.066,1.332,1.131,2.391,2.465,2.391h3.57c3.327,0,6.024-2.697,6.024-6.024v-22.993c0-8.548-6.222-15.502-13.869-15.502Z"/>
            </g>
            <g>
              <path d="M285.31-125.638c.01,0,.02,0,.03,0,1.323.008,2.428-.988,2.428-2.312v-5.168c0-5.72,3.881-10.387,8.689-10.502,1.349-.032,2.575-.967,2.675-2.313.108-1.467-1.049-2.69-2.493-2.69-7.648,0-13.871,6.955-13.871,15.504v5.172c0,1.327,1.108,2.337,2.434,2.308.036,0,.071-.001.108-.001Z"/>
              <path d="M324.923-148.622c-1.444,0-2.601,1.223-2.493,2.69.099,1.346,1.326,2.28,2.675,2.313,4.807.115,8.687,4.781,8.687,10.5v22.993c0,.565-.458,1.024-1.024,1.024h-43.976c-.565,0-1.024-.458-1.024-1.024v-4.824c0-1.323-1.105-2.319-2.428-2.312-.01,0-.02,0-.03,0-.036,0-.072,0-.108-.001-1.326-.028-2.433.982-2.433,2.308v4.828c0,3.327,2.697,6.024,6.024,6.024h43.976c3.327,0,6.024-2.697,6.024-6.024v-22.993c0-8.548-6.222-15.502-13.869-15.502Z"/>
            </g>
          </g>
        </g>
        <g>
          <g>
            <g>
              <path d="M366.068-133.94c-5.457,0-10.931-.299-16.387-.896-4.384-.499-7.917-3.954-8.412-8.218-1.052-7.629-1.052-15.366.007-22.942.489-4.269,4.032-7.744,8.417-8.202.097-.012.195-.024.294-.036v-1.145c0-2.042,1.131-3.888,2.958-4.836,1.699-.967,4.009-.875,5.769.382l6.607,4.733c5.778-.035,11.524.279,17.08.947,4.078.447,7.431,3.601,8.317,7.845.029.142.046.284.051.426,1.555,8.03,1.526,15.9-.087,23.399-.885,4.127-4.237,7.201-8.342,7.646-5.378.597-10.816.895-16.272.896ZM355.529-175.884c-.028,0-.088.002-.114.018-.051.03-.104.059-.157.085-.167.083-.271.238-.271.403v3.414c0,1.296-.991,2.378-2.283,2.491-.843.073-1.642.143-2.441.242-2.089.219-3.798,1.879-4.026,3.867-1.003,7.181-1.003,14.455-.007,21.681.236,2.032,1.918,3.641,4.006,3.878,10.538,1.153,21.159,1.153,31.56,0,1.962-.213,3.567-1.71,3.999-3.726,1.496-6.954,1.493-14.279-.007-21.774-.021-.102-.035-.205-.042-.307-.533-1.952-2.07-3.371-3.915-3.572-5.626-.676-11.426-.98-17.27-.906-.528,0-1.054-.158-1.487-.468l-7.268-5.206c-.116-.083-.239-.117-.276-.119Z"/>
              <path d="M358.096-158.99c-.654,0-2.057,0-2.057-1.814,0-1.572,1.16-1.767,1.984-1.791.508,0,2.709.024,3.17.024.024-.944.047-1.28.169-1.645.12-.412.532-.967,1.668-.967,2.104,0,2.033,1.21,1.984,2.565,3.047-.073,3.92-.097,5.539-.193.508-.026,3.219-.169,3.774-.169.461,0,1.936,0,1.936,1.789,0,.92-.412,1.598-1.379,1.743-1.428.193-8.104.339-10.064.386-.026.727-.026.944-.049,1.259.412-.049,1.452-.193,2.807-.193,3.749,0,5.516.944,6.652,1.789,2.322,1.767,2.711,4.066,2.711,5.661,0,6.315-6.049,7.233-8.419,7.233-1.548,0-1.936-.918-1.936-1.791,0-1.523.896-1.596,1.96-1.692,2.443-.193,4.499-1.016,4.499-3.92,0-1.426-.508-2.177-.918-2.612-.678-.727-1.405-.944-1.913-1.089-1.014,2.516-2.659,5.153-4.111,6.702.12.219.313.605.313,1.089,0,.871-.821,1.862-1.958,1.862-.678,0-.969-.29-1.162-.506-.532.362-1.864,1.257-3.581,1.257-2.612,0-4.257-2.129-4.257-4.984,0-3.944,2.734-6.436,5.589-7.765,0-.339.024-1.911.024-2.226h-2.975ZM361.047-153.112c-2.153,1.598-2.153,3.581-2.153,3.993,0,.266,0,1.741,1.282,1.741.483,0,1.186-.386,1.692-.774-.506-1.668-.749-3.581-.821-4.96ZM366.755-154.95c-.821,0-1.257.024-2.057.219-.047,1.379.049,2.37.169,3.363.8-1.089,1.308-2.153,1.887-3.581Z"/>
            </g>
            <g>
              <path d="M392.446-185.785c-1.101,0-2.231-.374-3.181-1.052l-6.606-4.732c-5.774.033-11.524-.279-17.08-.947-4.078-.447-7.431-3.601-8.316-7.845-.029-.141-.046-.284-.051-.426-1.556-8.03-1.527-15.9.087-23.399.884-4.128,4.237-7.202,8.342-7.646,10.756-1.194,21.747-1.194,32.658,0,4.384.499,7.917,3.954,8.412,8.218,1.053,7.629,1.052,15.366-.007,22.942-.489,4.268-4.032,7.743-8.416,8.202-.097.012-.195.024-.294.036v1.144c0,2.042-1.131,3.887-2.958,4.836-.781.445-1.652.67-2.59.67ZM383.451-196.577c.522,0,1.031.164,1.456.468l7.268,5.206c.116.083.238.116.276.119.022,0,.088-.001.114-.017.051-.03.103-.058.156-.085.168-.084.272-.239.272-.404v-3.414c0-1.296.991-2.378,2.283-2.491.843-.073,1.642-.143,2.441-.242,2.089-.219,3.798-1.879,4.026-3.867,1.004-7.181,1.004-14.455.007-21.681-.236-2.032-1.918-3.641-4.006-3.878-10.538-1.153-21.16-1.153-31.559,0-1.962.212-3.567,1.709-3.999,3.726-1.496,6.954-1.494,14.279.007,21.774.021.102.035.205.042.308.532,1.952,2.07,3.37,3.914,3.572,5.626.676,11.428.98,17.271.906h.031Z"/>
              <path d="M373.848-201.849c1.002,0,1.462-.752,1.754-1.504l1.002-2.881h8.227l1.002,2.881c.25.71.752,1.504,1.671,1.504h.125c.794,0,3.007-.501,3.007-2.129,0-.417-.209-1.002-.209-1.002l-5.471-15.242c-.96-2.715-2.631-3.132-4.218-3.132-2.255,0-3.424,1.127-4.134,3.132l-5.471,15.242c-.209.626-.209.96-.209,1.127,0,1.252,1.837,2.004,2.923,2.004ZM380.07-216.089c.21-.543.418-.71.627-.71.126,0,.335,0,.585.71l2.088,5.763h-5.346l2.046-5.763Z"/>
            </g>
          </g>
          <g>
            <g>
              <path d="M345.56-176.183c-.828,0-1.638-.411-2.114-1.162-1.816-2.867-2.361-6.094-1.535-9.087.687-2.486,2.664-6.033,8.182-8.813,1.231-.624,2.736-.126,3.357,1.107.622,1.233.125,2.736-1.107,3.357-3.072,1.548-5.013,3.512-5.612,5.68-.572,2.071.194,3.905.938,5.079.739,1.167.393,2.711-.773,3.45-.415.263-.878.389-1.336.389Z"/>
              <path d="M353.548-185.823c-.037,0-.073,0-.109-.002-1.38-.06-2.45-1.226-2.39-2.605l.221-5.137-5.028-.217c-1.379-.059-2.45-1.226-2.39-2.605.059-1.38,1.241-2.467,2.605-2.39l7.526.324c.663.028,1.287.319,1.735.808.448.488.684,1.135.655,1.797l-.329,7.635c-.058,1.342-1.165,2.392-2.496,2.392Z"/>
            </g>
            <g>
              <path d="M396.764-171.496c-.914,0-1.795-.503-2.234-1.375-.622-1.233-.125-2.736,1.107-3.357,3.072-1.548,5.013-3.512,5.612-5.68.572-2.071-.195-3.905-.939-5.079-.739-1.167-.393-2.711.773-3.45,1.166-.738,2.711-.393,3.45.773,1.816,2.867,2.362,6.094,1.535,9.087-.687,2.486-2.664,6.033-8.181,8.813-.361.182-.745.268-1.123.268Z"/>
              <path d="M401.632-168.227c-.037,0-.073,0-.109-.002l-7.525-.324c-1.379-.059-2.45-1.226-2.39-2.605l.329-7.635c.059-1.38,1.227-2.448,2.605-2.39,1.379.059,2.45,1.226,2.39,2.605l-.221,5.137,5.028.217c1.379.059,2.45,1.226,2.39,2.605-.058,1.343-1.165,2.393-2.496,2.393Z"/>
            </g>
          </g>
        </g>
      </g>
      <g>
        <path d="M343.302,144.816c-.453,0-.852-.272-1.015-.699l-1.305-3.41c-.132-.347-.382-.642-.707-.831l-1.881-1.085c-.36-.211-.58-.584-.58-1.002s.215-.791.58-1.002l1.881-1.09c.325-.189.576-.483.707-.831l1.305-3.41c.163-.426.562-.699,1.015-.699s.852.272,1.015.699l1.305,3.406c.132.347.382.642.707.831l1.885,1.09c.36.211.58.584.58,1.002s-.215.791-.58,1.002l-1.881,1.085c-.325.189-.576.483-.707.831l-1.305,3.41c-.163.426-.562.699-1.015.699l-.004.004Z"/>
        <g>
          <path d="M310.794,167.227c-.779,0-1.476-.437-2.49-1.243-5.583-4.44-10.482-8.362-14.977-11.99-7.567-6.107-14.027-11.883-19.75-17.656-6.139-6.194-11.083-12.252-15.115-18.518l-.134-.205c-.437-.666-.932-1.421-.852-2.444.11-1.402,1.146-2.382,2.521-2.382,1.209.028,1.879.817,2.332,1.502l.663,1.01c1.117,1.705,2.272,3.469,3.531,5.107,2.803,3.65,5.499,6.819,8.24,9.688,6.47,6.772,13.494,13.178,21.473,19.582,4.784,3.841,9.563,7.687,14.337,11.54.118.096.17.109.177.11,0,0,.044-.013.137-.086,5.399-4.236,11.192-8.822,16.966-13.653,1.022-.855,2.038-1.719,3.054-2.582,1.026-.872,2.052-1.744,3.085-2.608.69-.578,1.383-.871,2.058-.871.693,0,1.322.315,1.818.912.963,1.156.711,2.775-.612,3.936-5.067,4.449-10.375,8.741-15.058,12.527-2.552,2.063-5.289,4.242-8.874,7.063-1.039.818-1.75,1.261-2.529,1.261Z"/>
          <path d="M358.585,62.207c-5.4-3.88-11.29-5.98-17.48-6.24-.5-.02-.99-.03-1.48-.03-6.48,0-12.51,1.86-17.92,5.52-4.2,2.85-7.74,6.75-10.82,11.92-.03.05-.06.11-.1.18-.05-.07-.08-.13-.11-.17-.87-1.41-2.06-3.26-3.45-5-6.4-7.95-14.8-12.14-24.95-12.45-.24-.02-.49-.03-.73-.03-.9,0-1.79.09-2.65.18-.29.03-.58.06-.87.09-.009,0-.018.002-.027.002-1.269.117-2.145,1.31-1.946,2.569.034.214.063.429.087.645.139,1.257,1.265,2.134,2.519,1.976,1.217-.154,2.414-.232,3.577-.232,6.71,0,12.84,2.51,18.23,7.45,3.33,3.05,5.54,6.93,7.7,10.97.43.81,1.18,1.9,2.62,1.9h.01c1.39,0,2.11-1.02,2.59-1.92,1.33-2.52,2.98-5.45,5.08-8.11,5.09-6.46,12.99-10.32,21.14-10.32,2.83,0,5.63.46,8.33,1.37,2.37.8,4.71,1.99,7.43,3.8.49.33,1.04.69,1.83.69,1.18-.03,2.03-.61,2.4-1.63.44-1.2.06-2.37-1.01-3.13Z"/>
          <path d="M370.495,101.817c-2.14,7.52-6.1,14.85-12.44,23.08-2.1,2.73-4.37,5.33-6.52,7.73-.57.65-1.32,1.01-2.09,1.01-.6,0-1.16-.22-1.63-.62-1.16-1-1.26-2.53-.24-3.72.69-.81,1.39-1.61,2.09-2.4,1.32-1.5,2.69-3.05,3.93-4.66,5.61-7.24,9.23-13.64,11.4-20.15,1.39-4.15,2.06-8.01,2.1-12.15-.15-6.17-1.73-11.65-4.7-16.27-.36-.55-.72-1.12-.78-1.85-.1-1.28.54-2.36,1.63-2.75.3-.1.6-.16.9-.16.84,0,1.6.43,2.12,1.2,2.17,3.16,3.76,6.8,4.87,11.14,1.67,6.51,1.46,13.24-.64,20.57Z"/>
          <path d="M258.085,75.417c.141-.26.292-.524.451-.792.697-1.169.406-2.685-.723-3.446-.014-.01-.029-.019-.043-.029-1.207-.822-2.875-.518-3.627.734-3.137,5.223-4.727,11.229-4.829,18.273-.04,3.43.47,7.04,1.6,11.34.57,2.15,1.3,4.18,2.15,6.01.44.95,1.35,1.54,2.36,1.54.29,0,.57-.05.85-.14,1.18-.4,1.8-1.5,1.61-2.87-.06-.42-.21-.8-.34-1.14-2.51-6.53-3.45-12.07-2.97-17.43.4-4.49,1.55-8.44,3.51-12.05Z"/>
          <path d="M357.685,84.407c-1.04,0-1.97-.63-2.42-1.65-1.25-2.81-2.68-4.89-4.49-6.54-3.31-3.02-6.87-4.52-10.87-4.58-.34,0-.78-.02-1.2-.14-1.19-.34-1.86-1.17-1.89-2.34-.03-1.13.56-2.01,1.66-2.49.45-.2.92-.23,1.27-.23l.31.01c5.08.21,9.58,1.95,13.37,5.19,2.84,2.42,4.96,5.26,6.31,8.42.11.27.25.62.35,1,.36,1.43-.28,2.75-1.57,3.2-.27.1-.55.15-.83.15Z"/>
          <path d="M361.865,90.247c.01.32.01.64,0,.96v.42c.01.86-.02,1.88-.26,2.91-.31,1.31-1.25,2.13-2.47,2.13-.09,0-.18-.01-.27-.02-1.45-.14-2.33-1.18-2.28-2.7.04-1.41.12-2.69.24-3.89.14-1.4,1.17-2.34,2.56-2.34h.13c1.37.06,2.27,1.03,2.35,2.53Z"/>
        </g>
        <path d="M264.209,70.548c-.558,0-1.046-.338-1.248-.857l-1.6-4.183c-.163-.426-.47-.791-.87-1.019l-2.311-1.336c-.444-.255-.712-.716-.712-1.23s.264-.976.712-1.23l2.311-1.336c.395-.229.703-.593.87-1.019l1.6-4.183c.198-.523.69-.857,1.248-.857s1.046.338,1.248.857l1.6,4.183c.163.426.47.791.866,1.019l2.311,1.336c.444.259.712.716.712,1.23s-.264.976-.712,1.23l-2.311,1.336c-.4.229-.707.593-.87,1.019l-1.6,4.183c-.198.523-.69.857-1.248.857h.004Z"/>
      </g>
      <g>
        <path d="M156.021,79.86c-.323-3.544-.665-7.02-1.318-10.586-.397-2.101-.977-4.412-2.699-5.794-2.05-1.656-5.036-1.681-7.576-2.073-12.039-1.585-22.911-6.434-33.113-14.871-1.881-1.518-4.293-3.711-6.456-3.639-2.015-.033-3.913,1.579-5.509,2.875-10.226,8.686-21.708,13.953-34.436,15.696-2.424.382-5.307.388-7.248,1.977-1.619,1.321-2.164,3.526-2.54,5.521-.603,3.356-1.018,6.627-1.312,9.805-.112,1.279-.152,2.871.771,3.781,1.017,1.053,2.592.488,3.437-1.064.874-1.64.818-3.709,1.09-5.545.881-16.881,13.464-2.206,42.188-25.284,3.815-2.882,7.168-.099,10.245,2.372,9.727,7.251,19.844,11.624,31.701,13.306,4.97.475,6.806,3.575,7.174,8.317,1.94,15.685,1.024,29.525-2.796,42.118-4.949,16.782-15.983,30.884-31.428,39.705-3.397,1.83-7.089,4.243-10.868,4.49-2.198.109-4.495-.757-6.535-1.733-19.962-9.698-32.748-25.707-38.027-47.451-1.239-5.049-1.968-10.104-2.261-15.273-.085-1.189-.224-2.232-.589-3.027-.693-1.58-2.242-2.321-3.365-1.375-1.181.914-1.122,2.803-1.03,4.456.253,3.848.713,7.577,1.415,11.376,4.597,25.649,19.401,45.607,43.208,56.468,2.922,1.391,6.137,2.378,9.327,1.542,5.32-1.51,9.973-4.287,14.489-7.174,26.578-17.039,36.777-47.623,34.079-78.715l-.017-.201Z"/>
        <g>
          <g>
            <path d="M46.777,157.747c-1.194.05-2.413-1.315-2.261-2.662.529-2.488,3.285-3.797,4.991-5.482,1.333-1.089,2.83-2.432,4.287-2.091,1.504.299,2.241,2.012,1.502,3.367-1.026,1.861-2.809,3.25-4.426,4.629-1.272.959-2.643,2.131-3.926,2.234l-.167.006Z"/>
            <path d="M62.794,166.152c-1.942-.179-2.374-2.53-2.173-4.167.523-2.664-.093-8.078,3.445-8.35,1.944.089,2.497,2.348,2.327,3.973-.512,2.635.19,8.153-3.433,8.553l-.166-.009Z"/>
            <path d="M47.506,140.592c-2.066-.231-4.887-.261-6.831-1.245-1.3-.695-1.569-2.481-.566-3.524,1.022-1.112,2.815-.98,4.353-.807,1.865.239,3.837.288,5.61.999,2.105.846,2.333,3.09.731,3.941-.881.505-2.078.667-3.111.642l-.186-.005Z"/>
          </g>
          <g>
            <path d="M166.63,58.442c-1.691-.021-2.777-1.962-1.934-3.455,1.791-2.767,4.602-5.113,7.546-6.651,1.958-.898,3.995,1.439,2.987,3.33-1.019,1.791-3.045,3.063-4.58,4.462-1.246.991-2.556,2.236-3.851,2.311l-.167.003Z"/>
            <path d="M156.011,52.267c-2.079-.049-2.613-2.513-2.402-4.214.534-2.623-.203-8.048,3.503-8.311,2.024.102,2.46,2.472,2.257,4.138-.522,2.685.089,7.689-3.201,8.382l-.157.005Z"/>
            <path d="M177.989,70.939c-2.733-.097-6.662-.068-9.058-1.689-1.824-1.703-.242-3.71,1.854-3.871,1.652-.26,3.3.048,4.943.239,1.588.207,3.572.431,4.388,1.637,1.053,1.499-.227,3.518-1.947,3.659l-.181.025Z"/>
          </g>
          <path d="M133.561,127.817c-1.102-.527-2.418-.139-3.072.892-4.732,7.462-11.212,13.594-19.694,18.511-1.819,1.066-3.959,2.059-5.989,2.03-1.927.023-3.828-.812-5.518-1.789-15.692-9.111-25.299-23.055-28.603-41.439-1.369-7.597-1.808-15.436-1.195-23.048.075-3.914,2.376-6.596,6.156-7.396,5.446-1.402,10.677-3.217,15.593-5.688,2.914-1.436,5.693-3.102,8.426-4.901,1.52-.972,3.175-1.989,5.012-2.018h.168c2.155.005,4.166,1.397,5.981,2.533,7.018,4.515,14.455,7.79,22.203,9.788,1.268.342,2.609.67,3.74,1.291,2.931,1.498,3.427,5.092,3.563,8.178.559,12.885-.922,23.676-4.597,33.353-.458,1.205.119,2.555,1.3,3.074.02.009.04.018.06.027,1.275.57,2.779-.049,3.27-1.356,4.865-12.954,6.004-28.437,4.216-42.444-.556-4.3-4.308-5.78-8.052-6.385-10.127-2.083-19.54-7.11-28.362-13.204-5.006-3.06-9.196,2.216-13.335,4.433-6.666,4.06-13.809,6.975-21.22,8.677-5.737.956-8.552,2.818-8.876,8.97-1.655,18.891.819,36.575,10.937,52.22,5.179,8.059,18.683,21.125,29.2,22.551l.188-.002c11.064-2.061,23.308-13.654,29.56-23.322.797-1.233.326-2.884-1.003-3.508-.02-.009-.039-.018-.059-.028Z"/>
          <path d="M99.825,121.006c-2.299-.119-4.193-2.13-5.819-3.655-2.928-3.375-7.149-6.104-8.304-10.367-.477-2.491,2.008-4.383,4.339-3.476,2.683.916,4.617,3.772,6.739,5.582,2.939,2.812,5.678.89,7.844-1.579,3.432-3.668,6.885-7.346,10.21-10.863,2.776-2.414,5.809-7.973,9.981-6.991,3.115,1.264,2.061,5.223.024,7.201-2.884,3.236-5.828,6.254-8.733,9.395-3.608,3.832-7.134,7.656-10.812,11.484-1.457,1.422-3.223,3.22-5.305,3.271h-.164Z"/>
        </g>
      </g>
    </g>
  </g>
</svg>