<?xml version="1.0" encoding="UTF-8"?>
<svg id="Layer_1" data-name="Layer 1" xmlns="http://www.w3.org/2000/svg" viewBox="0 0 104.63 79.3">
  <defs>
    <style>
      .cls-1 {
        fill: #f8b379;
      }
    </style>
  </defs>
  <path class="cls-1" d="M65.18,75.33h-20.88c-.36,0-.72,0-1.08-.01-.76-.04-1.37-.32-1.42-1.16-.06-.89.53-1.34,1.32-1.39,1.36-.08,2.72-.04,4.09-.05.72,0,1.44.01,2.15,0,1.16-.03,1.68-.56,1.76-1.72.08-1.04-.34-1.96-.64-2.92-.22-.72-.47-1.43-.63-2.17-.15-.73.16-1.29.89-1.5.7-.2,1.25.16,1.44.8.69,2.24,1.91,4.37,1.37,6.86-.18.81.47.62.9.64.43.01.97.05.77-.65-.49-1.73.07-3.33.6-4.93,1.02-3.1,2.02-6.21,3.03-9.31.48-1.48,1.19-2.85,2.17-4.06,1.58-1.95,3.64-2.99,6.17-3.01,3.12-.02,6.24.03,9.36-.03,2.5-.05,4.95-.42,6.95-2.15,1.44-1.25,2.41-2.83,3.15-4.56,1.58-3.69,2.24-7.63,3.21-11.48.14-.56.27-1.12.47-1.65.92-2.41,2.99-3.38,5.69-2.68,2.11.54,3.74,2.84,3.31,5.02-.76,3.91-1.67,7.78-2.54,11.67-.17.74-.64,1.25-1.47,1.05-.86-.2-1.13-.83-.95-1.65.69-3.22,1.4-6.45,2.11-9.67.1-.46.22-.91.27-1.37.17-1.45-.43-2.41-1.6-2.63-1.47-.28-2.2.21-2.63,1.82-.94,3.53-1.53,7.16-2.78,10.61-.4,1.11-.85,2.21-1.38,3.27-2.4,4.74-6.35,6.9-11.6,6.91-3.26,0-6.52.11-9.79.15-1.62.02-2.89.72-3.91,1.94-.99,1.18-1.58,2.56-2.04,4-1.02,3.14-2.02,6.28-3.02,9.42-.1.31-.23.61-.28.93-.38,2.6.47,2.93,2.31,2.9,3.98-.05,7.96-.01,11.95-.02,1.3,0,1.36-.08,1.36-1.44,0-1.43-.09-1.56-1.38-1.56-2.48-.01-4.95,0-7.43,0-1.85-.01-2.3-.67-1.74-2.44.43-1.33.85-2.67,1.29-3.99.27-.82.75-1.5,1.72-1.17.95.32.98,1.12.7,1.96-.23.68-.42,1.37-.67,2.04-.26.7-.06,1,.7.99,1.87-.02,3.73,0,5.6,0,2.64.01,3.82,1.18,3.83,3.8,0,2.18-.21,2.01,2.05,2.01,1.58,0,3.16-.03,4.73.01.86.03,1.12-.32,1.11-1.14-.03-2.94,0-5.88-.02-8.83,0-.73.2-1.29.7-1.84,1.7-1.85,3.3-3.78,4.73-5.85.33-.48.69-.94,1.33-.98.46-.03.85.17,1.09.57.38.61.19,1.17-.18,1.7-1.33,1.92-2.74,3.78-4.35,5.47-.62.65-.87,1.31-.86,2.2.05,2.55.03,5.09,0,7.64,0,.7.19,1.06.96,1.07.87.02,1.61.39,1.52,1.41-.09,1-.89,1.19-1.75,1.19-6.03,0-12.05,0-18.08,0h-3.77Z"/>
  <path class="cls-1" d="M5.24,52.99c0-1.97-.02-3.95,0-5.92.03-2.53,1.74-4.3,4.12-4.3,2.26,0,4.08,1.83,4.13,4.24.04,1.9.03,3.8,0,5.7-.01.84.23,1.09,1.07.82,1.81-.58,3.65-1.08,5.46-1.63,2.07-.63,4.17-.99,6.35-.97,4.91.04,9.83.08,14.75,0,3.32-.05,5.7,1.42,7.42,4.13,1.04,1.66,1.63,3.51,2.14,5.38.21.78.02,1.48-.86,1.7-.8.2-1.28-.24-1.54-.99-.48-1.39-.88-2.8-1.55-4.12-1.23-2.4-3.12-3.64-5.85-3.63-4.81.02-9.62,0-14.42,0-3.14,0-6.06,1.06-9.01,1.93-1.41.41-2.82.84-4.23,1.26-1.6.47-2.3-.03-2.32-1.73-.03-2.58-.01-5.17-.01-7.75,0-.89-.29-1.55-1.27-1.69-1.07-.15-1.81.48-1.88,1.7-.06,1.04-.03,2.08-.03,3.12,0,2.69-.01,5.38,0,8.07.01,2.6,1.2,3.64,3.81,3.37,1.35-.14,2.71-.27,4.07-.38.79-.06,1.48.13,1.56,1.07.07.89-.47,1.28-1.29,1.41-2.06.33-4.13.52-6.21.37-2.46-.18-4.32-2.26-4.38-4.9-.05-2.08-.01-4.16-.01-6.24h0Z"/>
  <path class="cls-1" d="M32.11,12.53c.03-2.49,1.63-4.29,4.12-4.59,2.1-.25,4.25,1.33,4.63,3.63.61,3.68,1.9,7.03,4.18,10.01,3.08,4.02,7.07,6.17,12.19,6.12,3.33-.03,6.67,0,10,.02,1.83.01,3.56.4,5.06,1.52.26.19.52.4.72.64.44.53.5,1.12.03,1.66-.47.54-1.1.64-1.63.18-1.54-1.34-3.36-1.42-5.26-1.41-3.3,0-6.59-.02-9.89-.12-5.92-.18-10.26-2.99-13.65-7.6-2.23-3.03-3.58-6.43-4.18-10.14-.22-1.36-1-2.05-2.12-1.9-1.16.15-1.73,1.07-1.54,2.49.54,4.13,2.08,7.88,4.26,11.39.26.43.59.84.44,1.39-.15.54-.54.84-1.08.92-.66.1-1.06-.26-1.39-.79-2.28-3.58-3.86-7.44-4.61-11.62-.11-.6-.18-1.2-.27-1.8"/>
  <path class="cls-1" d="M27.94,75.33c-3.16,0-6.31,0-9.47,0-.32,0-.65,0-.97-.02-.72-.05-1.27-.35-1.33-1.14-.07-.84.46-1.31,1.2-1.38,1.14-.11,2.29-.07,3.44-.08,1.66-.01,1.66,0,1.66-1.64,0-2.37-.02-4.73,0-7.1,0-.82-.17-1.22-1.11-.99-.87.22-1.59-.06-1.82-1.02-.18-.76.37-1.31,1.44-1.5.67-.12,1.35-.21,2.02-.32,1.41-.23,2.01.23,2.05,1.69.05,1.47.02,2.94.02,4.41,0,1.79.02,3.59,0,5.38-.01.76.25,1.11,1.06,1.1,1.86-.03,3.73-.03,5.59,0,.77.01,1.15-.24,1.08-1.05-.03-.32,0-.65,0-.97.02-2.35,1.22-3.57,3.59-3.58,1.86-.01,3.73-.03,5.59,0,.92.02,1.29-.22.89-1.17-.29-.69-.5-1.42-.7-2.15-.23-.8,0-1.46.82-1.73.82-.27,1.32.23,1.56.93.56,1.63,1.1,3.26,1.58,4.91.32,1.11-.28,1.75-1.62,1.77-2.44.03-4.88.01-7.31.01-.32,0-.65,0-.97.01-.52.01-.8.28-.8.8,0,.43,0,.86,0,1.29-.02.64.29.91.92.9.61-.01,1.22-.02,1.83.01.86.04,1.63.31,1.62,1.33,0,1.03-.75,1.28-1.63,1.28-3.41,0-6.81,0-10.22,0"/>
  <path class="cls-1" d="M84.69,4.04c2.29-.1,4.59-.15,6.87.17,2.44.35,4.19,2.06,4.55,4.51.3,2.05.49,4.13.48,6.21,0,1.15-.48,1.77-1.28,1.78-.81.01-1.32-.61-1.32-1.75,0-1.98-.09-3.94-.45-5.89-.28-1.51-1.21-2.3-2.74-2.41-4.08-.31-8.17-.34-12.25,0-1.57.13-2.5.96-2.77,2.51-.02.14-.05.29-.04.43.1,2.48-.95,4.42-2.72,6.06-.5.46-.96.98-1.38,1.51-.61.77-.46,1.1.53,1.22.32.04.65.03.97.05,1.52.1,2.29.78,2.56,2.26.37,2.07,1.09,2.72,3.2,2.92.54.05,1.07.13,1.6.22.73.14,1.17.58,1.1,1.35-.06.72-.55,1.02-1.25,1.08-3.82.3-5.89-1.07-7.1-4.74-.15-.45-.4-.65-.86-.65-.32,0-.65,0-.97-.02-1.21-.1-2.12-.66-2.61-1.79-.49-1.13-.31-2.19.48-3.12.86-1.01,1.76-1.99,2.67-2.95.7-.73,1.1-1.55,1.13-2.59.03-.93.13-1.87.45-2.75.9-2.49,2.83-3.52,5.33-3.61,1.93-.08,3.87-.02,5.8-.02"/>
  <path class="cls-1" d="M35.55,30.57c-1.15-.03-2.29-.04-3.42.24-4.05,1.01-6.45,3.94-6.54,8.12-.04,1.97-.08,3.94-.41,5.89-.17,1,.24,1.46,1.27,1.57.32.04.65.01.96.09.69.18,1.01.67.94,1.37-.07.67-.5.99-1.16,1.05-3.19.3-4.99-1.56-4.48-4.75.28-1.74.36-3.51.36-5.25-.02-5.42,3.5-9.66,9.26-10.74,2.28-.43,4.58-.36,6.85.06,4.61.85,7.32,3.81,7.9,8.44.36,2.92.14,5.87.5,8.8.27,2.2-2.15,4.02-4.36,3.58-.63-.13-1.05-.51-1.08-1.16-.03-.61.32-1.02.89-1.21.34-.11.7-.16,1.05-.22.8-.13,1.1-.62.95-1.39-.41-2.13-.37-4.28-.37-6.43,0-.94-.11-1.87-.34-2.77-.84-3.32-3.23-5.16-6.83-5.31-.64-.03-1.29,0-1.94,0"/>
  <path class="cls-1" d="M49.83,17.66c.02-4.66,3.89-8.48,8.56-8.46,4.58.02,8.4,3.85,8.44,8.48.05,4.62-3.98,8.6-8.62,8.53-4.59-.07-8.4-3.95-8.38-8.55M58.33,11.82c-3.4,0-5.9,2.53-5.89,5.92.02,3.3,2.57,5.86,5.87,5.87,3.28.01,5.97-2.68,5.94-5.95-.03-3.26-2.64-5.84-5.92-5.84"/>
  <path class="cls-1" d="M43.23,41.14c-.01,4.56-3.36,8.04-7.77,8.32-4.1.26-7.87-3.01-8.41-7.33-.5-3.95,2.47-7.97,6.5-8.75.66-.13,1.36-.08,2.03-.09.64-.01,1.1.29,1.36.87.84,1.87,2.27,2.9,4.33,3.03.69.04,1.12.4,1.37,1.03.4,1.01.66,2.05.59,2.91M29.64,40.98c-.05,2.48.93,4.11,2.79,5.16,2.03,1.15,4.09,1.03,5.97-.34,1.77-1.28,2.5-3.07,2.23-5.26-.07-.57-.33-.87-.92-1.01-1.93-.47-3.46-1.53-4.52-3.23-.27-.43-.56-.54-1.07-.44-2.63.51-4.48,2.72-4.49,5.12"/>
  <path class="cls-1" d="M74.38,32.42c2.51-.06,4.38.73,5.99,2.19.61.56.99,1.23.31,1.95-.64.68-1.3.49-1.99-.07-2.77-2.23-5.92-2.13-8.23.23-1.87,1.91-2.24,4.71-.93,7.05,1.27,2.26,3.92,3.41,6.55,2.83,2.29-.5,4.35-2.99,4.52-5.45,0-.11,0-.21,0-.32.04-1.29.44-1.89,1.25-1.88.81.02,1.35.84,1.32,2.02-.13,4.14-3.29,7.67-7.41,8.29-3.82.57-7.74-1.83-9.09-5.57-1.99-5.52,2.11-11.27,7.71-11.26"/>
  <path class="cls-1" d="M52.03,43.2c0,2.08.01,4.16,0,6.24,0,1.13-.52,1.8-1.32,1.72-1.01-.09-1.25-.82-1.26-1.69-.02-3.73-.04-7.46-.04-11.18,0-.66-.03-1.24-.65-1.7-.52-.38-.56-1-.21-1.55.35-.54.86-.71,1.5-.52,1.49.44,1.94,1,1.96,2.55.02,2.04,0,4.09,0,6.13h.03Z"/>
  <path class="cls-1" d="M87.11,26.48c-.54,0-1.08,0-1.61,0-.85.01-1.57-.26-1.58-1.21-.02-.95.7-1.26,1.55-1.24,1.8.03,3.57-.17,5.35-.4,1.78-.24,2.58-.99,2.89-2.77.06-.32.06-.65.18-.94.24-.6.72-.89,1.37-.79.66.1,1.03.55,1.03,1.19-.04,2.86-1.5,5.19-4.47,5.74-1.55.29-3.12.45-4.7.43"/>
  <path class="cls-1" d="M83.22,14c-.11-1.22.11-2.57.25-3.92.14-1.32.85-1.85,2-1.66,1.32.23,1.76.84,1.57,2.18-.28,1.96-.74,3.87-1.32,5.75-.22.72-.57,1.26-1.43,1.12-.86-.13-1.04-.78-1.06-1.5-.02-.61,0-1.22,0-1.97"/>
  <path class="cls-1" d="M95.53,48.81c-.42,1.18-.91,2.49-1.81,3.58-.34.41-.9.41-1.39.13-.53-.31-.78-.82-.55-1.37.46-1.12.98-2.23,1.55-3.3.26-.48.78-.61,1.32-.41.57.2.86.61.88,1.38"/>
  <path class="cls-1" d="M85.9,19.73c0,1.01-.84,1.86-1.82,1.87-1.06.01-1.94-.83-1.94-1.87,0-1.06.86-1.93,1.89-1.93,1.07,0,1.88.84,1.87,1.92"/>
</svg>