<?xml version="1.0" encoding="UTF-8"?>
<svg id="Layer_1" data-name="Layer 1" xmlns="http://www.w3.org/2000/svg" xmlns:xlink="http://www.w3.org/1999/xlink" viewBox="0 0 349.12 228.21">
  <defs>
    <style>
      .cls-1 {
        fill: none;
      }

      .cls-2 {
        fill: #f3f3de;
      }

      .cls-3 {
        fill: #9ed8ea;
      }

      .cls-4 {
        fill: #9ed8eb;
      }

      .cls-5 {
        fill: #e5516a;
      }

      .cls-6 {
        fill: #5aadcb;
      }

      .cls-7 {
        fill: #9e8edd;
      }

      .cls-8 {
        fill: #f7f7f7;
      }

      .cls-9 {
        fill: #f4edee;
      }

      .cls-10 {
        fill: #3c4d7e;
      }

      .cls-11 {
        fill: #9dd8eb;
      }

      .cls-12 {
        fill: #607ace;
      }

      .cls-13 {
        fill: #333;
      }

      .cls-14 {
        clip-path: url(#clippath);
      }
    </style>
    <clipPath id="clippath">
      <rect class="cls-1" y="0" width="349.12" height="228.21"/>
    </clipPath>
  </defs>
  <g class="cls-14">
    <path class="cls-13" d="M260.55,262.27c1.34,1.37,2.94,2.39,4.56,3.36,8.47,5.07,10.74,13.54,8.64,21.99-.88,3.54-3.22,5.75-6.65,6.86-.64.21-1.3.36-1.94.11-1.23-.47-2.06.04-2.75,1.01-1.36,1.9-3.08,3.3-5.37,3.95-1.29.37-2.6.4-3.93.31-2.06-.14-4.11-.3-6.17-.47-.49-.04-1.05-.03-1.45-.26-2.2-1.26-4.45-.96-6.72-.33-2.52.7-5.05,1.34-7.68.95-7.3-1.07-12.39-5.22-15.81-11.58-1.41-2.62-2.34-5.45-3.21-8.29-.71-2.31-2.11-3.8-4.42-4.6-2.82-.97-5.66-1.49-8.62-.94-1.97.36-2.25,1.05-1.03,2.65,2.55,3.32,4.16,6.99,4.44,11.21.24,3.42-1.13,6.01-3.89,7.91-1.88,1.29-3.85,2.43-6.19,2.62-1.69.14-3.29-.15-4.64-1.27-.78-.65-1.31-.04-1.84.36-2.27,1.72-4.71,3.02-7.55,3.48-4.2.69-8.3.33-12.3-1.13-.85-.31-1.71-.58-2.55-.91-.46-.18-.85.02-1.17.22-6.14,3.85-16.94,1.96-22.37-4.56-3.19-3.83-5.5-8.1-7.34-12.67-.57-1.42-1.25-2.78-1.97-4.12-.84-1.55-2.11-2.13-3.94-2.21-2.38-.11-3.69.79-4.8,2.86-1.69,3.17-4.42,5.55-7.29,7.64-2.17,1.58-4.84,2.1-7.5,2.24-2.18.12-4.37.09-6.56.02-1.79-.06-3.53-.48-5.02-1.53-.72-.51-1.29-.44-2.03-.07-3.49,1.77-7.05,2.25-10.68.42-1.3-.66-2.45-1.53-3.44-2.6-.63-.68-1.26-.87-2.19-.62-2.36.65-4.73.67-7.06-.17-2.39-.86-4.1-2.37-4.8-4.91-1.19-4.33-1.21-8.65.25-12.91.47-1.37,1.47-2.47,2.4-3.58.5-.6,1.06-1.15,1.58-1.74,1.06-1.23,1.05-1.46.03-2.71-.39-.48-.74-.98-1.11-1.47-2.72-5.37-5.23-10.83-6.79-16.68-.19-.71-.75-1.04-1.36-1.34-.97-.49-2.07-.53-3.07-.9-1-.37-1.46-.98-1.5-2.12-.12-3.93,1.54-7.2,3.73-10.26.59-.82.51-1.11-.4-1.49-2.17-.91-4.23-2.04-6.02-3.6-.56-.48-.69-1.02-.63-1.74.16-2.07,1.62-3.24,2.91-4.57,2.06-2.13,4.47-3.91,6.18-6.37,1.78-2.57,3.55-5.16,5.25-7.79,2.8-4.33,5.64-8.6,9.39-12.23,6.21-6.03,13.13-11.14,20.27-16,1.91-1.3,2.15-2.01,1.37-4.16-.89-2.46-1.7-4.95-1.51-7.59.2-2.73-.61-5.05-2.09-7.3-1.22-1.86-1.44-4.02-1.12-6.2.32-2.14,1-4.16,2.04-6.06.7-1.28.67-2.55-.21-3.71-1.77-2.3-4.24-3.21-7.03-3.28-.9-.02-1.96.19-2.22,1.22-.27,1.05.57,1.61,1.43,2.03.48.24.95.49,1.41.76.97.57,1.8,1.31,2.52,2.16.34.41.48.95.14,1.37-.43.54-.78-.05-1.14-.25-2.55-1.36-5.13-2.7-7.98-3.26-9.35-1.84-17.68.86-25.48,5.84-.24.16-.46.35-.72.48-.31.16-.65.19-.92-.07-.34-.32-.07-.62.09-.89.46-.81,1.18-1.38,1.95-1.86,1.05-.66,1.16-1.03.34-2-1.12-1.33-2.48-2.41-3.88-3.43-4.58-3.35-9.85-4.91-15.36-5.75-1.82-.28-3.57.12-5.1,1.36-1.37,1.11-2.38,2.49-3.38,3.91-3.47,4.93-4.5,10.26-2.74,16.08.2.67.82,1.58-.21,1.88-.86.25-1.08-.83-1.42-1.44-.21-.39-.26-.86-.37-1.3-.15-.6-.38-1.16-.7-1.7-.74-1.24-1.81-1.36-2.79-.27-.91,1-1.46,2.21-1.75,3.51-.97,4.27-.66,8.43,1.19,12.44.19.41.4.7.1,1.22-3.75,6.54-6.5,13.5-8.48,20.77-2.39,8.77-2.92,17.57-.09,26.33,2.17,6.71,4.57,13.25,9.43,18.72,4.32,4.86,9.43,7.71,15.78,8.56.41.05.82.09,1.22.19.33.08.6.31.63.68.03.38-.24.58-.55.74-.66.33-1.37.27-2.06.29-1.06.03-1.42.66-1.27,1.54.2,1.21.47,2.46,1.21,3.47,2.31,3.17,5.43,5.09,9.27,5.86,2.49.5,4.92-.02,7.36-.46.57-.1,1.48-.59,1.71.31.18.69-.72.87-1.26,1.13-.56.27-1.09.48-1.36,1.15-.7,1.69-.05,3.3,1.88,4.22,2.93,1.39,7.43,1.47,10.15-1.61.56-.64,1.18-.89,1.92-.25.26,1.36-.52,2.17-1.55,2.82-5.8,3.7-12.75,2.44-17.02-3.16-.76-1-1.59-1.48-2.81-1.73-6.44-1.29-10.77-5.12-12.93-11.3-.57-1.63-1.34-2.65-3.02-3.49-5.25-2.62-9.5-6.45-12.64-11.5-5.31-8.54-7.69-17.93-8.61-27.85-.9-9.61,1.66-18.46,5.35-27.12,1.22-2.88,2.55-5.72,4.08-8.46.55-.98.62-1.92.22-2.95-2.06-5.32-1.28-10.43,1.19-15.42.53-1.08,1.38-1.76,2.52-2.01,1.18-.26,1.8-.95,1.93-2.1.48-4.16,2.33-7.79,4.35-11.35,2.29-4.04,6.16-5,10.33-4.58,7.07.72,13.67,2.93,19.53,7.1,2.18,1.55,4.56,1.97,7.17,1.37,3.01-.7,5.99-1.53,9.07-1.95,2.52-.34,5.03-.27,7.51.18.96.17,1.88.11,2.6-.45,4.59-3.6,8.86-2.13,13.07.73.19.13.39.27.76.54-.17-2.86,1.14-4.91,2.98-6.63,1.79-1.67,3.88-2.76,6.26-3.58,4.53-1.56,8.69-.28,12.93.98,2.06.61,2.08.56,1.74-1.63-.15-.94-.31-1.87-.43-2.81-.08-.61-.39-.82-.99-.85-12.23-.66-22.19-5.53-29.5-15.59-2.46-3.39-3.61-7.09-4.15-11.19-.82-6.15.82-11.52,4.02-16.68,4.84-7.81,10.52-14.87,17.51-20.85,1.81-1.55,2.88-3.44,3.08-5.85.12-1.52.63-1.79,2.15-1.42,1,.24,2.01.45,2.96.87.22.09.45.27.67.02.18-.21.14-.46.03-.69-.18-.37-.35-.74-.53-1.12-.52-1.14-.11-1.81,1.15-1.83,1.18-.02,2.12.61,3.05,1.23,5.24,3.49,9.42,7.97,12.53,13.46,2.58,4.56,4.32,9.43,5.35,14.56.08.38-.03.94.43,1.08.47.15.67-.38.96-.66,2.72-2.65,5.49-5.25,8.52-7.53,2.97-2.23,5.34-4.96,6.77-8.37,3.69-8.79,11.7-11.82,20.4-11.57.74.02,1.48.14,2.21.24,1.42.19,1.72-.13,1.19-1.44-.74-1.86-1.19-3.77-1.24-5.77-.04-1.66.5-2.12,2.16-1.83,1.65.28,2.42-.58,1.88-2.14-.2-.58-.5-1.13-.71-1.71-1.23-3.37-.42-6.44,1.62-9.19,1.09-1.46,3.16-1.24,4.22.26.19.27.36.56.49.86,2.89,6.7,8.19,11.15,14.08,15.03,1.06.7,1.57.5,2.21-.78,1.26-2.51,3.25-4.23,5.72-5.43,2.67-1.3,4.54-.28,4.9,2.68.33,2.7,1.63,4.9,3.49,6.8,5.01,5.11,10.83,9.11,17.11,12.49,4.92,2.64,9.64,5.59,13.41,9.81.54.6.84.34,1.07-.17.29-.63.48-1.32.72-1.97,2.39-6.36,4.83-12.7,6.85-19.21,1.66-5.33,4.96-9.73,9.08-13.49.71-.65,1.54-1.12,2.55-1.08,1.3.06,1.76.84,1.21,1.98-.3.63-.55,1.29-.76,1.95-.11.34-.14.78.27.98.38.18.56-.17.8-.4.39-.36.79-.73,1.25-1,1.06-.63,1.65-.45,2.11.69.29.71.85,1.1,1.4,1.51,3.73,2.81,7.9,4.92,11.81,7.45,6.3,4.08,11.69,9.04,14.91,15.96,2.51,5.38,3.65,11.03,2.6,16.97-.38,2.17-1.24,4.2-2.35,6.09-2.86,4.87-5.81,9.69-9.87,13.71-4.52,4.47-9.78,7.52-16.06,8.71-.69.13-1.58.11-1.7,1.12-.07.66-.07,1.46.34,1.9.42.46,1.05-.15,1.53-.36,6.71-2.87,13.01-1.39,19.08,1.87,2.35,1.26,2.67,3.64,2.63,6.02-.02.76.19,1.23.68,1.73,3.47,3.5,5.37,7.75,6.08,12.58.32,2.2.23,4.36-.86,6.38-.18.33-.3.66-.24,1.06.63,3.84,0,7.65-.23,11.47-.24,3.83-1.5,7.3-3.46,10.58-3.08,5.15-7.45,8.72-13,10.92-1.23.49-2.61.68-3.71,1.3-1.13.64-1.05,2.29-1.79,3.37-1.83,2.69-4.41,4.36-7.42,5.27-2.54.78-4.03,2.19-4.73,4.8-.78,2.92-2.18,3.61-5.21,3.18-.65-.09-1.3-.21-1.96-.27-1.36-.12-2.4.41-3.41,1.37-2.49,2.34-4.14,5.19-5.53,8.25-.44.96.14,1.45.65,2.04.24.57.49,1.13.71,1.7.32.86.6,1.82.08,2.62-.67,1.03-.18,1.45.6,2.05,4.54,3.51,5.29,8.12,1.97,12.62-1.05,1.42-1.62,2.9-1.85,4.62-.35,2.58-1,5.08-2.23,7.41-.66,1.26-1.67,2.24-2.5,3.36-.79,1.06-.68,1.57.33,2.39.38.31.82.6,1.07,1.01,4.08,6.51,7.03,13.41,7.29,21.23.04,1.21.51,2.05,1.73,2.38M241.45,124.54c1.3,2.78,2.01,5.65,1.58,8.75-.34,2.41-1.1,4.67-2.43,6.69-1.65,2.51-4.08,3.68-7.08,3.47-3.21-.22-5.44-1.97-6.83-4.82-.53-1.08-.94-2.22-1.41-3.34-.59,2.32-.46,4.59-.09,6.86.03.19.18.37.29.54,1.89,2.84,5.86,4.57,8.67,3.77,1.43-.41,2.91-.63,4.39-.68,3.64-.12,6.02-2.17,7.81-5.08,1.08-1.74,1.5-3.73,2.01-5.69,1.69-6.57.55-12.58-3.39-18.09-1.08-1.52-2.43-2.66-4.18-3.35-.61-.24-1.08-.19-1.61.18-1.18.83-2.4,1.6-3.59,2.42-1.06.73-1.06,1.05.08,1.74,1.55.95,2.67,2.3,3.72,3.74-.74.51-1.17,1.22-1.33,2.1-.19,1.06.22,1.51,1.32,1.48.77-.02,1.36-.51,2.05-.72M160.82,128.61c.88-2.03,2.17-3.78,3.58-5.46.31-.36.81-.7.16-1.32-3.37-3.23-5.06-3.13-8.06.4-6.98,8.2-4.59,21.61,2.13,27.88,1.83,1.7,3.99,2.57,6.58,2.03,1.29-.27,2.61-.48,3.92-.48,3.79-.01,6.58-1.98,8.97-4.57,2.16-2.34,2.06-6.16.02-8.55-.32.23-.21.6-.28.9-.48,2.12-1.29,4.08-2.75,5.73-4.2,4.74-11.09,3.75-13.74-1.99-1.59-3.45-2.29-7.04-1.71-10.83.52.23,1.02.52,1.56.68.69.2,1.43.26,1.91-.42.47-.66.58-1.39.19-2.2-.51-1.07-1.38-1.57-2.48-1.78M124.39,70.43c-.29-.89-.24-1.84-.54-2.74-1.23-3.65-3.49-6.71-5.55-9.88-.36-.55-.69-.5-1.21-.16-8.16,5.47-15.07,12.14-20.1,20.64-1.59,2.68-2.89,5.46-3.17,8.63-.33,3.81-.18,7.55,2.2,10.77,4.1,5.56,9.14,10.04,15.35,13.16,2.4,1.21,4.93,1.84,7.63,1.7.82-.05,1.64-.06,2.46-.16.93-.12,1.47-.69,1.6-1.62.13-.95-.32-1.58-1.16-1.95-.68-.3-1.4-.52-2.04-.89-4.74-2.79-7.03-7.22-8.21-12.38-.19-.83.34-1.17,1.09-1.32,1.72-.36,2.12-.95,1.56-2.59-.65-1.9-.59-3.8-.29-5.74.13-.86.48-1.21,1.42-.99,1.17.28,1.81-.19,1.99-1.38.1-.64.05-1.31.04-1.97-.02-.72.17-1.37.53-2,.33-.59.71-.67,1.32-.41,1.78.76,2.37.41,2.52-1.53.09-1.23.04-2.47.37-3.68.18-.66.43-1.35,1.15-1.47,1.35-.22,1.47-.96,1.06-2.04M283.63,93.56c.21-.12.44-.23.64-.37,6.33-4.31,9.59-10.42,10.79-17.87.74-4.61.16-8.84-2.5-12.75-3.33-4.89-7.29-9.15-12.06-12.65-3.55-2.61-7.56-3.97-11.93-4.31-.95-.08-1.55.23-1.96,1.1-.87,1.82-1.79,3.62-2.43,5.54-1.2,3.61-1.34,7.19.42,10.7.19,2.1,1.12,4.03,1.39,6.13.11.9.93,1.05,1.75.63,1.32-.66,1.49-.57,1.79.88.08.36.11.73.19,1.1.33,1.62,1.15,1.99,2.46,1.05.68-.48,1.08-.34,1.51.3.68,1.01.9,2.1.75,3.29-.12.98-.35,1.96-.2,2.95.17,1.17.81,1.52,1.91,1.08,1.14-.45,1.46-.28,1.45.89-.03,3.38-.59,6.56-3.18,9.06-1.04,1-.95,1.4.24,2.17.69.44.75.87.26,1.5-.79,1-1.79,1.7-2.9,2.27-.71.36-1.17.79-.78,1.64.36.78.88,1.11,1.78.83,3.79-1.21,7.39-2.8,10.61-5.16M245.53,220.83c.71-1.32.9-2.7.51-4.17-.29-1.08-.64-2.13-1.17-3.11-.19-.34-.28-.72-.05-1.05.22-.31.53-.06.79.01,1.61.47,2.45-.34,2.01-2-.38-1.46-1.1-2.74-2.19-3.8-.21-.2-.67-.39-.34-.77.25-.29.61-.11.91.03.74.36,1.46.77,2.23,1.05,1.69.63,3.81-1.11,3.51-2.89-.29-1.74-1.25-3.08-2.73-4.18.38-.35.77-.67,1.1-1.03.39-.42.38-.92.04-1.35-.39-.51-.81-.16-1.19.07-.67.4-1.3.88-2.01,1.21-2.69,1.28-5.09,2.89-7.24,5.03-2.8,2.79-6.3,4.32-10.36,4.18-.64-.02-1.68.3-1.79-.51-.09-.62,1.01-.38,1.53-.67.07-.04.16-.03.24-.06,5.1-1.78,9.59-4.34,12.12-9.42.22-.45.58-.79,1.03-1.03.36-.07.72-.13,1.08-.2,6.26-1.25,11.09-4.49,14.07-10.22.56-1.07.91-1.38,2.11-.77,3.12,1.59,6.38.05,6.77-3.23.15-1.28.78-1.47,1.73-1.54,1.79-.13,3.51-.56,5.12-1.33,2.02-.96,3.55-2.38,4.16-4.62.38-1.39.06-1.82-1.35-1.78-.78.02-1.57.05-2.34-.17-.38-.11-.88-.24-.76-.78.1-.46.52-.59.98-.55,3.63.25,7.03-.78,10.36-2.02,7.74-2.9,12.95-8.37,15.1-16.31,1.65-6.08,1.79-12.3-.26-18.42-.5-1.5-1.1-2.92-2.07-4.18-.91-1.17-1.76-2.39-2.61-3.6-.15-.21-.41-.5-.12-.76.21-.18.47,0,.69.1.85.38,1.47,1.04,2.1,1.7,1.71,1.82,3.39,3.67,4.3,6.09.21-.71.35-1.35.4-2,.04-.57.04-1.16-.05-1.73-.9-5.54-3.88-9.69-8.52-12.74-.54-.35-1.76-.47-1.42-1.16.29-.6,1.32.1,2.01.3.36.1.7.61,1.1.19.38-.4.36-.94.15-1.4-.54-1.23-1.27-2.29-2.51-2.95-3.58-1.9-7.36-2.29-11.29-1.54-4.31.82-7.49,3.46-10.39,6.53-2.63,2.79-4.08,6.27-5.44,9.77-.65,1.69-.99,3.52-1.8,5.12-2.12,4.21-5.6,7.17-9.51,9.67-.16.1-.39.09-.58.14-.74-.44-.62-.92-.14-1.5,1.13-1.37,2.14-2.84,3.36-4.12,1.83-1.92,2.21-4.14,1.81-6.64-.4-2.5-1.22-4.87-1.96-7.27-1.4-4.52-4.19-7.95-8.01-10.67-1.35-.96-2.55-.57-3.99-.28,1.08,1.15,2.07,2.14,2.99,3.19,2.01,2.29,3.55,4.8,4.08,7.91,1.31,7.62.69,14.87-3.73,21.49-.38.57-.95,1.03-1.14,1.74.49.14.96.28,1.43.42.65,1.25-.26,1.17-1.02,1.2-3.29.1-6.59-.07-9.89.22-2.39.21-4.69.89-7.04,1.32-1.05.19-1.97,0-2.87-.43-4.33-2.09-7.08-7.15-6.51-11.94.15-1.27.23-2.55.4-3.82.81-6.23,2.33-12.31,5.82-17.58,4.16-6.28,9.75-10.38,17.8-9.76.53.04.97-.14,1.39-.41,4.21-2.73,7.73-6.05,9.21-11.06.22-.75.55-1.53,1.43-1.43,1,.11,1.06,1.04,1.07,1.83.01,1.4-.15,2.81-.07,4.2.23,4.08-.65,7.86-2.78,11.35-.17.27-.46.51-.16.87.28.35.64.39,1,.22,1.7-.77,3.37-1.6,4.35-3.3.28-.48.45-1.01,1.16-.8.73.21.73.82.69,1.41-.03.37-.14.73-.22,1.09-.52,2.37-1.48,4.54-2.97,6.46-.21.27-.41.52-.16.88.26.38.57.22.88.12.16-.05.33-.1.45-.2.56-.45,1.15-.28,1.57.11.52.49.22,1.08-.14,1.56-.32.43-.68.83-1.05,1.21-.26.27-.35.5-.2.87.8,2.01,1.41,4.08,1.9,6.54.91-1.67,2.08-2.75,2.61-4.33.75-2.22,1.57-4.5,3.17-6.25,1.74-1.9,1.97-3.88,1.54-6.33-.93-5.34-1.77-10.66-4.57-15.44-.23-.39-.36-.83-.51-1.26-.3-.86,0-1.42.93-1.42,1.37,0,2.21-.76,2.88-1.83.35-.55.56-1.11.16-1.73-.44-.68-.94-.21-1.42-.07-.37.11-.73.2-1.01-.16-.31-.38-.04-.69.14-1.01.29-.5.64-.98.83-1.51.29-.82.56-1.86-.25-2.4-.88-.59-1.46.27-1.97.93-.23.3-.52.58-.94.28-.33-.24-.29-.57-.1-.88.39-.66.41-1.42.55-2.14.11-.57.2-1.18-.49-1.5-.62-.28-1,.11-1.38.52-.32.35-.6.94-1.16.72-.51-.2-.52-.82-.57-1.3-.14-1.42-.49-2.79-1.26-3.97-1.9-2.91-3.83-5.78-4.31-9.34-.07-.52-.72-1-1.03-.35-1.16,2.46-2.39,4.97-1.28,7.8.61,1.57,1.29,3.12,1.97,4.67.28.64.59,1.27-.23,1.7-.91.47-1.09-.34-1.4-.9-2.02-3.67-4.55-6.97-7.44-9.98-4.49-4.67-9.95-8.03-15.66-10.91-5.31-2.68-9.94-6.1-13.97-10.45-2.23-2.41-4.02-4.98-4.73-8.24-.32-1.44-.81-1.6-2.01-.72-2.28,1.66-3.81,3.83-3.89,6.71-.11,4.42.58,8.64,3.89,11.98.2.2.65.39.37.79-.23.32-.6.19-.92.1-1.21-.35-2.34-.82-3.05-1.95-.57-.9-1.15-1.8-1.73-2.7-.96-2.23-1.83-4.5-2.23-6.9-.2-1.17-.72-2.11-1.69-2.58-2.63-1.3-4.79-3.2-6.99-5.06-3.32-2.82-6.31-5.92-7.86-10.13-.19-.51-.29-1.22-1.08-1.15-.77.07-1.11.66-1.28,1.33-.1.39-.13.81-.17,1.21-.2,2.2.59,4.12,1.66,5.97.65,1.12,1.07,2.32.96,3.65-.05.66-.31,1.13-1.08,1-1.12-.19-1.03.52-.85,1.19.17.63.46,1.23.73,1.83.19.43.33.85-.04,1.26-1.55-.62-1.88-2.16-2.6-3.48-.56.71-.4,1.43-.18,2.13,2.26,7.09,7.17,11.43,14.17,13.58.25.08.62-.05.65.49-1.23.52-2.55.66-3.82.27-3.63-1.14-7.16-2.48-10.04-5.13-1.74-1.61-3.86-2.67-6.19-2.84-7.07-.53-13.02,1.86-17.61,7.37-1.7,2.03-2.28,4.54-2.72,7.07-.24,1.35.27,1.78,1.53,1.43.42-.12.7-.03,1.03.15,2.31,1.28,4.84,1.59,7.41,1.62,1.25.02,2.44-.29,3.42-1.18.82-.75,1.7-1.44,2.54-2.16,1.6-1.37,3.27-2.64,5.28-3.38,1.22-.45,2.47-.65,3.75-.26.31.09.68.22.7.61.02.36-.37.4-.61.52-2.18,1.02-4.1,2.45-5.95,3.97-3.39,2.78-5.95,6.18-7.26,10.39-.54,1.71-1.15,3.46-.84,5.33.1.57.25,1.07.97,1.26-.21-2.64.44-5,1.44-7.28.26-.61.54-1.22,1.29-1.38.48.31.27.72.14,1.1-1.13,3.42-1.15,6.81-.17,10.32,1.34,4.78,4.78,7.2,9.11,8.74,1.36.48,2.31-.29,2.23-1.73-.1-1.82.05-3.63.16-5.43.14-2.36.8-4.54,2.05-6.64,2.44-4.1,6.11-6.73,10.03-9.13.51-.31,1.04-.48,1.64-.31.71.61.22.92-.29,1.29-2.74,1.95-5.14,4.3-7.1,7-3.39,4.67-4.6,9.78-2.4,15.37.2.51.32,1.02.27,1.56-.05.67-.43,1.13-1.09,1.11-2.17-.06-4.4.2-6.4-.97-.79-.46-1.18-.21-1.5.55-.88,2.05-2.24,3.75-4.05,5.04-3.18,2.26-6.74,3.43-10.62,3.54-2.88.08-5.42-.89-7.56-2.85-.93-.86-1.63-1.86-1.5-3.23.43-.1.66.17.95.43,1.06.93,2.23,1.67,3.61,2.08,4.97,1.46,9.53.51,13.79-2.29,1.06-.7,1.83-1.65,2.39-2.78.82-1.65.58-2.67-.91-3.71-2.21-1.54-4.38-3.11-5.74-5.53-.13-.24-.38-.51-.62-.57-2.04-.43-2.71-1.95-3.06-3.75-.32-3.87-.12-7.66,1.58-11.25.41-.87-.07-1.25-.89-1.27-2.22-.04-4.31-.67-6.37-1.41-.91-.33-1.68-.27-2.34.51-.53.63-1.08.47-1.58-.05-.34-.36-.63-.76-.73-1.27-.16-.8-.72-.96-1.4-.8-.4.09-.78.26-1.15.44-4.98,2.51-8.28,6.7-11.15,11.28-1.13,1.81-2.38,3.73-2.22,5.94.14,1.94-1.06,2.69-2.3,3.57-.24.17-.52.32-.8.12-.3-.21-.16-.53-.1-.8.41-1.78.43-3.6.49-5.41.06-1.78-.25-3.53-.72-5.25-.11-.4-.34-.8-.83-.79-.49,0-.56.41-.59.8-.27,3.64-1.81,6.8-3.64,9.86-.41.68-.86,1.19-1.75.41-.85-.74-1.78-.27-1.89.88-.06.57.02,1.16-.06,1.73-.08.58.41,1.36-.27,1.71-.78.4-.91-.61-1.4-.91-.11-.06-.2-.15-.29-.23-.76-.58-1.31-.39-1.43.56-.12.95.05,1.89.2,2.83.06.4.11.82.09,1.22-.03.54-.26.91-.87.56-.55-.31-1.07-.5-1.54.08-.44.54-.24,1.1.05,1.62.7,1.27,1.6,2.41,2.56,3.48,1.06,1.18,2.22,2.24,4.04,1.9.48-.09,1.03-.02.73.81-.93,2.57-1.34,5.26-1.91,7.92-.67,3.11-.78,6.21-.42,9.34.39,3.38,1.65,6.17,4.81,8.02,3.21,1.88,6.05,4.29,8.55,7.07.1.11.24.19.42.32-.12-1.31-.34-2.53-.31-3.74.03-1.49.17-2.93-1.32-3.9-.25-.16-.4-.53-.52-.83-.24-.6-.68-1.32-.19-1.85.45-.48,1.07.09,1.6.24.16.04.31.13.46.16.32.07.66.48.93-.09.19-.4.06-.67-.23-.98-1.82-2.03-2.95-4.45-3.83-7-.28-.82-.46-1.68-.29-2.56.1-.51.34-.97.9-1.07.52-.09.67.38.88.73.95,1.57,2.35,2.63,3.93,3.48.33.18.69.4.91-.13.12-.3.54-.54.08-.95-2.62-2.32-3.83-5.38-4.57-8.7-.36-1.62-.53-3.25-.63-4.9-.05-.75.4-1.34,1.01-1.57.67-.25.78.49,1.06.92,1.48,2.27,2.68,4.78,5.21,6.15,2.65,1.44,5.46,2.1,8.42,1.2,3.6-1.09,7.2-1.33,10.62.34,5.28,2.58,10,5.93,13.45,10.82,4.18,5.93,6.97,12.33,6.66,19.78-.05,1.24-.08,2.47-.88,3.53-1.1,1.45-2.24,2.86-3.62,4.06-2.35,2.05-4.93,3.55-8.22,3.34-1.4-.09-2.8.1-4.17.44-2.28.56-4.57,1.08-6.86,1.62-.64.15-1.24.2-1.58-.54.31-.57.88-.82,1.48-1.13-6.26-4.31-9.6-10.27-10.08-17.75-.47-7.46,2.32-13.72,7.66-18.94-2.62-1-3.74-1.19-4.79-.74-2.46,1.06-4.42,2.67-5.68,5.09-2.4,4.64-3.23,9.57-2.86,14.73.3,4.14,1.84,7.73,4.76,10.73,1.15,1.18,2.13,2.52,3.2,3.77.41.49.46.94,0,1.41-.82.04-1.57-.22-2.17-.74-2.05-1.79-4.23-3.42-6.09-5.43-6.07-6.55-12.35-12.78-20.62-16.7-4.95-2.34-9.96-3.76-15.4-2.98-2.47.35-4.78,1.37-5.83,3.99-.25.62-.48,1.27.04,1.86.56.64,1.22.25,1.84.09.46-.12.97-.47,1.28.19.28.59-.28.79-.61,1.04-2.75,2.05-4.97,4.62-6.72,7.52-1.59,2.63-2.24,5.48-.81,8.48.51,1.07,1.19,1.18,1.93.23.57-.74.68-1.66.82-2.56.2-1.27.53-2.51,1.22-3.6.42-.67,1.04-.95,1.8-.53.78.43.3.97.09,1.48-2.07,5.27-3.5,10.65-2.88,16.39.78,7.15,3.89,13.09,9.85,17.1,4.75,3.2,10.26,4.38,16.02,4.12,2.69-.12,5.32-.59,7.87-1.43.38-.12.66-.11.86.21.27.41-.11.6-.36.78-.9.65-1.78,1.33-2.78,1.84-2.38,1.22-2.7,2.67-.96,4.7,1.41,1.64,3.19,2.85,5.05,3.95,2.31,1.37,4.82,1.84,7.49,1.63.57-.04,1.56-.51,1.65-.02.13.75-.91.87-1.52,1.11-4.93,1.94-11.46.17-15.15-4.15-1.28-1.5-2.39-3.16-3.6-4.72-.39-.51-.71-1.22-1.47-1.21-2.43.06-4.72-.73-7.08-1.09-5.43-.81-9.91-3.23-13.2-7.7-.34-.46-.77-.86-1.17-1.27-.58-.57-1.23-.7-2.04-.45-1.15.36-2.29.79-3.24,1.5-3.87,2.88-8.16,5.21-11.75,8.43-7.18,6.42-13.26,13.77-17.88,22.27-.82,1.51-1.85,2.8-3.04,4.02-1.77,1.82-4.08,2.98-5.83,4.77-1.88,1.92-1.92,3.32.58,4.45,2.08.94,4.16.87,6.28.25.97-.28,1.39.02,1.25,1.01-.12.83-.45,1.67-1.06,2.2-2.28,2-3.45,4.7-4.77,7.3-1.14,2.24-.86,3.46,1.15,4.91,1.5,1.09,3.04,1.23,3.47-1.24.12-.69.32-1.37.54-2.03.11-.33.18-.89.59-.82.52.09.36.64.34,1.04-.15,2.65.03,5.28.27,7.91.42,4.58,1.91,8.76,4.77,12.4,1.94,2.48,4.49,3.54,7.53,2.74,4.7-1.24,9.46-1.29,14.26-1.07,1.2.05,2.37.28,3.47.82.55.27,1.1.7.97,1.29-.15.66-.83.14-1.27.22-.19.04-.41-.04-.61-.05-6.98-.37-13.71.24-19.91,4.02-4.1,2.5-6.76,5.73-7.5,10.54-.67,4.32,1.55,7.95,5.75,9.04,2.01.52,3.44-.62,3.31-2.65-.2-3.05.8-5.67,2.79-7.95.53-.6,1.14-1.09,1.96-1.18.83-.09,1.14.35.74,1.1-1.19,2.25-1.58,4.66-1.53,7.18.09,4.57,5.25,8.69,9.78,7.79,1.68-.33,2.23-1.13,1.65-2.71-.47-1.28-.57-2.56-.49-3.89.04-.72.04-1.61.81-1.76.75-.15.92.77,1.2,1.33,1.43,2.82,3.27,5.14,6.42,6.3,3.2,1.18,6.5,1.29,9.62.45,4.31-1.16,7.41-4.06,8.87-8.41.4-1.17.29-2.3-.78-3.24-1.49-1.3-2.88-2.71-4.3-4.1-.35-.34-.63-.76-.88-1.18-.28-.47-.25-.97.19-1.35.47-.4.93-.22,1.33.14.71.63,1.36,1.33,2.12,1.89,3.3,2.43,7.08,3.45,11.11,3.66,1.17.06,2.16-.73,2.32-1.92.09-.69.05-1.4-.01-2.1-.24-2.73-1.2-5.3-1.76-7.96-.72-3.4-1.36-6.79-.61-10.28.37-1.73.65-3.49,1.23-5.17.25-.72.11-1.14-.51-1.55-1-.67-1.91-1.48-2.57-2.47-.7-1.05-1.52-1.34-2.78-1.29-4,.16-8.21-3.02-9.18-6.8-.09-.36-.42-.86.05-1.13.44-.25.59.32.83.55,1.4,1.33,2.98,2.34,4.9,2.73,1.77.36,2.29-.22,1.73-1.98-.45-1.42-.89-2.83-1.04-4.32-.07-.66-.12-1.33.22-1.94.19-.35.4-.8.88-.75.49.05.41.57.48.9.69,3,2.04,5.66,4.07,7.95,2.24,2.53,4.31,5.23,7.24,7.05.68.42.92.9.45,1.73-.61,1.07-1.11,2.21-1.56,3.36-.93,2.39-2.24,4.64-1.97,7.43.33,3.45,1.3,6.7,2.39,9.95,1.22,3.64,2.4,7.29,2.36,11.2,0,.36.12.73.19,1.09.54,2.73,1.87,5.18,2.73,7.79,1.63,4.95,4.57,8.74,8.78,11.75,2.27,1.63,4.79,2.04,7.39,2.53,3.21.61,5.97-.24,8.4-2.29,2.3-1.93,3.25-6.42,1.64-8.71-1.52-2.16-3.37-4.09-6.35-4.17-.73-.02-1.21-.56-1.49-1.15-.26-.53.09-1.04.45-1.45.63-.73,1.42-1.25,2.22-1.76,1.07-.68,2.1-.63,3.08.19,1.12.92,2.14,1.95,3.01,3.1,2.82,3.72,4.31,7.68,2.3,12.33-.52,1.2-.07,2.05,1.05,2.68.62.35,1.28.54,1.99.65,1.93.29,3.87.32,5.8.32,3.44-.02,6.52-1.45,9.48-2.94,2.95-1.49,3.28-4.53,3.12-7.43-.13-2.36-.83-4.57-3.12-6.01-.73-.46-1.78-1.1-1.85-2.18-.07-1.24.91-1.87,1.88-2.38.88-.47,1.53.04,2.05.65,3.72,4.4,5.48,9.25,3.42,14.99-.59,1.63-.08,2.31,1.67,2.41.88.05,1.72-.16,2.51-.55,2.11-1.04,3.36-2.7,3.79-5.02.96-5.14-.87-9.38-4.18-13.15-2.55-2.91-5.83-5.2-7.49-8.89-.53-1.19-1.53-2.15-2.44-3.1-.32-.33-.55-.66-.61-1.16-.36-2.72-1.19-5.31-2.22-7.84-1.8-4.42-3.96-8.55-8.77-10.48-.75-.3-1.51-.84-1.19-1.89.3-.98,1.98-1.91,3.03-1.72.54.1.99.38,1.45.67.91.6,1.58,1.44,2.38,2.16,1.05.94,2.46.81,3.2-.36.66-1.04,1.32-2.13,1.47-3.38.43-3.61-.57-6.68-3.62-8.9-.41-.3-.89-.54-.59-1.16.28-.59.81-.66,1.37-.51.36.09.7.24,1.05.37,2.63,1.92,3.61,4.85,4.47,7.74.92,3.11-.22,5.95-1.99,8.5-1.98,2.86-1.02,5.54.6,7.89.65.94,1.6,1.28,2.71.73.32-.16.58-.39.97-.02,2.84,2.64,6.41,3.25,10.02,2.92,4.19-.38,7.95-1.87,9.91-6.09.43-.92.61-1.79-.13-2.65-.12-.14-.34-.3-.22-.52.13-.27.4-.22.65-.2,1.27.11,2.55.32,3.82.3,4.23-.09,8-1.36,11.02-4.5.53-.56.8-1.37,1.58-1.68,1.14.4,1.07,1.13.64,2.06-.62,1.34-.22,1.97,1.22,2.25.86.17,1.65.02,2.4-.34,4.98-2.4,8.71-5.89,9.96-11.53.13-.58.01-1.66.8-1.58.97.1.62,1.13.62,1.84-.02,1.76.77,2.32,2.44,1.69,1.17-.43,2.12-1.25,3.15-1.93,5.32-3.53,8.47-10.94,5.42-16.96-.15-.29-.77-.63-.16-1.02.47-.29.75.18,1.03.43.95.84,2.23.81,3.05-.08,2.55-2.79,1.16-7.82-2.45-8.9-1.59-.47-2.43.06-2.7,1.7-.21,1.28-.19,2.67-1.52,3.48-.41.25-.22.67-.2,1.02.15,2.12-.27,4.07-1.57,5.83-.57.76-.9.68-1.34-.02M203.49,271.63c.99.06,1.97.14,2.96.18.53.02,1.33.5,1.54-.1.23-.64-.33-1.31-.92-1.75-.33-.25-.7-.44-1.02-.69-1.15-.93-1.54-2.2-1.53-3.62,0-.26-.02-.63.35-.71.3-.07.39.24.53.42.55.68,1.12,1.51,1.95,1.66,2.1.39,2.79,1.97,3.51,3.63.23.52.56,1.01.88,1.49,1.75,2.62,3.35,5.15,3.8,8.53.61,4.6,3.29,8.39,6.82,11.46,3.76,3.26,8.03,4.59,12.97,3.33,2.53-.65,4.23-2.17,5.36-4.52.96-2,.36-3.98.21-5.95-.19-2.48-1.27-4.6-3.32-6.11-.76-.56-.98-1.16-.5-1.99.47-.81,1.12-1.17,2.07-.86,1.3.42,2.37,1.12,3.13,2.28,2.75,4.22,3.16,8.81,1.87,13.53-.61,2.23-.1,3.34,2.14,4.35.59.27,1.26.39,1.91.5,4.08.69,7.69-.21,11.26-2.47,6.12-3.87,6.05-13.42.2-17.49-.44-.31-.89-.62-1.45-.64-.96-.04-1.59-.5-1.68-1.47-.1-.99.31-1.78,1.24-2.22,1.11-.53,2.19-.35,3.17.3,4.33,2.82,6.46,6.8,6.19,12-.06,1.27-.2,2.55-.33,3.82-.08.76.25,1.28.9,1.61.68.35,1.2-.05,1.66-.47.92-.81,1.56-1.82,1.91-2.98.89-2.96.8-5.9-.03-8.89-1.67-6.06-8.03-11.53-14.28-12.11-.79-.07-1.07-.27-.94-1.13.35-2.29.39-4.58.23-6.9-.29-4.15-1.77-7.95-3.25-11.74-.81-2.09-2.11-3.92-3.63-5.57-1.26-1.37-2.29-1.6-3.45-.8-1.14.79-2.38,1.37-3.71,1.65-2.9.61-5.14,2.14-6.83,4.54-1.82,2.59-4.48,3.82-7.43,4.5-1.87.43-3.77.48-5.58-.32-.56-.25-1.01-.09-1.52.15-2.92,1.37-5.89,2.57-9.21,2.36-.43-.03-.72.14-.91.5-1.34,2.46-3.54,4.09-5.62,5.83-.84.7-1.8,1.15-2.84,1.46-3.57,1.05-7.15,1.1-10.74.11-1.32-.36-2.57-.88-3.82-1.43-1.19-.52-1.84-.02-1.7,1.27.02.2.07.41.12.6,1.3,4.34,3.82,7.91,7.02,11.04.63.62,1.38.87,2.35.75,2.65-.32,5.27-1.09,7.98-.88M169.78,132.48c.18-.01.56,0,.92-.08,1.97-.4,2.62-2.01,1.46-3.6-.91-1.24-2.1-2.19-3.22-3.21-1.78-1.61-2.05-1.54-2.99.68-.03.08-.09.14-.12.22-1.04,2.69,1.07,6.05,3.95,5.99M228.92,125.56c-.13,1.03.35,1.54,1.31,1.76,1.69.39,3.01-.22,4.06-1.46.99-1.19,1.28-3.95.63-5.05-.72-1.21-2.25-1.76-3-.92-1.46,1.63-2.73,3.41-3.01,5.67"/>
    <path class="cls-4" d="M66.34,257.11c-.73-.64-1.35-.39-1.92.25-2.71,3.08-7.22,3.01-10.15,1.61-1.93-.92-2.57-2.53-1.88-4.22.27-.67.81-.88,1.36-1.15.54-.26,1.43-.44,1.26-1.13-.23-.9-1.14-.42-1.71-.31-2.44.45-4.86.96-7.36.46-3.84-.77-6.96-2.69-9.27-5.86-.74-1.02-1.01-2.26-1.21-3.48-.15-.88.22-1.51,1.27-1.54.69-.02,1.41.04,2.06-.29.31-.16.58-.36.55-.74-.03-.37-.3-.59-.63-.68-.4-.1-.81-.13-1.22-.19-6.35-.84-11.46-3.7-15.78-8.56-4.86-5.47-7.26-12.02-9.43-18.72-2.83-8.76-2.29-17.56.09-26.33,1.98-7.27,4.72-14.23,8.48-20.77.3-.52.08-.81-.11-1.22-1.85-4.01-2.16-8.17-1.19-12.44.29-1.3.85-2.5,1.75-3.51.98-1.09,2.05-.97,2.79.27.32.54.55,1.1.7,1.7.11.44.16.92.37,1.3.34.61.56,1.69,1.42,1.44,1.04-.3.41-1.21.21-1.88-1.75-5.82-.73-11.15,2.74-16.08,1-1.42,2-2.8,3.38-3.91,1.53-1.24,3.28-1.64,5.1-1.36,5.51.83,10.78,2.4,15.36,5.75,1.4,1.02,2.76,2.11,3.88,3.43.82.97.71,1.34-.34,2-.77.48-1.49,1.05-1.95,1.86-.15.27-.42.57-.09.89.28.26.62.23.92.07.26-.13.48-.32.72-.48,7.8-4.98,16.14-7.68,25.48-5.84,2.85.56,5.43,1.9,7.98,3.26.36.19.71.79,1.14.25.34-.42.2-.97-.14-1.37-.72-.85-1.56-1.59-2.52-2.16-.46-.27-.93-.52-1.41-.76-.85-.42-1.69-.98-1.43-2.03.26-1.03,1.32-1.25,2.22-1.22,2.8.07,5.27.98,7.03,3.28.89,1.15.91,2.43.21,3.71-1.04,1.9-1.72,3.93-2.04,6.06-.32,2.18-.11,4.35,1.12,6.2,1.48,2.24,2.29,4.57,2.09,7.3-.2,2.64.62,5.13,1.51,7.59.78,2.15.54,2.86-1.37,4.16-7.13,4.85-14.05,9.97-20.27,16-3.74,3.63-6.58,7.9-9.39,12.23-1.7,2.63-3.47,5.22-5.25,7.79-1.7,2.46-4.12,4.25-6.18,6.37-1.29,1.33-2.75,2.51-2.91,4.57-.06.73.08,1.26.64,1.74,1.79,1.56,3.85,2.69,6.02,3.6.91.38.99.67.4,1.49-2.19,3.06-3.85,6.33-3.73,10.26.03,1.14.5,1.75,1.5,2.12,1.01.37,2.1.42,3.07.9.61.3,1.17.63,1.36,1.34,1.56,5.85,4.07,11.31,6.79,16.68-.69.23-1.41.31-2.13.29"/>
    <path class="cls-4" d="M260.55,262.27c-1.21-.33-1.68-1.17-1.72-2.38-.26-7.82-3.21-14.72-7.29-21.23-.25-.4-.69-.7-1.07-1-1.02-.82-1.12-1.33-.33-2.39.83-1.12,1.84-2.1,2.5-3.36,1.23-2.33,1.88-4.83,2.24-7.41.23-1.72.81-3.2,1.85-4.62,3.32-4.5,2.57-9.11-1.97-12.62-.78-.6-1.27-1.03-.6-2.05.53-.81.25-1.76-.08-2.62-.21-.58-.47-1.14-.71-1.7,1.2.07,2.41.15,3.61.22.06.76.61.93,1.22.97,2.61.17,4.98,1.12,7.24,2.34,4.16,2.24,7.79,5.24,11.35,8.3,1.53,1.32,2.95,2.77,4.78,3.68.52.26.71.65.79,1.15.24,1.51-1.56,3.95-3.07,4.17-.52.08-.95-.09-1.37-.41-.89-.66-1.82-1.28-2.75-1.9-.76-.5-1.58-.91-2.51-.96-.41-.02-.89-.02-.99.49-.08.42.22.67.6.83,1.03.44,1.95,1.07,2.85,1.73,3.32,2.43,5.11,5.72,5.34,9.84.04.68-.17,1.26-.84,1.49-.77.26-1.28-.23-1.6-.83-.36-.67-.81-1.24-1.32-1.78-.21-.22-.48-.56-.84-.3-.33.25-.14.6.01.9,1.54,3,1.15,6.18.37,9.18-1.35,5.18-3.71,9.94-7.17,14.11-1.72,2.08-3.67,3.9-5.77,5.57-.47.38-1.24.74-.51,1.55-.82.18-1.69.25-2.24,1.03"/>
    <path class="cls-13" d="M262.79,261.25c-.73-.81.03-1.17.51-1.55,2.1-1.67,4.05-3.5,5.77-5.57,3.46-4.17,5.83-8.92,7.17-14.11.78-3,1.17-6.18-.37-9.18-.15-.29-.35-.65-.01-.9.35-.27.62.08.83.3.52.53.97,1.11,1.32,1.78.32.61.83,1.1,1.6.83.68-.23.88-.81.84-1.49-.23-4.12-2.01-7.41-5.34-9.84-.9-.65-1.82-1.29-2.85-1.73-.38-.16-.68-.42-.6-.83.1-.51.58-.52.99-.49.94.05,1.75.46,2.51.96.93.61,1.85,1.23,2.75,1.89.43.32.85.49,1.37.41,1.52-.23,3.32-2.66,3.07-4.17-.08-.5-.27-.89-.79-1.15-1.83-.91-3.25-2.37-4.78-3.68-3.56-3.06-7.19-6.05-11.35-8.3-2.26-1.22-4.63-2.17-7.24-2.34-.6-.04-1.16-.21-1.22-.97.33-.81,1.04-.68,1.69-.66,5.24.16,9.74,2.28,13.83,5.38,3.05,2.32,6.02,4.75,9.03,7.13.52.41,1.04.81,1.6,1.16,1.87,1.18,2.42,2.51,1.8,4.62-.54,1.83-1.52,3.39-3.05,4.55-.79.59-.93,1.12-.34,1.95,1.7,2.42,1.99,5.2,1.85,8.04-.08,1.62-.99,2.69-2.58,3.08-.93.23-1.35.74-1.51,1.69-1.28,7.57-4.89,14.03-9.69,19.88-1.31,1.6-3.19,2.45-4.91,3.51-.62.38-1.28,0-1.91-.19"/>
    <path class="cls-11" d="M153.66,100.14c-.13,1.37.56,2.38,1.5,3.23,2.13,1.95,4.68,2.93,7.56,2.85,3.88-.11,7.45-1.28,10.62-3.54,1.82-1.29,3.17-2.99,4.05-5.04.33-.76.71-1.01,1.5-.55,1.99,1.16,4.23.91,6.4.97.66.02,1.04-.43,1.09-1.11.04-.54-.07-1.05-.27-1.56-2.2-5.59-.99-10.7,2.4-15.36,1.96-2.7,4.36-5.05,7.1-7,.51-.36,1-.68.29-1.29,1.77-2.22,1.51-3.29-1.09-4.62-.91-.47-1.82-.91-2.83-1.18-3.35-.91-6.73-.87-10.13-.45-.22-.12-.45-.17-.71-.1-2.88.78-5.18,2.44-7.09,4.68-.16.19-.23.43-.16.69-1.56.97-2.48,2.43-3.2,4.06-.75.16-1.03.77-1.29,1.38-1,2.29-1.65,4.65-1.44,7.28-.72-.2-.88-.69-.97-1.26-.32-1.87.3-3.61.84-5.33,1.31-4.21,3.87-7.61,7.26-10.39,1.85-1.52,3.77-2.94,5.95-3.97.24-.11.63-.15.61-.51-.02-.39-.39-.51-.7-.61-1.28-.39-2.53-.18-3.75.26-2.01.73-3.68,2-5.28,3.38-.85.72-1.72,1.41-2.54,2.16-.98.89-2.17,1.2-3.42,1.18-2.57-.04-5.1-.34-7.41-1.62-.33-.18-.62-.27-1.03-.15-1.25.35-1.76-.08-1.53-1.43.44-2.52,1.03-5.03,2.72-7.07,4.58-5.5,10.53-7.9,17.61-7.37,2.32.17,4.45,1.23,6.19,2.84,2.87,2.65,6.41,4,10.04,5.13,1.26.39,2.58.25,3.82-.27-.03-.54-.4-.42-.65-.49-7-2.15-11.91-6.49-14.17-13.58-.22-.7-.38-1.42.18-2.13.71,1.32,1.05,2.86,2.6,3.48-.04.77.76,1.11.93,1.77.07.93,1.96,3.15,2.93,3.38.17.04.39-.07.58-.12.54.17.98.51,1.37.91.18,1.15.78,1.53,1.84,1.15,2.92,1.96,6.1,3.11,9.65,3.03,1.2-.03,2.24-.43,2.64-1.74.58.9,1.16,1.8,1.73,2.7.71,1.13,1.84,1.61,3.05,1.95.31.09.69.23.92-.1.28-.4-.18-.59-.37-.79-3.31-3.34-4-7.56-3.89-11.98.07-2.88,1.61-5.06,3.89-6.72,1.2-.87,1.69-.72,2.01.72.72,3.26,2.5,5.83,4.73,8.24,4.03,4.35,8.66,7.77,13.96,10.45,5.71,2.88,11.16,6.24,15.66,10.91,2.9,3.01,5.42,6.31,7.44,9.98.31.56.49,1.37,1.4.9.82-.42.51-1.05.23-1.7-.68-1.54-1.36-3.09-1.97-4.67-1.11-2.84.12-5.35,1.28-7.8.31-.66.96-.17,1.03.35.49,3.56,2.41,6.44,4.31,9.34.77,1.18,1.12,2.56,1.26,3.97.05.48.06,1.1.56,1.3.57.22.84-.37,1.16-.72.38-.41.75-.8,1.38-.52.69.32.61.93.49,1.5-.14.72-.16,1.48-.55,2.14-.18.31-.23.63.1.88.42.3.7.02.94-.28.51-.66,1.09-1.53,1.97-.93.8.54.54,1.58.25,2.4-.19.53-.54,1.01-.83,1.51-.18.32-.44.63-.14,1.01.29.36.64.27,1.02.16.47-.15.98-.61,1.42.07.4.62.18,1.18-.16,1.73-.67,1.06-1.51,1.82-2.88,1.83-.93,0-1.23.55-.93,1.42.15.43.29.87.51,1.26,2.8,4.77,3.64,10.1,4.57,15.44.43,2.45.2,4.43-1.54,6.33-1.6,1.75-2.41,4.03-3.17,6.25-.53,1.57-1.7,2.66-2.61,4.33-.49-2.46-1.1-4.53-1.9-6.54-.15-.37-.06-.6.2-.87.38-.38.73-.78,1.05-1.21.36-.48.65-1.07.14-1.56-.42-.39-1.01-.56-1.57-.11-.12.1-.29.15-.45.2-.31.09-.62.25-.88-.12-.25-.36-.05-.61.16-.88,1.49-1.92,2.46-4.09,2.97-6.46.08-.36.19-.72.22-1.09.04-.59.04-1.19-.69-1.41-.71-.21-.88.32-1.16.8-.99,1.7-2.66,2.53-4.35,3.3-.36.17-.72.12-1-.23-.3-.36,0-.6.16-.87,2.13-3.49,3.01-7.27,2.78-11.34-.08-1.4.08-2.8.07-4.2,0-.79-.08-1.72-1.07-1.83-.88-.1-1.21.68-1.43,1.43-1.48,5.01-4.99,8.33-9.21,11.06-.42.27-.86.45-1.39.41-8.05-.62-13.65,3.48-17.8,9.76-3.49,5.27-5.01,11.35-5.82,17.58-.17,1.27-.25,2.54-.4,3.81-.56,4.79,2.18,9.86,6.51,11.94.9.43,1.82.62,2.87.43,2.35-.43,4.65-1.11,7.04-1.32,3.29-.29,6.59-.12,9.89-.22.77-.02,1.68.05,1.02-1.2,1.06-.55,2.2-.97,3.14-1.68.89-.66,1.92-1.32,2.15-2.58.2-.04.42-.03.58-.14,3.9-2.5,7.38-5.46,9.51-9.67.81-1.6,1.14-3.43,1.8-5.12,1.36-3.51,2.8-6.98,5.44-9.77,2.9-3.07,6.08-5.71,10.39-6.53,3.93-.75,7.71-.36,11.29,1.54,1.24.66,1.97,1.72,2.51,2.95.2.47.22,1.01-.15,1.4-.4.42-.74-.08-1.1-.19-.69-.2-1.72-.9-2.01-.3-.34.69.88.81,1.42,1.16,4.65,3.05,7.63,7.2,8.53,12.74.09.57.09,1.16.05,1.73-.05.65-.18,1.3-.4,2-.92-2.42-2.59-4.27-4.3-6.09-.62-.66-1.25-1.32-2.1-1.7-.22-.1-.48-.28-.69-.1-.29.26-.03.55.12.76.85,1.21,1.7,2.43,2.61,3.6.97,1.26,1.57,2.68,2.07,4.18,2.04,6.12,1.9,12.35.26,18.42-2.15,7.94-7.36,13.41-15.1,16.31-3.33,1.25-6.73,2.28-10.36,2.03-.46-.03-.88.09-.98.55-.12.54.38.67.76.78.76.22,1.55.19,2.34.17,1.41-.04,1.73.39,1.35,1.78-.61,2.25-2.15,3.67-4.16,4.62-1.61.77-3.33,1.2-5.12,1.33-.95.07-1.58.26-1.73,1.54-.39,3.28-3.65,4.82-6.77,3.23-1.19-.61-1.55-.3-2.11.77-2.98,5.72-7.81,8.97-14.07,10.22-.36.07-.72.14-1.08.2-.06-.71.11-1.36.39-2.02.45-1.09,1.17-2.08,1.33-3.28,4.85-1.77,7.69-5.17,8.3-10.33.12-1,.61-1.76,1.27-2.46,1.88-1.99,3-4.4,3.73-7,.48-1.71-.27-2.99-1.87-3.38-.34-.31-.68-.63-1.03-.94.32-.25.63-.52.97-.76,2.71-1.92,5.29-3.97,6.63-7.16.17-.4.52-.5.85-.65,5.44-2.4,10.4-5.56,14.81-9.53,2.75-2.47,5.57-4.94,7.2-8.4.83-1.74.92-1.76,2.55-.65.75.51,1.46,1.07,2.31,1.43.67.29,1.36.53,1.94-.12.63-.71.23-1.39-.18-2.03-.41-.63-.9-1.21-1.53-1.6-1.87-1.14-3.82-2.13-5.95-2.67-.81-.21-1.64-.23-2.46-.15-1.97.2-3.7,1.08-5.42,1.98-.43.23-.89.65-.68,1.19.2.5.78.58,1.28.53.41-.04.8-.21,1.21-.25,1.1-.1,2.47-.43,3.07.66.59,1.07-.02,2.25-.69,3.32-.97,1.53-2.37,2.61-3.62,3.86-6.2,6.2-13.88,9.8-21.99,12.66-.58.2-1.2.29-1.81.41-4.17.89-8.35,1.34-12.65,1.08-4.27-.26-8.44-.78-12.54-1.99-4.62-1.37-9.11-3.09-13.88-4.01-4.25-.82-8.46-.81-12.67-.22-6.09.86-11.81,2.81-17.29,5.69-4.32,2.27-8.71,4.46-13.51,5.74-6.75,1.8-13.56,2.11-20.35.78-5.61-1.1-11.22-2.37-16.61-4.34-3.89-1.43-7.08-3.85-9.51-7.22-.43-.6-.96-1.33-.42-2.15.53-.81,1.4-.86,2.22-.74,1.14.16,2.27.41,3.39.67.42.1.73.09.96-.29.21-.36.21-.74-.07-1.03-.25-.27-.56-.49-.87-.67-4.9-2.86-10.04-2.91-15.27-1.14-1.18.4-2.44.92-2.92,2.29-.22.63-.35,1.31.14,1.88.47.54,1.08.47,1.72.3.72-.19,1.41-.43,2.05-.84.66-.42,1.38-.73,2.15-.94.77-.2,1.23-.05,1.66.75,2.28,4.24,5.33,7.71,9.82,9.75,2.03.92,4.06,1.83,6.14,2.62,3.51,1.32,7.17,2.18,10.73,3.35-1.26,2.18-1.13,4.58-1.08,6.97-2.41,2.29-2.51,4.87-.21,7.2,1.12,1.14,2.31,2.22,3.47,3.33,1.05,1.01,1.74,2.18,1.66,3.69-.04.68.19,1.29.48,1.89-.95,1.51-.95,3.15-.27,4.69.46,1.04.28,1.68-.53,2.33-1.03.83-1.67,1.9-1.85,3.23-1.38,1.21-2.07,2.74-2,4.56.04,1.14.1,2.3.31,3.43.81,4.38,3.78,6.45,7.99,3.64.03-.02.08-.03.11-.05.03,1.03.22,2.04.57,3,.83,2.23,2.47,3.98,5.01,3.66.07,1.39,0,2.8.36,4.17.66,2.57,2.39,4.63,5.49,2.62,1.07-.69,2.2-1.29,3.14-2.16.79-.73,1.41-.74,2.16.13,2.52,2.9,6.57,3.64,9.96,1.9.3,1.31,1.27,2.44,1.02,3.89-.35-.12-.69-.27-1.05-.37-.57-.15-1.09-.07-1.37.51-.3.62.18.86.59,1.16,3.05,2.21,4.05,5.28,3.62,8.9-.15,1.25-.81,2.34-1.47,3.38-.74,1.17-2.15,1.3-3.2.36-.79-.72-1.47-1.56-2.38-2.16-.45-.3-.91-.58-1.45-.67-1.05-.19-2.74.74-3.03,1.72-.32,1.05.44,1.59,1.19,1.89,4.81,1.93,6.97,6.06,8.77,10.48,1.03,2.52,1.86,5.12,2.21,7.84.07.5.3.83.62,1.16.92.95,1.91,1.91,2.44,3.1,1.66,3.69,4.93,5.98,7.49,8.89,3.31,3.78,5.15,8.01,4.18,13.15-.43,2.32-1.68,3.98-3.79,5.02-.8.39-1.63.6-2.51.55-1.76-.1-2.26-.77-1.67-2.41,2.06-5.74.31-10.59-3.42-14.99-.52-.62-1.17-1.12-2.05-.65-.97.51-1.95,1.14-1.88,2.38.06,1.08,1.12,1.72,1.85,2.18,2.29,1.44,2.98,3.65,3.12,6.01.16,2.9-.17,5.94-3.12,7.43-2.95,1.49-6.04,2.93-9.48,2.94-1.94,0-3.88-.03-5.8-.32-.7-.1-1.37-.3-1.99-.65-1.12-.63-1.57-1.49-1.05-2.68,2.01-4.65.52-8.61-2.3-12.33-.87-1.15-1.9-2.18-3.02-3.1-.98-.81-2.01-.87-3.08-.19-.8.51-1.6,1.03-2.22,1.76-.36.42-.71.92-.45,1.46.29.59.76,1.13,1.49,1.15,2.98.08,4.83,2.01,6.35,4.17,1.61,2.28.65,6.78-1.64,8.71-2.43,2.04-5.19,2.89-8.4,2.29-2.6-.49-5.12-.9-7.39-2.53-4.21-3.01-7.15-6.8-8.78-11.75-.86-2.61-2.19-5.06-2.73-7.79-.07-.36-.2-.73-.19-1.09.04-3.91-1.15-7.56-2.36-11.2-1.09-3.25-2.05-6.5-2.39-9.95-.27-2.79,1.03-5.03,1.97-7.43.45-1.15.94-2.29,1.56-3.36.47-.82.23-1.31-.45-1.73-2.93-1.82-5-4.53-7.24-7.05-2.04-2.3-3.39-4.96-4.07-7.95-.08-.33,0-.85-.48-.9-.48-.05-.69.41-.88.75-.34.6-.29,1.27-.22,1.94.16,1.49.6,2.9,1.05,4.32.56,1.76.03,2.33-1.73,1.98-1.93-.39-3.5-1.4-4.9-2.73-.24-.23-.39-.8-.83-.55-.46.26-.14.76-.05,1.13.97,3.77,5.18,6.96,9.18,6.8,1.26-.05,2.08.23,2.78,1.29.66.99,1.57,1.81,2.57,2.47.61.41.76.82.51,1.55-.58,1.68-.86,3.43-1.23,5.17-.75,3.49-.11,6.88.61,10.28.56,2.66,1.52,5.23,1.76,7.96.06.7.11,1.41.02,2.1-.16,1.2-1.15,1.99-2.32,1.92-4.04-.21-7.81-1.23-11.11-3.66-.76-.56-1.41-1.26-2.12-1.89-.41-.36-.86-.54-1.33-.13-.44.38-.46.88-.19,1.35.25.42.53.84.88,1.18,1.41,1.39,2.81,2.8,4.29,4.1,1.07.94,1.17,2.07.78,3.24-1.47,4.35-4.56,7.26-8.87,8.41-3.12.84-6.41.72-9.62-.45-3.15-1.16-4.99-3.47-6.42-6.3-.28-.56-.45-1.48-1.2-1.33-.77.15-.77,1.04-.82,1.76-.08,1.33.02,2.61.49,3.89.57,1.58.03,2.38-1.65,2.71-4.53.9-9.69-3.22-9.78-7.79-.05-2.52.34-4.93,1.53-7.18.4-.75.09-1.19-.74-1.1-.82.09-1.44.58-1.96,1.18-1.99,2.28-2.99,4.9-2.79,7.95.13,2.03-1.31,3.17-3.31,2.65-4.2-1.1-6.42-4.72-5.75-9.04.74-4.82,3.4-8.05,7.5-10.54,6.2-3.78,12.93-4.39,19.91-4.02.21.01.42.09.61.05.44-.08,1.12.43,1.27-.22.14-.59-.41-1.02-.96-1.29-1.1-.54-2.27-.76-3.47-.82-4.79-.22-9.55-.17-14.25,1.07-3.04.8-5.59-.26-7.53-2.74-2.86-3.65-4.35-7.82-4.77-12.4-.24-2.63-.43-5.27-.28-7.91.02-.4.18-.96-.34-1.04-.41-.07-.49.5-.59.82-.22.66-.42,1.34-.54,2.03-.43,2.47-1.96,2.33-3.47,1.24-2.01-1.46-2.29-2.67-1.15-4.91,1.32-2.6,2.5-5.3,4.77-7.3.6-.53.94-1.37,1.06-2.2.15-1-.28-1.29-1.25-1.01-2.12.62-4.2.69-6.28-.25-2.5-1.13-2.45-2.53-.58-4.45,1.75-1.79,4.06-2.95,5.83-4.77,1.19-1.22,2.22-2.51,3.04-4.02,4.61-8.5,10.7-15.85,17.88-22.27,3.6-3.22,7.88-5.55,11.75-8.43.95-.71,2.09-1.13,3.24-1.5.81-.26,1.46-.13,2.04.45.41.4.84.8,1.18,1.27,3.29,4.48,7.77,6.89,13.2,7.7,2.36.35,4.65,1.15,7.08,1.09.76-.02,1.08.7,1.47,1.21,1.21,1.57,2.31,3.22,3.6,4.72,3.69,4.32,10.22,6.09,15.15,4.15.6-.24,1.65-.36,1.52-1.11-.09-.49-1.07-.03-1.65.02-2.67.21-5.18-.26-7.49-1.63-1.85-1.1-3.64-2.31-5.05-3.95-1.75-2.03-1.42-3.48.96-4.7,1-.51,1.88-1.19,2.78-1.84.25-.18.63-.37.36-.78-.2-.31-.48-.33-.86-.21-2.56.83-5.18,1.3-7.87,1.43-5.76.26-11.27-.91-16.02-4.12-5.96-4.02-9.08-9.96-9.85-17.1-.62-5.74.8-11.12,2.88-16.39.2-.52.68-1.06-.09-1.49-.76-.42-1.37-.15-1.8.53-.69,1.1-1.02,2.33-1.22,3.6-.14.89-.24,1.81-.82,2.56-.74.95-1.42.84-1.93-.23-1.43-2.99-.77-5.85.82-8.48,1.75-2.9,3.97-5.47,6.72-7.52.34-.25.9-.45.62-1.04-.31-.66-.82-.3-1.28-.19-.62.16-1.28.54-1.84-.09-.52-.59-.29-1.24-.04-1.86,1.06-2.62,3.36-3.64,5.84-3.99,5.44-.78,10.45.64,15.4,2.98,8.28,3.91,14.56,10.14,20.62,16.7,1.86,2.01,4.04,3.64,6.09,5.43.6.52,1.35.78,2.18.74.24.44.62.68,1.08.91,1.68.84,3.46,1.35,5.24,1.91.33.74.94.69,1.58.54,2.29-.54,4.58-1.06,6.86-1.62,1.37-.34,2.77-.52,4.17-.44,3.29.21,5.86-1.29,8.22-3.34,1.38-1.2,2.51-2.61,3.62-4.06.81-1.06.83-2.28.88-3.53.31-7.45-2.47-13.85-6.66-19.78-3.45-4.89-8.17-8.24-13.45-10.82-3.42-1.67-7.02-1.43-10.62-.34-2.96.9-5.76.24-8.42-1.2-2.53-1.38-3.73-3.88-5.21-6.15-.28-.42-.39-1.17-1.06-.92-.61.23-1.05.81-1.01,1.57.1,1.65.27,3.28.63,4.9.74,3.32,1.95,6.38,4.57,8.7.46.41.04.65-.08.95-.22.53-.58.31-.91.13-1.58-.86-2.98-1.92-3.93-3.48-.21-.35-.35-.82-.88-.72-.56.1-.8.56-.9,1.06-.17.88.01,1.74.29,2.56.87,2.55,2.01,4.97,3.83,7,.28.32.41.58.22.98-.27.57-.61.16-.93.09-.16-.03-.31-.12-.47-.16-.54-.15-1.16-.72-1.6-.24-.49.53-.05,1.25.19,1.85.12.3.27.67.52.83,1.48.97,1.35,2.41,1.32,3.9-.03,1.21.19,2.43.31,3.74-.18-.14-.32-.21-.42-.32-2.5-2.78-5.34-5.2-8.55-7.07-3.16-1.85-4.42-4.64-4.81-8.02-.36-3.13-.25-6.23.42-9.34.57-2.66.98-5.35,1.91-7.92.31-.84-.25-.9-.73-.81-1.83.34-2.99-.72-4.04-1.9-.96-1.07-1.85-2.21-2.56-3.48-.29-.52-.49-1.08-.05-1.62.47-.59.99-.4,1.54-.08.61.35.84-.02.87-.56.02-.4-.03-.82-.09-1.22-.14-.94-.31-1.88-.2-2.83.12-.95.67-1.14,1.43-.56.1.08.19.16.29.23.48.3.62,1.31,1.4.91.68-.35.19-1.13.27-1.71.08-.57,0-1.16.06-1.73.11-1.15,1.05-1.63,1.89-.88.89.78,1.34.27,1.75-.41,1.83-3.06,3.37-6.23,3.64-9.86.03-.39.1-.79.58-.8.49,0,.72.39.83.79.46,1.72.78,3.47.72,5.25-.06,1.81-.08,3.63-.49,5.41-.06.27-.2.59.1.8.28.2.56.05.8-.12,1.24-.88,2.44-1.62,2.3-3.57-.16-2.21,1.09-4.13,2.22-5.94,2.87-4.58,6.17-8.77,11.15-11.28.36-.18.75-.35,1.15-.44.68-.15,1.24,0,1.4.8.1.51.39.91.73,1.27.5.53,1.05.69,1.58.05.66-.78,1.43-.83,2.34-.51,2.06.74,4.15,1.37,6.37,1.41.82.02,1.3.4.89,1.27-1.7,3.59-1.9,7.38-1.58,11.25-1.05-.05-1.85.73-2.85.83-.98-.83-2-.6-2.97-.04-1.62.94-3,2.16-4.25,3.56-1.29,1.44-2.27,3.05-2.51,5-.14,1.11-.21,2.24.88,3.02.02,1.39.58,2.59,1.29,3.74M219.7,94.06c1.01,1.17,1.69,2.7,3.41,3.11.12.38.4.61.74.79,3.61,1.91,7.34,2.83,11.41,1.56,4.14-1.28,6.4-4.15,6.34-8.04-.06-3.87-2.51-6.2-5.21-8.38-.45-.36-1.1-.58-1.75-.44-.78-1.2-1.86-2.06-3.16-2.64.37-.75,0-1.25-.57-1.69-1.27-.98-2.72-1.53-4.29-1.77-.55-.09-1.17-.11-1.53.52-.45-.03-.9-.04-1.35-.1-2.7-.34-5.31-.08-7.79,1.14-.92-.52-1.53-.11-2.09.64-1.26,1.69-1.38,3.54-.95,5.53.79,3.63,2.93,6.5,5.1,9.36.43.57,1.03.63,1.68.41M204.1,141.77c-1.62.24-3.41.28-5.09.89-1.1.4-2.57.59-2.75,1.97-.2,1.5,1.02,2.43,2.14,3.23.46.33,1,.59,1.55.75,2.93.87,5.71.49,8.27-1.21.84-.55,1.51-1.28,1.93-2.21.61-1.34.15-2.41-1.27-2.75-1.52-.37-3.07-.59-4.77-.68M219.63,119.49c-.05.6.04.97.45,1.1.58.19.79-.28,1.03-.66,1.56-2.56,3.1-5.14,4.68-7.69,1.07-1.72,2.31-3.3,3.94-4.54.33-.25.69-.46.98-.74.35-.35.39-.79.19-1.26-.23-.57-.66-.34-1.04-.28-1.13.18-2.04.78-2.97,1.43-2.95,2.06-4.41,5.12-5.69,8.31-.59,1.48-1.31,2.93-1.58,4.32M168.77,108.93c-.71.03-1.18.2-1.39.72-.27.66.38.73.7.95,2.83,1.89,5.4,4.05,7.53,6.72,1.23,1.55,2.5,3.07,3.78,4.57.35.41.7,1.1,1.39.7.73-.43.21-1.03-.02-1.51-.76-1.65-1.62-3.24-2.62-4.75-1.93-2.91-4.35-5.26-7.57-6.72-.63-.29-1.31-.49-1.8-.67M92.9,268.42c-.09.03-.3.08-.47.18-.88.49-1.8,3.33-1.37,4.25.16.35.43.61.85.6.42-.01.72-.27.81-.64.25-1,.73-1.91,1.13-2.85.34-.8-.11-1.51-.95-1.53"/>
    <path class="cls-2" d="M244.21,191.07c-.16,1.21-.88,2.19-1.33,3.28-.27.66-.45,1.31-.39,2.02-.45.24-.81.58-1.03,1.03-2.53,5.08-7.03,7.64-12.12,9.42-.08.03-.17.02-.24.06-.51.29-1.62.05-1.53.67.11.81,1.16.49,1.8.51,4.06.14,7.56-1.39,10.36-4.18,2.15-2.14,4.55-3.74,7.24-5.03.7-.34,1.34-.81,2.01-1.21.38-.23.79-.58,1.19-.07.34.43.35.93-.04,1.35-.34.36-.72.67-1.1,1.03,1.47,1.09,2.44,2.44,2.73,4.18.3,1.77-1.82,3.52-3.51,2.89-.77-.29-1.49-.7-2.23-1.05-.3-.15-.67-.32-.91-.03-.33.38.14.57.34.77,1.09,1.06,1.82,2.34,2.2,3.8.43,1.66-.4,2.47-2.02,2-.26-.08-.57-.32-.79-.01-.23.33-.14.71.05,1.05.54.98.89,2.03,1.17,3.11.39,1.47.21,2.85-.51,4.17-.86.99-1.54,2.2-2.93,2.6.39-2.21-.35-4.13-1.55-5.92-.22-.33-.48-.81-.95-.59-.49.23-.05.66.01.97.41,1.95.29,3.84-.45,5.7-.8,1.98-1.88,2.73-4.02,2.68-.59-.01-.95.18-1.02.78-.39,3.69-2.1,6.68-4.78,9.19-1.15,1.08-2.16,1.15-3.35.1-.65-.57-1.31-1.13-1.78-1.87-.19-.31-.48-.49-.83-.37-.36.11-.44.43-.45.79-.03.79.03,1.52.48,2.23.76,1.2,1.65,2.24,2.77,3.11-.65.89-1.3,1.78-1.95,2.67-.79.32-1.05,1.13-1.58,1.69-3.01,3.14-6.79,4.4-11.01,4.5-1.27.03-2.54-.18-3.82-.29-.25-.02-.51-.07-.65.2-.11.23.1.38.23.52.74.85.56,1.73.13,2.65-1.96,4.22-5.72,5.71-9.91,6.09-3.62.33-7.18-.28-10.02-2.92-.4-.37-.65-.14-.98.02-1.12.55-2.06.21-2.71-.73-1.62-2.35-2.58-5.02-.6-7.89,1.76-2.55,2.91-5.39,1.99-8.5-.86-2.89-1.84-5.82-4.47-7.74.25-1.45-.72-2.58-1.02-3.89.52-.74,1.12-1.43,1.55-2.21,1.14-2.06.28-5.54-1.63-6.92-.37-.27-.78-.37-1.14-.11-.4.29.05.59.14.85.33.89.7,1.77.78,2.72.17,1.99-.93,3.31-2.79,3.15-2.37-.2-4.36-1.13-5.53-3.38-.67-1.29-1.05-2.67-1.38-4.08-.11-.45-.19-1.13-.78-1.06-.51.06-.45.71-.49,1.15-.17,2.2-1.16,4.01-2.67,5.56-1.08,1.11-1.99,1.29-3.35.68-1.17-.52-1.55-1.5-1.54-2.71,0-1.77.09-3.54.48-5.28.25-1.13.15-2.22-.62-3.16-.2-.24-.43-.39-.75-.27-.27.1-.32.33-.32.6.03,2.66-.96,5.17-1.07,7.81-2.53.32-4.18-1.43-5.01-3.66-.35-.96-.54-1.97-.57-3,.67-.93.99-1.96.88-3.12-.03-.27-.11-.49-.39-.56-.23-.07-.37.1-.5.26-.24.28-.47.57-.74.82-1.66,1.54-4.11,1.35-4.87-.59-.94-2.41-1.5-5-.27-7.53.38-.78.06-.83-.53-.88.19-1.32.83-2.39,1.85-3.23.81-.65.99-1.29.53-2.33-.68-1.54-.68-3.17.27-4.68,1.45,1.68,3.16,2.99,5.25,3.81,1.71.67,3.51.9,5.3,1.15,1.62.23,2.8,1.03,3.56,2.54,1.7,3.36,4.44,5.45,8.12,6.25.61.13,1.54.55,1.78-.14.26-.74-.78-.92-1.32-1.12-2.32-.87-4.04-2.45-5.16-4.57-.99-1.88-1.33-3.39.94-4.54.11-.05.21-.12.31-.2.68-.52.88-1.2.5-1.97-.42-.85-1.04-.37-1.59-.16-3.54,1.34-7.09,2.04-10.88.96-2.95-.85-4.75-3.38-3.77-5.84.42-1.06.13-1.42-.82-1.82-3.38-1.42-5.6-3.96-6.84-7.39-.21-.58-.34-1.16-.1-1.81.23-.62.09-1.15-.7-1.27-.05-2.39-.18-4.79,1.08-6.97,1.54.26,3.09.51,4.63.76,1.08.18,1.88.79,2.53,1.64,1.44,1.86,3.32,3.13,5.57,3.7,6.33,1.6,12.43,3.83,18.44,6.35,3.04,1.27,5.7,2.97,7.54,5.76,1.12,1.7,2.45,3.21,3.94,4.59,2.08,1.94,4.23,3.8,6.26,5.8,6.3,6.19,19.29,9.08,28.62,2.68,5.65-3.87,9.91-8.69,10.81-15.8.08-.67.43-1.17,1-1.48,3.45-1.88,6.18-4.64,9.06-7.23,3.35-3,6.76-5.91,10.68-8.17.34.31.68.63,1.03.94-.08.23-.21.46-.24.7-.4,4.22-2.3,7.59-5.75,10.06-.55.39-.93.77-.35,1.48.3.36.43.9.33,1.41-.48,2.6-1.23,5.05-3.52,6.71-.76.55-1.47,1.19-2.04,1.97-.25.35-.43.63.11.85M198.41,212.12c-.65-.45-.65-.49-1.21-.48-4.92.08-9.16-1.74-12.98-4.67-.61-.46-1.14-.53-1.64-.08-.63.56.05.96.35,1.32,3.72,4.51,8.66,5.29,14.08,4.58.52-.07,1.04-.24,1.41-.67M214.5,234.2c1.67.09,2.94-.8,3.93-2.65.53-.98,1.23-1.12,2.07-.42.34.29.71.56,1.08.82.39.28.6.12.66-.32.1-.86-1.11-2.66-2.09-3.03-1.08-.4-1.86.18-2.44.98-1.07,1.46-2.06,2.97-3.2,4.61M203.7,248.47c.68,0,1.25.03,1.41-.57.17-.62-.42-.76-.82-.86-2.06-.52-3.84-1.65-5.68-2.64-.49-.26-1-.52-1.42.08-.41.6.02,1.01.42,1.37,1.77,1.64,3.94,2.31,6.09,2.61"/>
    <path class="cls-2" d="M264.59,62.95c-1.76-3.5-1.61-7.08-.42-10.69.64-1.92,1.55-3.72,2.43-5.54.42-.87,1.01-1.18,1.96-1.1,4.38.35,8.38,1.7,11.93,4.31,4.77,3.5,8.73,7.77,12.06,12.65,2.66,3.91,3.24,8.14,2.5,12.75-1.2,7.45-4.46,13.56-10.79,17.87-.2.14-.43.25-.64.37-.1-1.28.24-2.54.21-3.8-.14-5.84-1.6-11.34-4.34-16.51-3.2-6.01-8.59-8.81-14.9-10.3"/>
    <path class="cls-2" d="M118.99,112.54c-2.7.15-5.22-.49-7.63-1.7-6.21-3.11-11.25-7.6-15.35-13.16-2.38-3.23-2.53-6.97-2.2-10.77.27-3.16,1.58-5.95,3.17-8.63,5.04-8.5,11.95-15.18,20.1-20.64.52-.35.85-.39,1.21.16,2.07,3.17,4.33,6.23,5.55,9.88.3.9.26,1.85.55,2.74-1.75-.29-3.3.3-4.88.97-3.83,1.62-7.18,3.91-9.52,7.35-4.71,6.94-5.46,14.38-2.23,22.14,1.39,3.33,3.23,6.37,6.29,8.51,1.6,1.12,3.21,2.24,4.94,3.15"/>
    <path class="cls-12" d="M170.69,74.8c.72-1.63,1.64-3.09,3.2-4.06,2.84-1.47,5.52-3.18,7.96-5.27,3.4-.42,6.78-.46,10.13.45,1.01.27,1.92.72,2.83,1.18,2.6,1.33,2.86,2.4,1.09,4.62-.6-.17-1.13,0-1.64.31-3.93,2.4-7.6,5.03-10.03,9.13-1.25,2.1-1.91,4.28-2.05,6.64-.11,1.8-.26,3.61-.16,5.43.08,1.44-.87,2.21-2.23,1.73-4.33-1.54-7.77-3.96-9.11-8.74-.98-3.51-.96-6.9.17-10.32.12-.38.34-.79-.14-1.1"/>
    <path class="cls-3" d="M224.74,242.89c.65-.89,1.3-1.78,1.95-2.67,1.35.87,2.58.59,3.69-.45.54-.5,1.07-1.03,1.53-1.6,1.89-2.33,3.28-4.92,3.91-7.88.16-.76.46-1.15,1.26-.64.62.4,1.16.16,1.7-.21,2.14-1.46,3.1-3.66,3.83-6.01,1.39-.4,2.06-1.61,2.93-2.6.43.7.77.78,1.34.02,1.31-1.75,1.72-3.7,1.57-5.83-.02-.35-.21-.77.2-1.02,1.33-.8,1.31-2.19,1.53-3.48.27-1.64,1.11-2.17,2.7-1.7,3.62,1.08,5,6.11,2.45,8.9-.81.89-2.1.92-3.04.08-.29-.26-.57-.73-1.04-.43-.61.38.01.72.16,1.02,3.05,6.03-.09,13.43-5.42,16.96-1.03.68-1.98,1.5-3.15,1.93-1.68.62-2.46.06-2.44-1.69,0-.71.35-1.74-.62-1.84-.79-.08-.67.99-.8,1.58-1.25,5.64-4.98,9.13-9.96,11.53-.75.36-1.54.51-2.4.34-1.44-.28-1.84-.91-1.22-2.25.43-.93.5-1.66-.64-2.06"/>
    <path class="cls-3" d="M118.99,112.54c-1.73-.92-3.33-2.03-4.94-3.15-3.06-2.14-4.9-5.18-6.29-8.51-3.23-7.76-2.49-15.2,2.23-22.14,2.34-3.44,5.69-5.74,9.52-7.35,1.58-.66,3.13-1.26,4.88-.97.41,1.08.29,1.82-1.06,2.04-.73.12-.97.81-1.15,1.47-.33,1.21-.27,2.45-.37,3.68-.15,1.94-.74,2.29-2.52,1.53-.61-.26-.99-.17-1.32.41-.36.63-.54,1.28-.53,2,.01.66.06,1.33-.04,1.97-.18,1.19-.82,1.66-1.99,1.38-.94-.22-1.29.12-1.42.99-.3,1.93-.36,3.83.29,5.74.56,1.64.17,2.22-1.56,2.59-.75.16-1.28.49-1.09,1.32,1.18,5.15,3.47,9.59,8.22,12.38.63.37,1.36.59,2.04.89.85.37,1.29,1,1.16,1.95-.13.93-.68,1.5-1.6,1.62-.81.1-1.64.11-2.46.16"/>
    <path class="cls-12" d="M159.64,132.32c-.58,3.79.12,7.39,1.71,10.84,2.64,5.74,9.54,6.74,13.73,1.99,1.46-1.65,2.28-3.61,2.75-5.73.07-.3-.04-.66.28-.9,2.05,2.4,2.15,6.21-.02,8.55-2.39,2.59-5.18,4.56-8.97,4.57-1.31,0-2.63.22-3.92.48-2.59.54-4.76-.33-6.58-2.03-6.73-6.27-9.12-19.68-2.13-27.88,3.01-3.53,4.7-3.64,8.06-.41.65.62.14.96-.16,1.32-1.41,1.68-2.7,3.44-3.58,5.46-2.4.41-2.83,1.47-1.39,3.41.07.1.14.2.21.3"/>
    <path class="cls-6" d="M153.66,100.14c-.72-1.15-1.27-2.35-1.29-3.74.55-.17.9-.45.96-1.11.47-4.56,2.97-7.6,7.11-9.38.51-.22.89-.43.77-1.05,1-.11,1.81-.89,2.85-.83.35,1.79,1.02,3.31,3.06,3.75.24.05.49.33.62.57,1.36,2.42,3.53,3.99,5.74,5.53,1.49,1.04,1.74,2.06.91,3.71-.56,1.13-1.33,2.08-2.39,2.78-4.26,2.8-8.82,3.76-13.79,2.29-1.38-.41-2.55-1.15-3.61-2.08-.29-.25-.52-.53-.95-.43"/>
    <path class="cls-12" d="M185.23,47.47c-.17-.66-.97-1-.93-1.77.37-.41.23-.82.04-1.26-.27-.6-.56-1.2-.73-1.83-.18-.67-.27-1.38.85-1.19.77.13,1.03-.34,1.08-1,.11-1.33-.32-2.53-.96-3.65-1.06-1.85-1.86-3.77-1.65-5.97.04-.41.07-.82.17-1.21.17-.67.51-1.26,1.28-1.33.79-.07.89.64,1.08,1.15,1.56,4.2,4.54,7.3,7.86,10.13,2.2,1.86,4.36,3.76,6.99,5.06.96.48,1.49,1.41,1.69,2.59.4,2.4,1.27,4.67,2.23,6.9-.39,1.31-1.44,1.71-2.63,1.74-3.55.09-6.73-1.07-9.65-3.02-.31-.87-.69-1.62-1.84-1.15-.4-.39-.83-.73-1.37-.91.37-.51.17-.91-.24-1.27-.61-.53-1.23-1.07-1.85-1.6-.41-.35-.83-.68-1.42-.4"/>
    <path class="cls-12" d="M239.41,121.68c-1.05-1.43-2.17-2.79-3.72-3.74-1.14-.7-1.13-1.02-.07-1.75,1.19-.82,2.41-1.59,3.59-2.42.53-.37,1-.42,1.6-.18,1.75.69,3.1,1.83,4.18,3.35,3.94,5.51,5.07,11.52,3.39,18.09-.5,1.96-.93,3.95-2.01,5.69-1.8,2.91-4.18,4.96-7.81,5.08-1.49.05-2.97.28-4.39.68-2.82.8-6.78-.93-8.68-3.77-.11-.17-.26-.35-.29-.54-.37-2.27-.5-4.54.09-6.86.47,1.12.88,2.26,1.41,3.34,1.39,2.84,3.61,4.59,6.83,4.82,3,.21,5.43-.96,7.08-3.47,1.33-2.02,2.09-4.28,2.43-6.69.43-3.1-.28-5.97-1.58-8.75.45-.84,1.69-1.55.79-2.64-.74-.9-1.85-.53-2.83-.22"/>
    <path class="cls-3" d="M264.59,62.95c6.31,1.49,11.7,4.29,14.9,10.3,2.75,5.17,4.2,10.67,4.34,16.51.03,1.26-.31,2.52-.21,3.8-3.23,2.36-6.82,3.96-10.61,5.17-.9.29-1.42-.05-1.78-.83-.39-.86.07-1.28.78-1.64,1.11-.56,2.11-1.27,2.9-2.27.5-.63.43-1.06-.26-1.5-1.19-.77-1.28-1.17-.24-2.17,2.59-2.51,3.15-5.69,3.18-9.06,0-1.17-.31-1.34-1.45-.89-1.1.43-1.73.09-1.91-1.09-.15-.99.08-1.97.2-2.95.15-1.2-.07-2.28-.75-3.29-.43-.64-.83-.78-1.51-.3-1.32.94-2.14.56-2.46-1.05-.07-.36-.11-.73-.19-1.1-.3-1.45-.48-1.54-1.8-.88-.82.41-1.64.27-1.75-.63-.27-2.1-1.2-4.03-1.39-6.13"/>
    <path class="cls-9" d="M157.88,155.55c-1.78-.55-3.56-1.06-5.24-1.91-.46-.23-.84-.47-1.08-.91.45-.47.41-.93,0-1.41-1.07-1.25-2.05-2.59-3.2-3.77-2.92-3-4.46-6.58-4.76-10.73-.37-5.17.47-10.1,2.86-14.74,1.25-2.42,3.21-4.04,5.68-5.09,1.05-.45,2.17-.26,4.79.74-5.34,5.21-8.13,11.48-7.66,18.94.47,7.48,3.81,13.44,10.07,17.75-.6.32-1.16.57-1.48,1.13"/>
    <path class="cls-9" d="M253.71,141.95c-.23,1.26-1.26,1.92-2.15,2.58-.94.7-2.09,1.13-3.14,1.68-.47-.14-.93-.27-1.43-.41.19-.7.75-1.16,1.14-1.74,4.41-6.62,5.04-13.86,3.73-21.49-.54-3.1-2.07-5.61-4.08-7.91-.92-1.05-1.91-2.04-3-3.19,1.44-.29,2.64-.67,3.99.28,3.83,2.71,6.62,6.14,8.01,10.67.74,2.4,1.56,4.78,1.96,7.27.4,2.5.02,4.71-1.81,6.64-1.22,1.28-2.23,2.76-3.36,4.12-.48.58-.6,1.07.14,1.5"/>
    <path class="cls-8" d="M169.78,132.48c-2.88.06-4.98-3.3-3.95-5.99.03-.08.09-.14.12-.22.94-2.23,1.21-2.3,2.99-.68,1.12,1.02,2.32,1.97,3.22,3.21,1.16,1.58.51,3.2-1.46,3.6-.36.07-.74.06-.92.08"/>
    <path class="cls-8" d="M228.92,125.56c.27-2.27,1.55-4.05,3.01-5.67.75-.84,2.28-.29,3,.92.65,1.1.36,3.86-.63,5.05-1.05,1.25-2.37,1.85-4.06,1.46-.97-.22-1.45-.73-1.31-1.76"/>
    <path class="cls-8" d="M159.64,132.32c-.07-.1-.14-.2-.21-.3-1.44-1.95-1.01-3.01,1.39-3.41,1.1.21,1.96.71,2.48,1.78.39.81.28,1.53-.19,2.2-.47.67-1.22.62-1.91.41-.54-.16-1.04-.45-1.56-.68"/>
    <path class="cls-8" d="M239.41,121.68c.98-.31,2.09-.68,2.83.22.89,1.09-.35,1.81-.79,2.64-.69.21-1.28.7-2.05.72-1.09.03-1.51-.42-1.32-1.48.16-.88.59-1.59,1.33-2.1"/>
    <path class="cls-13" d="M254.63,166.95c-3.92,2.26-7.33,5.17-10.68,8.17-2.89,2.58-5.61,5.35-9.06,7.23-.57.31-.92.81-1,1.47-.89,7.12-5.16,11.93-10.81,15.8-9.33,6.4-22.32,3.51-28.62-2.68-2.03-1.99-4.18-3.86-6.26-5.8-1.48-1.38-2.82-2.89-3.94-4.59-1.84-2.79-4.49-4.49-7.53-5.76-6.01-2.52-12.11-4.75-18.44-6.35-2.25-.57-4.13-1.84-5.57-3.7-.65-.84-1.45-1.46-2.53-1.64-1.54-.25-3.09-.51-4.63-.76-3.56-1.17-7.21-2.03-10.73-3.35-2.08-.78-4.11-1.7-6.14-2.62-4.5-2.04-7.55-5.51-9.82-9.75-.43-.8-.9-.96-1.66-.75-.77.2-1.48.52-2.15.94-.64.4-1.33.64-2.05.84-.63.17-1.25.24-1.72-.3-.49-.57-.37-1.25-.14-1.88.48-1.37,1.74-1.89,2.92-2.29,5.23-1.76,10.37-1.71,15.27,1.14.32.18.62.41.87.67.28.3.28.67.07,1.03-.23.38-.54.39-.96.29-1.12-.26-2.25-.52-3.39-.67-.82-.11-1.69-.06-2.22.74-.54.82-.01,1.55.42,2.15,2.43,3.37,5.62,5.79,9.51,7.22,5.39,1.98,11.01,3.25,16.61,4.34,6.78,1.33,13.6,1.02,20.35-.78,4.8-1.28,9.19-3.46,13.51-5.74,5.48-2.88,11.2-4.84,17.29-5.69,4.21-.59,8.42-.6,12.67.22,4.77.92,9.27,2.64,13.88,4.01,4.1,1.22,8.28,1.73,12.54,1.99,4.3.26,8.48-.18,12.65-1.08.6-.13,1.23-.21,1.81-.41,8.11-2.87,15.79-6.46,21.99-12.66,1.25-1.25,2.65-2.33,3.62-3.87.67-1.06,1.29-2.24.69-3.32-.6-1.09-1.97-.76-3.07-.66-.41.04-.8.22-1.21.25-.5.04-1.08-.04-1.28-.53-.21-.54.25-.96.68-1.19,1.71-.91,3.44-1.79,5.42-1.98.82-.08,1.66-.05,2.46.15,2.14.54,4.09,1.53,5.95,2.67.64.39,1.12.97,1.53,1.6.41.64.81,1.32.18,2.03-.58.65-1.27.41-1.94.12-.84-.36-1.56-.92-2.31-1.43-1.64-1.12-1.73-1.1-2.55.65-1.64,3.45-4.45,5.92-7.2,8.4-4.41,3.96-9.38,7.12-14.81,9.52-.33.15-.68.24-.85.65-1.33,3.2-3.91,5.24-6.63,7.16-.33.24-.65.51-.97.76M230.22,182.42c-.15-2.88-.46-5.7-1.55-8.38-.36-.88-.77-1.56-1.84-1.92-2.46-.84-4.28-2.46-4.85-5.15-.1-.46-.34-.65-.74-.87-1.39-.77-2.91-.91-4.43-1.03-3.37-.26-6.58.28-9.43,2.24-.98.67-.98,1.21.08,1.8.79.44,1.58.89,2.28,1.47,3.38,2.77,4.98,6.59,6.27,10.59.14.44.12,1.03-.32,1.21-.43.17-.7-.35-.89-.7-1.56-2.79-3.32-5.4-5.71-7.57-4.92-4.47-10.54-7.08-17.3-6.41-3.02.3-6.03.96-6.99,4.58-.05.2-.15.4-.28.54-1.23,1.25-.96,2.72-.57,4.17.21.79.5,1.57.8,2.34,1.71,4.27,4.58,7.8,7.29,11.43,1.52,2.04,3.37,3.74,5.4,5.24,3.44,2.52,7.43,3.78,11.58,4.31,2.05.26,4.19.38,6.26-.29,3.03-.98,5.88-2.17,8.43-4.25,4.3-3.5,6.44-7.88,6.51-13.34M206.74,156.81c-2.14,0-4.29.07-6.4.38-3.91.58-7.49,2.19-11.1,3.68-2.72,1.12-2.87,1.4-2.72,4.34.05.92.41,1.15,1.26.92,4.51-1.23,9.03-1.26,13.54-.1.87.22,1.6.04,2.35-.39,5.28-3.01,10.77-4.76,16.88-2.76.26.09.52.22.68-.22.54-1.54-.09-2.95-1.57-3.65-4.1-1.93-8.49-2.18-12.91-2.22M240.31,163.71c-.99,0-1.98.02-2.96,0-.58-.02-.84.18-.82.78.01.33-.03.66-.09.98-.34,2.07-1.53,3.6-3.08,4.9-.62.53-1.36,1.03-1.19,2.01.38,2.17,2.95,3.91,5.11,3.4,2.89-.69,4.95-2.61,6.92-4.72,1.91-2.05,4.07-3.89,6.62-5.09,1.84-.87,3.37-2.02,4.65-3.56.24-.29.55-.55.37-.97-.2-.47-.64-.47-1.06-.4-.32.06-.63.17-.94.27-4.41,1.38-8.83,2.64-13.52,2.41M175.83,176.87c.53-.05,1.16.24,1.47-.53.31-.8-.42-.91-.78-1.18-1.94-1.47-3.5-3.27-4.52-5.47-.53-1.14-1.15-1.62-2.49-1.27-3.28.84-6.64,1.18-10.02,1.29-.55.02-1.2-.02-1.28.66-.09.7.53.9,1.1,1.11,4.56,1.68,9.31,2.79,13.83,4.59.86.34,1.67.97,2.69.81M183.56,164.9c.04-1.58-.57-1.97-1.87-1.33-1.96.96-3.93,1.9-5.88,2.88-1.33.67-1.57,1.64-.63,2.79.7.86,1.47,1.68,2.32,2.38,1.62,1.34,3.18.98,4.37-.74,1.29-1.87,1.35-4.02,1.69-5.98M225.15,163.4c-.05,1.68.26,3.27,1.05,4.76.67,1.27,2.31,1.89,3.56,1.15,1.66-.99,2.97-2.33,3.5-4.28.25-.9-.01-1.49-.92-1.84-1.77-.67-3.51-1.39-5.27-2.09-1.34-.53-1.88-.16-1.92,1.31,0,.33,0,.66,0,.99"/>
    <path class="cls-6" d="M231.47,80.01c1.3.58,2.38,1.44,3.16,2.64-.47.5-.3.92.11,1.39,1.14,1.35,2.32,2.68,3.36,4.1,1.86,2.53,1.47,5.11-1,7.04-3.37,2.64-7.04,3.2-11.01,1.52-1.1-.46-2.19-.96-2.99.46-1.71-.4-2.39-1.94-3.4-3.11.7-.58.7-1.19.19-1.93-1.09-1.59-2.16-3.21-3.01-4.95-1.2-2.46-1.62-5-.77-7.65.17-.52.12-.96-.16-1.4,2.47-1.22,5.08-1.48,7.79-1.14.45.06.9.07,1.35.1-.01.61.4.84.88,1.05,1.32.57,2.61,1.21,3.82,1.99.61.39,1.14.38,1.68-.1"/>
    <path class="cls-13" d="M159.2,219.91c.11-2.64,1.11-5.15,1.07-7.81,0-.27.04-.5.32-.6.32-.12.56.04.75.27.77.94.87,2.03.62,3.16-.38,1.74-.47,3.5-.48,5.28,0,1.21.37,2.19,1.54,2.71,1.36.61,2.27.43,3.35-.68,1.5-1.55,2.5-3.36,2.67-5.56.03-.44-.03-1.09.49-1.15.59-.07.68.61.78,1.06.33,1.4.71,2.79,1.38,4.08,1.17,2.25,3.16,3.18,5.53,3.38,1.86.16,2.96-1.16,2.8-3.15-.08-.95-.45-1.83-.78-2.72-.1-.26-.54-.56-.14-.85.36-.26.77-.16,1.14.11,1.91,1.38,2.76,4.86,1.63,6.92-.43.78-1.03,1.48-1.55,2.21-3.39,1.74-7.44,1-9.96-1.9-.76-.87-1.38-.86-2.16-.13-.94.87-2.07,1.47-3.14,2.16-3.1,2.01-4.83-.05-5.49-2.62-.35-1.36-.29-2.77-.36-4.17"/>
    <path class="cls-13" d="M144.46,175.31c.79.12.93.65.7,1.27-.24.64-.11,1.23.1,1.81,1.23,3.43,3.45,5.97,6.84,7.39.96.4,1.24.76.82,1.82-.98,2.47.82,5,3.77,5.84,3.78,1.09,7.34.39,10.88-.96.55-.21,1.17-.69,1.59.16.38.77.18,1.44-.5,1.97-.1.08-.2.14-.31.2-2.28,1.15-1.94,2.66-.94,4.54,1.12,2.12,2.84,3.7,5.16,4.57.54.2,1.58.38,1.32,1.12-.24.69-1.18.27-1.78.13-3.68-.8-6.42-2.89-8.13-6.25-.76-1.5-1.94-2.3-3.56-2.54-1.8-.26-3.59-.48-5.3-1.15-2.09-.82-3.8-2.13-5.25-3.81-.29-.6-.52-1.2-.48-1.89.08-1.51-.61-2.68-1.66-3.69-1.15-1.11-2.34-2.19-3.47-3.33-2.29-2.33-2.2-4.91.21-7.2"/>
    <path class="cls-13" d="M204.1,141.77c1.7.09,3.25.31,4.78.68,1.42.34,1.89,1.41,1.27,2.75-.42.93-1.09,1.65-1.93,2.2-2.56,1.69-5.33,2.07-8.27,1.21-.54-.16-1.09-.42-1.55-.75-1.12-.8-2.34-1.72-2.14-3.23.18-1.38,1.65-1.57,2.75-1.97,1.68-.61,3.47-.65,5.09-.89"/>
    <path class="cls-13" d="M223.11,97.17c.8-1.42,1.89-.93,2.99-.46,3.97,1.68,7.64,1.12,11.01-1.51,2.46-1.93,2.86-4.51,1-7.04-1.05-1.42-2.22-2.76-3.36-4.1-.4-.47-.58-.89-.11-1.39.66-.14,1.3.08,1.75.44,2.7,2.18,5.15,4.51,5.21,8.38.06,3.89-2.2,6.76-6.34,8.04-4.07,1.26-7.8.34-11.41-1.56-.34-.18-.61-.41-.74-.79"/>
    <path class="cls-13" d="M244.21,191.07c-.54-.22-.37-.5-.11-.85.56-.78,1.28-1.42,2.04-1.97,2.3-1.67,3.04-4.11,3.52-6.71.09-.51-.04-1.05-.33-1.41-.58-.71-.2-1.08.35-1.48,3.45-2.48,5.35-5.84,5.75-10.06.02-.24.16-.47.24-.7,1.59.39,2.35,1.67,1.87,3.38-.73,2.6-1.86,5.01-3.73,7-.66.71-1.15,1.47-1.27,2.47-.62,5.17-3.46,8.56-8.31,10.33"/>
    <path class="cls-13" d="M215.96,78.11c.28.44.33.88.16,1.4-.86,2.66-.44,5.2.76,7.65.85,1.74,1.92,3.36,3.01,4.95.51.74.51,1.35-.19,1.93-.65.22-1.24.16-1.68-.41-2.18-2.86-4.32-5.73-5.1-9.36-.43-1.99-.3-3.84.95-5.53.56-.75,1.16-1.16,2.09-.64"/>
    <path class="cls-13" d="M219.63,119.49c.26-1.4.98-2.84,1.58-4.32,1.28-3.19,2.74-6.25,5.69-8.31.92-.64,1.84-1.24,2.97-1.43.39-.06.81-.29,1.04.28.19.47.15.91-.19,1.26-.29.29-.65.5-.98.74-1.64,1.23-2.88,2.82-3.94,4.54-1.58,2.55-3.12,5.12-4.68,7.69-.23.38-.44.86-1.02.67-.41-.14-.51-.5-.45-1.1"/>
    <path class="cls-13" d="M168.77,108.93c.49.18,1.17.38,1.8.67,3.21,1.46,5.64,3.82,7.57,6.72,1.01,1.51,1.86,3.11,2.62,4.75.22.49.75,1.09.02,1.51-.68.4-1.04-.29-1.39-.7-1.28-1.51-2.55-3.02-3.78-4.57-2.13-2.68-4.7-4.84-7.53-6.73-.33-.22-.98-.29-.7-.95.21-.52.68-.68,1.39-.72"/>
    <path class="cls-13" d="M147.21,201.66c.59.04.91.09.53.88-1.23,2.53-.67,5.11.27,7.53.76,1.95,3.21,2.13,4.87.59.27-.25.5-.54.74-.82.14-.16.27-.33.5-.26.27.08.36.3.39.56.11,1.15-.21,2.19-.88,3.12-.04.01-.08.02-.11.04-4.21,2.81-7.18.74-7.99-3.64-.21-1.12-.27-2.28-.31-3.43-.07-1.83.62-3.35,2-4.56"/>
    <path class="cls-13" d="M161.22,84.85c.12.63-.26.84-.77,1.05-4.14,1.78-6.64,4.83-7.11,9.38-.07.66-.41.94-.96,1.11-1.09-.77-1.01-1.91-.88-3.02.24-1.95,1.22-3.56,2.51-5,1.24-1.39,2.63-2.62,4.25-3.56.97-.57,1.99-.79,2.97.04"/>
    <path class="cls-13" d="M231.47,80.01c-.53.48-1.07.49-1.68.1-1.21-.78-2.5-1.42-3.82-1.99-.48-.2-.89-.44-.88-1.05.35-.63.97-.61,1.52-.52,1.56.25,3.02.79,4.29,1.77.56.44.94.94.57,1.69"/>
    <path class="cls-13" d="M181.85,65.47c-2.43,2.08-5.12,3.8-7.96,5.27-.08-.26,0-.5.16-.69,1.91-2.24,4.21-3.9,7.09-4.68.26-.07.49-.02.71.11"/>
    <path class="cls-13" d="M185.23,47.47c.59-.28,1.01.05,1.42.4.62.53,1.23,1.06,1.85,1.6.41.36.61.76.24,1.27-.19.04-.41.16-.58.12-.96-.23-2.86-2.45-2.93-3.38"/>
    <path class="cls-13" d="M190.11,51.64c1.15-.48,1.53.28,1.84,1.15-1.06.38-1.66,0-1.84-1.15"/>
    <path class="cls-13" d="M242.61,223.43c-.73,2.35-1.69,4.55-3.83,6.01-.54.37-1.08.61-1.7.21-.79-.51-1.1-.11-1.26.64-.63,2.96-2.01,5.55-3.91,7.88-.46.57-.99,1.1-1.53,1.6-1.11,1.04-2.34,1.32-3.69.45-1.11-.86-2.01-1.91-2.77-3.11-.45-.72-.51-1.44-.48-2.23.01-.36.1-.67.45-.79.36-.11.64.07.83.37.47.74,1.13,1.31,1.78,1.87,1.19,1.05,2.2.97,3.35-.11,2.68-2.5,4.39-5.5,4.78-9.19.06-.6.42-.8,1.02-.78,2.14.05,3.22-.7,4.02-2.68.74-1.85.86-3.75.45-5.7-.06-.3-.51-.74-.01-.97.47-.22.73.26.95.59,1.2,1.79,1.94,3.71,1.55,5.92"/>
    <path class="cls-13" d="M198.41,212.12c-.37.44-.89.61-1.41.67-5.42.7-10.36-.08-14.08-4.58-.3-.37-.98-.76-.35-1.32.5-.45,1.04-.38,1.64.08,3.82,2.93,8.07,4.74,12.98,4.67.56,0,.56.02,1.21.48"/>
    <path class="cls-7" d="M230.22,182.42c-.07,5.46-2.22,9.84-6.51,13.35-2.54,2.07-5.39,3.27-8.43,4.25-2.07.67-4.21.55-6.26.29-4.16-.53-8.14-1.79-11.58-4.31-2.04-1.49-3.88-3.2-5.4-5.23-2.71-3.63-5.58-7.16-7.29-11.43-.3-.76-.59-1.54-.8-2.34-.39-1.46-.65-2.92.57-4.17.14-.14.23-.35.28-.54.96-3.62,3.97-4.28,6.99-4.58,6.76-.67,12.39,1.94,17.3,6.41,2.39,2.17,4.15,4.78,5.71,7.57.2.35.47.87.9.7.45-.18.47-.77.32-1.21-1.29-4-2.9-7.82-6.27-10.59-.71-.58-1.49-1.02-2.28-1.47-1.05-.59-1.06-1.12-.08-1.8,2.85-1.96,6.06-2.5,9.43-2.24,1.51.12,3.04.26,4.43,1.03.4.22.64.41.74.87.57,2.69,2.39,4.31,4.85,5.15,1.07.37,1.48,1.05,1.84,1.92,1.09,2.68,1.4,5.5,1.54,8.38M217.53,186.79c-.13-.71-.17-1.46-.57-2.1-.18-.29-.45-.51-.82-.39-.31.11-.39.41-.35.71.11.89.23,1.77.38,2.65.05.29.24.54.58.52.32-.02.5-.26.59-.54.08-.27.12-.55.18-.85"/>
    <path class="cls-10" d="M206.74,156.81c4.42.04,8.8.29,12.91,2.22,1.48.7,2.11,2.11,1.57,3.65-.15.44-.42.3-.68.22-6.1-2-11.6-.25-16.88,2.76-.75.43-1.48.61-2.35.39-4.52-1.17-9.04-1.13-13.54.1-.84.23-1.21,0-1.26-.92-.15-2.95,0-3.22,2.72-4.34,3.61-1.49,7.19-3.11,11.1-3.68,2.12-.31,4.26-.39,6.4-.38"/>
    <path class="cls-10" d="M240.31,163.71c4.69.23,9.12-1.03,13.53-2.41.31-.1.62-.21.94-.27.42-.07.85-.07,1.06.4.18.42-.13.68-.37.97-1.28,1.54-2.81,2.69-4.65,3.56-2.55,1.2-4.7,3.03-6.62,5.09-1.97,2.11-4.03,4.03-6.92,4.72-2.16.52-4.73-1.22-5.11-3.4-.17-.98.56-1.49,1.19-2.01,1.56-1.31,2.74-2.84,3.08-4.9.05-.32.1-.65.09-.98-.02-.6.24-.79.82-.78.99.03,1.98,0,2.96,0"/>
    <path class="cls-10" d="M175.83,176.87c-1.03.15-1.83-.47-2.69-.81-4.52-1.79-9.27-2.91-13.83-4.59-.57-.21-1.19-.41-1.1-1.11.09-.68.74-.65,1.28-.66,3.38-.1,6.74-.45,10.02-1.29,1.34-.34,1.96.13,2.49,1.27,1.03,2.21,2.58,4,4.52,5.47.36.27,1.09.38.78,1.18-.3.78-.94.49-1.47.53"/>
    <path class="cls-8" d="M183.56,164.9c-.34,1.96-.4,4.12-1.69,5.98-1.19,1.72-2.75,2.08-4.37.74-.85-.7-1.62-1.53-2.32-2.38-.94-1.15-.7-2.12.63-2.79,1.95-.98,3.92-1.92,5.88-2.88,1.31-.64,1.92-.25,1.87,1.33"/>
    <path class="cls-8" d="M225.15,163.4c0-.33,0-.66,0-.99.04-1.48.58-1.85,1.92-1.31,1.76.7,3.5,1.42,5.27,2.09.91.35,1.17.93.92,1.84-.53,1.95-1.84,3.3-3.5,4.28-1.25.74-2.89.12-3.56-1.15-.79-1.5-1.11-3.08-1.05-4.76"/>
    <path class="cls-13" d="M217.53,186.79c-.06.29-.1.57-.18.85-.09.28-.26.52-.59.54-.34.02-.54-.23-.58-.52-.15-.88-.27-1.77-.38-2.65-.04-.3.04-.6.35-.71.37-.13.64.1.82.39.39.64.44,1.39.57,2.1"/>
    <path class="cls-13" d="M273.22,102.16c-.63,0-1.22-.21-1.75-.4l-.14-.05c-1.96-.69-3.9-1.61-5.93-2.84-1.42-.86-2.51-2.01-3.57-3.13-.29-.3-.57-.6-.86-.9-.26-.26-.5-.53-.74-.8-.49-.55-.95-1.06-1.51-1.46-.52-.37-.96-.87-1.38-1.54-.05-.08-.09-.13-.11-.15-.02,0-.06.02-.12.05-.22.12-.44.19-.64.26-.14.05-.27.09-.38.14-.64.3-1.32.46-2,.46-.73,0-1.48-.18-2.2-.53l-.36-.17c-1.98-.95-3.84-1.85-5.88-2.43-.65-.18-1.24-.51-1.8-.83-.16-.09-.32-.18-.48-.27-.84-.45-1.35-1.28-1.38-2.29,0-.23-.07-.48-.13-.74-.1-.43-.21-.93-.14-1.47-.19,0-.37,0-.56,0-.29,0-.58,0-.88,0-.35,0-.71,0-1.06.01-.27,0-.55.01-.82.01-3.21,0-6.39-.57-9.47-1.68-1.11-.41-2.38-.86-3.62-1.34-1.99-.76-3.7-2.07-5.23-4.01-.25-.32-.53-.71-.68-1.18-.44-1.3-.87-2.6-1.3-3.91-.15-.43-.12-.85-.1-1.19.05-.88.1-1.76.14-2.64.04-.88.41-1.61.74-2.26.05-.1.1-.21.15-.31,1.18-2.41,2.69-4.79,4.75-7.5.9-1.18,1.6-2.47,2.35-3.83.26-.48.53-.96.8-1.43,1.79-3.13,3.7-5.6,5.84-7.55.28-.25.62-.43,1.05-.55,1.18-.32,2.34-.49,3.44-.49,2.36,0,4.54.71,6.67,2.17,4.67,3.21,7.27,7.79,7.95,14l.08.75c.17,1.63.35,3.31.7,4.93.6-.27,1.25-.41,1.93-.41.49,0,1.01.07,1.54.21,1.02.27,1.77.85,2.23,1.71.24.45.46.92.73,1.56.36.84.73,1,1.33,1,.09,0,.18,0,.28-.01.23-.02.46-.03.68-.03,1.9,0,3.42.75,4.52,2.22,2.85-1.96,6.02-3.29,8.47-4.24,2.87-1.11,5.63-1.67,8.21-1.67.18,0,.37,0,.55,0,3.54.11,5.86,1.95,6.71,5.31.52,2.08,1.03,4.81.29,7.58-.53,2.82-1.48,5.37-2.24,7.28-.18.45-.29.81-.36,1.14-1.07,5.08-3.82,9.37-8.2,12.76-1.61,1.24-3.52,1.97-5.35,2.56-.24.08-.5.12-.76.12"/>
    <path class="cls-13" d="M289.45,78.15c-.47,2.53-1.29,4.87-2.21,7.17-.16.41-.31.83-.4,1.26-1.08,5.13-3.85,9.18-7.94,12.35-1.51,1.17-3.33,1.86-5.14,2.44-.72.23-1.49-.07-2.2-.32-2.04-.71-3.95-1.66-5.8-2.78-1.7-1.03-2.93-2.54-4.29-3.92-.78-.78-1.43-1.68-2.34-2.33-.49-.35-.87-.83-1.19-1.33-.3-.48-.63-.63-1.15-.35-.31.16-.67.23-.99.38-1.22.57-2.45.49-3.6-.07-2.07-.99-4.13-2.01-6.35-2.65-.75-.21-1.44-.67-2.14-1.04-.67-.36-.99-.98-1.01-1.69-.03-.87-.54-1.7-.12-2.6.12-.27-.16-.29-.37-.29-1,0-1.99-.02-2.99,0-3.45.1-6.79-.45-10.03-1.63-1.21-.44-2.41-.88-3.6-1.34-2.04-.78-3.6-2.11-4.93-3.79-.23-.3-.45-.61-.57-.97-.44-1.3-.87-2.6-1.3-3.9-.1-.3-.08-.61-.06-.92.05-.88.1-1.77.14-2.65.04-.85.46-1.56.82-2.29,1.29-2.63,2.9-5.06,4.68-7.39,1.26-1.66,2.17-3.54,3.2-5.34,1.55-2.71,3.37-5.26,5.7-7.38.22-.2.48-.31.76-.39,3.42-.93,6.53-.47,9.53,1.58,4.79,3.29,7.04,7.92,7.65,13.5.21,1.96.39,3.91.81,5.83.12.54.3.73.84.46,1-.49,2.04-.49,3.11-.21.8.21,1.41.64,1.79,1.37.26.49.49.99.71,1.5.47,1.09,1.11,1.51,2.32,1.41,1.94-.17,3.53.43,4.68,2.04.22.32.46.3.73.11,2.61-1.82,5.51-3.12,8.45-4.25,2.7-1.04,5.58-1.7,8.48-1.61,3.09.1,5.25,1.61,6.05,4.78.62,2.44.93,4.86.29,7.25"/>
    <path class="cls-13" d="M289.45,78.15c-.48,2.53-1.29,4.87-2.21,7.17-.16.41-.31.83-.4,1.26-1.08,5.13-3.85,9.18-7.94,12.35-1.51,1.17-3.33,1.86-5.14,2.44-.72.23-1.49-.07-2.2-.32-2.03-.71-3.95-1.66-5.8-2.78-1.7-1.03-2.93-2.54-4.29-3.92-.77-.78-1.43-1.68-2.34-2.33-.48-.35-.87-.82-1.19-1.33-.3-.48-.63-.63-1.15-.35-.31.16-.67.23-.99.38-1.22.57-2.45.49-3.6-.07-2.07-1-4.13-2.01-6.35-2.65-.75-.22-1.44-.67-2.15-1.04-.67-.35-.98-.98-1.01-1.69-.03-.87-.54-1.7-.12-2.6.12-.27-.16-.29-.37-.29-1,0-1.99-.02-2.99,0-3.45.1-6.78-.45-10.03-1.63-1.2-.44-2.41-.88-3.61-1.33-2.04-.78-3.6-2.11-4.93-3.79-.23-.3-.45-.61-.57-.97-.43-1.3-.87-2.6-1.3-3.9-.1-.3-.08-.61-.06-.92.05-.88.1-1.77.14-2.65.04-.85.46-1.56.82-2.29,1.29-2.63,2.91-5.05,4.68-7.39,1.26-1.66,2.17-3.54,3.2-5.34,1.55-2.71,3.37-5.25,5.7-7.38.22-.2.48-.31.76-.39,3.42-.93,6.53-.47,9.53,1.58,4.79,3.29,7.04,7.91,7.65,13.5.21,1.96.39,3.91.81,5.83.12.53.29.72.84.46,1-.48,2.04-.49,3.11-.21.8.21,1.41.64,1.79,1.36.26.49.49.99.71,1.5.47,1.09,1.12,1.51,2.32,1.41,1.94-.17,3.53.43,4.68,2.04.22.32.46.3.73.11,2.61-1.82,5.51-3.12,8.45-4.25,2.7-1.05,5.58-1.7,8.49-1.61,3.09.1,5.25,1.61,6.05,4.78.62,2.44.93,4.86.29,7.25M263.82,75.6c.36-1.94-.2-2.83-2.02-3.33-.38-.1-.79-.1-1.18-.17-1.18-.19-2.49-.11-3.37-1.14-.65-.76-1.28-1.56-1.65-2.48-.46-1.13-1.11-1.35-2.29-.91-.74.28-1.42.71-2.1,1.12-.54.33-.83.83-.83,1.5,0,.99-.18,1.21-1.18,1.24-1.4.06-2.64-.52-3.8-1.21-1.12-.67-2.13-1.5-3.2-2.25-.86-.6-1.59-1.32-2.24-2.15-2.55-3.29-3.51-7.2-4.35-11.15-.16-.74-.16-1.55-.06-2.31.3-2.21,1.29-3.54,3.77-3.2,1.67.23,2.83,1.19,3.75,2.48.34.48.51,1.08.59,1.68.04.33-.11.56-.4.69-.32.14-.48-.07-.64-.3-.27-.38-.57-.73-.85-1.1-.8-1.09-1.91-1.6-3.21-1.79-.73-.11-1.32.32-1.4,1.06-.02.2-.01.4,0,.6.13,1.61.41,3.2.68,4.79.21,1.21.69,2.34,1.44,3.32.37.49.86.9,1.2,1.41,1.33,2.04,3.14,3.59,5.1,4.97.43.3.9.56,1.39.78,1.06.48,2.05.32,2.66-.41.49-.57.47-1.28.39-1.96-.26-2.08-.4-4.18-.84-6.24-.59-2.77-1.22-5.5-3.31-7.61-.2-.2-.32-.48-.51-.7-2.04-2.43-4.46-4.13-7.81-4.03-.93.03-1.86.05-2.71.51-1.72.91-3.14,2.15-4.04,3.9-.98,1.91-2.01,3.78-2.92,5.72-1.08,2.3-2.63,4.35-4.22,6.34-.86,1.07-1.71,2.16-2.35,3.37-.41.79-.86,1.61-.58,2.58.69,2.4,1.5,4.64,3.78,6.15,1.36.9,2.71,1.72,4.27,2.19,1.44.43,2.91.79,4.3,1.34,1.17.46,2.34.76,3.57.99,2.11.4,4.23.3,6.35.21,1.04-.04,2.08-.15,3.07-.52.35-.13.72-.27.9-.64.72-1.49,1.71-2.83,2.33-4.39.45-1.15,1-2.26,1.65-3.31.12-.19.25-.4.51-.34.31.07.31.34.3.58,0,.33.01.67-.04.99-.61,3.77-2.85,6.59-5.34,9.28-.13.14-.31.24-.54.18-1.09-.28-1.49.03-1.47,1.16.02,1.56.8,2.55,2.49,2.86,1.04.19,2,.54,2.93.99,1.11.54,2.34.8,3.35,1.57.41.31.99.36,1.47.15,1.26-.53,2.51-1.04,3.44-2.14,2.16-2.55,3.56-5.53,4.97-8.51.38-.79.65-1.65.77-2.43M269.35,80.6c-1.54-.27-2.7-.54-3.91-.46-.41.03-.63.2-.77.59-1.07,2.98-3.05,5.36-5.08,7.7-.3.35-.35.51-.04.85,1.53,1.69,3.03,3.41,4.56,5.09.98,1.08,1.93,2.27,3.23,2.92,1.94.97,4.05,1.56,6.21,1.84.75.09,1.56.18,2.25-.32,1.07-.78,2.13-1.58,3.08-2.51,2.27-2.25,4.19-4.71,5.39-7.72,1.06-2.65,2-5.33,2.72-8.09.45-1.73.99-3.43,1.1-5.23.03-.45,0-.89-.13-1.31-.3-.95-.56-1.91-.93-2.83-.37-.92-.97-1.78-1.89-2.14-2.33-.93-4.72-.7-7.1-.1-2.18.54-4.18,1.56-6.28,2.29-1.72.6-3.45,1.31-4.63,2.84-.48.61-.32,1.05.46,1.19.23.04.44,0,.65-.08.33-.12.64-.1.77.26.12.34-.1.53-.4.65-.56.22-1.1.47-1.66.67-.39.15-.66.38-.67.81,0,.42.38.43.65.54.41.16.83.31,1.24.48,1.2.5,2.46.77,3.73.84,2.08.12,4.16.05,6.19-.47,2.6-.67,4.76-1.99,6.18-4.35.55-.91.28-1.59-.7-1.9-.52-.17-1.05-.14-1.57-.22-.48-.08-.98-.16-.98-.77,0-.6.48-.8.99-.87.61-.09,1.23-.09,1.85-.06,1.09.05,2,.42,2.56,1.38.63,1.09.16,2.18-.42,2.99-1.66,2.34-3.88,4.04-6.67,4.9-1.15.35-2.33.49-3.53.53-2.27.09-4.53.65-6.44.07"/>
    <path class="cls-5" d="M263.82,75.6c-.12.78-.39,1.63-.77,2.43-1.41,2.98-2.81,5.96-4.97,8.51-.93,1.1-2.19,1.61-3.45,2.14-.48.2-1.07.16-1.47-.15-1.01-.78-2.24-1.04-3.35-1.57-.93-.45-1.89-.8-2.93-.99-1.69-.31-2.47-1.3-2.49-2.86-.02-1.13.38-1.44,1.47-1.16.23.06.41-.04.54-.19,2.49-2.68,4.74-5.51,5.34-9.28.05-.32.04-.66.04-.99,0-.25,0-.52-.31-.59-.26-.05-.39.15-.51.34-.65,1.05-1.2,2.16-1.65,3.31-.61,1.56-1.61,2.9-2.33,4.39-.18.37-.54.5-.9.63-.99.36-2.03.47-3.07.52-2.12.09-4.24.19-6.35-.21-1.22-.23-2.4-.53-3.57-.99-1.39-.55-2.86-.91-4.3-1.34-1.56-.47-2.91-1.28-4.27-2.19-2.28-1.51-3.09-3.75-3.78-6.15-.28-.97.17-1.79.58-2.58.64-1.22,1.49-2.3,2.35-3.37,1.59-1.99,3.14-4.04,4.22-6.34.92-1.94,1.95-3.81,2.92-5.72.9-1.75,2.32-2.99,4.04-3.9.86-.45,1.78-.48,2.71-.51,3.35-.1,5.77,1.6,7.81,4.03.18.22.31.49.51.7,2.09,2.11,2.72,4.84,3.31,7.61.44,2.06.57,4.16.84,6.24.09.68.1,1.39-.39,1.96-.62.73-1.6.89-2.66.41-.48-.22-.95-.48-1.39-.78-1.97-1.38-3.77-2.92-5.1-4.97-.33-.51-.82-.92-1.2-1.41-.75-.98-1.24-2.11-1.45-3.32-.27-1.59-.55-3.18-.68-4.79-.01-.2-.03-.4,0-.6.08-.74.67-1.17,1.4-1.06,1.3.2,2.41.71,3.21,1.79.28.37.58.73.85,1.1.17.23.33.45.64.3.29-.13.44-.36.39-.69-.08-.6-.24-1.2-.59-1.68-.93-1.29-2.08-2.25-3.75-2.48-2.48-.34-3.47.99-3.77,3.2-.1.76-.1,1.57.06,2.31.84,3.95,1.8,7.86,4.35,11.15.64.83,1.38,1.55,2.24,2.15,1.07.75,2.09,1.58,3.2,2.25,1.15.69,2.4,1.27,3.8,1.21,1-.04,1.18-.25,1.18-1.25,0-.66.29-1.17.83-1.5.68-.41,1.36-.85,2.1-1.12,1.18-.44,1.83-.22,2.29.91.37.92,1,1.72,1.65,2.48.88,1.03,2.19.95,3.37,1.14.39.06.8.06,1.18.17,1.82.5,2.38,1.39,2.02,3.33M240.73,75.54c.09.01.17.03.26.05.48.07,1.01.13,1.17-.44.18-.61-.42-.7-.8-.85-1.2-.47-2.33-1.06-3.45-1.69-1.94-1.08-3.63-2.41-4.65-4.45-.36-.72-1.03-.84-1.64-.33-.39.32-.76.68-1.08,1.08-1.18,1.48-.88,3.4.62,4.13.26.12.53.3.8.06.28-.24.09-.51.03-.79-.11-.51-.39-1-.3-1.55.1-.62.44-.77.91-.41.35.26.73.49,1.01.85,1.8,2.38,4.43,3.42,7.12,4.33M247.05,60.94c.06-.53-.1-1.06-.25-1.58-.25-.92-.65-1.78-1.16-2.58-.16-.26-.4-.58-.8-.41-.39.17-.35.49-.25.84.41,1.38,1.14,2.62,1.73,3.92.07.16.18.32.4.29.25-.03.29-.24.33-.48M269.35,80.6c1.91.58,4.17.02,6.44-.07,1.2-.04,2.38-.18,3.53-.53,2.79-.86,5.01-2.55,6.67-4.9.58-.81,1.05-1.91.42-3-.56-.97-1.47-1.34-2.56-1.39-.62-.03-1.24-.03-1.85.06-.52.07-.99.27-.99.87,0,.61.5.69.98.77.52.08,1.05.05,1.57.22.99.31,1.25.99.7,1.91-1.42,2.36-3.58,3.68-6.18,4.35-2.03.52-4.11.59-6.19.47-1.27-.07-2.54-.34-3.73-.84-.41-.17-.83-.32-1.24-.48-.28-.11-.66-.12-.65-.54,0-.43.27-.67.67-.81.56-.21,1.11-.45,1.66-.67.3-.12.53-.31.4-.65-.13-.37-.44-.38-.77-.26-.21.08-.42.12-.65.08-.78-.14-.94-.58-.46-1.19,1.19-1.53,2.91-2.24,4.63-2.84,2.11-.74,4.11-1.75,6.28-2.29,2.38-.6,4.77-.83,7.1.1.91.36,1.52,1.22,1.89,2.14.37.92.63,1.89.93,2.84.13.42.16.86.14,1.31-.11,1.8-.65,3.5-1.1,5.23-.72,2.77-1.67,5.44-2.72,8.09-1.2,3-3.12,5.47-5.39,7.72-.95.94-2,1.74-3.08,2.52-.69.5-1.5.41-2.25.32-2.16-.27-4.27-.86-6.21-1.84-1.31-.66-2.25-1.85-3.23-2.92-1.54-1.68-3.03-3.4-4.56-5.09-.31-.34-.26-.51.04-.85,2.03-2.34,4.01-4.72,5.08-7.7.14-.39.36-.56.77-.59,1.21-.08,2.38.19,3.91.46M264.87,85.14c-.27-.04-.56-.09-.71.2-.17.33.07.54.31.72.14.11.29.21.44.29,1.17.57,2.41.86,3.7.94.88.06,1.77.08,2.65-.02.21-.03.48-.04.53.26.05.29-.15.44-.4.52-.08.03-.17.04-.26.07-.2.07-.5.04-.49.34,0,.28.24.44.49.47.68.09,1.37.11,2.02-.19.7-.32.99-.8.85-1.4-.19-.78-.95-1.52-1.58-1.46-2.56.23-5.07-.07-7.55-.73M279.24,72.05c.05-.26-.01-.48-.25-.63-.25-.16-.52-.23-.82-.21-1.74.11-3.29.81-4.82,1.56-.33.16-.55.44-.75.73-.08.11-.14.23-.04.36.1.14.23.1.36.06.17-.05.34-.11.5-.17,1.42-.56,2.87-1.05,4.43-1.05.28,0,.57-.06.85-.13.27-.07.48-.22.55-.52"/>
    <path class="cls-2" d="M231.73,77.81c-.09-1.92-.91-3.49-2.35-4.73-.8-.68-1.72-1.11-2.82-1.14-1.39.05-2.52.62-3.27,1.87-.07.12-.12.24-.15.36.39.43.85.83,1.39,1.19,1.36.91,2.71,1.72,4.27,2.19.96.29,1.93.54,2.89.84.05-.14.06-.33.05-.59"/>
    <path class="cls-2" d="M246.09,79.58c.35-.13.72-.26.9-.63.29-.6.62-1.18.96-1.76-.09-.14-.2-.3-.34-.5-.9-1.26-2.54-1.81-4.02-1.35-1.83.58-2.92,1.91-2.93,3.55,0,.58.07,1,.23,1.29.71-.01,1.42-.04,2.13-.07,1.04-.05,2.08-.15,3.07-.52"/>
    <path class="cls-2" d="M254.47,88.74c.3-.52.29-1.07.13-1.63-.51-1.83-1.86-2.72-4.16-2.73-.28,0-.56-.03-.83,0-.94.13-1.82.41-2.46,1.16-.11.12-.25.27-.25.42,1.04.19,1.99.54,2.92.99,1.11.54,2.34.8,3.35,1.57.36.28.86.34,1.3.21"/>
    <path class="cls-2" d="M263.82,75.6c.36-1.94-.2-2.83-2.02-3.33-.38-.1-.79-.1-1.18-.16-.33-.05-.67-.09-1.01-.13-.39.09-.7.3-.95.65-.35.49-.69.99-.94,1.55-1.31,2.91.7,6.03,4.05,6.04.08.01.16.02.23.02.36-.73.71-1.47,1.05-2.2.38-.8.65-1.65.77-2.43"/>
    <path class="cls-2" d="M226.3,61.74c-.02.3,0,.6,0,.91-.1,1.8.5,3.32,1.85,4.53.89.79,2.01,1.11,3.07,1,.13-.12.26-.24.39-.35.42-.35.86-.41,1.22-.17.58-.34,1.08-.83,1.44-1.46,1.39-2.46-.06-6.67-2.67-7.76-2.65-1.1-5.13.44-5.31,3.3"/>
    <path class="cls-2" d="M270.2,85.39c2.42,0,4.05-1.43,4.01-3.56-.02-1.02-.16-1.13-1.19-1-.28.04-.56.03-.83.04-.44.01-.87,0-1.3-.02-.08,0-.16-.01-.24-.02-.05,0-.11,0-.16-.01-.03,0-.05,0-.08,0-.69-.07-1.37-.19-2.04-.39-.49-.09-.94-.16-1.38-.22-.24.09-.44.3-.62.61-.66,1.19-.5,2.49.49,3.43.93.88,2.1,1.12,3.34,1.14"/>
    <path class="cls-2" d="M281.02,91.89c.33-2.36-1.4-4.22-3.61-3.88-.65.1-1.22.45-1.83.67-1.01.37-1.96.87-2.81,1.52-1.12.85-1.47,2.5-.94,3.94.58,1.59,1.98,2.54,3.71,2.54,2.15,0,5.18-2.66,5.47-4.79"/>
    <path class="cls-2" d="M286.98,80.49c.22-.84.46-1.68.66-2.52-.75,0-1.43.24-1.92.82-.88,1.04-1.7,2.14-2.2,3.44-.22.57-.42,1.13-.41,1.75-.01,1.27.71,2.45,1.77,2.98.8-2.12,1.51-4.26,2.09-6.45"/>
    <path class="cls-2" d="M242.21,67.98c-.82-.57-1.53-1.26-2.15-2.04-.03.04-.05.08-.07.13-.24.49-.33,1.02-.31,1.57.07,1.85.94,3.3,2.44,4.31,1.59,1.07,3.4.96,4.51-.14.45-.45.54-.59.25-.83-.51-.21-.99-.47-1.46-.75-1.12-.67-2.13-1.5-3.2-2.25"/>
    <path class="cls-2" d="M237.94,47.21c.19.45.37.9.59,1.33.12.24.28.45.49.6.1,0,.2.02.31.03.94.13,1.71.49,2.37,1,.96.37,1.88.17,2.81-.31-1.81-1.85-3.94-3.08-6.72-3.07.02.1.07.24.14.41"/>
  </g>
</svg>