<?xml version="1.0" encoding="UTF-8"?>
<svg id="Layer_1" data-name="Layer 1" xmlns="http://www.w3.org/2000/svg" xmlns:xlink="http://www.w3.org/1999/xlink" viewBox="0 0 349.12 228.21">
  <defs>
    <style>
      .cls-1 {
        fill: none;
      }

      .cls-2 {
        fill: #db4c05;
      }

      .cls-3 {
        fill: #f67430;
      }

      .cls-4 {
        fill: #db4b4b;
      }

      .cls-5 {
        fill: #f8f8f8;
      }

      .cls-6 {
        fill: #e8ddc7;
      }

      .cls-7 {
        fill: #333;
      }

      .cls-8 {
        clip-path: url(#clippath);
      }
    </style>
    <clipPath id="clippath">
      <rect class="cls-1" x="27.21" y="20.75" width="294.7" height="207.46"/>
    </clipPath>
  </defs>
  <g class="cls-8">
    <path class="cls-7" d="M238.29,124.09c1.27.51,2.83,1.06,2.81,2.66-.01,1.08.32,1.14,1.1,1.17.44.02.88.15,1.32.24,1.77.37,3.39,1.07,4.98,1.94.8.44,1.77.58,1.92,1.71.1.72.22,1.44.2,2.18-.11,3.69-.98,7.17-2.83,10.37-.28.48-.32.78.27,1.03,1.45.6,2.62,1.62,3.81,2.62,1.24,1.05,2.34,2.39,3.75,3.06,1.42.68,2.86,1.23,4.11,2.24,2.23,1.78,4.64,3.37,6.45,5.59,3.24,3.99,5.92,8.36,8.24,12.94,1.78,3.52,3.56,7.07,4.11,11.04.56,4.02.95,8.04.38,12.14-.64,4.64-2,8.86-5.41,12.23-.32.32-.37.67-.31,1.19.14,1.19-.11,2.3-1.24,3.07-1.48,1.01-3.02,1.94-4.21,3.36-.51.62-1.27,1.13-2.03,1.43-4.01,1.57-8.2,2.32-12.51,2.28-1.04,0-1.17.29-.94,1.17.74,2.84,1.44,5.67,1.15,8.66-.22,2.28.8,4.5.53,6.8-.14,1.19.25,2.16.92,3.06.88,1.18,1.6,2.45,2.3,3.74,2.57,4.71,7.31,8.53,8.71,13.76,1.15,4.28,1.27,8.91,1.86,13.29.42,3.15.03,6.17-1,9.14-.16.46-.34.93-.4,1.41-.34,2.45-1.46,4.52-2.88,6.5-1.81,2.51-3.82,4.92-5.15,7.72-1.44,3.02-1.03,5.31,1.31,6.62,1.88,1.05,4.69,3.04,5.51,5.06,1.1,2.71,2.82,7.29.95,10.03-.4.59-1.11.87-1.72,1.23-2.71,1.58-5.62,2.45-8.46,3.9-2.08,1.06-4.26,1.63-6.57,1.68-.72.02-1.55-.46-2.15-.23-1.81.68-3.67.44-5.49.69-3.59.5-7.11.12-10.53-.58-2.46-.51-4.94-.94-7.41-1.43-1.52-.3-3.01-.73-4.44-1.33-4.44-1.86-7.98-4.43-8.15-9.87-.04-1.33-.2-2.6.79-3.67.63-.68.39-1.15-.25-1.7-1.61-1.36-3.35-2.6-4.58-4.35-.37-.52-.87-.67-1.51-.5-1.02.27-2.06.51-3.1.71-4.54.89-9.15.99-13.76.94-2.86-.03-4.86,1.16-6.38,3.53-1.65,2.57-3.6,4.93-5.63,7.21-2.12,2.39-4.65,4.32-6.95,6.51-.61.58-1.04,1.14-.9,2.11.64,4.33-.61,8.14-3.47,11.4-2.62,2.98-5.62,5.54-9.02,7.6-2.83,1.71-5.87,2.96-9.23,2.75-1.78-.11-3.24.28-4.84,1.04-3.59,1.72-7.46,1.33-11.29.95-.31-.03-.69-.15-.89-.36-1.06-1.14-2.3-.97-3.6-.59-.35.1-.72.12-1.09.14-4.22.21-8.54-2.08-9.11-6.81-.42-3.48.29-6.71,2.36-9.61,1.54-2.16,2.89-4.43,3.74-6.96,1.04-3.06,1.33-6.16-.66-8.9-2.79-3.83-4.72-7.99-5.41-12.67-.64-4.32-1.67-8.58-.61-13.06,1.98-8.3,3.62-16.68,5.45-25.02.2-.92.02-1.52-.66-2.15-3.58-3.28-6.75-6.9-9.34-11.03-2.65-4.24-4.16-8.82-4.37-13.81-.13-3.14.64-6.12,1.65-9.06,1.57-4.57,3.47-8.95,6.63-12.68,1.13-1.33,1.1-1.32-.04-2.56-1.2-1.31-1.59-2.83-.88-4.5.28-.64.15-.9-.41-1.25-2.15-1.35-2.21-1.52-1.65-3.92.14-.59.13-.9-.65-.85-4.18.24-5.62-.76-6.75-4.68-.22-.78-.58-1.03-1.38-.97-4.45.39-8.86-.18-13.28-.62-1.47-.15-2.49-.97-2.91-2.41-.26-.9-.37-1.83-.34-2.78.06-1.79.28-3.57.62-5.32.31-1.59.1-2.81-1.39-3.88-2.99-2.15-5.4-4.92-7.51-7.94-1.57-2.25-1.51-2.73.12-4.95,2.79-3.81,6.63-6.33,10.6-8.68,1.5-.89,2.01-2.01,1.81-3.62-.33-2.75-.69-5.5-.98-8.25-.1-.97-.48-1.39-1.48-1.54-6.6-1-12.61-3.66-18.12-7.26-4.81-3.15-8.3-7.62-10.33-13.09-.63-1.71-1.55-3.32-1.87-5.16-.58-3.31-.72-6.62-.22-9.96.9-5.94,3.56-10.73,8.7-14.04,4.58-2.94,8.7-6.37,11.99-10.81,5.16-6.96,8.92-14.48,9.6-23.22.43-5.55-.96-10.92-2.56-16.2-.28-.91-.44-1.75.04-2.58.88-1.55,2.74-2.33,4.52-1.94,2.26.49,4.15,1.59,5.7,3.31,2.5,2.77,5.16,5.39,6.53,9.02,1.74,4.65,3.01,9.38,3.36,14.34.35,4.88.02,9.66-1.68,14.3-1.09,2.95-3.01,5.5-4.09,8.43-1.02,2.76-2.64,5.12-4.31,7.48-.96,1.37-1.83,2.78-2.54,4.3-1.03,2.22-.78,4.64.62,6.05,1.38,1.39,3.85,1.65,6.07.64,1.59-.72,2.85-1.88,4.06-3.09,2.79-2.76,4.8-6.15,7.4-9.07,5.11-5.73,10.53-11.11,17.06-15.25,3.79-2.4,7.79-4.42,11.75-6.51.7-.37,1.15-.8,1.29-1.63.29-1.73.88-3.38,1.44-5.03.89-2.64,2.34-4.91,4.57-6.64,1.25-.96,2.28-.91,3.39.1.28.25.45.81.95.57.42-.2.31-.69.35-1.09.36-3.13-.48-6.05-1.5-8.96-.59-1.69-1.56-3.02-3.08-3.95-.46-.28-.95-.56-.77-1.22.18-.67.78-.62,1.3-.66,4.22-.37,8.18.23,12.05,2.21,6.3,3.23,12.37,6.61,15.74,13.26.3.6.61.55.97.04.62-.86,1.27-1.69,2.12-2.34,2.95-2.23,6.31-3.71,9.65-5.2,1.6-.71,2.38-.15,2.14,1.61-.38,2.82-.76,5.63-.79,8.48-.02,2.4-.17,4.78-.85,7.11-.26.91.21,1.56,1.2,1.78.47.1.96.22,1.39.44,4.73,2.46,9.49,4.85,14.01,7.69,1.89,1.19,3.73,2.47,5.61,3.68,1.3.84,2.46.58,3.78-.8.88-.92.87-1.85.04-3.09-1.08-1.62-2.5-2.86-4.09-3.95-2.32-1.58-4.82-2.89-6.95-4.74-4.12-3.57-6.81-8-8.18-13.29-1.28-4.94-1.97-9.95-1.48-15.01.45-4.6,1.06-9.21,2.44-13.66,1.02-3.28,2.95-5.76,6.15-7.16,2.32-1.01,4.47.38,4.45,2.89,0,.33,0,.65-.04.98-.33,3.64-.05,7.24.54,10.83,1.28,7.75,5.34,13.85,11.12,18.96,2.43,2.15,5.45,3.41,8,5.36,2.64,2.01,5.48,3.63,8.48,5.03,4.51,2.11,8,5.16,9.66,10.17,1.23,3.72,1.27,7.43,1.1,11.2-.13,2.78-1.5,5.2-2.62,7.7-1.88,4.19-4.14,8.1-7.29,11.47-.39.41-.53.74-.34,1.28.56,1.62.71,3.34,1.18,4.98.53,1.84,0,3.54-.56,5.18-.77,2.22-2.75,3.91-2.91,6.5,1.38-.02,2.89-.05,4.29.5M184.36,297.99c9.43,1.03,18.09-1.43,26.57-5.4,6.94-3.25,12.7-7.9,17.71-13.52.99-1.11,2.24-1.72,3.21-2.79,2.33-2.54,4.23-5.37,6.08-8.25,1.99-3.08,3.93-6.18,6.01-9.2,1.05-1.53,1.98-3.1,2.31-4.92.42-2.3,2.02-4.1,2.49-6.4.86-4.21,2.36-8.32,2.4-12.64.11-11.8-3.34-22.22-12.29-30.39-2.47-2.25-5.1-4.3-7.74-6.34-.49-.38-.64-.28-1.01.17-1.26,1.59-2.19,1.81-4.18,1.16-.62-.2-1.22-.45-1.88-.48-.41-.02-.82-.11-1.02.41-.18.44-.25.86.05,1.27.22.29.49.56.64.88.15.32.86.47.4.97-.39.42-.92.31-1.36.06-1.42-.8-2.35-2.08-3.29-3.37-.57-.79-.52-1.48-.08-2.26.46-.8,1.23-1.08,2.06-1.09,1.7-.02,3.4-.2,5.1.14,1.32.26,1.85-.43,1.38-1.73-.58-1.59-1.57-2.93-2.75-4.14-.88-.91-.7-1.47.57-1.81.4-.11,1.01.07,1.11-.52.08-.5-.43-.73-.75-1.03-1.58-1.52-3.64-1.09-5.53-1.38-.77-.12-1.36.29-2.01.59-2.9,1.34-5.51,3.32-8.69,4.07-.43.1-.89.16-1.32.12-.31-.02-.65-.22-.69-.59-.03-.35.32-.46.56-.57,4.68-2.17,8.64-5.46,12.84-8.36.98-.68,1.84-1.45,2.61-2.35,1.47-1.7,3.19-3.13,4.96-4.49.71-.54.9-1.02.47-1.94-.8-1.72-.91-3.62-.74-5.5.07-.77-.13-1.33-.72-1.82-3.19-2.71-2.64-8.14.32-10.75,3.7-3.27,7.82-4.89,12.43-5.66,1.39-.23,2.88.43,4.19,1.11,1.41.72,2.86,1.1,4.57.95-.41-.72-1.09-.99-1.64-1.4-1.14-.85-2.29-1.69-3.17-2.84-.47-.62-.58-1.12-.23-1.88,1.65-3.58,1.98-7.42,2.09-11.3.02-.82-.63-.83-1.14-1.01-2.04-.72-4.21-.89-6.31-1.32-.74-.15-1.19-.48-1.24-1.26.83-1.71.49-2.33-1.25-2.96-1.44-.52-2.86-.27-4.3-.3-.69-.01-.83.44-1.01.97-.22.67-.27,1.33-.11,2.01-.24,3.59.33,7.03,1.8,10.32.39.87.57,1.67-.69,1.95-1.58-.89-1.9-2.58-2.43-4.06-1.02-2.84-.8-5.84-.88-8.8-.07-2.43.37-4.63,1.73-6.72.65-.99.42-2.39.17-3.59-1.02-4.84-2.66-9.44-5.16-13.73-.37-.63-.63-1.32-.95-1.98-.18-.37-.21-.72.14-.99.37-.28.7-.07.97.2,1.11,1.09,1.99,2.37,2.81,3.67,2.07,3.27,3.32,6.88,4.32,10.59.09.32-.04.84.45.89.4.04.63-.35.81-.66.53-.92.61-1.94.53-2.96-.31-4.12-1.83-7.74-4.62-10.79-.73-.8-.68-1.35.2-1.96.73-.5,1.6-.99,1.32-2.11-.27-1.1-1.19-1.48-2.15-1.76-1.53-.44-3.12-.59-4.7-.75-1.25-.12-2.19-.64-2.98-1.67-1.49-1.94-3.32-3.57-5.18-5.15-.29-.25-.67-.66-1.04-.24-.33.37.14.65.34.92.79,1.03,1.63,2.03,2.39,3.08.25.35.88.8.38,1.25-.48.43-.84-.17-1.16-.52-3.27-3.48-6.85-6.64-10.75-9.36-5.6-3.91-11.32-7.69-17.81-10.07-.85-.31-1.18.08-1.3.75-.1.56-.52,1.39.57,1.51,1.39.16,2.53.87,3.68,1.56,1.55.94,1.47,2.55-.17,3.38-1.63.83-3.31,1.58-4.95,2.4-.85.43-1.65.94-2.62,1.49.42-1.23,1.25-1.9,2.19-2.45.7-.4,1.48-.68,2.18-1.09.75-.44,1.27-1.11.95-2.03-.31-.91-1.08-1.13-1.98-1.03-.82.09-1.57.38-2.32.72-.89.39-1.15.12-1.06-.85.55-5.56,2.08-10.95,2.88-16.46.21-1.45.38-2.89.27-4.37-.06-.86-.45-1.05-1.19-.9-.61.12-1.17.37-1.67.73-4.07,2.95-7.3,6.58-9.23,11.29-.22.54-.28,1.53-1.14,1.34-.89-.19-.61-1.1-.59-1.77.02-.94.14-1.85.35-2.77.29-1.25-.17-2.4-.69-3.53-1.89-4.07-5.01-7.05-8.42-9.82-3.07-2.49-6.55-4.07-10.36-4.98-.41-.1-.96-.45-1.26-.05-.38.5.31.73.54,1.06,1.4,2.05,2,4.35,2.1,6.8.17,4.38-.96,8.37-3.52,11.95-.38.53-.8.88-1.41.63-.72-.3-.39-.89-.2-1.36.61-1.57.35-2.94-.82-4.15-.51-.53-.99-.49-1.48-.02-.72.68-1.3,1.47-1.53,2.45-.5,2.14-.95,4.29-1.45,6.42-.12.51-.32,1.01-.54,1.49-.78,1.76-.42,3.82.95,5.18.38.38.89.69.47,1.32-.39.57-1.01.62-1.53.37-2.83-1.36-5.44-.49-8.12.57-4.52,1.79-8.12,4.86-11.89,7.8-5.35,4.19-9.66,9.32-13.96,14.47-2.41,2.89-3.82,6.42-5.57,9.72-.86,1.61-1.86,3.15-2.2,5-.16.87-.92,1.28-1.71,1.59-2.28.89-4.54,1.8-6.82,2.7-.45.18-1,.34-1.06.9-.07.66.6.66.99.89.63.37,1.29.71,1.9,1.1,1.16.75,1.24,1.29.38,2.37-1.35,1.69-2.73,3.34-4.02,5.07-.95,1.28-.7,2.13.65,2.88.73.4,1.31.28,1.57-.5.53-1.63,1.88-2.51,3.08-3.53.21-.18.45-.41.75-.19.23.17.12.45.08.69-.18,1.24-.89,2.27-1.37,3.38-1.9,4.35-2.55,8.86-2.32,13.58.14,2.89-.08,5.79.84,8.59.19.58-.15.68-.58.82-3.53,1.17-6.52,3.3-9.48,5.47-1.43,1.05-2.38,2.54-3.21,4.11-.52.98-.42,1.86.3,2.71.7.83,1.31,1.76,2.22,2.4,1.54,1.8,3.39,3.26,5.24,4.72,1.42,1.11,1.48,1.32,1.01,3.11-.62,2.36-1.19,4.73-1.02,7.21.01.2.02.41.05.61.19,1.71.31,1.75,2,1.81,3.33.11,6.66.03,9.99-.12,1.98-.09,3.86-.56,5.68-1.31.37-.15.79-.42,1.14-.08.35.34-.08.66-.2.98-.7,1.79-1.23,3.61-.98,5.57.1.75.37,1.18,1.24,1.15,4.19-.17,8.34-.49,12.27-2.15.48-.2,1.01-.39,1.45.13-.09.22-.11.55-.28.66-1.93,1.18-3.59,2.89-5.96,3.2-1.03.14-1.47.54-1.26,1.59.07.35.02.73.02,1.1,0,1.03.51,1.59,1.53,1.69.4.04.81.05,1.22.11,1.13.17,1.3.57.55,1.45-1.1,1.3-.95,2.81-.7,4.3.13.75.72.94,1.4.49,1.8-1.2,3.59-2.4,5.38-3.6.57-.38.54-.69-.02-1.11-1.62-1.21-1.49-2.98.28-4.05.9-.55,1.8-1.1,2.73-1.61.49-.27.75-.61.27-1.02-1.24-1.07-1.86-2.52-2.54-3.94q.29-2.17-1.61-3.22c-.72-.4-1.37-.88-1.83-1.58-.15-.23-.45-.46-.18-.74.19-.19.46-.02.68.08,1.29.6,2.62,1.14,3.87,1.81,2.66,1.4,5.64,1.85,8.41,2.89.66.25,1.29.54,1.74,1.08.49.6.6,1.07-.44,1.14-1.63.12-3.14-.37-4.65-.83-.7-.21-1.38-.45-2.38-.78.82,1.61,1.37,3.04,2.7,3.99.35.25,1.1.2.88.94-.18.63-.64,1.04-1.3,1.15-.93.17-1.83.4-2.57,1.03-.3.26-.73.48-.66.96.07.49.56.55.93.67.96.31,1.86.82,2.92.83.64,0,.92.43.88,1.07-.05.88.08,1.77-.42,2.61-.39.65-.02,1.03.69.94,2.9-.39,5.86-.44,8.65-1.45.67-.24,1.22-.1,1.69.34.52.49.58,1.15.38,1.82-.18.58-.46,1.13-.62,1.72-.33,1.18.07,1.73,1.29,1.7,2.18-.05,4.24-.8,6.34-1.28,1.2-.27,2.49-.31,3.51-1.25.47-.43,1.18-.17,1.29.56.29,1.8,1.42,3.14,2.59,4.33,1.93,1.98,4.04,3.77,6.5,5.11,1.18.64,2.51.65,3.73,1.09.21.08.41.03.54-.16.14-.21-.03-.37-.14-.54-.29-.44-.78-.73-.89-1.29-.08-.44-.24-.91.2-1.23.41-.3.79-.03,1.11.22,3.25,2.43,6.96,3.85,10.81,4.97.27.08.55.15.83.21,1.46.33,1.82.04,1.88-1.48.06-1.77.35-1.89,1.87-1.09,2.41,1.26,4.87,2.46,7.45,3.35.31.1.61.21.91.33.58.24.98.61.82,1.31-.15.67-.73.72-1.25.74-1.45.05-2.83-.31-4.17-.82-.53-.2-1.08-.4-1.57-.67-1.04-.58-1.91-.64-2.78.39-.66.77-1.68.92-2.7.85-2.36-.17-4.52-.97-6.61-2.03-.56-.29-1.09-.47-1.74-.24-2.6.9-5.15.56-7.64-.44-3.9-1.57-7.23-4.04-10.33-6.83-.65-.59-1.13-1.36-1.69-2.04-.14-.74-.6-.79-1.18-.53-2.39,1.08-5.01,1.02-7.52,1.46-1.31.23-2.27-.43-3.06-1.4-.73-.9-1.71-1.68-.97-3.1.33-.64-.34-.69-.77-.73-1.48-.13-2.93.12-4.36.43-1.05.22-2.1.27-3.16.15-1.87-.21-2.59-.9-2.87-2.74-.25-1.63-.35-1.64-1.85-.87-5.16,2.65-8.67,6.92-11.6,11.75-2.44,4.02-4.31,8.29-5.11,12.98-.83,4.87-.23,9.4,2.55,13.66,2.68,4.1,5.67,7.9,9.74,10.62,5.9,3.95,12.53,6.02,19.59,6.55,2.15.16,3.81.85,5.15,2.52,2.93,3.65,6.93,5.15,11.44,5.44,3.3.21,5.44-1.61,6.22-4.81.39-1.6.43-3.13.04-4.7-.07-.26-.23-.57.07-.79.28-.2.54.03.79.14,2.01.84,2.92,2.44,2.6,4.58-.05.36-.12.72-.17,1.08-.1.73.16,1,.9.72.45-.17.93-.35,1.4-.4,4.92-.59,7-6.49,5.11-10.02-.99-1.85-1.89-3.67-3.46-5.08-.36-.33-.69-.78-.35-1.29.34-.52.81-.16,1.22-.06,1.36.31,2.15,1.42,3.14,2.25,1.08.9,1.78.73,2.21-.61.48-1.52.08-2.97-.68-4.21-.46-.76-.62-1.68-1.27-2.33-1.33-1.33-2.95-2.21-4.74-2.49-1.36-.22-2.26-.84-2.99-1.85-4.83-6.69-11.25-10.95-19.29-12.78-2.29-.52-2.43-.78-2.07-3.07.3-1.9-.16-3.72-.7-5.53-.12-.42-.47-.92-.07-1.26.47-.4.94.11,1.28.37,1.66,1.26,2.39,3.04,2.12,5.04-.2,1.5.35,2.11,1.69,2.35.51.09,1.01.27,1.52.4,4.16,1.58,8.14,3.49,11.76,6.12,1.89,1.37,3.64,2.86,4.84,4.92.91,1.55,2.33,2.51,4.03,2.98,2.39.66,4.14,1.96,5.06,4.33.47,1.21,1.13,2.34,1.64,3.54,1.15,2.69.51,5.26-.54,7.81-.53,1.29-.87,2.61-.67,4.04.39,2.7-.76,4.74-2.7,6.55-1.54,1.44-3.09,2.77-5.21,3.25-.99.23-1.96.52-3,.17-.42-.14-.89-.07-1.31.14-.94.16-1.58.82-2.19,1.45-2.91,3.01-8.24,3.7-12.23.99-2.55-1.74-5.3-3.18-7.5-5.39-.34-.34-.66-.72-.93-1.12-.37-.57-.86-.84-1.53-.83-5.47.08-10.61-1.49-15.71-3.23-1.55-.53-1.65-.55-1.88,1.04-.31,2.13-.64,4.28-1.13,6.35-.38,1.65-1.04,3.29-1.57,4.95-1.38,4.31-2.39,8.71-2.9,13.2-.18,1.56-.32,3.16-.08,4.75.11.69.14,1.37-.17,2.03-.25.54-.21,1.14-.08,1.69.84,3.72,1.11,7.57,2.8,11.1,1.67,3.48,3.84,6.5,7.02,8.73.65.46,1.36.85,1.95,1.62-1.24.23-2.19-.14-3.13-.61-.92-.46-1.34-.26-1.32.74.08,4-1.42,7.44-3.61,10.68-1.65,2.43-2.49,5.21-2.86,8.08-.41,3.18,1.83,5.51,4.96,5.44,1.71-.04,2.33-.86,1.89-2.51-1.15-4.29.23-7.93,3.85-10.13.24-.15.5-.29.76-.39.57-.23,1.22-.55,1.61.18.4.75-.21,1.12-.78,1.39-1.21.57-1.9,1.53-2.07,2.83-.31,2.32-.95,4.67.55,6.86,1.3,1.89,3.16,2.44,5.32,2.33,1.48-.07,2.92-.41,4.23-1.09.79-.41,1.92-.09,2.42-.98.5-.9-.35-1.69-.47-2.56-.27-1.95-.29-3.83.98-5.48.24-.32.57-.58.9-.82.21-.16.48-.4.76-.15.29.26,0,.51-.07.77-.67,2.44-.29,4.66,1.34,6.64.7.86,1.6,1.13,2.62.9,2.54-.58,5.12-1.09,6.85-3.34.12-.15.32-.25.5-.33,3.6-1.66,5.71-4.74,7.46-8.08.79-1.5.69-3.24.7-4.91,0-.69-.39-.86-1.05-.81-.72.06-1.77.78-2.1-.08-.4-1.03.98-1.05,1.56-1.49,6.45-4.93,12.28-10.44,16.77-17.27.54-.82,1.17-1.57,1.66-2.41.5-.84,1.16-1.32,2.12-1.39h-.01c0,.18.1.17.23.12M228.21,185.51c1.5,1.13,1.71,1.82.95,3.47-.4.86.2,2.93,1.05,3.61,4.99,4.01,9.56,8.46,14.05,13.01,1.7,1.72,3.02,3.73,4.15,5.86,2.03,3.8,3.58,4.62,7.89,4,2.5-.36,4.99-.81,7.46-1.32,1.11-.23,2.3-.59,2.05-2.19-.06-.42.27-.57.57-.69.72-.28,1.45-.54,2.18-.78,1.35-.44,1.63-.87,1.33-2.3-.09-.43.15-.71.31-1.01,1.19-2.27,2.5-4.46,3.55-6.81,1.23-2.76,2.11-5.73,2.12-8.6.02-6.52-.86-12.92-4.27-18.81-1.64-2.84-3.05-5.84-4.87-8.57-2.64-3.96-5.62-7.58-10.11-9.64-1.61-.74-3.31-1.04-5.01-1.42-.44-.1-.8-.03-.8.59,0,.79-.52.7-1.02.49-1.01-.43-2.05-.82-3.01-1.35-2.35-1.31-4.91-2.04-7.52-1.66-3.96.58-7.72,1.81-9.95,5.6-1.2,2.04-.73,4.52,1.1,5.82.62.44,1.12.53,1.29-.43.45-2.5,2.46-3.5,4.41-4.53.46-.24,1.21-.2,1.41.28.22.51-.47.62-.85.81-2.41,1.23-3.47,5.26-1.97,7.51.48.73,1.23.92,2.03.89.83-.03,1.16-.63,1.38-1.34.54-1.71,1.93-2.89,3.95-2.26-.78.75-1.35,1.57-1.75,2.58-.97,2.47-.09,4.54,1.15,6.57.49.81,1.3,1.13,2.22.86,1.16-.34,2.39-.53,3.39-1.31.39-.3.89-.57,1.33-.16.48.45.19.98-.06,1.46-.1.18-.21.35-.33.51q-1.18,1.55-.08,3.23c.38.58.76,1.16,1.11,1.76.18.32.3.7,0,1.02-.26.27-.6.21-.92.14-1.47-.32-2.18-1.52-2.59-2.71-.45-1.28-1.27-1.64-2.38-1.61-2.98.08-4.37-1.76-5.29-4.21-.2-.54-.39-1.02-1.05-.97-1.59.12-2.57-.82-3.45-1.95-.28-.35-.49-.75-.77-1.1-.24-.3-.37-.88-.84-.74-.51.15-.66.75-.62,1.21.17,2.02.53,4.02,2.47,5.17,1.74,1.03,3.3,2.4,5.38,2.81.39.08,1.04.35.44.9-1.5,1.38-1.42,3.27-1.46,4.97-.06,2.78.57,5.5,1.8,8.03.6,1.23.78,2.65,1.75,3.71.2.22.31.52.05.76-.24.22-.53.15-.8,0-.91-.51-1.58-1.28-2.19-2.09-2.01-2.67-2.94-5.77-3.43-9.02-.13-.85-.42-1.44-1.16-1.85-1.63-.92-3.18-1.97-4.91-2.72-.7-.3-1.15-.22-1.69.39-1.38,1.56-3.07,2.77-4.86,3.95,2,.73,4.02.95,5.67,2.19M252.08,245.48c-1.26,5.67-3.37,11.07-5.82,16.29-1.3,2.76-2.98,5.38-4.8,7.91-1.9,2.64-3.73,5.32-5.78,7.85-1.11,1.37-2.46,2.47-3.72,3.68-4.53,4.36-9.58,8.05-14.59,11.81-1.8,1.34-3.77,2.42-5.71,3.54-.88.51-.92.92-.17,1.65,2.62,2.52,5.22,5.03,8.71,6.35.3.11.64.28.59.68-.05.41-.37.61-.74.72-.78.24-1.56.2-2.26-.19-1-.55-1.36-.1-1.64.82-1.23,4.04,1.14,8.47,5.31,9.6,3.86,1.05,7.84,1.47,11.82,1.8,2.39.2,4.77.45,7.16.67.74.07,1.47.07,2.17-.2,1.89-.73,2.34-2.6.96-4.09-.7-.75-1.55-1.31-2.43-1.84-.23-.14-.61-.2-.54-.57.06-.38.42-.45.74-.52,1.91-.39,3.54.19,4.97,1.44,1.39,1.22,2.55,2.66,3.29,4.35.35.79.8,1.13,1.65,1.13,4.01,0,4.72-2.98,3.53-6.15-.7-1.88-2.46-2.62-4.09-3.45-.18-.09-.38-.14-.57-.22-.53-.25-1.08-.54-.95-1.24.14-.74.77-.88,1.41-.89,1.26-.03,2.38.44,3.47,1.01,2.35,1.22,3.83,3.24,5.03,5.5.37.71.88,1.02,1.63,1.02,2.33,0,1.85-4.64,1.26-5.89-.92-1.96-2.85-3.54-4.93-4.1-1.44-.39-2.85-.89-4.39-.96-1.7-.08-3.11-1.13-4.6-1.86-.95-.47-.03-.8.23-1,2.76-2.11,4.66-5.01,6.77-7.66,2.24-2.83,4.02-6.03,5.97-9.08,1.43-2.25,2.49-4.71,2.86-7.33,1.11-7.97.13-15.66-3.53-22.91-1.92-3.8-4.27-7.26-7.71-10.08-.2.84-.39,1.62-.56,2.4M71.71,130.3c3.12,2.76,6.74,4.68,10.68,5.98,2.36.78,4.48,2.18,6.94,2.65.4.08.92.53,1.21,0,.33-.58.59-1.27.25-1.97-.11-.22-.26-.42-.42-.6-.79-.92-1.74-1.73-1.66-3.13.13-2.24.49-4.38,2.16-6.05.23-.23.44-.48.68-.7.63-.56.58-1.03-.05-1.6-2.18-1.95-2.16-4.17-.01-6.16,1.97-1.82,4.43-2.7,6.86-3.63,1.15-.44,1.92-1.21,2.29-2.36.2-.64.06-1.04-.76-.91-2.81.45-5.31-.52-7.7-1.8-1.57-.85-2.53-2.26-3.04-3.96-.89-2.95-.64-5.71.94-8.45,1.28-2.22,2.99-4.17,4.05-6.49,1.51-3.3,3.51-6.33,4.97-9.65,1.82-4.15,3.26-8.41,3.68-12.96.02-.24.05-.49.02-.73-.72-6.81-1.92-13.49-5.82-19.32-1.33-1.99-3.16-3.6-5.07-5.07-.56-.43-1.19-.56-1.82-.16-.7.44-.42,1.09-.24,1.65,1.14,3.6,1.76,7.29,1.96,11.05.22,4.19-.3,8.34-1.59,12.28-3.68,11.28-10.58,20.3-19.94,27.49-2.82,2.17-5.51,4.43-7.21,7.67-1.78,3.38-1.88,6.92-1.2,10.57.03.16.06.32.09.48,1.13,6.59,4.88,11.6,9.74,15.89M238.66,97.49c2.25-3.62,3.74-7.47,4.46-11.66.58-3.42.2-6.63-1.61-9.64-.94-1.56-1.54-3.31-2.89-4.63-1.6-1.57-3.46-2.69-5.51-3.53-4.22-1.72-7.74-4.61-11.56-7.01-5.37-3.38-9.57-7.9-13.18-13.02-2.9-4.12-4.2-8.77-4.28-13.79-.04-2.8-.59-5.6.08-8.39.16-.68-.23-.69-.67-.61-.61.12-.93.58-1.23,1.1-2.64,4.62-3.75,9.65-4.06,14.91-.07,1.27-.04,2.53.13,3.78.3,2.3.4,4.64.73,6.93,1.15,8.07,4.86,14.46,12.32,18.37,2.64,1.38,5,3.21,6.81,5.63,1.32,1.76,2.09,3.75,2.36,5.94.18,1.45-.48,2.52-1.44,3.47-.47.47-.56.79-.03,1.3,1.7,1.63,3.4,3.26,5.02,4.97,1.23,1.3,2.77,1.83,4.43,2.14,1.75.33,3.35.96,4.76,2.08,1.56,1.24,1.75,2.38.64,4.01-.18.27-.33.58-.57.79-.69.59-.52,1.08.08,1.6.32.28.58.64.89,1,1.81-1.65,3.05-3.68,4.32-5.73M234.8,178.34c.33.21.5.1.65-.23.13-.3.18-.54-.17-.71-1.23-.57-2.34-1.3-3.35-2.2-.35-.3-.69-.23-.97.07-.33.35-.63.74-1.11,1.31,1.88.37,3.52.81,4.97,1.75"/>
    <path class="cls-6" d="M122.91,193.4c-.44-.52-.97-.34-1.45-.13-3.93,1.66-8.08,1.98-12.27,2.15-.86.03-1.14-.4-1.24-1.15-.25-1.96.28-3.78.98-5.57.12-.32.54-.64.2-.98-.34-.34-.76-.07-1.13.08-1.82.75-3.7,1.22-5.68,1.31-3.33.15-6.66.23-9.99.12-1.69-.06-1.81-.1-2-1.81-.02-.2-.03-.41-.05-.61-.18-2.48.39-4.85,1.02-7.21.47-1.79.4-1.99-1.01-3.11-1.85-1.45-3.7-2.92-5.24-4.72-.07-.93-.26-1.85-.07-2.79.2-1.03.6-1.99,1.45-2.62,2.95-2.16,5.79-4.55,9.66-4.93.4-.04.78-.15,1.2-.02,6,1.84,12.24,2.7,18.27,4.45,2.16.62,4.25,1.32,6.2,2.51,1.44.87,3.13,1.36,4.74,1.9,1.52.51,1.99,1.14,1.69,2.69-.23,1.18.76.93,1.23.9,2.27-.15,4.54-.35,6.76-.96,3.85-1.06,7.76-1.79,11.72-2.4,4.03-.62,8.07-1,12.11-1.45,1.53-.17,3.03-.46,4.54-.77,2.34-.48,3.17-1.93,3.44-3.96.3-2.23,1.06-4.35,1.44-6.56.18-1.02.94-1.48,1.87-1.7.96-.23,1.77.06,2.39.84.47.59.73,1.31.76,2.04.1,2.36,1.65,3.79,3.22,5.22.13,2.36.82,3.08,3.19,3.14,1.6.04,2.95.45,4.14,1.65,1.33,1.35,3.78.87,5.26-.88.36-.43.62-.94.93-1.42.5-.79.95-1.61,1.96-1.89.81-.22,1.55-.54,1.63-1.56.08-.99-.31-1.73-1.11-2.27-.2-.13-.41-.23-.62-.35-.3-1.54-.3-3.13-1.12-4.56-.45-.79-.51-1.72.34-2.31.84-.59,1.6-.27,2.43.34,2.31,1.7,4.38,3.61,6.09,5.93.69.94,2.02.64,2.66.2,2.19-1.5,4.63-2.15,7.14-2.71,3.02-.67,6.05-1.31,9.17-1.19.91.03,1.67-.35,2.26-1,3.24-3.62,7.27-6.23,11.37-8.73.7-.43.76-.77.45-1.44-.6-1.29-1.14-2.6-1.71-3.91,1.26-.28,1.08-1.08.69-1.95-1.46-3.29-2.04-6.73-1.79-10.32.35-.38.67-.81,1.07-1.14.73-.62,1.64-.72,2.34-.11.96.84,2.12,1.12,3.25,1.51.05.78.51,1.11,1.24,1.26,2.11.43,4.27.6,6.31,1.32.51.18,1.16.19,1.14,1.01-.11,3.88-.45,7.72-2.09,11.3-.35.75-.24,1.26.23,1.88.88,1.15,2.03,1.99,3.17,2.84.54.41,1.23.67,1.64,1.4-1.71.15-3.16-.22-4.57-.95-1.31-.67-2.8-1.34-4.19-1.1-4.61.76-8.73,2.39-12.43,5.66-2.96,2.61-3.51,8.04-.32,10.75.58.5.79,1.05.72,1.82-.18,1.88-.07,3.78.74,5.5.43.92.24,1.4-.47,1.94-1.78,1.36-3.5,2.79-4.96,4.49-.77.9-1.63,1.67-2.61,2.35-4.21,2.9-8.16,6.19-12.84,8.36-.24.11-.59.22-.56.57.04.37.38.57.69.59.44.03.89-.02,1.32-.12,3.18-.75,5.79-2.73,8.69-4.07.65-.3,1.24-.71,2.01-.59,1.89.29,3.95-.14,5.53,1.38.32.3.83.53.75,1.03-.1.59-.71.41-1.11.52-1.27.34-1.45.9-.57,1.81,1.17,1.21,2.16,2.54,2.75,4.14.48,1.3-.06,2-1.38,1.73-1.7-.34-3.4-.16-5.1-.14-.83.01-1.6.28-2.06,1.09-.45.78-.49,1.47.08,2.26.94,1.29,1.87,2.56,3.29,3.37.44.25.97.36,1.36-.06.46-.5-.25-.65-.4-.97-.15-.32-.43-.59-.64-.88-.3-.41-.23-.83-.05-1.27.2-.52.61-.42,1.02-.41.66.03,1.27.28,1.88.48,1.98.65,2.92.43,4.18-1.16.36-.46.52-.55,1.01-.17,2.64,2.04,5.28,4.09,7.74,6.34,8.95,8.17,12.4,18.59,12.29,30.39-.04,4.33-1.54,8.44-2.4,12.64-.47,2.29-2.07,4.09-2.49,6.4-.33,1.82-1.26,3.39-2.31,4.92-2.07,3.02-4.02,6.12-6.01,9.2-1.85,2.88-3.76,5.7-6.08,8.25-.98,1.06-2.23,1.68-3.22,2.79-5.01,5.62-10.76,10.27-17.7,13.52-8.48,3.97-17.14,6.43-26.57,5.4-.02-.15-.07-.25-.24-.12h.01c-.33-1.19-1.24-2.03-1.86-3.06-1.1-1.83-2.12-3.72-3.45-5.41.07-1.21-.57-2.16-1.13-3.14-2.15-3.77-4.5-7.4-7.62-10.45-.64-.63-1.26-1.44-2.37-1.21.3-2.01-.15-4.05.21-6.06.42-.2.89-.27,1.31-.14,1.04.34,2.01.05,3-.17,2.11-.48,3.66-1.81,5.2-3.25,1.93-1.8,3.08-3.84,2.7-6.55-.2-1.43.13-2.75.67-4.04,1.05-2.54,1.69-5.12.54-7.81-.51-1.19-1.17-2.33-1.64-3.54-.92-2.37-2.68-3.67-5.06-4.33-1.7-.47-3.11-1.43-4.03-2.98-1.2-2.05-2.95-3.55-4.84-4.92-3.62-2.63-7.6-4.54-11.76-6.12-.41-1.13-.91-2.24-1.21-3.4-.6-2.32-.44-4.64.33-6.92.16-.48.49-.95.34-1.5.56.69,1.04,1.46,1.69,2.04,3.09,2.8,6.42,5.27,10.33,6.83,2.48,1,5.04,1.34,7.64.44.65-.23,1.18-.04,1.74.24,2.08,1.06,4.25,1.86,6.61,2.03,1.02.07,2.04-.07,2.7-.85.88-1.02,1.74-.97,2.78-.39.5.28,1.04.47,1.57.67,1.34.51,2.72.88,4.17.82.52-.02,1.1-.06,1.25-.74.16-.69-.24-1.07-.82-1.31-.3-.12-.61-.22-.91-.33-2.59-.89-5.04-2.08-7.45-3.35-1.52-.8-1.81-.68-1.87,1.09-.05,1.52-.42,1.81-1.87,1.48-.28-.06-.56-.13-.83-.21-3.85-1.12-7.56-2.54-10.81-4.97-.32-.24-.69-.52-1.11-.22-.44.32-.29.8-.21,1.24.11.56.61.85.89,1.29.11.17.28.33.14.54-.12.19-.33.24-.54.16-1.22-.45-2.55-.45-3.73-1.09-2.46-1.34-4.58-3.13-6.5-5.11-1.16-1.2-2.3-2.53-2.59-4.33-.12-.73-.82-.99-1.29-.56-1.03.93-2.32.97-3.51,1.25-2.1.48-4.15,1.23-6.34,1.28-1.21.03-1.62-.52-1.29-1.7.17-.58.44-1.14.62-1.72.2-.66.14-1.32-.38-1.82-.46-.44-1.02-.58-1.69-.34-2.79,1.01-5.75,1.06-8.65,1.45-.71.09-1.08-.29-.7-.94.5-.84.37-1.73.42-2.61.04-.64-.24-1.07-.88-1.07-1.06-.01-1.96-.52-2.92-.83-.37-.12-.86-.18-.93-.67-.07-.47.36-.7.66-.96.74-.64,1.64-.86,2.57-1.03.65-.12,1.11-.52,1.3-1.15.21-.74-.54-.69-.88-.94-1.33-.95-1.89-2.38-2.7-3.99,1,.33,1.68.57,2.38.78,1.52.46,3.02.95,4.65.83,1.04-.08.94-.55.44-1.14-.45-.54-1.08-.83-1.74-1.08-2.78-1.04-5.75-1.49-8.41-2.89-1.26-.66-2.58-1.21-3.87-1.81-.22-.1-.49-.27-.68-.08-.27.28.03.51.18.74.46.7,1.12,1.18,1.83,1.58q1.9,1.06,1.62,3.22c-.91.1-1.79.32-2.62.74M207.16,169.84c-1.51,1.65-3.07,3.26-4.51,4.97-1.04,1.24-2.37,1.78-3.86,2.16-2.44.61-4.92.78-7.4.62-4.82-.31-9.34.83-13.86,2.36-5.71,1.92-11.39,1.55-16.82-1.2-.86-.43-1.58-1.14-2.37-1.71-.94-.68-1.76-.62-2.35.17-.64.88-.54,1.65.33,2.31,1.99,1.51,4.24,2.4,6.67,2.87.84.16,1.68.3,2.53.43.96.14,1.63.68,2.1,1.5.18.32.32.66.52.97,1.39,2.14,3.07,2.07,4.19-.23.59-1.21,1.45-1.93,2.8-2.04,1.04-.09,1.89-.71,2.83-1.09,4.09-1.65,8.37-2.54,12.73-2.68,2.79-.09,5.65.27,7.95,2.38,1.32,1.22,2.8.58,3.13-1.16.32-1.73,1.26-3.06,2.63-4.12,1.22-.95,2.45-1.9,3.66-2.85.82-.64,1.44-1.44,1.83-2.4.23-.58.29-1.22-.13-1.75-.32-.41-.82-.5-1.33-.42-.57.11-.9.53-1.26.92M216.54,206.32c.88-.04,1.68-.34,2.4-.81.43-.28,1-.65.73-1.25-.25-.55-.98-.79-1.47-.61-3.92,1.44-7.63-.03-11.39-.72-.59-.11-1.18-.26-1.45.44-.3.78.33,1.1.87,1.38.65.34,1.36.57,1.99.94.69.4,1.49.82,1.26,1.85-.23,1.01-1,1.49-1.95,1.57-1.42.11-2.84.16-4.26-.04-.4-.06-.8-.16-1.2-.22-.39-.06-.77.01-.94.39-.19.43-.01.81.38,1.04.59.35,1.17.71,1.89.82,1.68.25,2.73,1.27,3.44,2.78.8,1.71,1.52,3.43,1.62,5.34.05.89.22,1.93-.64,2.47-.84.52-1.73-.04-2.52-.46-1.28-.69-2.24-1.85-3.64-2.37-1.15-.43-2.3-.78-3.55-.77-1.13.01-1.96.72-2.05,1.8-.11,1.22.49,1.72,1.62,1.27.95-.38,1.84-.25,2.69.24,1.33.78,2.65,1.58,3.99,2.37,1.27.74,2.59,1.66,4.08.86,1.77-.94,2.38-2.67,2.48-4.61.11-2.17-.59-4.17-1.27-6.17-.2-.57-.42-1.14-.62-1.71-.29-.78.48-.8.82-.94,1.28-.54,2.33-1.31,3.04-2.52.19-.33.41-.65.2-1.02-.55-.98.08-1.11,1.13-1.21.58-.04,1.47-.11,2.36-.15M150.77,195.65c-2.28-1.61-4.79-1.85-7.45-1.27-.16.04-.33.02-.48.06-.4.11-1.04-.37-1.17.24-.14.65.62.62,1.02.81.4.19.84.31,1.28.38,2.8.45,5.34,1.64,7.89,2.81,1.11.51,2.32.78,2.79,2.12.08.23.35.36.61.24.46-.22.83-.58.84-1.11.01-.66-.2-1.27-.49-1.87-.27-.56-.7-1.2-.14-1.81.54-.58,1.21-.53,1.92-.31,3.52,1.06,6.4,2.96,8.21,6.26.19.35.36.73.45,1.12.13.56.11,1.17.84,1.33.53.12.93-.03,1.26-.51.42-.61.71-1.21.3-1.91-.18-.31-.46-.57-.65-.88-.27-.44-.77-.89-.5-1.42.27-.55.94-.42,1.44-.41,2.77.03,5.53-.12,8.24-.74.67-.15,1.34-.34,2-.54.47-.14,1.03-.3.97-.92-.06-.64-.7-.59-1.15-.68-1.83-.36-3.66-.08-5.47.13-3.19.36-6.33.18-9.47-.43-1.14-.22-2.11-.85-3.07-1.46-1.91-1.21-4.02-1.71-6.25-1.81-.79-.03-1.52.19-2.25.49-.95.39-1.53.93-1.11,2.11-.27-.01-.37.02-.42-.02M200.7,193.75c.15-.06.31-.14.41-.26.4-.49,1.51-.68,1.04-1.53-.44-.8-1.13-.01-1.71.12-1.74.39-3.49.8-5.23,1.2-1.71.4-3.34,1.02-4.96,1.67-.68.27-1.39.46-2.13.49-.6.03-1.28.1-1.19.86.08.71.8.5,1.3.53,1.28.08,2.49-.39,3.74-.53,3.07-.33,5.92-1.39,8.74-2.55"/>
    <path class="cls-3" d="M181.45,161.33c-1.61.51-2.95,1.31-3.77,2.84-1.57-1.44-3.12-2.86-3.22-5.22-.03-.73-.28-1.44-.76-2.04-.62-.78-1.43-1.06-2.39-.84-.93.22-1.69.68-1.87,1.7-.39,2.21-1.14,4.33-1.44,6.56-.27,2.02-1.1,3.48-3.44,3.96-1.51.31-3,.6-4.54.77-4.04.45-8.09.83-12.11,1.45-3.96.61-7.87,1.34-11.72,2.4-2.22.61-4.49.81-6.76.96-.48.03-1.46.28-1.23-.9.3-1.54-.17-2.18-1.69-2.69-1.62-.54-3.31-1.03-4.74-1.9-1.96-1.19-4.04-1.89-6.2-2.51-6.03-1.74-12.27-2.6-18.27-4.45-.41-.13-.8-.02-1.2.02-3.86.38-6.71,2.76-9.65,4.93-.85.63-1.25,1.58-1.45,2.62-.18.94,0,1.86.07,2.79-.91-.64-1.51-1.56-2.22-2.4-.72-.85-.82-1.73-.3-2.71.82-1.56,1.78-3.06,3.21-4.11,2.95-2.17,5.95-4.29,9.48-5.47.43-.14.77-.25.57-.82-.93-2.8-.7-5.71-.84-8.6-.23-4.72.42-9.23,2.32-13.58.49-1.11,1.2-2.14,1.37-3.38.03-.23.15-.51-.08-.69-.3-.22-.53,0-.75.19-1.2,1.02-2.55,1.9-3.08,3.53-.26.78-.84.9-1.57.5-1.35-.74-1.61-1.6-.65-2.88,1.29-1.73,2.68-3.38,4.02-5.07.86-1.08.79-1.62-.38-2.37-.61-.4-1.27-.73-1.9-1.1-.39-.23-1.06-.23-.99-.89.06-.56.6-.72,1.06-.9,2.27-.91,4.54-1.81,6.82-2.7.79-.31,1.55-.72,1.71-1.59.35-1.85,1.35-3.38,2.2-5,1.75-3.3,3.16-6.84,5.57-9.73,4.3-5.15,8.61-10.28,13.96-14.47,3.76-2.95,7.37-6.01,11.88-7.8,2.68-1.06,5.29-1.94,8.12-.57.52.25,1.15.2,1.53-.37.42-.63-.09-.95-.46-1.32-1.37-1.36-1.73-3.42-.96-5.18.21-.48.42-.98.54-1.49.5-2.14.96-4.29,1.45-6.42.23-.98.81-1.77,1.53-2.45.49-.47.98-.5,1.48.02,1.18,1.21,1.43,2.58.82,4.15-.18.47-.52,1.06.2,1.36.62.25,1.04-.1,1.41-.63,2.55-3.58,3.69-7.58,3.52-11.95-.1-2.45-.69-4.75-2.1-6.8-.23-.33-.91-.56-.54-1.06.3-.4.85-.04,1.26.05,3.81.91,7.29,2.49,10.36,4.98,3.42,2.77,6.53,5.75,8.43,9.82.53,1.13.98,2.28.69,3.53-.22.92-.34,1.84-.35,2.77-.01.67-.3,1.57.59,1.77.86.19.92-.8,1.14-1.34,1.93-4.71,5.15-8.34,9.23-11.29.5-.36,1.05-.61,1.67-.73.74-.15,1.13.04,1.19.9.11,1.48-.06,2.92-.27,4.37-.8,5.51-2.33,10.9-2.88,16.46-.1.97.17,1.24,1.05.85.75-.33,1.51-.62,2.33-.71.89-.1,1.67.12,1.98,1.03.32.92-.2,1.59-.95,2.03-.7.41-1.48.68-2.18,1.09-.94.54-1.78,1.21-2.19,2.44.97-.55,1.77-1.06,2.62-1.49,1.64-.82,3.31-1.57,4.95-2.4,1.65-.83,1.73-2.45.17-3.38-1.15-.69-2.29-1.4-3.68-1.56-1.08-.12-.66-.95-.57-1.51.12-.67.45-1.06,1.3-.75,6.49,2.38,12.2,6.16,17.81,10.07,3.9,2.72,7.48,5.87,10.75,9.36.32.34.68.94,1.16.52.5-.44-.12-.9-.38-1.25-.76-1.05-1.6-2.05-2.39-3.08-.2-.27-.67-.55-.34-.92.37-.42.75,0,1.04.24,1.86,1.58,3.69,3.21,5.18,5.15.79,1.02,1.73,1.54,2.98,1.67,1.58.15,3.17.31,4.7.75.96.28,1.89.66,2.15,1.76.27,1.12-.6,1.61-1.33,2.11-.88.6-.93,1.16-.2,1.96,2.79,3.05,4.3,6.67,4.62,10.79.08,1.02,0,2.04-.53,2.96-.18.31-.41.7-.81.66-.49-.05-.36-.56-.45-.89-1-3.71-2.25-7.32-4.32-10.59-.82-1.3-1.71-2.58-2.81-3.67-.27-.27-.6-.48-.97-.2-.36.26-.32.62-.14.99.32.66.58,1.35.95,1.98,2.5,4.29,4.15,8.89,5.16,13.73.25,1.2.48,2.59-.17,3.59-1.36,2.09-1.8,4.29-1.73,6.72.09,2.96-.14,5.96.88,8.8.53,1.49.86,3.17,2.43,4.06.57,1.3,1.11,2.62,1.7,3.91.31.67.25,1.01-.45,1.44-4.1,2.5-8.12,5.11-11.37,8.73-.59.66-1.34,1.04-2.26,1-3.12-.12-6.15.52-9.17,1.19-2.51.55-4.95,1.21-7.14,2.71-.64.44-1.97.74-2.66-.2-1.71-2.32-3.78-4.23-6.09-5.93-.82-.61-1.58-.93-2.43-.34-.85.59-.8,1.52-.34,2.31.82,1.43.82,3.02,1.12,4.56-3.95-.95-7.79-.48-11.61.74M162.31,156.4c.29-.54.48-1.11.43-1.75-.36-4.57-1.89-8.65-5.12-11.97-7.39-7.59-16.47-10.54-26.91-9.81-3.11.22-6.1.91-9.07,1.81-.98.3-1.33.93-1.62,1.77-1.01,2.95-.91,6.01-.82,9.05.04,1.5.21,3,.29,4.5.14,2.73,1.24,5.09,2.65,7.37,1.98,3.21,4.19,6.2,7.34,8.37.53.37,1.11.68,1.64,1.05.26.18.69.24.7.61,0,.42-.46.38-.73.52-.25.14-.51.25-.74.42-.38.28-.66.66-.51,1.15.16.53.68.39,1.04.37,2.25-.15,4.4-.8,6.55-1.41,4.1-1.16,8.25-1.83,12.52-1.73,2.28.05,4.56.16,6.83.21,1.63.04,1.89-.17,2.3-1.77.25-.97.75-1.76,1.39-2.54.78-.95,1.7-1.89,1.56-3.3.21-.96.41-1.93.26-2.92M207.11,123.44c-4.1,3.47-6.99,7.67-8.58,12.77-1.34,4.32-1.65,8.7-.51,13.11.59,2.27,1.86,4.13,3.71,5.59.25.2.64.33.59.71-.18,1.51.74,1.2,1.5.84,2.87-1.33,5.91-2.05,9-2.58,2.35-.4,4.7-.35,7.05-.02.48.07.97.1,1.45.1.28,0,.6-.05.72-.37.15-.39-.21-.48-.44-.61-.9-.51-.61-.91.02-1.45,1.43-1.24,3.18-2.22,3.77-4.21,1-3.37,2.29-6.66,1.8-10.34-.45-3.45-.43-6.95-1.76-10.25-.73-1.81-1.37-3.65-2.05-5.47-.43-1.15-1.14-1.91-2.44-2.1-1.83-.27-3.64-.37-5.47-.02-3.2.61-5.86,2.18-8.35,4.28M159.98,130.18c-.58-.82-.73-1.36.51-1.58.88-.15,1.22-.81,1.41-1.64.81-3.65-.56-6.58-2.85-9.29-1.62-1.92-3.54-3.47-5.56-4.91-.54-.39-1.13-.65-1.79-.74-.39-.06-.84-.24-1.08.26-.2.44.19.65.45.9,1.45,1.37,3,2.62,4.37,4.07,1.62,1.71,2.9,3.6,3.71,5.81.81,2.2-.85,4.19-3.18,3.74-2.4-.47-4.69-1.36-6.99-2.18-4.81-1.73-9.79-1.93-14.81-1.8-2.65.07-5.29-.03-7.92-.4-1.95-.28-2.31-1.02-1.42-2.74.19-.36.52-.73.12-1.09-.37-.34-.76-.04-1.13.13-1.2.53-1.89,1.54-2.37,2.68-.39.92.52,2.44,1.74,3.04.71.35,1.46.55,2.25.41,1.14-.2,2.28-.21,3.4,0,2.33.44,4.62-.11,6.93-.11,6.94,0,13.37,1.71,19.38,5.37,2.97,1.81,4.79,4.28,6.25,7.22.36.73.73,1.46,1.19,2.12.28.4.64,1.01,1.26.68.55-.29.07-.8.03-1.21,0-.12-.05-.24-.08-.36-.76-3.03-2.06-5.82-3.86-8.37M191.87,125.52c1.26,1.57,1,3.38.83,5.14-.12,1.3-.03,2.6-.05,3.9,0,.43.06.87.58.92.51.06.52-.44.62-.76.78-2.39,1.56-4.78,2.73-7.03,3.34-6.43,7.47-12.14,13.58-16.32,2.81-1.92,5.5-4.02,8.49-5.68.87-.48,1.07-1.34.57-2.32-.75-1.47-3.41-2.75-5.03-2.42-.23.05-.54.02-.61.3-.1.37.24.47.49.59.26.12.53.22.8.29.54.14,1.21.06,1.35.81.14.75-.13,1.38-.73,1.83-1.08.8-2.18,1.56-3.27,2.34-4.99,3.55-9.65,7.47-13.38,12.4-.78,1.03-1.43,2.17-2.09,3.29-.96,1.62-2.6,1.66-3.62.03-.56-.9-.86-1.93-1.14-2.95-.11-.43-.16-.95-.78-.91-.65.04-.4.63-.47.96-.22,1-.09,2.02-.02,2.7.2,1.27.54,2.16,1.13,2.89M178.28,88.95c-2.94,3.29-6.54,3.84-10.59,2.59-.35-.11-.71-.2-1.07-.23-.45-.04-1.07-.53-1.32.03-.22.51.2,1.11.6,1.5,1.57,1.52,3.5,2.18,5.65,2.24.57.02,1.14-.06,1.71-.08,2.35-.05,3.87-1.42,5.14-3.22.94-1.34,2.09-2.54,2.9-4.27-1.28.34-2.29.62-3.02,1.44M196.83,105.99c2.6-3.29,6.08-4.76,10.19-4.91.65-.03,1.3-.03,1.95-.04.28,0,.63.07.67-.32.03-.36-.31-.43-.57-.53-2.7-.96-5.44-1.16-8.1.02-3.51,1.55-6.14,3.96-6.85,7.97-.04.24-.14.48.24.87.85-1.05,1.67-2.04,2.47-3.05M136.48,111.51c-.35.22-.76.49-.52.95.21.4.61.2.98.12,2.86-.61,5.71-1.31,8.66-1.31.36,0,.83.14.86-.38.03-.46-.47-.5-.81-.58-1.91-.44-3.8-.21-5.67.22-1.2.2-2.43.29-3.5.97"/>
    <path class="cls-3" d="M154,224.71c-.41-1.13-.91-2.24-1.21-3.4-.6-2.32-.44-4.64.33-6.92.16-.48.49-.95.33-1.5-.14-.74-.6-.79-1.18-.53-2.39,1.08-5.01,1.02-7.52,1.46-1.31.23-2.27-.43-3.06-1.4-.73-.9-1.71-1.68-.97-3.1.33-.64-.34-.69-.77-.73-1.48-.13-2.93.12-4.36.43-1.05.22-2.1.27-3.16.15-1.87-.21-2.59-.9-2.87-2.74-.25-1.63-.35-1.64-1.85-.87-5.16,2.65-8.67,6.92-11.6,11.75-2.44,4.02-4.31,8.29-5.11,12.98-.83,4.87-.23,9.4,2.55,13.66,2.68,4.1,5.67,7.89,9.74,10.62,5.9,3.95,12.53,6.02,19.59,6.55,2.15.16,3.81.85,5.15,2.52,2.93,3.65,6.93,5.15,11.44,5.44,3.3.21,5.44-1.6,6.22-4.81.39-1.6.43-3.13.04-4.7-.07-.26-.23-.57.07-.79.28-.2.54.03.79.14,2.01.84,2.92,2.44,2.6,4.58-.05.36-.12.72-.17,1.08-.1.73.16,1,.9.72.45-.17.93-.35,1.4-.4,4.92-.59,7-6.49,5.11-10.02-.99-1.85-1.89-3.67-3.46-5.08-.36-.33-.69-.78-.35-1.29.34-.52.81-.16,1.22-.06,1.36.31,2.15,1.42,3.14,2.25,1.08.9,1.78.73,2.21-.61.48-1.52.08-2.97-.68-4.21-.46-.76-.61-1.68-1.27-2.33-1.33-1.33-2.95-2.21-4.74-2.49-1.36-.22-2.26-.84-2.99-1.85-4.83-6.69-11.25-10.95-19.29-12.78-2.29-.52-2.43-.78-2.07-3.07.3-1.9-.16-3.72-.7-5.53-.12-.42-.47-.92-.07-1.26.47-.4.94.11,1.28.37,1.66,1.26,2.39,3.04,2.12,5.04-.2,1.5.35,2.11,1.69,2.35.51.09,1.01.27,1.52.4"/>
    <path class="cls-3" d="M227.4,179.37c.53-.61.99-.69,1.69-.39,1.73.75,3.28,1.8,4.91,2.72.74.42,1.03,1,1.16,1.85.49,3.24,1.42,6.35,3.43,9.02.61.81,1.28,1.58,2.19,2.09.27.15.56.22.8,0,.26-.24.15-.54-.05-.76-.97-1.06-1.15-2.48-1.75-3.71-1.24-2.54-1.87-5.25-1.8-8.03.04-1.71-.04-3.6,1.46-4.97.59-.54-.05-.82-.44-.9-2.08-.41-3.64-1.78-5.38-2.81-1.95-1.15-2.3-3.15-2.47-5.17-.04-.46.11-1.06.62-1.21.47-.14.6.44.84.74.28.35.5.75.77,1.1.88,1.12,1.86,2.06,3.45,1.95.66-.05.85.43,1.05.97.92,2.45,2.31,4.29,5.29,4.21,1.11-.03,1.93.33,2.38,1.61.41,1.19,1.12,2.39,2.59,2.71.32.07.66.13.92-.14.31-.32.18-.71,0-1.02-.34-.6-.73-1.18-1.11-1.76q-1.1-1.68.08-3.23c.12-.16.24-.33.33-.51.25-.48.54-1.01.06-1.46-.44-.41-.94-.14-1.33.16-1,.78-2.23.97-3.39,1.31-.92.27-1.73-.05-2.22-.87-1.23-2.03-2.12-4.1-1.15-6.57.4-1.01.97-1.82,1.75-2.58-2.02-.63-3.41.55-3.95,2.26-.22.71-.55,1.31-1.38,1.34-.8.03-1.55-.16-2.03-.89-1.5-2.25-.45-6.27,1.97-7.51.38-.19,1.07-.3.85-.81-.21-.47-.95-.52-1.41-.28-1.95,1.03-3.96,2.03-4.41,4.53-.17.97-.67.87-1.29.43-1.83-1.3-2.3-3.78-1.1-5.82,2.23-3.79,5.99-5.03,9.95-5.6,2.6-.38,5.17.35,7.52,1.66.96.53,2,.92,3.01,1.35.5.21,1.02.3,1.02-.49,0-.62.36-.69.8-.59,1.69.39,3.4.68,5.01,1.42,4.49,2.06,7.47,5.68,10.11,9.64,1.82,2.74,3.23,5.74,4.87,8.57,3.41,5.89,4.29,12.29,4.27,18.81,0,2.87-.89,5.84-2.12,8.6-1.05,2.35-2.36,4.54-3.55,6.81-.16.31-.4.58-.31,1.01.29,1.43.02,1.86-1.33,2.3-.73.24-1.46.5-2.18.78-.3.12-.63.27-.57.69.25,1.61-.94,1.96-2.05,2.19-2.47.51-4.96.96-7.46,1.32-4.31.61-5.87-.2-7.89-4-1.14-2.13-2.46-4.15-4.15-5.86-4.48-4.55-9.06-9-14.05-13.01-.85-.69-1.45-2.76-1.05-3.61.76-1.65.55-2.34-.95-3.47-1.65-1.24-3.67-1.46-5.67-2.19,1.79-1.18,3.49-2.38,4.86-3.95M255.88,182.67c.05-.66-.66-.7-1.16-.8-.83-.18-1.67-.33-2.5-.5-.22-.04-.49-.24-.67.02-.18.26-.04.55.1.8.37.64,2.27,1.49,3.09,1.34.4-.18,1.09-.31,1.13-.85"/>
    <path class="cls-6" d="M61.97,114.41c1.13,6.59,4.88,11.59,9.74,15.89,3.12,2.76,6.74,4.68,10.68,5.98,2.36.78,4.48,2.18,6.94,2.65.4.08.92.53,1.22,0,.33-.58.59-1.27.25-1.97-.11-.22-.26-.42-.41-.6-.79-.92-1.74-1.73-1.66-3.13.13-2.24.49-4.37,2.16-6.05.23-.23.44-.48.68-.7.63-.56.58-1.04-.05-1.6-2.18-1.95-2.16-4.18-.01-6.16,1.97-1.82,4.43-2.7,6.86-3.63,1.15-.44,1.92-1.21,2.29-2.36.2-.64.06-1.04-.76-.91-2.81.45-5.31-.52-7.7-1.8-1.57-.85-2.53-2.26-3.04-3.96-.89-2.95-.64-5.71.94-8.45,1.28-2.22,2.99-4.17,4.05-6.49,1.51-3.3,3.51-6.33,4.97-9.65,1.82-4.15,3.26-8.41,3.68-12.96.02-.24.05-.49.02-.73-.72-6.81-1.92-13.49-5.81-19.32-1.33-1.99-3.16-3.6-5.07-5.07-.56-.43-1.19-.56-1.82-.16-.7.44-.42,1.09-.24,1.65,1.14,3.6,1.76,7.29,1.96,11.05.22,4.19-.3,8.34-1.59,12.28-3.68,11.28-10.58,20.3-19.94,27.49-2.82,2.17-5.51,4.43-7.21,7.67-1.78,3.38-1.88,6.92-1.2,10.57.03.16.06.32.08.48"/>
    <path class="cls-6" d="M234.34,103.22c1.81-1.65,3.05-3.68,4.32-5.73,2.25-3.62,3.74-7.47,4.46-11.66.58-3.42.2-6.63-1.61-9.64-.94-1.56-1.54-3.31-2.89-4.63-1.6-1.57-3.46-2.69-5.51-3.53-4.23-1.72-7.74-4.61-11.56-7.01-5.37-3.38-9.57-7.9-13.18-13.02-2.9-4.12-4.2-8.77-4.27-13.79-.04-2.8-.59-5.6.08-8.39.16-.68-.23-.69-.67-.61-.61.12-.93.58-1.23,1.1-2.64,4.62-3.75,9.65-4.06,14.91-.07,1.27-.04,2.53.13,3.78.3,2.3.4,4.64.73,6.93,1.15,8.07,4.86,14.46,12.32,18.37,2.64,1.38,5,3.21,6.81,5.63,1.32,1.76,2.09,3.75,2.36,5.94.18,1.45-.48,2.52-1.44,3.47-.47.47-.56.79-.03,1.3,1.7,1.63,3.4,3.26,5.02,4.97,1.23,1.3,2.76,1.83,4.42,2.14,1.75.33,3.35.96,4.76,2.08,1.56,1.24,1.75,2.38.64,4-.18.27-.33.59-.57.79-.69.59-.52,1.08.08,1.6.32.28.58.64.89,1"/>
    <path class="cls-3" d="M125.53,192.67c-.91.1-1.79.32-2.62.74-.09.22-.11.55-.28.66-1.93,1.18-3.59,2.89-5.96,3.2-1.03.14-1.47.54-1.26,1.59.07.35.02.73.01,1.1,0,1.03.51,1.59,1.53,1.69.4.04.81.05,1.21.11,1.13.17,1.29.57.55,1.45-1.1,1.3-.95,2.81-.7,4.3.13.75.72.94,1.4.49,1.79-1.2,3.59-2.4,5.38-3.6.57-.38.54-.69-.02-1.11-1.62-1.21-1.49-2.98.28-4.05.9-.55,1.81-1.1,2.73-1.61.5-.27.75-.61.27-1.02-1.24-1.07-1.86-2.52-2.54-3.94"/>
    <path class="cls-3" d="M231.04,128.95c.35-.38.67-.81,1.07-1.14.73-.62,1.64-.72,2.34-.11.96.84,2.12,1.12,3.25,1.51.82-1.71.49-2.33-1.25-2.95-1.44-.52-2.86-.27-4.3-.3-.69-.01-.84.44-1.01.97-.22.67-.27,1.33-.11,2.02"/>
    <path class="cls-5" d="M229.84,176.59c1.88.37,3.52.81,4.97,1.75.33.21.5.1.65-.23.13-.3.18-.54-.17-.71-1.23-.57-2.34-1.3-3.35-2.2-.35-.3-.69-.22-.97.07-.33.35-.63.73-1.11,1.31"/>
    <path class="cls-7" d="M209.75,169.33c.42.52.36,1.17.13,1.75-.38.96-1.01,1.76-1.83,2.4-1.22.95-2.44,1.9-3.66,2.85-1.37,1.06-2.31,2.4-2.63,4.12-.32,1.74-1.8,2.38-3.13,1.16-2.3-2.12-5.15-2.47-7.95-2.38-4.36.14-8.64,1.03-12.73,2.68-.94.38-1.79,1-2.83,1.09-1.35.12-2.2.83-2.8,2.05-1.12,2.3-2.8,2.37-4.19.23-.2-.31-.34-.65-.52-.97-.46-.83-1.13-1.36-2.1-1.5-.85-.12-1.69-.27-2.53-.43-2.43-.47-4.68-1.36-6.67-2.87-.88-.67-.98-1.44-.33-2.31.58-.79,1.4-.85,2.35-.17.79.57,1.51,1.28,2.37,1.71,5.43,2.76,11.11,3.13,16.82,1.2,4.53-1.52,9.04-2.66,13.86-2.36,2.48.16,4.96-.01,7.4-.62,1.49-.37,2.82-.92,3.86-2.16,1.44-1.71,3-3.32,4.51-4.97.36-.39.69-.81,1.26-.92.51-.08,1.01.01,1.34.42M169.92,183.25c-.66.02-.7.49-.56.94.18.57.42,1.23,1.21,1.08.8-.16.76-.81.67-1.44-.14-.89-.79-.6-1.33-.58M198.25,179.8c.21.71.7,1.15,1.45.99.71-.14.96-.73.85-1.41-.16-.94-.85-.44-1.35-.45-.42.18-1.22-.06-.95.86"/>
    <path class="cls-7" d="M214.18,206.47c.57-.04,1.47-.11,2.36-.15.88-.04,1.68-.34,2.4-.81.43-.28,1-.65.73-1.25-.25-.55-.98-.8-1.46-.62-3.92,1.44-7.63-.02-11.4-.71-.59-.11-1.18-.26-1.45.44-.3.78.32,1.1.87,1.38.65.34,1.35.57,1.98.94.69.4,1.49.82,1.26,1.85-.23,1.01-1,1.49-1.95,1.57-1.42.11-2.84.16-4.26-.04-.4-.06-.8-.15-1.2-.22-.39-.06-.77.01-.94.39-.19.43-.01.82.38,1.05.59.35,1.17.71,1.89.82,1.68.25,2.73,1.27,3.44,2.78.8,1.71,1.52,3.43,1.62,5.34.05.89.22,1.93-.64,2.46-.84.52-1.73-.04-2.52-.46-1.28-.69-2.24-1.85-3.64-2.37-1.15-.43-2.3-.78-3.55-.77-1.13.01-1.96.72-2.05,1.8-.11,1.22.49,1.72,1.62,1.27.95-.38,1.84-.25,2.69.24,1.33.78,2.65,1.58,3.99,2.37,1.26.74,2.59,1.66,4.08.86,1.78-.94,2.38-2.67,2.48-4.61.11-2.17-.59-4.17-1.27-6.17-.2-.57-.42-1.14-.62-1.71-.29-.78.48-.8.81-.94,1.28-.54,2.33-1.31,3.04-2.52.19-.33.4-.65.2-1.02-.55-.98.08-1.11,1.14-1.21"/>
    <path class="cls-7" d="M151.19,195.67c-.27-.01-.37.02-.42-.02-2.28-1.61-4.79-1.85-7.45-1.27-.16.04-.33.02-.48.06-.4.11-1.04-.37-1.17.24-.14.65.62.62,1.02.81.4.19.84.31,1.28.38,2.8.45,5.34,1.64,7.89,2.81,1.11.51,2.32.78,2.79,2.12.08.23.35.36.61.24.46-.22.83-.58.84-1.11.01-.66-.2-1.27-.49-1.87-.27-.56-.7-1.2-.13-1.81.53-.58,1.21-.53,1.92-.31,3.52,1.06,6.4,2.96,8.21,6.26.19.35.36.74.45,1.13.13.56.11,1.17.84,1.33.53.12.93-.03,1.26-.51.42-.61.7-1.21.3-1.91-.18-.31-.46-.57-.65-.88-.27-.44-.77-.89-.5-1.42.27-.54.94-.41,1.44-.41,2.77.03,5.53-.12,8.24-.74.67-.15,1.34-.34,2-.54.47-.14,1.03-.3.97-.92-.06-.64-.7-.59-1.15-.68-1.83-.36-3.66-.08-5.47.13-3.19.36-6.33.18-9.46-.43-1.14-.22-2.11-.85-3.07-1.46-1.91-1.21-4.02-1.71-6.25-1.81-.78-.03-1.52.19-2.25.49-.95.39-1.53.93-1.11,2.11"/>
    <path class="cls-7" d="M193.06,160.6c-3.95-.95-7.79-.48-11.61.74-1.61.51-2.95,1.31-3.77,2.84.13,2.36.82,3.08,3.2,3.14,1.6.04,2.95.45,4.14,1.65,1.33,1.35,3.78.87,5.26-.88.36-.43.62-.94.92-1.42.5-.79.95-1.61,1.96-1.89.81-.22,1.54-.54,1.63-1.56.08-.99-.31-1.73-1.11-2.27-.2-.13-.41-.23-.62-.35"/>
    <path class="cls-7" d="M191.96,196.3c3.07-.33,5.92-1.39,8.74-2.55.15-.06.31-.14.41-.26.4-.49,1.51-.68,1.04-1.53-.44-.8-1.13-.01-1.71.12-1.75.39-3.49.8-5.23,1.2-1.71.4-3.34,1.02-4.96,1.67-.68.27-1.39.46-2.13.49-.6.03-1.28.1-1.19.86.08.71.8.5,1.3.53,1.28.08,2.48-.39,3.74-.53"/>
    <path class="cls-7" d="M158.54,150.08c-.54-.92-1.12-1.79-2.01-2.4-.16-.11-.32-.28-.54-.14-.23.14-.13.35-.1.54.09.73.16,1.46.28,2.18.95,6.04-.14,9.7-4.35,14.23,2.85-.35,5.41-.87,7.13-3.27.77-1.07,1.74-1.79,3.1-1.89.14,1.41-.78,2.35-1.56,3.3-.63.77-1.14,1.56-1.39,2.54-.41,1.59-.67,1.8-2.3,1.77-2.28-.05-4.55-.16-6.83-.21-4.26-.1-8.42.57-12.52,1.73-2.15.61-4.31,1.26-6.56,1.41-.37.02-.88.17-1.04-.37-.15-.49.13-.87.51-1.15.23-.17.49-.28.74-.42.27-.15.73-.1.73-.52,0-.38-.44-.44-.7-.61-.54-.37-1.11-.68-1.65-1.05-3.14-2.18-5.35-5.17-7.34-8.37-1.41-2.28-2.51-4.64-2.65-7.37-.08-1.5-.25-3-.29-4.5-.09-3.05-.19-6.1.82-9.05.29-.84.64-1.47,1.62-1.77,2.97-.9,5.96-1.59,9.07-1.81,10.44-.73,19.52,2.22,26.91,9.81,3.24,3.32,4.76,7.4,5.12,11.97.05.64-.14,1.2-.43,1.75-1.26-2.11-2.54-4.2-3.77-6.32M136.65,162.31c1.92,1.7,4.1,2.89,6.81,2.89,4.82,0,7.47-1.76,9.29-6.24.68-1.68,1.05-3.43,1.27-5.2.25-2-1.07-3.25-2.55-4.27-.7-.49-1.57-.68-2.41-.83-.91-.16-1.47.19-1.26,1.21.32,1.51.15,2.99-.11,4.49-.36,2.12-2.15,3.58-4.3,3.54-2.63-.05-4.58-.97-5.64-3.62-.68-1.7-1.59-3.25-1.64-5.17-.04-1.77-1.52-3.1-3.13-3.13-1.5-.02-3.02,1.42-3.27,3.1-.15.99.1,1.95.22,2.92.76,4.4,3.54,7.51,6.72,10.32M132.14,161.12c-2.23-3.13-4.31-6.34-5.17-10.16-.74-3.26-.44-6.47.73-9.6.19-.52.8-1.16.03-1.61-.79-.46-1.53-.06-2.03.6-1.57,2.06-2.44,4.43-2.79,6.95-.44,3.12-.15,6.16,1.45,9,2.3,4.09,5.28,7.47,9.46,9.75,1.24.68,2.29.51,3.65,0-2.19-1.36-3.93-2.98-5.32-4.94M148.11,143.27c.29-.95.15-1.84-.84-2.43-1.85-1.1-3.72-2.16-5.83-2.7-1.06-.27-2.01-.15-2.75.76-.77.94-1.14,1.94-.65,3.15,1.01,2.48,4.39,4.7,6.93,4.3,1.38-.41,2.62-1.38,3.14-3.07"/>
    <path class="cls-7" d="M220.93,119.18c1.3.19,2.01.95,2.44,2.1.68,1.82,1.33,3.66,2.05,5.47,1.32,3.3,1.3,6.81,1.76,10.25.49,3.68-.8,6.97-1.8,10.34-.59,1.98-2.33,2.97-3.77,4.21-.63.54-.91.94-.02,1.45.23.13.58.22.44.61-.12.31-.44.37-.72.36-.49,0-.97-.04-1.45-.1-2.35-.33-4.7-.39-7.05.02-3.1.53-6.13,1.25-9,2.58-.76.35-1.68.67-1.5-.84.05-.38-.35-.51-.59-.71-1.85-1.46-3.12-3.32-3.71-5.59-1.14-4.41-.83-8.79.51-13.11,1.59-5.1,4.48-9.31,8.58-12.77,2.49-2.11,5.15-3.67,8.35-4.29,1.82-.35,3.64-.24,5.47.02M220.24,150.36c3.06-2.76,4.54-6.14,4.06-10.33-.24-2.06-.26-4.14-.43-6.21-.32-4-1.74-7.41-5.22-9.72-1.89-1.25-2.39-1.19-4.08.18-.95.77-.68,1.48-.15,2.21,1.55,2.15,2.56,4.51,3.08,7.1,1.03,5.19,1.25,10.32-.77,15.36-.37.92-1.04,1.62-1.54,2.51,1.95.57,3.63.18,5.05-1.1M214.26,147.18c1.3-3.07,2.26-6.22,1.5-9.6-.26-1.18-.49-2.39-1.33-3.37-.38-.45-.68-.97-1.36-.83-.68.14-1.04.62-1.41,1.22-1.61,2.54-2.03,5.4-2.47,8.29-.55,3.63-5.12,4.81-7.67,2.04-.25-.27-.39-.87-.9-.66-.54.22-.26.78-.27,1.2-.02.57.01,1.14,0,1.71-.08,4.16,3.07,6.85,7.21,6.14,3.5-.66,5.41-3.08,6.7-6.14M210.65,133.98c.49-1.54-.37-2.81-1.42-3.92-.47-.5-1.02-.65-1.48-.15-1.34,1.46-2.74,2.91-3.42,4.83-.61,1.74-.15,2.44,1.7,2.7.28.04.57.02.82.03,1.91-.51,3.23-1.71,3.8-3.5"/>
    <path class="cls-5" d="M162.31,156.4c-1.26-2.11-2.54-4.2-3.77-6.32-.54-.93-1.12-1.79-2.01-2.41-.16-.11-.32-.28-.54-.14-.23.14-.13.35-.1.54.09.73.16,1.46.28,2.18.95,6.04-.14,9.7-4.34,14.23,2.85-.35,5.41-.87,7.13-3.27.77-1.07,1.74-1.79,3.1-1.89.21-.96.41-1.93.26-2.92"/>
    <path class="cls-7" d="M181.3,87.51c-1.28.34-2.29.62-3.02,1.44-2.94,3.28-6.54,3.83-10.59,2.59-.35-.11-.71-.2-1.07-.23-.45-.04-1.07-.53-1.32.03-.22.51.2,1.11.6,1.5,1.56,1.52,3.5,2.18,5.65,2.24.57.02,1.14-.06,1.71-.08,2.35-.05,3.87-1.42,5.14-3.22.94-1.34,2.09-2.54,2.9-4.27"/>
    <path class="cls-7" d="M254.74,183.52c.4-.18,1.09-.31,1.13-.85.05-.66-.66-.7-1.16-.8-.83-.18-1.67-.33-2.5-.5-.23-.04-.49-.24-.67.02-.18.26-.04.55.1.8.37.64,2.27,1.49,3.09,1.34"/>
    <path class="cls-5" d="M171.25,183.82c-.14-.89-.79-.6-1.33-.58-.67.03-.7.49-.56.94.18.57.42,1.23,1.21,1.08.8-.16.76-.81.67-1.44"/>
    <path class="cls-5" d="M199.2,178.94c-.42.18-1.22-.06-.95.86.21.71.7,1.15,1.45.99.71-.14.96-.73.85-1.41-.16-.94-.85-.44-1.35-.45"/>
    <path class="cls-4" d="M129.94,151.99c.76,4.4,3.54,7.51,6.72,10.32,1.92,1.7,4.1,2.89,6.81,2.89,4.82,0,7.47-1.76,9.29-6.24.69-1.68,1.05-3.44,1.27-5.2.25-2-1.07-3.25-2.55-4.27-.7-.49-1.57-.68-2.41-.83-.91-.16-1.47.19-1.26,1.21.32,1.51.15,2.99-.11,4.49-.36,2.12-2.15,3.59-4.3,3.54-2.62-.05-4.57-.97-5.63-3.62-.68-1.7-1.59-3.25-1.64-5.17-.04-1.77-1.52-3.1-3.13-3.13-1.5-.02-3.02,1.42-3.27,3.1-.15.99.1,1.95.22,2.92"/>
    <path class="cls-5" d="M137.46,166.06c-2.19-1.36-3.93-2.98-5.32-4.94-2.22-3.13-4.31-6.34-5.17-10.16-.74-3.26-.44-6.47.73-9.6.19-.52.8-1.16.03-1.61-.79-.46-1.53-.06-2.03.6-1.57,2.05-2.44,4.43-2.79,6.95-.44,3.12-.15,6.16,1.45,9,2.3,4.09,5.29,7.47,9.46,9.75,1.24.68,2.29.51,3.65,0"/>
    <path class="cls-5" d="M144.97,146.34c1.38-.41,2.62-1.38,3.14-3.07.29-.95.15-1.84-.84-2.43-1.85-1.1-3.72-2.16-5.83-2.7-1.07-.27-2.01-.15-2.75.76-.77.94-1.14,1.94-.65,3.15,1.01,2.48,4.39,4.71,6.93,4.3"/>
    <path class="cls-5" d="M215.19,151.47c1.95.57,3.63.18,5.05-1.1,3.06-2.76,4.54-6.14,4.06-10.33-.24-2.06-.26-4.14-.43-6.21-.32-4-1.73-7.41-5.22-9.72-1.89-1.25-2.39-1.19-4.08.18-.95.77-.68,1.48-.15,2.21,1.55,2.15,2.56,4.51,3.08,7.1,1.03,5.19,1.25,10.32-.77,15.36-.37.92-1.04,1.62-1.54,2.51"/>
    <path class="cls-4" d="M207.56,153.32c3.5-.66,5.41-3.08,6.71-6.14,1.3-3.07,2.26-6.22,1.5-9.6-.26-1.18-.5-2.39-1.33-3.37-.38-.45-.68-.97-1.36-.83-.68.14-1.04.62-1.41,1.22-1.61,2.54-2.03,5.4-2.47,8.29-.55,3.63-5.12,4.81-7.67,2.04-.25-.27-.39-.87-.9-.66-.54.22-.26.78-.27,1.2-.02.57.01,1.14,0,1.71-.08,4.16,3.07,6.85,7.21,6.14"/>
    <path class="cls-5" d="M206.84,137.48c1.91-.51,3.23-1.71,3.8-3.5.49-1.54-.37-2.81-1.42-3.92-.47-.5-1.02-.65-1.48-.15-1.34,1.46-2.74,2.91-3.42,4.83-.61,1.74-.15,2.44,1.7,2.7.28.04.57.02.82.03"/>
    <path class="cls-2" d="M194.46,126.82c-4.69-6.02-3.56-13.39,1.85-21.76,6.14-5.79,13.69-5.89,22.16-2.34-10.13,7.21-18.29,15.19-24.01,24.11"/>
    <path class="cls-7" d="M190.74,122.63c.2,1.27.54,2.16,1.13,2.89,1.26,1.57,1,3.38.84,5.14-.12,1.3-.03,2.6-.05,3.9,0,.43.06.87.58.92.51.06.52-.44.62-.76.78-2.39,1.56-4.78,2.73-7.03,3.34-6.43,7.47-12.14,13.58-16.32,2.81-1.92,5.5-4.02,8.48-5.68.87-.48,1.07-1.34.57-2.32-.74-1.47-3.41-2.75-5.03-2.42-.23.05-.54.02-.61.3-.09.37.24.47.49.59.26.12.53.22.8.29.54.14,1.21.06,1.35.81.13.75-.13,1.38-.73,1.83-1.07.8-2.18,1.56-3.27,2.34-4.99,3.55-9.65,7.47-13.37,12.4-.78,1.03-1.43,2.17-2.09,3.29-.96,1.62-2.6,1.66-3.62.03-.56-.9-.86-1.93-1.13-2.95-.12-.43-.16-.95-.78-.91-.65.04-.39.63-.47.96-.22,1-.09,2.02-.02,2.7"/>
    <path class="cls-7" d="M194.36,109.04c.85-1.05,1.67-2.04,2.47-3.05,2.6-3.29,6.08-4.76,10.19-4.91.65-.02,1.3-.03,1.95-.04.28,0,.64.07.67-.32.03-.36-.31-.43-.57-.53-2.7-.96-5.44-1.16-8.1.02-3.51,1.55-6.14,3.96-6.85,7.97-.04.24-.14.48.24.87"/>
    <path class="cls-2" d="M157.43,128.78c-11.25-5.26-23.13-5.09-34.4-5.88.5-3.69,3.62-7.49,15.33-11.66,9.55-1.48,17.22,1.58,22.13,11.35l-3.06,6.18Z"/>
    <path class="cls-7" d="M163.85,138.55c-.76-3.03-2.06-5.82-3.86-8.37-.58-.82-.73-1.36.51-1.58.88-.15,1.22-.81,1.41-1.64.81-3.65-.55-6.58-2.85-9.29-1.62-1.92-3.54-3.47-5.56-4.91-.54-.39-1.13-.65-1.79-.74-.39-.06-.84-.24-1.07.26-.21.45.19.65.45.9,1.44,1.37,3,2.62,4.37,4.07,1.62,1.71,2.9,3.6,3.71,5.81.81,2.2-.85,4.19-3.18,3.74-2.4-.47-4.69-1.36-6.99-2.18-4.81-1.73-9.79-1.93-14.81-1.8-2.65.07-5.29-.03-7.92-.4-1.95-.28-2.31-1.02-1.42-2.74.19-.36.52-.73.12-1.09-.37-.34-.76-.04-1.13.13-1.2.53-1.89,1.54-2.37,2.68-.39.92.52,2.44,1.74,3.04.7.35,1.46.55,2.25.41,1.14-.2,2.28-.21,3.4,0,2.33.44,4.62-.11,6.93-.11,6.94,0,13.37,1.71,19.38,5.37,2.97,1.81,4.79,4.28,6.25,7.22.36.73.73,1.46,1.19,2.12.28.4.64,1.01,1.26.68.55-.29.07-.8.03-1.21,0-.12-.05-.24-.08-.36"/>
    <path class="cls-7" d="M139.98,110.54c-1.2.2-2.43.29-3.5.97-.35.22-.76.49-.52.95.2.4.61.2.98.12,2.86-.61,5.71-1.31,8.66-1.31.37,0,.83.14.86-.38.03-.46-.47-.5-.81-.58-1.91-.44-3.8-.21-5.67.22"/>
    <path class="cls-2" d="M181.29,87.56c1.06-.71,2.07-1.49,3.02-2.34-.15-.6.22-1,.55-1.41.61-.76,1.43-1.25,2.3-1.66.55-.25,1.12-.49,1.64-.8.78-.47.97-1.04.78-1.9-.14-.62-.52-.96-1.14-1.06-1.02-.16-1.94.18-2.85.55-.12.05-.24.11-.36.18-.26.15-.5.31-.81.11-.33-.22-.28-.54-.24-.86.12-1,.22-2,.36-3,.43-2.94,1.07-5.84,1.66-8.75.49-2.39.84-4.81,1.19-7.22.13-.91-.13-1.79-.08-2.7.02-.41-.23-.54-.73-.51-.73.05-1.39.33-1.99.74-.75.51-1.39,1.15-2.07,1.74-.9.78-1.88,1.46-2.71,2.34-1.6,1.7-2.75,3.7-3.81,5.75-.38.73-.71,1.48-1.08,2.22-.21.42-.38.99-.99.84-.55-.14-.58-.66-.59-1.17-.02-.91-.02-1.81.22-2.69.41-1.55.08-2.98-.56-4.4-1.38-3.03-3.42-5.53-5.9-7.71-2.48-2.18-5.01-4.26-8.08-5.58-1-.43-2.02-.81-3.05-1.13-1.02-.31-2.11-.69-3.18-.73-.05,0-.1,0-.14.02-.08.05-.08.16-.06.25.09.55.36.93.7,1.35.32.4.6.85.86,1.29.5.86.88,1.8,1.1,2.77.18.8.26,1.62.28,2.44.04,2-.24,3.97-.62,5.92-.36,1.83-1.32,3.4-2.25,4.98-.26.43-.51.87-.78,1.3-.33.52-.79.74-1.26.63-.57-.13-.5-.4-.29-.94.27-.67.46-1.45.49-2.18.04-1.13-.77-1.94-1.53-2.68-.44-.43-.82-.4-1.32.07-.79.74-1.35,1.63-1.6,2.7-.48,2.09-.97,4.19-1.44,6.28-.14.6-.32,1.16-.61,1.71-.87,1.62-.4,3.84,1.07,5.05.41.33.66.67.61,1.2.72.23,1.31.7,1.94,1.07,1.68,1,3.41,1.92,5.03,3.03,1.75,1.2,3.5,2.4,5.17,3.69,1.09.84,2.25,1.58,3.29,2.5.45.4,1.01.68,1.55.96.43.22.8.52,1.23.72.44.21.76.46.77.98,0,.06.09.12.14.18q-.04-.64.54-.54c.16.03.31.06.47.1,1.24.27,2.48.56,3.72.8,2.84.55,5.34-.13,7.45-2.15.5-.47,1.04-.9,1.54-1.37.64-.6,1.53-.63,2.27-1,.04-.02.1.01.16.02"/>
  </g>
</svg>