<?xml version="1.0" encoding="UTF-8"?>
<svg xmlns="http://www.w3.org/2000/svg" version="1.1" viewBox="0 0 39.685 39.685">
  <!-- Generator: Adobe Illustrator 28.7.10, SVG Export Plug-In . SVG Version: 1.2.0 Build 236)  -->
  <g>
    <g id="Layer_1">
      <path d="M38.981,13.053c-.605-.514-1.456-.982-2.246-1.117-.607-.123-1.257-.189-1.739-.626-1.009-.87-.607-2.037-1.189-3.16-.449-1.046-1.7-2.145-2.671-2.42-.864-.311-1.809-.185-2.483-.911-.512-.494-.596-1.199-.697-1.859-.109-1.075-1.296-3.356-2.705-2.761-.875.425-.863.989-.976,1.918-.206,1.662-.478,3.869-.684,5.527-.153.997-.153,1.782-.306,1.946-1.236-.09-2.816-.677-4.193-.503-6.062.205-10.903,5.381-10.671,11.488-.086.856.442,2.152.326,2.855-.138.136-.653.101-1.337.183-1.553.137-5.096.444-6.03.527-.676.024-1.386.589-1.349,1.348.08,1.295,1.925,2.147,2.828,2.283.67.116,1.476.233,2.013.898.685.794.49,1.83.923,2.756.348.94,1.512,2.117,2.451,2.468,1.117.49,2.561.268,3.216,1.493.514.999.273,1.886.984,3.001.148.233.347.497.537.698.863.973,2.324.418,2.358-.83.159-1.128.749-6.385.918-7.225.08-.182.333-.128.749-.038,6.658,1.617,13.444-3.555,13.597-10.398.05-1.198-.113-2.442-.443-3.566-.118-.419-.193-.671-.035-.743.867-.14,7.054-.62,8.225-.741,1.207-.043,1.808-1.567.767-2.373l-.139-.122ZM10.015,31.741c-1.198-.033-2.085-1.153-2.082-2.274-.091-.739-.318-1.771-1.305-2.771-.091-.12-.535-.444-.513-.495,1.061-.043,2.869-.354,3.943-.297.902,1.448,2.21,2.798,3.694,3.69.225.132.156.141.138.353l-.447,3.62c-.158-.067-.383-.444-.64-.637-.688-.709-1.945-1.119-2.686-1.174l-.102-.015ZM17.952,28.373c-.042.167-.203.27-.462.217-6.044-1.318-8.692-9.437-4.433-14.137.045-.035.134-.105.179-.14.109.149-.031.773.057,1.069.051,1.091.959,2.646,1.676,3.148.556.433.923,1.351.8,2.041-.228,1.096-.398,1.822-.017,3.05.223.802.801,1.691,1.366,2.157.658.446,1.143,1.6.865,2.456l-.03.14ZM23.405,26.784c-.111.387-.072.928-.397,1.211-.653.39-1.653.737-2.429.644-.151-.092-.058-.376-.036-.676.191-1.807-.921-3.417-2.049-4.396-.774-.905-.302-2.061-.215-3.12.105-.996-.591-2.791-1.263-3.362-.314-.351-.727-.598-1.001-1.132-.493-.924-.132-1.648-.032-2.54.044-.414-.064-.977.349-1.229.445-.178,2.73-1.093,2.536-.091-.47,1.197.07,3.629,1.087,4.51.7.592,1.417,1.466,1.246,2.458-.123.777-.37,1.372-.129,2.538.124.525.327,1.119.605,1.567.489.87,1.082,1.034,1.562,1.864.235.486.328,1.097.196,1.616l-.029.136ZM26,25.754c-.076-.473-.306-1.46-.611-1.955-.517-1.007-1.165-1.211-1.666-2.036-.615-1.128.087-1.974-.006-3.221-.028-.939-.564-2.227-1.037-2.742-.836-.831-1.835-1.735-1.396-3.08.153-1.103.319-.988,1.309-.614,5.375,1.915,7.291,9.431,3.46,13.659l-.052-.011ZM28.82,13.905c-.053.03-.208.023-.313-.128-.732-1.096-1.814-1.989-2.798-2.799.018-1.17.371-3.017.472-4.162.12-.878,0-.835.453-.318.603.685,1.456,1.2,2.283,1.375.787.2,1.562.084,2.176.757.437.422.544.857.61,1.453.089,1.035.425,2.069,1.277,2.922.094.118.511.444.502.495-.353.03-4.613.398-4.621.399l-.042.006Z"/>
    </g>
  </g>
</svg>