<?xml version="1.0" encoding="UTF-8"?>
<svg xmlns="http://www.w3.org/2000/svg" version="1.1" viewBox="0 0 39.685 39.685">
  <!-- Generator: Adobe Illustrator 28.7.10, SVG Export Plug-In . SVG Version: 1.2.0 Build 236)  -->
  <g>
    <g id="Layer_1">
      <path d="M33.647,18.547c1.69,0,3.07-1.37,3.07-3.06,0-1.06-.55-2-1.38-2.55-.08-.61-.26-1.18-.57-1.71-1.32-2.29-4.49-3.08-8.53-2.47-1.48-3.8-3.76-6.15-6.4-6.15s-4.91,2.35-6.39,6.15c-4.04-.61-7.22.18-8.54,2.47-.3.53-.49,1.1-.56,1.7-.83.55-1.38,1.49-1.38,2.56,0,1.69,1.37,3.06,3.06,3.06h.06c.29.43.61.86.95,1.3-2.55,3.19-3.45,6.33-2.13,8.62,1.04,1.79,3.21,2.66,6.03,2.66.78,0,1.62-.07,2.5-.2,1.49,3.8,3.76,6.15,6.4,6.15.86,0,1.68-.25,2.45-.72.43.25.93.38,1.47.38,1.69,0,3.06-1.37,3.06-3.06,0-.81-.32-1.56-.85-2.1.09-.21.18-.43.28-.65.88.13,1.71.2,2.49.2,2.83,0,5-.88,6.03-2.66,1.32-2.29.43-5.43-2.13-8.62.35-.44.67-.87.96-1.3h.05ZM8.377,17.437c.45-.52.71-1.2.71-1.95,0-1.34-.87-2.48-2.07-2.89.02-.04.04-.08.06-.12.53-.92,1.89-1.42,3.81-1.42.55,0,1.14.04,1.77.13-.33,1.25-.59,2.61-.76,4.06-1.17.87-2.22,1.78-3.14,2.7-.14-.17-.26-.34-.38-.51ZM11.637,20.997c-.44-.38-.84-.77-1.22-1.15.38-.39.78-.77,1.22-1.16-.01.38-.02.77-.02,1.16s.01.77.02,1.15ZM7.077,27.218c-.68-1.19-.07-3.21,1.68-5.48.92.92,1.96,1.83,3.13,2.7.18,1.45.44,2.81.77,4.06-2.84.38-4.89-.1-5.58-1.28ZM24.947,13.307c-.32-.2-.65-.4-.99-.59-.34-.2-.67-.38-1.01-.56.55-.18,1.09-.34,1.6-.48.15.51.28,1.06.4,1.63ZM19.837,5.108c1.37,0,2.81,1.54,3.91,4.18-1.25.34-2.56.8-3.9,1.37-1.35-.57-2.66-1.03-3.92-1.37,1.1-2.64,2.54-4.18,3.91-4.18ZM15.127,11.668c.52.14,1.06.31,1.61.49-.34.18-.67.36-1.01.56-.34.19-.67.39-.99.59.12-.57.25-1.12.39-1.64ZM14.737,26.377c.32.2.65.4.99.59.34.19.67.38,1.01.56-.55.19-1.09.35-1.61.48-.15-.51-.27-1.06-.39-1.63ZM23.647,30.627c-1.64.05-2.95,1.4-2.95,3.05,0,.23.02.45.07.66-.31.16-.62.24-.93.24-1.37,0-2.81-1.54-3.91-4.18.35-.1.72-.2,1.08-.32.92-.29,1.87-.64,2.84-1.05,1.34.57,2.65,1.03,3.9,1.37-.03.08-.07.16-.1.23ZM24.547,28.007c-.52-.13-1.05-.29-1.6-.48.34-.18.67-.37,1.01-.56.34-.19.67-.39.99-.58-.12.57-.25,1.11-.4,1.62ZM25.418,23.077c-.84.59-1.74,1.17-2.71,1.73-.97.56-1.93,1.06-2.87,1.48-.93-.42-1.89-.92-2.86-1.48-.97-.56-1.88-1.14-2.72-1.74-.09-1.02-.14-2.1-.14-3.22s.05-2.2.14-3.22c.84-.6,1.75-1.18,2.72-1.74.97-.56,1.93-1.06,2.87-1.48.93.42,1.89.92,2.86,1.48.97.56,1.87,1.14,2.71,1.73.1,1.03.15,2.11.15,3.23s-.05,2.2-.15,3.23ZM32.607,27.218c-.53.92-1.9,1.41-3.81,1.41-.55,0-1.14-.04-1.77-.13.33-1.25.59-2.61.77-4.06,1.16-.88,2.21-1.78,3.13-2.7,1.75,2.27,2.36,4.29,1.68,5.48ZM28.047,18.687c.44.39.84.77,1.22,1.16-.38.38-.78.77-1.22,1.15.01-.38.02-.76.02-1.15s-.01-.78-.02-1.16ZM30.587,15.487c0,.75.27,1.44.72,1.96-.12.17-.24.33-.38.5-.92-.92-1.97-1.82-3.13-2.7-.18-1.45-.44-2.81-.77-4.06.63-.09,1.22-.13,1.77-.13,1.91,0,3.27.5,3.81,1.42.02.04.04.08.06.12-1.21.4-2.08,1.54-2.08,2.89ZM20.047,24.34c-2.545,0-4.615-2.07-4.615-4.615s2.07-4.615,4.615-4.615,4.615,2.07,4.615,4.615-2.07,4.615-4.615,4.615ZM20.047,17.609c-1.167,0-2.115.949-2.115,2.115s.949,2.115,2.115,2.115,2.115-.949,2.115-2.115-.949-2.115-2.115-2.115Z"/>
    </g>
  </g>
</svg>