<?xml version="1.0" encoding="UTF-8"?>
<svg xmlns="http://www.w3.org/2000/svg" version="1.1" viewBox="0 0 39.685 39.685">
  <!-- Generator: Adobe Illustrator 28.7.10, SVG Export Plug-In . SVG Version: 1.2.0 Build 236)  -->
  <g>
    <g id="Layer_1">
      <g>
        <path d="M35,19.393c-.384-.138-.973,0-1.29.351-.334.333-.558.78-.867.793-.341.039-.805-.445-1.296-.693-1.203-.672-2.859-.174-3.434,1.076-.574,1.774-.688,1.151-2.155.418-.866-.36-2.145.394-2.747-.527-2.17-2.937-5.445-7.283-9.41-8.098-2.076-.317-2.922,1.839-3.532,3.439-1.014,2.367-2.043,4.788-3.063,7.173-1.308,3.33-2.677,5.674-3.56,8.69-.326,1.985,1.63,3.62,3.469,3.158,4.248-1.044,10.048-2.506,14.108-3.509,1.946-.504,2.324-.528,3.255-.828,2.663-.951,1.661-4.175.93-6.172,0-.301.064-.367.386-.14,1.262,1.147,3.205,1.286,4.176-.401.276-.397.231-1.145.694-1.294.564.001,1.349.799,1.856.84,2.019.638,4.652-2.966,2.578-4.238l-.098-.038ZM6.49,32.7l-.07-.01c-.5-.3-.09-.57.07-1.1.46-1.05,1.89-4.57,2.07-4.83.75.65,1.6,1.55,2.47,2.15.98.76,2.03,1.33,2.95,1.86-.17.09-5.96,1.54-7.49,1.93ZM18.74,29.62l-.12.01c-2.94-.28-6.81-2.83-8.74-5.11-.13-.17-.36-.38-.24-.6.61-1.32,1.58-3.83,2.21-5.03.05,0,.09.08.16.21,1.59,3.48,4.44,7.18,7.66,9.81.85.53-.54.57-.93.71ZM23.74,28.34l-.03.02c-.04-.01-.08-.02-.13-.04-3.64-1.01-10.01-9.26-10-13.03,3.88,1.03,9.96,9.15,10.16,12.99v.06Z"/>
        <path d="M19.213,11.461c1.809-.372,1.647.053.685-1.51-1.179-2.261,1.374-4.454,3.555-4.05,1.217.422,1.1,2.291-.151,2.609-.327.109-.815.166-.731.47.109.295.418.556.589.843.708.955.693,2.398-.152,3.274-.777.726-2.551,1.002-3.627,1.119-.42-.014-.838-.174-1.096-.519-.659-.8-.142-1.994.768-2.199l.16-.038Z"/>
        <path d="M34.629,10.616c-.38.495-1.691-.292-2.104.033-.069.057-.207.17-.276.226-.334.265-.627.705-1.106.669-1.136-.212-.186-1.9-1.219-2.235-.771-.334-1.568-1.109-.483-1.655.363-.201,1.002-.286,1.161-.697.124-.383.172-.944.332-1.281.291-.545.977-.393,1.315.115.32.364.552.692.759.719.688.074,2.097-.446,1.973.737-.035.388-.809,1.115-.655,1.565.111.426.704,1.22.388,1.7l-.085.103Z"/>
        <path d="M14.527,10.011c-.834.077-1.037-1.316-1.867-1.228-.62.079-1.838.252-1.676-.739.04-.386.825-1.098.678-1.549-.206-.56-.971-1.859.167-1.975.364-.016,1.176.311,1.43.257.597-.151,1.275-1.303,1.821-.914.335.177.414.492.431.882.033.385.029.769.116.927.171.362,1.082.655,1.273.944.277.295.159.837-.201,1.016-.402.275-1.271.302-1.382.913-.148.505-.145,1.216-.659,1.435l-.129.031Z"/>
        <path d="M34.427,31.353c-.779.307-1.365-.976-2.137-.659-.585.243-1.682.772-1.816-.242-.07-.383.482-1.288.214-1.68-.354-.48-1.456-1.516-.397-1.948.345-.118,1.216-.03,1.443-.152.531-.312.855-1.611,1.489-1.389.67.078.733,1.263,1.034,1.587.266.301,1.222.327,1.487.552.348.207.389.761.094,1.034-.309.378-1.134.647-1.068,1.265,0,.527.204,1.21-.228,1.566l-.115.066Z"/>
        <path d="M7.752,14.445c-.875-.069-1.301-.975-1.131-1.806-.018-.877-.381-1.524-1.086-2.277-1.262-.947-.11-2.885,1.26-2.233,1.675.826,3.913,5.957,1.046,6.317l-.089-.002Z"/>
        <path d="M30.545,35.877c-.735-.084-1.343-1.04-2.007-1.268-.934-.612-2.32.246-2.93-.913-.825-2.081,2.048-2.171,3.344-1.667,1,.407,2.797,1.208,2.993,2.577.051.682-.676,1.326-1.294,1.278l-.106-.007Z"/>
        <path d="M24.114,17.736c-.768-.018-1.462-1.161-.942-1.896,2.182-2.04,6.362-2.523,8.986-1.871,1.855.83.649,3.042-1.185,2.343-1.986-.288-4.331.24-6.054,1.241-.202.086-.451.17-.672.189l-.134-.006Z"/>
      </g>
    </g>
  </g>
</svg>