<?xml version="1.0" encoding="UTF-8"?>
<svg xmlns="http://www.w3.org/2000/svg" version="1.1" viewBox="0 0 39.685 39.685">
  <!-- Generator: Adobe Illustrator 28.7.10, SVG Export Plug-In . SVG Version: 1.2.0 Build 236)  -->
  <g>
    <g id="Layer_1">
      <path d="M19.845,36.479c-.047,0-.094,0-.141-.003-1.018-.034-1.948-.452-2.766-1.243l-.299-.285c-.4-.382-.799-.764-1.178-1.167-.112-.121-.118-.119-.265-.089-.426.086-.858.142-1.291.195-.285.036-.57.071-.853.119-1.058.179-2.117-.069-2.983-.698-.886-.645-1.464-1.62-1.629-2.747-.071-.488-.161-.973-.25-1.457l-.128-.704c-.702-.369-1.396-.734-2.082-1.114-2.012-1.111-2.703-3.257-1.719-5.338l.176-.374c.259-.549.518-1.097.809-1.629.036-.066.043-.098.044-.104,0,0-.008-.037-.05-.114-.308-.565-.582-1.146-.855-1.728l-.129-.275c-.963-2.041-.258-4.228,1.714-5.318.692-.383,1.395-.753,2.098-1.121.044-.262.094-.516.143-.77.081-.416.162-.831.211-1.25.135-1.162.726-2.207,1.622-2.867.914-.673,2.091-.92,3.317-.689.535.099,1.077.171,1.619.243l.354.048,1.592-1.538c.901-.871,1.926-1.297,3.058-1.254,1.014.035,1.944.452,2.764,1.242l.117.113c.472.456.943.911,1.405,1.377.064.065.095.082.096.083.635-.136,1.282-.217,1.929-.297l.421-.053c2.248-.289,4.151,1.145,4.521,3.403.071.433.148.863.225,1.292.055.305.11.61.162.916l.394.208c.583.309,1.167.618,1.744.938,1.341.746,2.069,1.948,2.105,3.476.013.596-.128,1.189-.432,1.816l-.254.531c-.241.506-.483,1.013-.748,1.507-.038.073-.032.104.006.176.319.594.606,1.204.893,1.812l.1.212c.964,2.041.26,4.229-1.712,5.318-.691.383-1.392.751-2.093,1.118-.053.306-.107.608-.162.911-.078.428-.155.856-.225,1.285-.338,2.084-2.049,3.463-4.151,3.468l-.145-.012-.607-.082c-.62-.084-1.301-.177-1.984-.278-.359.344-.716.689-1.073,1.034l-.518.501c-.86.833-1.84,1.255-2.914,1.255ZM15.321,31.177c.747,0,1.405.299,1.963.893.348.371.715.72,1.081,1.069l.308.295c.376.364.72.531,1.116.545.445.008.818-.149,1.232-.552l.517-.499c.397-.385.795-.771,1.195-1.152.506-.484,1.155-.681,1.876-.575.708.106,1.418.203,2.06.29l.531.072c.834-.009,1.433-.528,1.569-1.369.072-.444.152-.888.233-1.33.059-.327.118-.653.174-.98.125-.735.545-1.31,1.214-1.66.709-.372,1.418-.744,2.117-1.131.825-.456,1.065-1.207.661-2.062h0s-.101-.215-.101-.215c-.268-.569-.536-1.141-.833-1.694-.456-.847-.458-1.703-.006-2.543.247-.458.469-.927.693-1.397l.262-.546c.127-.262.187-.481.183-.67-.015-.631-.261-1.035-.822-1.347-.562-.312-1.129-.613-1.697-.913l-.502-.266c-.635-.337-1.05-.914-1.168-1.623-.057-.332-.117-.667-.177-1.003-.08-.443-.159-.887-.232-1.332-.153-.935-.821-1.44-1.738-1.326l-.429.054c-.597.074-1.194.148-1.785.257-.882.163-1.663-.094-2.325-.766-.446-.45-.905-.893-1.364-1.336l-.116-.112c-.375-.361-.719-.529-1.113-.542-.298-.014-.708.043-1.235.552l-1.707,1.649c-.495.474-1.123.686-1.775.594l-.531-.072c-.585-.078-1.169-.156-1.749-.263-.546-.103-1.02-.017-1.375.245-.344.254-.565.66-.621,1.143-.056.481-.147.959-.24,1.436-.05.259-.1.518-.143.777-.124.752-.546,1.339-1.222,1.695-.712.372-1.42.745-2.119,1.131-.825.456-1.067,1.208-.664,2.063l.131.277c.253.538.505,1.075.789,1.597.475.87.477,1.75.004,2.612-.266.487-.503.991-.74,1.495l-.179.379c-.413.874-.175,1.613.67,2.08.7.388,1.408.759,2.114,1.13.663.349,1.076.914,1.202,1.638l.142.782c.096.517.191,1.034.267,1.554.085.582.387.911.625,1.084.317.231.704.321,1.095.256.319-.054.639-.095.959-.135.371-.046.741-.092,1.105-.165.213-.044.42-.065.62-.065ZM15.521,6.026h.003s-.002,0-.003,0ZM18.294,16.206c0,1.782-.45,4.429-3.511,4.429-3.223,0-3.529-3.007-3.529-4.195,0-1.8.468-4.429,3.529-4.429,3.223,0,3.511,3.007,3.511,4.195ZM14.045,16.313c0,2.035.306,2.359.738,2.359.414,0,.738-.288.738-2.359,0-2.035-.324-2.359-.738-2.359s-.738.306-.738,2.359ZM22.471,12.623c.198-.36.594-.612,1.026-.612.702,0,1.224.54,1.224,1.242,0,.271-.126.486-.162.576l-7.329,13.251c-.198.342-.612.595-1.044.595-.685,0-1.225-.522-1.225-1.242,0-.234.09-.396.18-.559l7.328-13.251ZM28.431,23.245c0,1.783-.45,4.43-3.511,4.43-3.223,0-3.529-2.989-3.529-4.178,0-1.8.468-4.429,3.529-4.429,3.205,0,3.511,2.988,3.511,4.177ZM24.164,23.371c0,2.035.324,2.359.756,2.359.414,0,.738-.307.738-2.359,0-2.034-.324-2.358-.738-2.358s-.756.288-.756,2.358Z"/>
    </g>
  </g>
</svg>