<?xml version="1.0" encoding="UTF-8"?>
<svg xmlns="http://www.w3.org/2000/svg" version="1.1" viewBox="0 0 39.685 39.685">
  <!-- Generator: Adobe Illustrator 28.7.10, SVG Export Plug-In . SVG Version: 1.2.0 Build 236)  -->
  <g>
    <g id="Layer_1">
      <path d="M32.117,27.582c.82-1.6.62-3.62-.62-5.02l-12.24-13.88c-.24-3.96-3.53-7.1-7.56-7.1-4.18,0-7.58,3.41-7.58,7.59,0,4.01,3.13,7.3,7.08,7.55l14,12.18c.85.74,1.89,1.1,2.94,1.1.78,0,1.57-.2,2.26-.61,1.32,1.21,2.95,2.8,2.63,4.229-.2.89-.88,1.38-1.41,1.63-.9.43-2.02.46-2.75.09-1.02-.5-1.79-1.11-2.6-1.76-.82-.65-1.66-1.32-2.77-1.94-4.25-2.65-10.36-2.43-15.58.55-.59.34-.8,1.11-.46,1.71.34.6,1.11.8,1.71.46,3.36-1.92,8.78-3.23,13.06-.56.99.54,1.71,1.12,2.48,1.73.88.71,1.8,1.43,3.04,2.04.68.35,1.49.53,2.32.53.88,0,1.79-.2,2.61-.59,1.48-.69,2.47-1.89,2.79-3.35.61-2.77-1.65-5.03-3.35-6.58ZM6.617,9.172c0-2.81,2.28-5.09,5.08-5.09,1.07,0,2.06.33,2.88.9l-7.14,6.96c-.52-.8-.82-1.75-.82-2.77ZM11.697,14.252c-.88,0-1.7-.22-2.42-.61l6.95-6.78c.36.69.56,1.48.56,2.31,0,.17-.01.35-.04.52l-4.65,4.54c-.13.01-.27.02-.4.02ZM14.007,15.862l4.44-4.33,2.49,2.82-4.08,3.98-2.85-2.47ZM29.567,26.893l-.01.01c-.39.4-.9.6-1.42.6-.46,0-.92-.16-1.3-.48l-8.09-7.04,3.84-3.75,7.04,7.98c.67.77.65,1.94-.06,2.68Z"/>
    </g>
  </g>
</svg>