<?xml version="1.0" encoding="UTF-8"?>
<svg xmlns="http://www.w3.org/2000/svg" version="1.1" viewBox="0 0 39.685 39.685">
  <!-- Generator: Adobe Illustrator 28.7.10, SVG Export Plug-In . SVG Version: 1.2.0 Build 236)  -->
  <g>
    <g id="Layer_1">
      <g>
        <path d="M18.033,32.499s0,0,.001,0c0,0,0,0-.001,0Z"/>
        <g>
          <path d="M29.19,9.345s0,0,0,.001c0,0,0,0,0-.001Z"/>
          <g>
            <path d="M35.56,20.606c-1.29-3.21-3.57-4.41-6.07-4.62,1.85-1.63,2.96-3.92,2.13-7.24-.29-1.19-1.47-1.96-2.68-1.75l-.32.05-.04-.33c-.18-1.2-1.29-2.08-2.49-1.99-3.44.24-5.28,2.03-6.24,4.32-.97-2.29-2.82-4.08-6.26-4.32-1.21-.08-2.31.79-2.49,2l-.04.32-.33-.06c-1.2-.21-2.37.57-2.66,1.75-.83,3.32.28,5.61,2.13,7.25-2.5.21-4.79,1.41-6.08,4.62-.46,1.13.03,2.44,1.14,2.99l.29.14-.16.29c-.57,1.09-.2,2.44.84,3.08,1.42.88,2.75,1.25,3.98,1.25,1.34,0,2.57-.43,3.69-1.11-.55,2.43-.12,4.96,2.52,7.17.94.79,2.34.72,3.2-.16l.22-.23.23.24c.46.46,1.07.7,1.68.7.53,0,1.07-.18,1.51-.55,2.64-2.21,3.08-4.74,2.53-7.17,1.12.69,2.35,1.12,3.68,1.12,1.24,0,2.57-.37,3.98-1.26,1.04-.64,1.41-2,.84-3.09l-.15-.28.3-.15c1.09-.54,1.59-1.85,1.12-2.98ZM26.12,7.226l.2,1.45c.05.34.23.64.51.84.27.2.62.28.95.22l1.44-.26c.76,3.25-.8,5.17-6.02,7.07-.48-.64-1.16-1.14-1.93-1.41.19-5.54,1.53-7.63,4.85-7.91ZM19.84,17.386c.97,0,1.76.79,1.76,1.76s-.79,1.76-1.76,1.76c-.83,0-1.56-.59-1.72-1.41-.03-.11-.04-.23-.04-.35,0-.97.79-1.76,1.76-1.76ZM10.46,9.476l1.44.26c.34.07.68-.02.96-.22.27-.2.45-.5.5-.84l.2-1.45c3.32.28,4.67,2.37,4.85,7.91-.77.27-1.44.76-1.93,1.4-5.21-1.88-6.78-3.8-6.02-7.06ZM7.67,25.056l.69-1.29c.17-.3.2-.65.09-.98-.1-.32-.34-.59-.64-.73l-1.32-.64c1.3-3.09,3.71-3.71,9.1-2.15,0,.25.03.49.08.73.11.54.32,1.03.61,1.47-3.42,4.41-5.75,5.32-8.61,3.59ZM21.76,32.406l-1.02-1.05c-.47-.49-1.33-.49-1.8,0l-1.01,1.05c-2.51-2.16-2.39-4.63.68-9.19.39.13.81.19,1.23.19.43,0,.85-.06,1.24-.18,3.07,4.55,3.19,7.02.68,9.18ZM31.32,23.766l.69,1.29c-2.86,1.73-5.18.82-8.6-3.59.41-.64.67-1.39.68-2.2,5.39-1.57,7.81-.94,9.1,2.15l-1.31.64c-.31.14-.54.41-.65.73-.1.33-.07.68.09.98Z"/>
            <path d="M10.497,9.337s0,0,0,.002c0,0,0-.001,0-.002Z"/>
          </g>
        </g>
        <g>
          <path d="M32.129,24.983s0,0,0,0c0,0,0,0,0,0Z"/>
          <path d="M7.549,24.979s0,0,.001,0c0,0,0,0-.001,0Z"/>
        </g>
      </g>
    </g>
  </g>
</svg>