<?xml version="1.0" encoding="UTF-8"?>
<svg xmlns="http://www.w3.org/2000/svg" version="1.1" viewBox="0 0 39.685 39.685">
  <!-- Generator: Adobe Illustrator 28.7.10, SVG Export Plug-In . SVG Version: 1.2.0 Build 236)  -->
  <g>
    <g id="Layer_1">
      <path d="M19.843,10.465c-.69,0-1.25-.56-1.25-1.25V3.517c0-.69.56-1.25,1.25-1.25s1.25.56,1.25,1.25v5.698c0,.69-.56,1.25-1.25,1.25ZM21.093,36.168v-5.698c0-.69-.56-1.25-1.25-1.25s-1.25.56-1.25,1.25v5.698c0,.69.56,1.25,1.25,1.25s1.25-.56,1.25-1.25ZM9.182,32.27l4.029-4.028c.488-.488.488-1.279,0-1.768s-1.279-.488-1.768,0l-4.029,4.028c-.488.488-.488,1.279,0,1.768.244.244.564.366.884.366s.64-.122.884-.366ZM28.241,13.211l4.029-4.029c.488-.488.488-1.279,0-1.768s-1.279-.488-1.768,0l-4.029,4.029c-.488.488-.488,1.279,0,1.768.244.244.564.366.884.366s.64-.122.884-.366ZM10.465,19.843c0-.69-.56-1.25-1.25-1.25H3.517c-.69,0-1.25.56-1.25,1.25s.56,1.25,1.25,1.25h5.698c.69,0,1.25-.56,1.25-1.25ZM37.418,19.843c0-.69-.56-1.25-1.25-1.25h-5.698c-.69,0-1.25.56-1.25,1.25s.56,1.25,1.25,1.25h5.698c.69,0,1.25-.56,1.25-1.25ZM13.211,13.211c.488-.488.488-1.279,0-1.768l-4.029-4.029c-.488-.488-1.279-.488-1.768,0s-.488,1.279,0,1.768l4.029,4.029c.244.244.564.366.884.366s.64-.122.884-.366ZM32.27,32.27c.488-.488.488-1.279,0-1.768l-4.029-4.028c-.488-.488-1.279-.488-1.768,0s-.488,1.279,0,1.768l4.029,4.028c.244.244.564.366.884.366s.64-.122.884-.366ZM26.906,19.843c0-3.895-3.169-7.064-7.064-7.064s-7.064,3.169-7.064,7.064,3.169,7.064,7.064,7.064,7.064-3.169,7.064-7.064ZM24.406,19.843c0,2.516-2.047,4.564-4.564,4.564s-4.564-2.048-4.564-4.564,2.047-4.564,4.564-4.564,4.564,2.047,4.564,4.564Z"/>
    </g>
  </g>
</svg>