<?xml version="1.0" encoding="UTF-8"?>
<svg xmlns="http://www.w3.org/2000/svg" version="1.1" viewBox="0 0 39.685 39.685">
  <!-- Generator: Adobe Illustrator 28.7.10, SVG Export Plug-In . SVG Version: 1.2.0 Build 236)  -->
  <g>
    <g id="Layer_1">
      <path d="M36.11,29.347c-.23.41-.65.63-1.08.63-.22,0-.43-.05-.63-.17l-4.56-2.63.76,2.8c.17.67-.22,1.36-.89,1.54-.11.02-.21.04-.32.04-.55,0-1.06-.37-1.21-.93l-1.4-5.22-5.48-3.16v6.43l3.82,3.81c.49.49.49,1.28,0,1.77-.24.24-.56.37-.88.37s-.64-.13-.89-.37l-2.05-2.05v5.17c0,.69-.56,1.25-1.25,1.25s-1.25-.56-1.25-1.25v-5.55l-2.33,2.34c-.49.479-1.28.479-1.77,0-.49-.49-.49-1.28,0-1.771l4.1-4.1v-6.54l-5.76,3.31-1.51,5.59c-.15.56-.65.92-1.2.92-.11,0-.22-.01-.33-.04-.67-.18-1.06-.87-.88-1.53l.86-3.18-4.72,2.71c-.2.11-.41.16-.62.16-.44,0-.86-.22-1.09-.63-.34-.6-.14-1.36.46-1.7l4.57-2.62-2.81-.76c-.66-.18-1.06-.87-.88-1.53.18-.67.87-1.06,1.54-.88l5.21,1.41,5.48-3.15-5.56-3.21-5.21,1.4c-.11.03-.22.04-.32.04-.56,0-1.06-.37-1.21-.93-.18-.66.22-1.35.88-1.53l2.81-.75-4.48-2.58c-.6-.35-.8-1.11-.46-1.71.35-.6,1.11-.8,1.71-.46l4.8,2.771-.85-3.18c-.18-.67.21-1.35.88-1.53.67-.18,1.35.21,1.53.88l1.5,5.6,5.66,3.271v-6.63l-4.1-4.1c-.49-.49-.49-1.28,0-1.77.49-.49,1.28-.49,1.77,0l2.33,2.33V2.307c0-.69.56-1.25,1.25-1.25s1.25.56,1.25,1.25v5.26l2.05-2.05c.49-.49,1.28-.49,1.77,0,.49.48.49,1.28,0,1.76l-3.82,3.83v6.33l5.58-3.2,1.41-5.22c.18-.66.87-1.06,1.53-.88.67.18,1.06.87.88,1.54l-.76,2.8,4.49-2.58c.59-.34,1.36-.13,1.7.47.35.59.14,1.36-.46,1.7l-4.81,2.76,3.19.86c.67.18,1.06.87.88,1.54-.15.55-.66.92-1.21.92-.11,0-.21-.01-.32-.04l-5.6-1.52-5.66,3.26,5.73,3.31,5.6-1.5c.67-.18,1.35.21,1.53.88s-.21,1.35-.88,1.53l-3.19.86,4.72,2.72c.6.34.8,1.11.46,1.7Z"/>
    </g>
  </g>
</svg>