<?xml version="1.0" encoding="UTF-8"?>
<svg id="Layer_1" data-name="Layer 1" xmlns="http://www.w3.org/2000/svg" viewBox="0 0 340.81 101.97">
  <defs>
    <style>
      .cls-1 {
        fill-rule: evenodd;
      }

      .cls-1, .cls-2 {
        fill: #333;
      }

      .cls-3 {
        fill: #eee;
      }
    </style>
  </defs>
  <path class="cls-2" d="M0,51.02c.02,28.16,24.11,50.97,53.81,50.95l-.06-101.97C24.05.02-.02,22.86,0,51.02"/>
  <path class="cls-2" d="M107.44,50.95C107.43,22.8,83.34-.02,53.64,0l.06,101.97c29.7-.02,53.76-22.86,53.75-51.01"/>
  <path class="cls-3" d="M2.27,51.01c.01,26.97,23.09,48.82,51.54,48.8l-.06-97.67C25.3,2.17,2.25,24.04,2.27,51.01"/>
  <path class="cls-3" d="M105.18,50.96c-.01-26.97-23.09-48.82-51.54-48.8l.06,97.67c28.45-.02,51.5-21.89,51.48-48.86"/>
  <path class="cls-2" d="M99.7,50.96s-.36.04-1.03.1c-.67.06-1.66.16-2.92.25-1.26.1-2.79.22-4.54.33-1.75.12-3.73.25-5.89.35-2.16.11-4.5.24-6.97.31-2.47.09-5.08.2-7.78.25-2.7.07-5.48.12-8.32.16-2.83.04-5.71.05-8.59.06-2.88,0-5.75,0-8.59-.05-2.83-.02-5.62-.08-8.32-.14-2.7-.06-5.3-.16-7.78-.25-2.47-.08-4.81-.19-6.97-.3-2.16-.1-4.13-.22-5.89-.34-1.75-.1-3.28-.23-4.54-.33-1.26-.09-2.25-.2-2.92-.25-.67-.07-1.03-.1-1.03-.1,0,0,.36-.04,1.03-.1.67-.06,1.66-.16,2.92-.26,1.26-.1,2.79-.23,4.54-.33,1.75-.12,3.73-.25,5.89-.35,2.16-.11,4.5-.23,6.97-.31,2.47-.09,5.08-.2,7.78-.26,2.7-.06,5.48-.13,8.32-.15,2.83-.04,5.71-.05,8.59-.06,2.88,0,5.75.01,8.59.05,2.83.03,5.62.08,8.32.15,2.7.06,5.3.16,7.78.25,2.47.08,4.81.19,6.97.3,2.16.1,4.14.23,5.89.34,1.75.1,3.28.23,4.54.32,1.26.09,2.25.19,2.92.25.67.07,1.03.1,1.03.1"/>
  <path class="cls-2" d="M87.66,19.94s-.23.16-.65.46c-.43.29-1.05.74-1.86,1.28-.81.53-1.87,1.09-3.07,1.76-.15.08-.31.17-.46.25-.16.07-.32.15-.49.22-.33.15-.67.31-1.02.47-.7.31-1.43.66-2.22.97-.79.29-1.62.59-2.47.9-.21.08-.43.15-.65.23l-.33.12-.37.11c-.44.13-.89.25-1.35.38-.92.25-1.86.51-2.82.78-.98.24-2.02.41-3.07.62-2.1.46-4.26.67-6.47.92-1.1.15-2.22.18-3.34.22-1.14.04-2.28.08-3.43.12-1.1-.04-2.21-.08-3.31-.12-1.1-.04-2.18-.07-3.31-.21-2.23-.24-4.43-.46-6.49-.91-1.04-.21-2.06-.37-3.05-.61-.98-.27-1.94-.53-2.87-.79-.46-.13-.92-.26-1.38-.39l-.17-.05-.08-.02-.08-.02h-.04s-.32-.13-.32-.13c-.21-.08-.43-.15-.64-.23-.84-.31-1.65-.6-2.43-.89-.78-.31-1.53-.66-2.23-.98-.35-.16-.69-.32-1.03-.47-.17-.08-.33-.15-.49-.22-.16-.08-.31-.17-.46-.25-1.2-.67-2.25-1.22-3.07-1.75-.82-.54-1.44-.99-1.87-1.28-.42-.3-.65-.46-.65-.46,0,0,.26.1.75.28.48.19,1.2.45,2.09.82.44.2.96.33,1.51.52.55.18,1.14.38,1.77.59.62.23,1.32.38,2.03.59.72.19,1.44.43,2.24.62.81.18,1.65.38,2.52.58.22.05.44.1.66.15l.33.08.3.05c.45.08.9.15,1.36.23.92.17,1.86.33,2.82.51.97.14,1.96.25,2.97.38.5.06,1.01.13,1.52.19.26.03.51.07.77.1l.77.05c1.03.07,2.07.14,3.12.23,1.03.12,2.14.1,3.24.13,1.1.03,2.2.06,3.31.09,1.06-.03,2.12-.06,3.18-.09,1.08-.04,2.15-.02,3.21-.13,1.06-.09,2.11-.16,3.15-.24l.78-.05c.26-.03.51-.07.76-.1.51-.07,1.01-.13,1.5-.19,1-.13,1.97-.23,2.95-.37.98-.18,1.94-.35,2.88-.52.47-.08.93-.16,1.38-.24l.3-.05.33-.08c.22-.05.43-.1.64-.15.86-.2,1.69-.39,2.48-.57.79-.19,1.53-.43,2.26-.63.71-.21,1.42-.36,2.03-.59.63-.21,1.22-.41,1.76-.59.55-.19,1.06-.32,1.51-.52.9-.37,1.61-.64,2.1-.83.49-.18.75-.28.75-.28"/>
  <path class="cls-2" d="M53.69,97.02s-.04-.36-.1-1.03c-.06-.68-.16-1.66-.25-2.92-.1-1.26-.23-2.79-.33-4.54-.12-1.75-.25-3.73-.35-5.89-.11-2.16-.24-4.49-.31-6.97-.09-2.47-.2-5.08-.26-7.78-.07-2.7-.12-5.48-.16-8.31-.04-2.83-.05-5.71-.06-8.59,0-2.88,0-5.75.05-8.59.02-2.83.08-5.62.14-8.32.06-2.7.16-5.3.25-7.78.08-2.47.19-4.81.31-6.97.1-2.16.22-4.14.34-5.89.1-1.75.23-3.28.33-4.54.09-1.26.2-2.25.25-2.92.07-.67.1-1.03.1-1.03,0,0,.04.36.1,1.03.06.67.16,1.66.25,2.92.1,1.26.23,2.79.33,4.54.12,1.75.25,3.73.35,5.89.11,2.16.23,4.49.31,6.97.09,2.47.2,5.08.25,7.78.07,2.7.13,5.48.15,8.32.04,2.83.05,5.71.06,8.59,0,2.88-.01,5.75-.05,8.59-.03,2.83-.08,5.62-.15,8.32-.06,2.7-.16,5.3-.25,7.78-.07,2.47-.19,4.81-.31,6.97-.1,2.16-.22,4.13-.34,5.89-.1,1.75-.23,3.28-.32,4.54-.09,1.26-.19,2.25-.25,2.92-.07.67-.1,1.03-.1,1.03"/>
  <path class="cls-2" d="M53.64,4.95s-.56.05-1.62.15c-.26.02-.56.05-.89.07-.32.05-.67.1-1.05.15-.38.05-.78.11-1.22.17-.43.06-.89.16-1.37.25-1.93.33-4.25.93-6.82,1.8-2.57.88-5.38,2.11-8.25,3.77-2.87,1.66-5.77,3.79-8.55,6.35-1.35,1.32-2.71,2.69-3.96,4.24l-.49.59-.45.59c-.29.4-.6.77-.9,1.18-.58.82-1.17,1.65-1.7,2.52-2.21,3.45-3.92,7.35-5.15,11.44-.6,2.05-1.07,4.16-1.37,6.31-.29,2.15-.43,4.32-.44,6.49l.03,1.65c0,.58.05,1.09.09,1.62.05,1.05.2,2.14.33,3.21.31,2.14.78,4.25,1.38,6.31,1.24,4.09,2.96,7.99,5.17,11.44.53.87,1.13,1.7,1.71,2.52.29.41.61.8.91,1.19.3.4.61.79.93,1.16.31.37.64.79.93,1.1.34.37.68.74,1.02,1.11.34.38.67.7,1.01,1.03.34.33.67.66,1,.99,2.78,2.55,5.69,4.67,8.55,6.34,2.87,1.65,5.68,2.88,8.25,3.76,2.57.87,4.88,1.46,6.82,1.79.48.08.94.18,1.37.24.43.06.84.12,1.22.17.38.05.73.1,1.05.15.32.03.62.05.88.07,1.06.1,1.62.15,1.62.15,0,0-.57.02-1.63.06-.26,0-.56.02-.89.03-.33,0-.68-.01-1.07-.02-.39,0-.8-.02-1.24-.03-.44-.02-.91-.07-1.41-.11-1.99-.14-4.4-.5-7.11-1.19-2.71-.68-5.73-1.71-8.83-3.26-3.11-1.53-6.31-3.56-9.36-6.15-.38-.34-.76-.68-1.14-1.02-.38-.34-.77-.69-1.11-1.04-.35-.35-.71-.7-1.07-1.06-.41-.41-.72-.77-1.09-1.17-1.42-1.55-2.74-3.26-3.96-5.08-1.22-1.82-2.36-3.74-3.33-5.79-.98-2.03-1.85-4.16-2.51-6.37-.67-2.21-1.2-4.48-1.55-6.79-.15-1.16-.32-2.31-.39-3.51-.04-.59-.1-1.21-.11-1.76l-.05-1.74c.03-2.35.2-4.69.54-7,.35-2.31.88-4.58,1.55-6.79.65-2.22,1.53-4.34,2.5-6.38.97-2.04,2.1-3.97,3.32-5.79.6-.92,1.25-1.79,1.9-2.64.33-.43.68-.85,1.03-1.26l.52-.62.52-.57c1.39-1.57,2.9-2.97,4.4-4.29,3.04-2.6,6.25-4.63,9.35-6.17,3.1-1.56,6.11-2.58,8.82-3.27,2.71-.69,5.12-1.05,7.11-1.2.5-.04.97-.09,1.41-.11.44-.01.86-.02,1.25-.03.39,0,.74-.02,1.07-.02.33.01.62.02.89.03,1.06.04,1.63.06,1.63.06"/>
  <path class="cls-2" d="M53.69,97.02s.44-.06,1.27-.18c.1-.01.21-.03.33-.04.11-.03.23-.06.35-.09.24-.06.51-.13.8-.21.29-.06.59-.18.9-.3.32-.12.66-.23,1.01-.38,1.39-.62,2.95-1.62,4.52-3,1.57-1.39,3.1-3.2,4.54-5.35,1.42-2.15,2.71-4.66,3.85-7.39.27-.69.56-1.38.82-2.1.24-.71.52-1.47.74-2.16.23-.77.46-1.54.7-2.32.22-.77.4-1.54.6-2.32.76-3.14,1.36-6.46,1.75-9.85.17-1.7.35-3.41.42-5.14.04-.86.12-1.73.11-2.6l.04-2.57c-.02-3.6-.22-6.95-.59-10.37-.4-3.39-1-6.7-1.77-9.85-.21-.78-.39-1.57-.61-2.34-.23-.76-.46-1.52-.68-2.26l-.07-.25-.1-.28-.19-.56c-.13-.37-.26-.74-.39-1.11-.26-.73-.55-1.4-.81-2.09-1.14-2.73-2.44-5.23-3.86-7.38-1.43-2.14-2.97-3.95-4.54-5.34-1.57-1.38-3.13-2.37-4.52-2.99-.35-.15-.69-.26-1-.39-.32-.12-.61-.24-.9-.3-.29-.07-.56-.14-.8-.21-.12-.03-.24-.06-.35-.09-.11-.02-.22-.03-.32-.04-.82-.12-1.26-.18-1.26-.18,0,0,.45-.01,1.28-.03.84.02,2.08.13,3.61.57,1.52.46,3.31,1.28,5.12,2.59,1.82,1.29,3.66,3.05,5.35,5.21,1.7,2.15,3.28,4.68,4.64,7.5.32.71.69,1.45,1,2.17.15.36.3.72.45,1.09l.23.55.11.28.12.32c.28.77.56,1.55.84,2.34.26.79.49,1.6.74,2.42.26.81.45,1.65.66,2.48.1.42.21.84.31,1.26.1.42.18.85.27,1.28.16.86.37,1.72.5,2.59.13.87.27,1.75.4,2.63.47,3.5.69,7.24.72,10.73l-.06,2.75c0,.9-.08,1.8-.13,2.7-.08,1.8-.32,3.58-.52,5.35-.13.88-.27,1.76-.4,2.63-.14.87-.34,1.73-.5,2.59-.09.43-.16.86-.26,1.28-.1.42-.21.84-.31,1.26-.21.84-.4,1.67-.67,2.49.29,1.18-.15,1.7-.42,2.49-.28.77-.54,1.56-.81,2.31-.31.82-.47,1.48-.95,2.34-.31.74-.8,1.76-1.12,2.47-1.35,2.82-2.09,4.51-3.79,6.66-1.68,2.16-4.54,4.31-6.36,5.61-1.81,1.31-3.6,2.13-5.12,2.59-1.53.44-2.79.56-3.62.57-.83-.02-1.28-.02-1.28-.02"/>
  <path class="cls-2" d="M53.64,4.95s-.44.06-1.27.18c-.1.01-.21.03-.33.05-.11.03-.23.06-.35.09-.24.06-.51.13-.8.21-.29.06-.58.18-.9.3-.32.12-.66.23-1,.39-1.39.62-2.95,1.61-4.52,3-1.57,1.39-3.11,3.2-4.54,5.35-1.42,2.15-2.71,4.66-3.85,7.39-.27.69-.56,1.39-.82,2.1-.24.71-.52,1.47-.74,2.17-.23.77-.46,1.54-.7,2.32-.22.78-.4,1.54-.6,2.32-.7,2.9-.74,6.7-1.6,9.77-.14.5-.21,1.01-.21,1.53,0,3.26-.51,5.67-.52,8.89.02,3.53.22,6.93.59,10.34.4,3.39,1,6.7,1.77,9.86.21.78.39,1.57.61,2.34.23.76.46,1.52.68,2.26l.07.25.1.28.2.56c.13.37.26.75.39,1.11.26.73.55,1.4.81,2.09,1.14,2.73,5.05,3.97,6.47,6.12,1.43,2.15.36,5.22,1.93,6.61,1.57,1.38,3.13,2.37,4.52,2.99.35.15.69.26,1,.38.32.12.61.24.9.3.29.07.56.14.8.21.12.03.24.06.35.09.11.02.22.03.32.05.82.11,1.26.18,1.26.18,0,0-.45,0-1.28.03-.84-.02-2.08-.13-3.61-.57-1.52-.46-3.31-1.28-5.12-2.59-1.82-1.29-3.66-3.05-5.35-5.21-1.7-2.15-3.28-4.68-4.64-7.5-.32-.71-.69-1.45-1-2.17-.15-.36-.3-.73-.45-1.09l-.23-.55-.11-.28-.11-.32c-.28-.77-.56-1.55-.84-2.34-.26-.79-.49-1.61-.74-2.42-.26-.81-.46-1.65-.67-2.48-.1-.42-.21-.84-.31-1.26-.1-.42-.18-.85-.27-1.28-.17-.86-.37-1.72-.5-2.59-.13-.87-.27-1.75-.4-2.63-.47-3.52-.69-7.2-.73-10.77.03-3.62.25-7.23.72-10.77.13-.88.27-1.76.4-2.63.14-.87.34-1.73.5-2.59.09-.43.16-.86.26-1.28.1-.42.21-.84.31-1.26.21-.84.4-1.67.67-2.49.25-.82.49-1.65.75-2.44.28-.77.55-1.53.82-2.28.31-.82.62-1.53.93-2.28.31-.74.66-1.45.99-2.16,1.35-2.82,2.93-5.35,4.62-7.5,1.68-2.16,3.53-3.92,5.34-5.22,1.81-1.31,3.6-2.13,5.12-2.6,1.53-.44,2.79-.55,3.62-.57.83.02,1.28.03,1.28.03"/>
  <path class="cls-2" d="M55.29,97.07c-.13,0-.13-.19,0-.2.01,0,.02,0,.03,0,.26-.02.56-.05.88-.07,0,0,0,0,0,0,.32-.04.67-.09,1.05-.15.38-.05.78-.11,1.22-.17.43-.06.89-.16,1.37-.25,1.93-.33,4.25-.93,6.82-1.8,2.57-.88,5.37-2.11,8.25-3.77,2.87-1.66,5.77-3.79,8.55-6.35,1.35-1.32,2.71-2.69,3.96-4.24l.49-.59.45-.59c.29-.4.6-.77.9-1.18.58-.82,1.17-1.65,1.71-2.52,2.21-3.45,3.92-7.35,5.15-11.44.6-2.05,1.07-4.16,1.37-6.31.13-1.07.28-2.15.33-3.24.03-.54.09-1.08.08-1.62l.03-1.59c-.02-2.32-.16-4.35-.45-6.53-.31-2.14-.78-4.25-1.38-6.31-1.24-4.09-2.96-7.99-5.17-11.43-.54-.87-1.13-1.7-1.71-2.52-.29-.41-.61-.8-.91-1.19-.29-.4-.61-.79-.93-1.16-.31-.37-.64-.79-.93-1.1-.34-.37-.68-.74-1.02-1.11-.34-.38-.67-.7-1.01-1.03-.34-.33-.67-.66-1-.98-2.77-2.55-5.43-4.97-8.55-6.33,0,0,0,0,0,0-2.87-1.65-5.68-2.88-8.25-3.76-2.57-.87-4.88-1.46-6.82-1.79-.48-.09-.94-.18-1.37-.25-.44-.06-.84-.12-1.22-.17-.38-.05-.73-.1-1.05-.15h0c-.32-.03-.62-.05-.88-.07-.01,0-.03,0-.04,0-.12-.01-.12-.2,0-.2.01,0,.03,0,.04,0,.26,0,.56-.02.89-.03h0c.33,0,.69.01,1.07.02.39,0,.8.02,1.25.03.44.02.91.07,1.41.11,1.99.14,4.4.5,7.11,1.19,2.71.68,8.2,2.43,11.3,3.98,0,0,0,0,.01,0,3.12,2.02,3.84,2.84,6.88,5.43.38.34.76.68,1.14,1.02.38.34.78.69,1.12,1.04.35.35.71.71,1.07,1.06.41.41.72.78,1.09,1.17,1.42,1.55,2.74,3.26,3.96,5.08,1.22,1.82,2.36,3.74,3.33,5.79.98,2.03,1.86,4.16,2.51,6.37.66,2.21,1.49,4.1,1.84,6.41.34,2.28.23,5.14.25,7.34l-.05,1.8c0,.59-.07,1.17-.11,1.76-.07,1.17-.24,2.33-.39,3.49-.35,2.31-.88,4.58-1.54,6.79-.65,2.22-1.38,5.2-2.35,7.23-.97,2.04-2.26,3.11-3.47,4.93-.6.92-1.25,1.78-1.9,2.64-.33.43-.68.85-1.02,1.26l-.52.62-.52.57c-1.39,1.57-2.9,2.97-4.4,4.29-3.04,2.6-6.25,4.63-9.35,6.17-3.1,1.56-6.11,2.58-8.82,3.27-2.71.69-5.12,1.05-7.11,1.2-.5.04-.96.09-1.41.11-.44,0-.86.02-1.25.03-.39,0-.74.02-1.07.02-.33,0-.62-.02-.89-.03-.01,0-.02,0-.03,0"/>
  <path class="cls-2" d="M19.68,82.02s.23-.16.65-.46c.43-.29,1.05-.74,1.86-1.28.81-.53,1.87-1.09,3.07-1.76.15-.08.31-.17.46-.25.16-.07.32-.15.49-.22.33-.15.67-.31,1.02-.47.7-.31,1.43-.66,2.22-.97.79-.29,1.62-.59,2.47-.9.22-.08.43-.15.65-.23l.33-.12.37-.11c.44-.13.89-.25,1.35-.38.92-.25,1.85-.51,2.82-.78.98-.24,2.02-.41,3.06-.62,2.1-.46,4.26-.68,6.47-.92,1.1-.15,2.22-.18,3.34-.22,1.12-.04,2.25-.08,3.37-.12,1.12.04,2.24.08,3.36.12,1.1.04,2.18.07,3.31.21,2.23.24,4.43.46,6.49.9,1.04.21,2.06.37,3.05.61.98.27,1.94.53,2.87.79.47.13.92.26,1.38.39l.17.05.08.02.08.02h.04s.32.13.32.13c.21.08.43.15.64.23.84.31,1.65.6,2.43.89.78.31,1.53.66,2.23.98.35.16.69.32,1.03.47.17.08.33.15.49.23.16.08.31.17.46.25,1.2.67,2.25,1.22,3.07,1.75.82.54,1.44.99,1.87,1.28.42.3.65.46.65.46,0,0-.26-.1-.75-.28-.49-.19-1.2-.46-2.09-.82-.44-.2-.96-.33-1.51-.52-.55-.18-1.14-.38-1.77-.59-.62-.23-1.32-.38-2.03-.59-.72-.19-1.44-.43-2.24-.62-.81-.18-1.65-.38-2.52-.58-.22-.05-.44-.1-.66-.15l-.33-.08-.3-.05c-.45-.08-.9-.15-1.36-.23-.92-.16-1.86-.33-2.82-.51-.97-.14-1.96-.25-2.97-.38-.5-.06-1.01-.13-1.52-.19-.25-.03-.51-.07-.77-.1l-.77-.05c-1.03-.07-2.07-.14-3.12-.23-1.03-.12-2.14-.1-3.24-.13-1.08-.03-2.16-.06-3.25-.09-1.08.03-2.16.06-3.24.09-1.08.04-2.15.02-3.21.13-1.06.09-2.11.16-3.15.24l-.78.05c-.26.03-.51.07-.76.1-.5.07-1.01.13-1.5.19-1,.13-1.97.23-2.95.38-.98.18-1.94.35-2.87.52-.47.08-.93.16-1.38.24l-.3.05-.33.08c-.22.05-.43.1-.65.15-.86.19-1.68.38-2.48.57-.79.19-1.53.43-2.26.63-.71.21-1.42.36-2.03.59-.63.21-1.22.41-1.76.59-.55.19-1.07.32-1.51.52-.89.37-1.61.64-2.1.83-.49.18-.75.28-.75.28"/>
  <path class="cls-2" d="M71.37,20.55c.12-.11.23-.2.35-.3l.31-.28c-.12-.11-.24-.2-.36-.27-.23-.12-.55-.27-.9-.32-.3-.04-.58,0-.86.11-.32-.42-.95-.99-2.05-1.14-.11-.02-.24-.03-.35-.03-2.01-.17-3.73.68-4.86,2.26-2.17,1.21-3.17,3.89-2.87,5.9.25,1.71.87,4.9,2.25,7.05,1.01,1.58,1.6,2.8,1.4,3.91-.11-.03-.19-.08-.24-.17-.02-.03-.05-.04-.08-.04l-.33.05s-.1-.02-.13-.06c-.06-.1-.1-.16-.14-.23-.02-.02-.03-.05-.03-.08-.04-.32,0-.75.35-1.06l-.26-.45c-.6.19-1.58.76-1.68,1.66l-.06-.16c-.7.14-2,1.09-1.6,2.35.4,1.27,1.72,2.11,2.75,2.25.23.03.45.03.65,0,.16-.03.35-.06.56-.11.39.12.77.15,1.1.1.82-.14,2.72-.48,3.4-2.5.29-.49.44-1.04.46-1.65,0-.23,0-.46-.05-.71.07-.27.11-.55.12-.83.03-1.05-.44-2.13-.99-3.39-.68-1.55-1.44-3.3-1.54-5.53,0-.17,0-.33.04-.49.21-.94,1.05-4.16,2.05-4.72-.34.47-.42.91.2,1.63.05.06.1.11.15.16l.93-.83c.74-.76,1.51-1.36,2.29-2.08M61.24,38.68c-.08-.01-.25.03-.43-.45-.01-.03-.02-.06-.02-.1l-.02-.26c-.02-.17.07-.59.14-.68,0,.03.08.48.09.51.03.09.03.17.09.27.09.09.17.68.15.71"/>
  <path class="cls-1" d="M94.54,45.98c-.74-.34-2.89.33-3.09.53-.61.61-1,1.64-.94,2.04.08.78-.8,1.44-4.03,2.75-1.55.62-2.06-.19-2.43-1.44-.93-3.29-.64-3.45-3.23-5.88-1.47-1.37-1.96-1.85-1.08-2.24.09-.04.18-.05.27-.05,1.23.12,3.4-.32,4.9-1.4.05-.03.13-.09.22-.17.3-.23.75-.6.9-.71.01,0,.02-.01.03-.02,4.59-4,1.57-5.86,1.99-10.75.03-.29.32-.42.35-.84l.23-1.23c.09-.99-.06-1.51-.2-1.87-1.88-4.69-6.04-5.83-10.61-5.72-4.25.11-6.37.5-9.68,4.5-.01.01-.02.03-.03.04-1.28,1.83-2.35,4.56-2.4,6.69,0,0,.04,1.85.2,2.75,0,0,0,.03,0,.04.03.12.05.24.07.35,0,.01,0,.03,0,.04.29,1.44.42,2.16,1.41,3.55.14.19.39.47.57.62.98.84,1.64,1.91,3.36,3.05.58.38,1.21.68,1.79.91.49.2.44.9-.07,1.03-5.01,1.21-14.5,3.73-15.1,7.3-.56,3.31-5.41,1.9-4.43,8.63.27,1.79,1.87,1.6,3.31.88,3.29-1.6,1.98-1.82,1.92-4.01-.12-4.01,5.61-6.52,9.41-7.27.44-.09.78.36.6.76-.8,1.75.41,6.66-2.67,10.56-4.11,5.24-9.47,4.12-8.11,4.87,1.68.93,5.39,5.98.93,6.46-3.13.32-2.47-4.48-4.23-5.34-1.15-.56-4.16,3.28-4.53,5.74-.32,2.13-.04,3.3.31,3.9.07.12.48.74.62.77,1.27.29,2.17-1.94,2.69-3.64.14-.46.76-.53.99-.1,1.78,3.28,4.27,5.74,7.46,1.42.8-1.1,3.68-2.48,4.99-1.46,2.61,2.05,10.11,3.12,13.28.63.26-.21.65-.12.81.18.42.8,1.19,2.26,2,3.84,1.23,2.32.11,5.45,1.55,6.3.48.27,3.24.14,5.19-.93,8.03-4.42,1.73-6.75-1.72-4.64-.37.23-.84-.06-.82-.49.08-1.43.14-3.81-.16-5.27-.48-2.22-3.29-3.79-2.11-4.27,1.18-.45,2.62-1.61,1.52-2.01-1.09-.38-6.68-3.87-6.97-6.76-.22-2.13.92-4.8,1.53-6.05.17-.34.62-.41.88-.13,3.38,3.6,6.15,3.39,9.03-1.11.08-.12.2-.2.34-.23.66-.15,2.65-.73,3.44-2.52.51-1.12.37-2.24-.45-2.59"/>
  <path class="cls-1" d="M40.29,62.68c4.65,3.17,3.78,9.69,4.44,15.26.05.48,2.07-1.19,5.04.74,1.84,1.2-11.22,5.79-10.77,2.59.91-6.26-.88-14.63-7.89-16.93-.14-.05-.3.04-.34.18-1.58,6.27-7.6,9.62-13.64,7.33-2.91-1.08-4.65-4.44-5.41-4.25-.34.11-1.7,2.52-1.99,3.74-.26,1.19-2.22,2.46-1.98-2.03.13-2.62,1.06-6.13,2.22-7.77,2.62-3.65,2.99.58,4.65,3.09,1.11,1.69,4.24,2.99,5.96,2.33,2.54-.95,4.51-4.25,4.51-5.3s-.49-2.28,1.4-6.25c1.28-2.7.96-5.25,1.54-6,.15-.19-.02-.46-.25-.42-1.68.28-6.09,1.12-7.64,2.54-1.95,1.74-1.32.87-2.48.42-2.11-.85-1.48,5.94-5.49,2.35-3.04-2.75.98-5.84,2.88-5.78.61.03,2.24-.4,2.77-1.3,2.33-3.99,10.22-3.04,13.9-4.52,1-.4,1.91-1.17,2.34-1.56.13-.11.11-.32-.04-.41-.12-.08-.23-.15-.34-.23-.02-.02-.05-.03-.08-.03-3.21-.8-3.47-.79-5.23-2.35-.21-.19-.33,1.43-1.04.76-.04-.04-1.7-1.14-2.01-4.14-.22-2.16-1.01-5.53.18-9.23,1.36-4.18,4.99-8.04,10.4-9.06.2-.04.37.16.3.35-.02.05-.03.09-.04.14-.06.25.24.43.43.25,1.24-1.13,2.58-1.88,4.25-1.9.23,0,.23.69.08.86-.22.25-.29.56-.24.9.04.27.31.13.51-.05.54-.47,1.62-.16,2.75-.32.44-.06.33.3.16.46,0,0,0,0,0,0-.16.15-.28.34-.06.36,3.71.34.56,3.4,6.56,2.89,1.83-.16,1.51,2.89-1.59,4.7-.08.05-.16.09-.19.18-.99,3.35.72,7.14-.14,10.08-1.4,4.76-5.67,5.67-9.58,5.84-.27.01-.35.36-.11.49,3.68,2.04,1.81,5.07,5.76,8.89,1.22,1.16,2.96,2.4,5.6,3.73,1.48.74.84,1.93,1.66,1.19,5.89-5.28,7.24,6.18,2.06,3.83-.85-.39-1.72-.87-2.43-.63-3.96,1.35-3.45,1.45-8.01-1.32-1.07-.65-2.91-2.37-3.14-3.48-.58-2.99-2.46,5.76-.18,8.8"/>
  <path class="cls-1" d="M163.48,19.68c-.11.3-.09,1.18-.04,1.54.06.08.26.74.34.91.23.55.59,1.09,1,1.47.2.18.43.38.66.54l.06.03c.08.03.07.02.11.07.13.02.27.09.42.14.15.05.31.08.48.11.41.07.68.04,1.07.06.05-.05.06-.03.15-.05.19-.03.37-.12.46-.22.17-.18.17-.13.3-.41.32-.73-.19-.67-.33-.9-.05-.07-.15-.36-.21-.47-.18-.35-.35-.55-.62-.8-.13-.13-.2-.22-.36-.35-.08-.06-.09-.08-.18-.16-.07-.07-.12-.1-.18-.16-.3-.29-1.24-1.08-1.59-1.21-.21-.08-.55-.07-.58-.08-.14-.07-.13-.24-.45-.25-.25,0-.37.13-.52.18"/>
  <path class="cls-1" d="M163.92,17.99c.11.06.05.11.12.27.05.11.1.13.2.19.16.1.54.65,1.08.3.42-.26.21-.21.45-.36.49-.29.59-.31.91-.7.64-.77.43-.85.93-1.49.11-.14.22-.4.34-.47.09-.06.17-.06.26-.14.08-.07.12-.15.19-.23.36-.38.44-.72.96-.42.22.12.72.56,1.11.09.16-.19.2-.27.2-.6l-.02-.26c-.44-.19-1.83-.16-2.42,0-1.06.27-2.28.95-3,1.72-.06.07-.1.11-.16.18-.42.49-.65.81-.95,1.41-.09.17-.13.33-.2.49"/>
  <path class="cls-1" d="M170.94,26.14c-1.17,0-1.52-.02-2.66-.5-.45-.19-1.16-.55-1.59-.8-.14-.08-.39-.24-.53-.28-.08-.03-.01,0-.08-.04,0,0-.05-.05-.05-.05.09,0,.08,0,.14.05.69.16.73.1,1.4,0h0c-.39-.03-.66,0-1.07-.07-.17-.03-.33-.06-.48-.11-.15-.05-.29-.12-.42-.14-.03.02-.1.08-.09,0-.03,0-.03,0-.05-.02,0,0-.01,0-.02-.01,0-.01-.01-.01-.02-.02-.44-.25-.82-.59-1.08-.9-.16-.19-.29-.31-.43-.55-.06-.11-.29-.62-.33-.65.12.74.65,1.56.99,2.05.45.64.8,1.15,1.45,1.56.54.35,1.53.65,2.29.74.93.11,1.82.06,2.64-.24"/>
  <path class="cls-1" d="M163.51,18.13c.06-.05.38-.8.46-.95.9-1.64,2.14-2.63,3.96-3.21,1.06-.34,1.47-.14,2.56-.12-.12-.31-.72-.45-1.03-.49-1.68-.26-3.23.64-4.35,1.73-.23.22-.49.56-.69.86-.32.5-.77,1.49-.91,2.18"/>
  <path class="cls-1" d="M173.14,15.32h.02c-.05-.09-.03-.05-.1-.11-.06-.05-.05-.05-.14-.09.03.04.04.07.09.1.06.04.05.02.13.09"/>
  <path class="cls-1" d="M171.44,14.88c-.1.17-.26.32-.38.48-.26.36-.22.53-.57.78-.13.09-.14.11-.24.21-.37.38-.07.15-.55.35-.8.34-1.07.87-1.25.97-.11.06-.2.09-.29.16-.1.08-.1.15-.18.27-.09.11-.15.1-.21.24-.17.33.03,1.17.19,1.45.11.2.22.36.33.57.13.24.23.28.47.43.69.41.74.12,1.04-.38.09-.15.13-.11.24-.21.27-.22.44-.67.58-.76.15.12.34.28.6.35-.02.21-.2.49-.27,1.07-.06.43,0,.86-.01,1.3-.55-.06-.74-.2-1.16.51-.07.11-.25.25-.4.47-.13.17-.22.38-.27.63-.26,1.27.74,1.82,1.81,1.28.17-.09.67-.38.81-.51.37-.33.34-.39.82-.53.26-.07.35-.23.64-.26.65-.05.87-.28,1.14-.65.14-.18.24-.33.35-.55.08-.17.15-.53.26-.64.27-.36.34-1.44.3-1.98-.08-1.22-.49-2.41-1.09-3.41-.17-.28-.8-1.11-1.02-1.21-.08-.07-.06-.05-.13-.09-.05-.04-.06-.06-.09-.1l-.4-.25c-.12-.07-.28-.16-.43-.2-.11.04-.22.06-.33.1-.11.04-.2.09-.32.12"/>
  <path class="cls-2" d="M255.25,27.23h0c3.1,0,5.61,2.51,5.61,5.61v26.82c0,3.63.43,6.28,1.29,7.95,1.33,2.96,4.24,4.44,8.71,4.44s7.34-1.48,8.67-4.44c.86-1.67,1.29-4.32,1.29-7.95v-26.82c0-3.1,2.51-5.61,5.61-5.61s5.61,2.51,5.61,5.61v26.85c0,5.61-.87,9.98-2.61,13.11-3.24,5.73-9.43,8.6-18.56,8.6s-15.33-2.87-18.6-8.6c-1.74-3.13-2.61-7.5-2.61-13.11v-26.85c0-3.1,2.51-5.61,5.61-5.61"/>
  <path class="cls-2" d="M336.1,57.48c-3.13,2.61-7.61,3.92-13.43,3.92h-5.59c-3.07,0-5.56,2.49-5.56,5.56v8.14c0,3.07-2.49,5.56-5.56,5.56s-5.56-2.49-5.56-5.56v-42.43c0-3.07,2.49-5.56,5.56-5.56h17.43c5.3,0,9.52,1.38,12.68,4.14,3.15,2.76,4.73,7.04,4.73,12.82,0,6.32-1.57,10.79-4.7,13.4M327.57,38.19c-1.42-1.19-3.4-1.78-5.95-1.78h-4.53c-3.07,0-5.56,2.49-5.56,5.56v4.65c0,3.07,2.49,5.56,5.56,5.56h4.53c2.55,0,4.54-.64,5.95-1.93,1.42-1.28,2.12-3.32,2.12-6.1s-.71-4.77-2.12-5.96"/>
  <path class="cls-2" d="M148.16,35.38c-5.9,8.15-10.29,14.83-13.14,20.03l-1.41,2.74-.14.21.07.7c.23,0,.47.02.7.07.51.05,1.22.12,2.11.21.8.1,1.31.14,1.55.14,1.78.33,3.57.74,5.38,1.23,1.8.49,3.24.91,4.32,1.26,1.08.35,2.67.91,4.78,1.69,2.11.77,3.63,1.3,4.57,1.58.47.19.81.49,1.02.91s.23.87.07,1.34c-.16.47-.46.81-.88,1.02s-.87.25-1.34.1l-4.64-1.69-4.64-1.62c-1.03-.38-2.4-.78-4.11-1.23-1.71-.45-3.41-.81-5.1-1.09-.14-.05-.56-.09-1.27-.14-.94-.09-1.66-.16-2.18-.21l-.21-.07c.33,6.65.54,11.5.63,14.55,0,.47-.17.89-.49,1.26-.33.38-.73.56-1.19.56s-.89-.16-1.27-.49c-.38-.33-.56-.73-.56-1.19-.1-2.95-.33-8.13-.7-15.53-.28-.19-.52-.4-.7-.63-.28-.33-.4-.73-.35-1.19,0-.14.02-.28.07-.42.05-.09.09-.21.14-.35.05-.19.14-.42.28-.7l.42-.84c-.14-3.09-.26-5.81-.35-8.15-.05-1.73,0-5.74.14-12.02.09-5.06-.02-8.95-.35-11.67-.05-.47.08-.9.39-1.3.3-.4.69-.62,1.16-.67.47-.05.9.08,1.3.39.4.31.62.69.67,1.16.38,2.91.49,6.96.35,12.16-.14,6.18-.19,10.12-.14,11.81l.07,2.18c2.76-4.78,6.82-10.85,12.16-18.2.28-.37.66-.6,1.12-.67.47-.07.9.04,1.3.32s.63.66.7,1.12c.07.47-.04.91-.32,1.33"/>
  <path class="cls-2" d="M171.22,30.39c1.12,12.18,1.69,28.47,1.69,48.85,0,.47-.18.88-.53,1.23s-.76.53-1.23.53-.88-.17-1.23-.53c-.35-.35-.53-.76-.53-1.23,0-20.43-.56-36.62-1.69-48.57-.05-.47.08-.89.39-1.26.3-.38.7-.59,1.19-.63.49-.05.93.08,1.3.39s.59.71.63,1.23"/>
  <path class="cls-2" d="M203.34,23.71c.14,1.59.23,3.22.28,4.89.05,1.66.05,3.68,0,6.05-.05,2.37-.07,3.92-.07,4.67,0,4.36-.13,16.32-.39,25.05-.26,8.74-.39,9.88-.39,14.24,0,.47-.18.88-.53,1.23-.35.35-.76.53-1.23.53s-.88-.18-1.23-.53c-.35-.35-.53-.76-.53-1.23,0-2.9.05-.75.14-4.36-2.95,1.22-6.18,1.33-9.7.35-2.34-.66-4.28-1.7-5.8-3.13-1.52-1.43-2.54-3-3.06-4.71-.52-1.71-.68-3.45-.49-5.24.19-1.78.7-3.42,1.55-4.92.84-1.55,2-2.81,3.48-3.8s3.13-1.5,4.96-1.55c3.19-.09,6.37,1.31,9.56,4.22.09-4.03.14-13.02.14-16.16,0-.89.02-2.48.07-4.78.05-2.3.06-4.24.04-5.83-.02-1.59-.13-3.12-.32-4.57-.05-.51.08-.96.39-1.34.3-.37.7-.58,1.19-.63.49-.05.92.08,1.3.39.37.31.59.69.63,1.16M199.61,60.18c-3.23-3.7-6.3-5.51-9.21-5.41-2.34.05-4.17,1.24-5.48,3.59-.61,1.08-.98,2.26-1.12,3.55-.14,1.29-.01,2.53.39,3.73.4,1.2,1.15,2.31,2.25,3.34,1.1,1.03,2.52,1.78,4.25,2.25,3.28.94,6.14.66,8.57-.84.09,0,.16-.02.21-.07.05-1.27.11-3.05.18-5.34.07-2.3.11-3.84.11-4.64l-.14-.14Z"/>
  <path class="cls-2" d="M228.22,37.98c-.8-2.44-1.96-4.23-3.48-5.38-1.52-1.15-3.09-1.66-4.71-1.55-1.62.12-3.08.86-4.39,2.21-1.31,1.36-2.16,3.35-2.53,5.97-.52,3.14-.42,5.58.28,7.31.47,1.12,1.09,2.3,1.86,3.51.77,1.22,1.85,2.77,3.23,4.64,1.38,1.87,2.35,3.23,2.92,4.08,1.83,2.67,3.21,5.2,4.15,7.59.94,2.39,1.22,4.85.84,7.38-.42,2.72-1.88,4.78-4.36,6.18-1.83,1.03-3.56,1.33-5.2.91-1.41-.38-2.65-1.27-3.73-2.67-1.5-1.97-2.53-4.71-3.09-8.22-.05-.47.07-.9.35-1.3.28-.4.66-.63,1.12-.7.47-.07.9.04,1.3.32.4.28.64.66.74,1.12.47,2.95,1.26,5.18,2.39,6.68.56.75,1.15,1.19,1.76,1.34.75.19,1.64,0,2.67-.56,1.45-.84,2.29-2.06,2.53-3.65.28-1.87.04-3.81-.74-5.8-.77-1.99-1.98-4.21-3.62-6.64-.42-.61-1.36-1.9-2.81-3.87-1.45-1.97-2.61-3.64-3.48-5.03-.87-1.38-1.56-2.73-2.07-4.04-.94-2.29-1.12-5.34-.56-9.14.51-3.28,1.71-5.92,3.59-7.91,1.87-1.99,4.08-3.08,6.61-3.27,2.48-.19,4.81.55,6.99,2.21,2.18,1.66,3.78,4.04,4.82,7.14.14.47.11.91-.11,1.33s-.55.71-1.02.88c-.47.17-.91.14-1.34-.07-.42-.21-.73-.55-.91-1.02"/>
</svg>