<?xml version="1.0" encoding="UTF-8"?>
<svg id="Layer_1" xmlns="http://www.w3.org/2000/svg" version="1.1" viewBox="0 0 49 33">
  <!-- Generator: Adobe Illustrator 29.6.1, SVG Export Plug-In . SVG Version: 2.1.1 Build 9)  -->
  <defs>
    <style>
      .st0 {
        fill: none;
      }

      .st1 {
        fill: #333;
      }
    </style>
  </defs>
  <rect id="_長方形_209" data-name="長方形_209" class="st0" width="49" height="33"/>
  <path class="st1" d="M43.9,7.4c-.5-1.7-1.8-3.1-3.6-3.6-3.2-.8-15.9-.8-15.9-.8,0,0-12.5,0-15.7.8-1.8.5-3.3,1.8-3.9,3.6-.9,3.2-.8,9.7-.8,9.7,0,0,0,6.6.8,9.7.6,1.8,2.1,3.2,3.9,3.6,3.2.9,15.7.8,15.7.8,0,0,12.5,0,15.7-.8,1.8-.5,3.3-1.8,3.9-3.6.9-3.1.9-9.7.9-9.7,0,0,0-6.6-.9-9.7ZM20.5,23.4v-12.5l10.2,6.3-10.2,6.3Z"/>
</svg>