<?xml version="1.0" encoding="UTF-8"?>
<svg id="Layer_1" xmlns="http://www.w3.org/2000/svg" version="1.1" viewBox="0 0 49 33">
  <!-- Generator: Adobe Illustrator 29.6.1, SVG Export Plug-In . SVG Version: 2.1.1 Build 9)  -->
  <defs>
    <style>
      .st0 {
        fill: none;
      }

      .st1 {
        fill: #333;
      }
    </style>
  </defs>
  <rect id="_長方形_208" data-name="長方形_208" class="st0" width="49" height="33"/>
  <g id="icon_insta">
    <path id="_パス_4" data-name="パス_4" class="st1" d="M24.1,3.9c4,0,4.5,0,6.1,0,1,0,1.9.2,2.8.5.7.2,1.2.6,1.7,1.1.5.5.9,1.1,1.1,1.7.3.9.5,1.8.5,2.8,0,1.6,0,2.1,0,6.1s0,4.5,0,6.1c0,1-.2,1.9-.5,2.8-.2.7-.6,1.2-1.1,1.7-.5.5-1.1.9-1.7,1.1-.9.3-1.8.5-2.8.5-1.6,0-2.1,0-6.1,0s-4.5,0-6.1,0c-1,0-1.9-.2-2.8-.5-.7-.2-1.2-.6-1.7-1.1-.5-.5-.9-1.1-1.1-1.7-.3-.9-.5-1.8-.5-2.8,0-1.6,0-2.1,0-6.1s0-4.5,0-6.1c0-1,.2-1.9.5-2.8.2-.7.6-1.2,1.1-1.7.5-.5,1.1-.9,1.7-1.1.9-.3,1.8-.5,2.8-.5,1.6,0,2.1,0,6.1,0M24.1,1.2c-4.1,0-4.6,0-6.2,0-1.2,0-2.5.3-3.7.7-1,.4-1.9,1-2.7,1.7-.8.7-1.4,1.7-1.7,2.7-.4,1.2-.7,2.4-.7,3.6,0,1.6,0,2.1,0,6.2s0,4.6,0,6.2c0,1.2.3,2.5.7,3.6.4,1,1,1.9,1.7,2.7.8.8,1.7,1.4,2.7,1.7,1.2.4,2.4.7,3.7.7,1.6,0,2.1,0,6.2,0s4.6,0,6.2,0c1.3,0,2.5-.3,3.7-.7,1-.4,1.9-1,2.7-1.7.8-.7,1.4-1.7,1.7-2.7.4-1.2.7-2.4.7-3.6,0-1.6,0-2.1,0-6.2s0-4.6,0-6.2c0-1.2-.3-2.5-.7-3.6-.4-1-1-1.9-1.7-2.7-.8-.8-1.7-1.4-2.7-1.7-1.2-.4-2.4-.7-3.7-.7-1.6,0-2.1,0-6.2,0h0Z"/>
    <path id="_パス_5" data-name="パス_5" class="st1" d="M24.1,8.7c-4.1,0-7.5,3.3-7.5,7.5h0c0,4.2,3.4,7.5,7.5,7.5h0c4.1,0,7.5-3.3,7.5-7.5h0c0-4.2-3.4-7.5-7.5-7.5h0ZM24.1,21.1c-2.7,0-4.9-2.2-4.9-4.9,0-2.7,2.2-4.9,4.9-4.9h0c2.7,0,4.9,2.2,4.9,4.9h0c0,2.7-2.2,4.9-4.9,4.9h0Z"/>
    <ellipse id="_楕円形_1" data-name="楕円形_1" class="st1" cx="32.1" cy="8.2" rx="1.9" ry="1.9"/>
  </g>
</svg>