<?xml version="1.0" encoding="UTF-8"?>
<svg id="Layer_1" data-name="Layer 1" xmlns="http://www.w3.org/2000/svg" viewBox="0 0 49 33">
  <defs>
    <style>
      .cls-1 {
        fill: none;
      }

      .cls-2 {
        fill: #fff;
      }
    </style>
  </defs>
  <rect class="cls-1" width="49" height="33"/>
  <g>
    <path class="cls-2" d="M24.5,3.52c7.17,0,13,5.83,13,13s-5.83,13-13,13-13-5.84-13-13S17.33,3.52,24.5,3.52M24.5,1.6c-8.24,0-14.92,6.68-14.92,14.92s6.68,14.92,14.92,14.92,14.92-6.68,14.92-14.92S32.74,1.6,24.5,1.6h0Z"/>
    <g>
      <path class="cls-2" d="M22.59,11.02c-.67,0-1.21.54-1.21,1.21v5.8c0,.79-.1,1.36-.28,1.72-.29.65-.91.96-1.88.96s-1.6-.32-1.88-.96c-.19-.36-.28-.93-.28-1.72v-5.8c0-.33-.13-.64-.35-.86-.22-.22-.52-.35-.86-.35-.67,0-1.21.54-1.21,1.21v5.81c0,1.22.19,2.16.57,2.84.7,1.24,2.04,1.86,4.02,1.86s3.31-.61,4.02-1.86c.38-.68.56-1.62.56-2.84v-5.81h0c0-.67-.54-1.21-1.21-1.21h-.01Z"/>
      <path class="cls-2" d="M33.34,11.89c-.68-.59-1.6-.89-2.74-.89h-3.77c-.66,0-1.21.54-1.21,1.2v9.18c0,.66.54,1.2,1.21,1.2s1.2-.54,1.2-1.2v-1.76c0-.66.54-1.2,1.2-1.2h1.21c1.26,0,2.22-.28,2.91-.85.67-.57,1.02-1.53,1.02-2.91,0-1.25-.34-2.18-1.02-2.77h0ZM31.5,16.01c-.31.27-.73.42-1.29.42h-.98c-.66,0-1.2-.54-1.2-1.2v-1.01c0-.66.54-1.2,1.2-1.2h.98c.55,0,.98.13,1.29.39.31.26.46.69.46,1.29s-.15,1.04-.46,1.32h0Z"/>
    </g>
  </g>
</svg>