<?xml version="1.0" encoding="UTF-8"?>
<svg id="Layer_1" xmlns="http://www.w3.org/2000/svg" version="1.1" viewBox="0 0 49 33">
  <!-- Generator: Adobe Illustrator 29.0.0, SVG Export Plug-In . SVG Version: 2.1.0 Build 186)  -->
  <defs>
    <style>
      .st0 {
        fill: none;
      }

      .st1 {
        fill: #fff;
      }
    </style>
  </defs>
  <rect class="st0" x="-.5" y=".1" width="49" height="33"/>
  <g>
    <path class="st1" d="M24,3.6c7.2,0,13,5.8,13,13s-5.8,13-13,13-13-5.8-13-13S16.9,3.6,24,3.6M24,1.7c-8.2,0-14.9,6.7-14.9,14.9s6.7,14.9,14.9,14.9,14.9-6.7,14.9-14.9S32.3,1.7,24,1.7h0Z"/>
    <g>
      <path class="st1" d="M22.1,11.1c-.7,0-1.2.5-1.2,1.2v5.8c0,.8-.1,1.4-.3,1.7-.3.6-.9,1-1.9,1s-1.6-.3-1.9-1c-.2-.4-.3-.9-.3-1.7v-5.8c0-.3-.1-.6-.4-.9-.2-.2-.5-.4-.9-.4-.7,0-1.2.5-1.2,1.2v5.8c0,1.2.2,2.2.6,2.8.7,1.2,2,1.9,4,1.9s3.3-.6,4-1.9c.4-.7.6-1.6.6-2.8v-5.8h0c0-.7-.5-1.2-1.2-1.2h0Z"/>
      <path class="st1" d="M32.9,12c-.7-.6-1.6-.9-2.7-.9h-3.8c-.7,0-1.2.5-1.2,1.2v9.2c0,.7.5,1.2,1.2,1.2s1.2-.5,1.2-1.2v-1.8c0-.7.5-1.2,1.2-1.2h1.2c1.3,0,2.2-.3,2.9-.9.7-.6,1-1.5,1-2.9s-.3-2.2-1-2.8h0ZM31,16.1c-.3.3-.7.4-1.3.4h-1c-.7,0-1.2-.5-1.2-1.2v-1c0-.7.5-1.2,1.2-1.2h1c.5,0,1,.1,1.3.4.3.3.5.7.5,1.3s-.1,1-.5,1.3h0Z"/>
    </g>
  </g>
</svg>